0
SECTION
2
HEADER
999
*** POWERPCB  HEADER ***
9
$EXTMIN
10
-0.05
20
-0.05
9
$EXTMAX
10
38.05
20
57.437
9
$FILLMODE
70
0
9
$GRIDMODE
70
1
9
$GRIDUNIT
10
1
20
1
9
$INSBASE
10
26.036
20
11.673
9
$LIMCHECK
70
0
9
$PLINEWID
40
0.01
9
$SNAPMODE
70
1
9
$SNAPUNIT
10
0.1
20
0.1
9
$TEXTSIZE
40
2.54
9
$TEXTSTYLE
7
W0$254
9
$USERI1
70
101
9
$USERI2
70
0
9
$USERI5
70
150
9
$VIEWCTR
10
19
20
28
0
ENDSEC
0
SECTION
2
TABLES
999
*** POWERPCB  LTYPE ***
0
TABLE
2
LTYPE
70
1
0
LTYPE
2
CONTINUOUS
70
64
3
---
72
65
73
0
40
0
0
LTYPE
2
KEEPOUT_00001000$0
70
64
3
---
72
65
73
2
40
2
49
1
49
1
0
ENDTAB
999
*** POWERPCB  LAYER ***
0
TABLE
2
LAYER
70
39
0
LAYER
2
DBLAYERS
70
1
62
-254
6
CONTINUOUS
0
LAYER
2
BOARD_OUTLINE_00
70
0
62
254
6
CONTINUOUS
0
LAYER
2
LABEL_INFO
70
1
62
-254
6
CONTINUOUS
0
LAYER
2
LABEL_ATTRIBUTE
70
1
62
-254
6
CONTINUOUS
0
LAYER
2
PART_TYPE_01
70
1
62
-250
6
CONTINUOUS
0
LAYER
2
PART_NAME_01
70
0
62
254
6
CONTINUOUS
0
LAYER
2
ATTRIBUTE_01
70
0
62
5
6
CONTINUOUS
0
LAYER
2
PART_INFO
70
1
62
-254
6
CONTINUOUS
0
LAYER
2
PART_PTS
70
1
62
-254
6
CONTINUOUS
0
LAYER
2
PART_NAME_TOP
70
1
62
-250
6
CONTINUOUS
0
LAYER
2
PART_TYPE_TOP
70
1
62
-250
6
CONTINUOUS
0
LAYER
2
SYM_NAME
70
1
62
-254
6
CONTINUOUS
0
LAYER
2
SYM_PART_TYPE_01
70
1
62
-254
6
CONTINUOUS
0
LAYER
2
SYM_PART_NAME_01
70
1
62
-254
6
CONTINUOUS
0
LAYER
2
SYM_ATTRIBUTE_01
70
1
62
-254
6
CONTINUOUS
0
LAYER
2
SYM_TERMINAL
70
1
62
-254
6
CONTINUOUS
0
LAYER
2
PKG_INFO
70
1
62
-254
6
CONTINUOUS
0
LAYER
2
PART_TOP_2DLINE_00
70
0
62
254
6
CONTINUOUS
0
LAYER
2
PART_TOP_2DLINE_20
70
1
62
-6
6
CONTINUOUS
0
LAYER
2
DRIL_PLTE_THRU_01
70
0
62
176
6
CONTINUOUS
0
LAYER
2
DRIL_PLTE_THRU_02
70
0
62
136
6
CONTINUOUS
0
LAYER
2
DRIL_PLTE_THRU_03
70
0
62
255
6
CONTINUOUS
0
LAYER
2
DRIL_PLTE_THRU_04
70
0
62
16
6
CONTINUOUS
0
LAYER
2
PADS_INNER
70
0
62
5
6
CONTINUOUS
0
LAYER
2
PADS_BOT
70
0
62
1
6
CONTINUOUS
0
LAYER
2
PADS_TOP
70
0
62
5
6
CONTINUOUS
0
LAYER
2
PART_TOP_2DLINE_01
70
0
62
254
6
CONTINUOUS
0
LAYER
2
KEEPOUT_01
70
0
62
130
6
CONTINUOUS
0
LAYER
2
PART_TOP_2DLINE_26
70
0
62
254
6
CONTINUOUS
0
LAYER
2
DRIL_NPLTE_THRU_01
70
0
62
176
6
CONTINUOUS
0
LAYER
2
DRIL_NPLTE_THRU_02
70
0
62
136
6
CONTINUOUS
0
LAYER
2
DRIL_NPLTE_THRU_03
70
0
62
255
6
CONTINUOUS
0
LAYER
2
DRIL_NPLTE_THRU_04
70
0
62
16
6
CONTINUOUS
0
LAYER
2
PADS_XR_21
70
0
62
176
6
CONTINUOUS
0
LAYER
2
PADS_XR_23
70
0
62
183
6
CONTINUOUS
0
LAYER
2
PART_TOP_2DLINE_27
70
0
62
43
6
CONTINUOUS
0
LAYER
2
PART_TOP_COPPER_26
70
0
62
254
6
CONTINUOUS
0
LAYER
2
PCB_PARAMS
70
1
62
-254
6
CONTINUOUS
0
LAYER
2
DRIL_SYMBOL
70
0
62
254
6
CONTINUOUS
0
ENDTAB
999
*** POWERPCB  TEXT STYLE ***
0
TABLE
2
STYLE
70
11
0
STYLE
2
W0$1778
70
64
40
0
41
0.75
42
0
50
0
71
0
3
simplex
0
STYLE
2
W0$1
70
64
40
0
41
0.75
42
0
50
0
71
0
3
simplex
0
STYLE
2
W0$127
70
64
40
0
41
0.75
42
0
50
0
71
0
3
simplex
0
STYLE
2
W0$254
70
64
40
0
41
0.75
42
0
50
0
71
0
3
simplex
0
STYLE
2
W0$01
70
64
40
0
41
0.75
42
0
50
0
71
0
3
simplex
0
STYLE
2
W0$1778R0
70
64
40
0
41
0.75
42
0
50
0
71
0
3
simplex
0
STYLE
2
W0$127R0
70
64
40
0
41
0.75
42
0
50
0
71
0
3
simplex
0
STYLE
2
W0$1R0
70
64
40
0
41
0.75
42
0
50
0
71
0
3
simplex
0
STYLE
2
W0$1R1
70
64
40
0
41
0.75
42
0
50
0
71
0
3
simplex
0
STYLE
2
W0$254R0
70
64
40
0
41
0.75
42
0
50
0
71
0
3
simplex
0
STYLE
2
W0$01R0
70
64
40
0
41
0.75
42
0
50
0
71
0
3
simplex
0
ENDTAB
0
ENDSEC
0
SECTION
2
BLOCKS
999
*** POWERPCB  DBLAYER ***
0
BLOCK
2
DBLAYERS
8
0
10
0
20
0
3
DBLAYERS
70
64
0
TEXT
8
DBLAYERS
10
0
20
-3.048
40
1.778
1
__It__Is__Job__Name__:=BG96_Module_REV0.1_191216.pcb
999
 *  1.Number             2.Type                  3.RouteColor
999
 *  4.ViaColor           5.PadColor              6.CopperColor
999
 *  7.2DLineColor        8.TextColor             9.ErrorColor
999
 * 10.TopComponentColor 11.BottomComponentColor 12.RoutingDirection
999
 * 13.LayerThickness    14.CopperThickness      15.Dielectric
999
 * 16.IsRouteable       17.IsVisible            18.IsSelectable
999
 * 19.IsPrepreg         20.AssSilkScreen        21.AssPasteMask
999
 * 22.AssSolderMask     23.AssAssembly
0
TEXT
8
DBLAYERS
10
0
20
-6.096
40
1.778
1
Top:=1 1 9 8 9 25 14 9 15 8 0 0 381000 51435 4.3000001907 1 1 1 0 26 23 21 27 0 0 1 8 0 9 27 
0
ENDBLK
999
*** POWERPCB  BOARD ***
0
BLOCK
2
BOARD_27
8
0
10
0
20
0
3
BOARD_27
70
64
0
POLYLINE
8
BOARD_OUTLINE_00
66
1
40
0.1
41
0.1
70
1
0
VERTEX
8
BOARD_OUTLINE_00
10
-1
20
1
42
0.4142135624
0
VERTEX
8
BOARD_OUTLINE_00
10
0
20
0
0
VERTEX
8
BOARD_OUTLINE_00
10
24
20
0
42
0.4142135624
0
VERTEX
8
BOARD_OUTLINE_00
10
25
20
1
0
VERTEX
8
BOARD_OUTLINE_00
10
25
20
16
0
VERTEX
8
BOARD_OUTLINE_00
10
30
20
16
42
0.4142135624
0
VERTEX
8
BOARD_OUTLINE_00
10
31
20
17
0
VERTEX
8
BOARD_OUTLINE_00
10
31
20
55
42
0.4142135624
0
VERTEX
8
BOARD_OUTLINE_00
10
30
20
56
0
VERTEX
8
BOARD_OUTLINE_00
10
-6
20
56
42
0.4142135624
0
VERTEX
8
BOARD_OUTLINE_00
10
-7
20
55
0
VERTEX
8
BOARD_OUTLINE_00
10
-7
20
17
42
0.4142135624
0
VERTEX
8
BOARD_OUTLINE_00
10
-6
20
16
0
VERTEX
8
BOARD_OUTLINE_00
10
-1
20
16
0
SEQEND
0
INSERT
2
SMOOTH_0$1
8
BOARD_OUTLINE_00
10
-1
20
1
0
INSERT
2
SMOOTH_0$1
8
BOARD_OUTLINE_00
10
0
20
0
0
ENDBLK
999
*** POWERPCB  2DLINE ***
999
*** POWERPCB  COMPONENT ***
0
BLOCK
2
PART_TOP_0
8
0
10
0
20
0
3
PART_TOP_0
70
64
0
INSERT
2
SYM_TOP_2
8
0
10
0
20
0
0
INSERT
2
PKG_0
8
0
10
0
20
0
0
TEXT
8
LABEL_INFO
10
-0.1
20
1.7
40
0.9779
1
0 0 1 1 0 1
72
1
73
1
11
-0.1
21
1.7
41
0.75
7
W0$1778
0
TEXT
8
LABEL_ATTRIBUTE
10
-0.1
20
1.7
40
0.9779
1
PartType
72
1
73
1
11
-0.1
21
1.7
41
0.75
7
W0$1778
0
TEXT
8
PART_TYPE_01
10
-0.1
20
1.7
40
0.9779
1
C_1608
72
1
73
2
11
-0.1
21
1.7
41
0.75
7
W0$1778
0
TEXT
8
LABEL_INFO
10
-0.05
20
1.1
40
0.56
1
0 324000000 1 1 0 1
72
1
73
1
11
-0.05
21
1.1
50
180
41
0.75
7
W0$1
0
TEXT
8
LABEL_ATTRIBUTE
10
-0.05
20
1.1
40
0.56
1
Ref.Des.
72
1
73
1
11
-0.05
21
1.1
50
180
41
0.75
7
W0$1
0
TEXT
8
PART_NAME_01
10
-0.05
20
1.1
40
0.56
1
C1
72
1
73
2
11
-0.05
21
1.1
50
180
41
0.75
7
W0$1
0
TEXT
8
LABEL_INFO
10
-0.15
20
1.5
40
0.56
1
0 0 1 1 0 1
72
1
73
1
11
-0.15
21
1.5
41
0.75
7
W0$1
0
TEXT
8
LABEL_ATTRIBUTE
10
-0.15
20
1.5
40
0.56
1
Value
72
1
73
1
11
-0.15
21
1.5
41
0.75
7
W0$1
0
TEXT
8
ATTRIBUTE_01
10
-0.15
20
1.5
40
0.56
1
 
72
1
73
2
11
-0.15
21
1.5
41
0.75
7
W0$1
0
TEXT
8
PART_INFO
10
-0.15
20
0.7
40
0.56
1
000000
72
1
73
2
11
-0.15
21
0.7
41
0.75
7
W0$1
0
TEXT
8
PART_PTS
10
-0.15
20
-0.1
40
0.56
1
1 2 
72
1
73
2
11
-0.15
21
-0.1
41
0.75
7
W0$1
0
ENDBLK
0
BLOCK
2
PART_TOP_1
8
0
10
0
20
0
3
PART_TOP_1
70
64
0
INSERT
2
SYM_TOP_3
8
0
10
0
20
0
0
INSERT
2
PKG_1
8
0
10
0
20
0
0
TEXT
8
LABEL_INFO
10
-1.124
20
1.652
40
0.7
1
0 0 0 0 0 1
41
0.75
7
W0$1
0
TEXT
8
LABEL_ATTRIBUTE
10
-1.124
20
1.652
40
0.7
1
PartType
41
0.75
7
W0$1
0
TEXT
8
PART_TYPE_01
10
-1.124
20
1.652
40
0.7
1
C_1005
41
0.75
7
W0$1
0
TEXT
8
LABEL_INFO
10
0.4999993333
20
1.2
40
0.56
1
0 324000000 0 0 0 1
50
180
41
0.75
7
W0$1
0
TEXT
8
LABEL_ATTRIBUTE
10
0.4999993333
20
1.2
40
0.56
1
Ref.Des.
50
180
41
0.75
7
W0$1
0
TEXT
8
PART_NAME_01
10
0.4999993333
20
1.2
40
0.56
1
C10
50
180
41
0.75
7
W0$1
0
TEXT
8
PART_INFO
10
0.4999993333
20
0.4
40
0.56
1
000000
50
180
41
0.75
7
W0$1
0
TEXT
8
PART_PTS
10
0.4999993333
20
-0.4
40
0.56
1
1 2 
50
180
41
0.75
7
W0$1
0
ENDBLK
0
BLOCK
2
PART_TOP_2
8
0
10
0
20
0
3
PART_TOP_2
70
64
0
INSERT
2
SYM_TOP_2
8
0
10
0
20
0
0
INSERT
2
PKG_0
8
0
10
0
20
0
0
TEXT
8
LABEL_INFO
10
-0.1
20
1.7
40
0.9779
1
0 0 1 1 0 1
72
1
73
1
11
-0.1
21
1.7
41
0.75
7
W0$1778
0
TEXT
8
LABEL_ATTRIBUTE
10
-0.1
20
1.7
40
0.9779
1
PartType
72
1
73
1
11
-0.1
21
1.7
41
0.75
7
W0$1778
0
TEXT
8
PART_TYPE_01
10
-0.1
20
1.7
40
0.9779
1
C_1608
72
1
73
2
11
-0.1
21
1.7
41
0.75
7
W0$1778
0
TEXT
8
LABEL_INFO
10
-0.65
20
-1
40
0.56
1
0 0 1 1 0 1
72
1
73
1
11
-0.65
21
-1
41
0.75
7
W0$1
0
TEXT
8
LABEL_ATTRIBUTE
10
-0.65
20
-1
40
0.56
1
Ref.Des.
72
1
73
1
11
-0.65
21
-1
41
0.75
7
W0$1
0
TEXT
8
PART_NAME_01
10
-0.65
20
-1
40
0.56
1
C11
72
1
73
2
11
-0.65
21
-1
41
0.75
7
W0$1
0
TEXT
8
LABEL_INFO
10
-0.15
20
1.5
40
0.56
1
0 0 1 1 0 1
72
1
73
1
11
-0.15
21
1.5
41
0.75
7
W0$1
0
TEXT
8
LABEL_ATTRIBUTE
10
-0.15
20
1.5
40
0.56
1
Value
72
1
73
1
11
-0.15
21
1.5
41
0.75
7
W0$1
0
TEXT
8
ATTRIBUTE_01
10
-0.15
20
1.5
40
0.56
1
 
72
1
73
2
11
-0.15
21
1.5
41
0.75
7
W0$1
0
TEXT
8
PART_INFO
10
-0.15
20
0.7
40
0.56
1
000000
72
1
73
2
11
-0.15
21
0.7
41
0.75
7
W0$1
0
TEXT
8
PART_PTS
10
-0.15
20
-0.1
40
0.56
1
1 2 
72
1
73
2
11
-0.15
21
-0.1
41
0.75
7
W0$1
0
ENDBLK
0
BLOCK
2
PART_TOP_3
8
0
10
0
20
0
3
PART_TOP_3
70
64
0
INSERT
2
SYM_TOP_2
8
0
10
0
20
0
0
INSERT
2
PKG_0
8
0
10
0
20
0
0
TEXT
8
LABEL_INFO
10
-0.1
20
1.7
40
0.9779
1
0 0 1 1 0 1
72
1
73
1
11
-0.1
21
1.7
41
0.75
7
W0$1778
0
TEXT
8
LABEL_ATTRIBUTE
10
-0.1
20
1.7
40
0.9779
1
PartType
72
1
73
1
11
-0.1
21
1.7
41
0.75
7
W0$1778
0
TEXT
8
PART_TYPE_01
10
-0.1
20
1.7
40
0.9779
1
C_1608
72
1
73
2
11
-0.1
21
1.7
41
0.75
7
W0$1778
0
TEXT
8
LABEL_INFO
10
0.95
20
-2.1
40
0.56
1
0 324000000 1 1 0 1
72
1
73
1
11
0.95
21
-2.1
50
180
41
0.75
7
W0$1
0
TEXT
8
LABEL_ATTRIBUTE
10
0.95
20
-2.1
40
0.56
1
Ref.Des.
72
1
73
1
11
0.95
21
-2.1
50
180
41
0.75
7
W0$1
0
TEXT
8
PART_NAME_01
10
0.95
20
-2.1
40
0.56
1
C12
72
1
73
2
11
0.95
21
-2.1
50
180
41
0.75
7
W0$1
0
TEXT
8
LABEL_INFO
10
-0.15
20
1.5
40
0.56
1
0 0 1 1 0 1
72
1
73
1
11
-0.15
21
1.5
41
0.75
7
W0$1
0
TEXT
8
LABEL_ATTRIBUTE
10
-0.15
20
1.5
40
0.56
1
Value
72
1
73
1
11
-0.15
21
1.5
41
0.75
7
W0$1
0
TEXT
8
ATTRIBUTE_01
10
-0.15
20
1.5
40
0.56
1
 
72
1
73
2
11
-0.15
21
1.5
41
0.75
7
W0$1
0
TEXT
8
PART_INFO
10
-0.15
20
0.7
40
0.56
1
000000
72
1
73
2
11
-0.15
21
0.7
41
0.75
7
W0$1
0
TEXT
8
PART_PTS
10
-0.15
20
-0.1
40
0.56
1
1 2 
72
1
73
2
11
-0.15
21
-0.1
41
0.75
7
W0$1
0
ENDBLK
0
BLOCK
2
PART_TOP_4
8
0
10
0
20
0
3
PART_TOP_4
70
64
0
INSERT
2
SYM_TOP_3
8
0
10
0
20
0
0
INSERT
2
PKG_1
8
0
10
0
20
0
0
TEXT
8
LABEL_INFO
10
-1.124
20
1.652
40
0.7
1
0 0 0 0 0 1
41
0.75
7
W0$1
0
TEXT
8
LABEL_ATTRIBUTE
10
-1.124
20
1.652
40
0.7
1
PartType
41
0.75
7
W0$1
0
TEXT
8
PART_TYPE_01
10
-1.124
20
1.652
40
0.7
1
C_1005
41
0.75
7
W0$1
0
TEXT
8
LABEL_INFO
10
0.4
20
-0.7
40
0.56
1
0 324000000 0 0 0 1
50
180
41
0.75
7
W0$1
0
TEXT
8
LABEL_ATTRIBUTE
10
0.4
20
-0.7
40
0.56
1
Ref.Des.
50
180
41
0.75
7
W0$1
0
TEXT
8
PART_NAME_01
10
0.4
20
-0.7
40
0.56
1
C13
50
180
41
0.75
7
W0$1
0
TEXT
8
PART_INFO
10
0.4
20
-1.5
40
0.56
1
000000
50
180
41
0.75
7
W0$1
0
TEXT
8
PART_PTS
10
0.4
20
-2.3
40
0.56
1
1 2 
50
180
41
0.75
7
W0$1
0
ENDBLK
0
BLOCK
2
PART_TOP_6
8
0
10
0
20
0
3
PART_TOP_6
70
64
0
INSERT
2
SYM_TOP_4
8
0
10
0
20
0
0
INSERT
2
PKG_2
8
0
10
0
20
0
0
TEXT
8
LABEL_INFO
10
0.45
20
-1.9
40
0.56
1
1 486000000 1 1 0 1
72
1
73
1
11
0.45
21
-1.9
50
270
41
0.75
7
W0$1
0
TEXT
8
LABEL_ATTRIBUTE
10
0.45
20
-1.9
40
0.56
1
Ref.Des.
72
1
73
1
11
0.45
21
-1.9
50
270
41
0.75
7
W0$1
0
TEXT
8
PART_NAME_01
10
0.45
20
-1.9
40
0.56
1
C15
72
1
73
2
11
0.45
21
-1.9
50
-90
41
0.75
7
W0$1
0
TEXT
8
LABEL_INFO
10
0
20
1.8
40
0.7
1
1 0 1 1 0 1
72
1
73
1
11
0
21
1.8
41
0.75
7
W0$1
0
TEXT
8
LABEL_ATTRIBUTE
10
0
20
1.8
40
0.7
1
PartType
72
1
73
1
11
0
21
1.8
41
0.75
7
W0$1
0
TEXT
8
PART_TYPE_01
10
0
20
1.8
40
0.7
1
C_3216
72
1
73
2
11
0
21
1.8
41
0.75
7
W0$1
0
TEXT
8
PART_INFO
10
0
20
0.8
40
0.7
1
000000
72
1
73
2
11
0
21
0.8
41
0.75
7
W0$1
0
TEXT
8
PART_PTS
10
0
20
-0.2
40
0.7
1
1 2 
72
1
73
2
11
0
21
-0.2
41
0.75
7
W0$1
0
ENDBLK
0
BLOCK
2
PART_TOP_7
8
0
10
0
20
0
3
PART_TOP_7
70
64
0
INSERT
2
SYM_TOP_2
8
0
10
0
20
0
0
INSERT
2
PKG_0
8
0
10
0
20
0
0
TEXT
8
LABEL_INFO
10
-0.1
20
1.7
40
0.9779
1
0 0 1 1 0 1
72
1
73
1
11
-0.1
21
1.7
41
0.75
7
W0$1778
0
TEXT
8
LABEL_ATTRIBUTE
10
-0.1
20
1.7
40
0.9779
1
PartType
72
1
73
1
11
-0.1
21
1.7
41
0.75
7
W0$1778
0
TEXT
8
PART_TYPE_01
10
-0.1
20
1.7
40
0.9779
1
C_1608
72
1
73
2
11
-0.1
21
1.7
41
0.75
7
W0$1778
0
TEXT
8
LABEL_INFO
10
-1.95
20
-0.3
40
0.56
1
0 324000000 1 1 0 1
72
1
73
1
11
-1.95
21
-0.3
50
180
41
0.75
7
W0$1
0
TEXT
8
LABEL_ATTRIBUTE
10
-1.95
20
-0.3
40
0.56
1
Ref.Des.
72
1
73
1
11
-1.95
21
-0.3
50
180
41
0.75
7
W0$1
0
TEXT
8
PART_NAME_01
10
-1.95
20
-0.3
40
0.56
1
C16
72
1
73
2
11
-1.95
21
-0.3
50
180
41
0.75
7
W0$1
0
TEXT
8
LABEL_INFO
10
-0.15
20
1.5
40
0.56
1
0 0 1 1 0 1
72
1
73
1
11
-0.15
21
1.5
41
0.75
7
W0$1
0
TEXT
8
LABEL_ATTRIBUTE
10
-0.15
20
1.5
40
0.56
1
Value
72
1
73
1
11
-0.15
21
1.5
41
0.75
7
W0$1
0
TEXT
8
ATTRIBUTE_01
10
-0.15
20
1.5
40
0.56
1
 
72
1
73
2
11
-0.15
21
1.5
41
0.75
7
W0$1
0
TEXT
8
PART_INFO
10
-0.15
20
0.7
40
0.56
1
000000
72
1
73
2
11
-0.15
21
0.7
41
0.75
7
W0$1
0
TEXT
8
PART_PTS
10
-0.15
20
-0.1
40
0.56
1
1 2 
72
1
73
2
11
-0.15
21
-0.1
41
0.75
7
W0$1
0
ENDBLK
0
BLOCK
2
PART_TOP_8
8
0
10
0
20
0
3
PART_TOP_8
70
64
0
INSERT
2
SYM_TOP_3
8
0
10
0
20
0
0
INSERT
2
PKG_1
8
0
10
0
20
0
0
TEXT
8
LABEL_INFO
10
-1.124
20
1.652
40
0.7
1
0 0 0 0 0 1
41
0.75
7
W0$1
0
TEXT
8
LABEL_ATTRIBUTE
10
-1.124
20
1.652
40
0.7
1
PartType
41
0.75
7
W0$1
0
TEXT
8
PART_TYPE_01
10
-1.124
20
1.652
40
0.7
1
C_1005
41
0.75
7
W0$1
0
TEXT
8
LABEL_INFO
10
-0.4
20
0.6
40
0.56
1
0 0 0 0 0 1
41
0.75
7
W0$1
0
TEXT
8
LABEL_ATTRIBUTE
10
-0.4
20
0.6
40
0.56
1
Ref.Des.
41
0.75
7
W0$1
0
TEXT
8
PART_NAME_01
10
-0.4
20
0.6
40
0.56
1
C17
41
0.75
7
W0$1
0
TEXT
8
PART_INFO
10
-0.4
20
-0.2
40
0.56
1
000000
41
0.75
7
W0$1
0
TEXT
8
PART_PTS
10
-0.4
20
-1
40
0.56
1
1 2 
41
0.75
7
W0$1
0
ENDBLK
0
BLOCK
2
PART_TOP_9
8
0
10
0
20
0
3
PART_TOP_9
70
64
0
INSERT
2
SYM_TOP_2
8
0
10
0
20
0
0
INSERT
2
PKG_0
8
0
10
0
20
0
0
TEXT
8
LABEL_INFO
10
-0.1
20
1.7
40
0.9779
1
0 0 1 1 0 1
72
1
73
1
11
-0.1
21
1.7
41
0.75
7
W0$1778
0
TEXT
8
LABEL_ATTRIBUTE
10
-0.1
20
1.7
40
0.9779
1
PartType
72
1
73
1
11
-0.1
21
1.7
41
0.75
7
W0$1778
0
TEXT
8
PART_TYPE_01
10
-0.1
20
1.7
40
0.9779
1
C_1608
72
1
73
2
11
-0.1
21
1.7
41
0.75
7
W0$1778
0
TEXT
8
LABEL_INFO
10
-1.85
20
0.0999993333
40
0.56
1
0 162000000 1 1 0 1
72
1
73
1
11
-1.85
21
0.0999993333
50
90
41
0.75
7
W0$1
0
TEXT
8
LABEL_ATTRIBUTE
10
-1.85
20
0.0999993333
40
0.56
1
Ref.Des.
72
1
73
1
11
-1.85
21
0.0999993333
50
90
41
0.75
7
W0$1
0
TEXT
8
PART_NAME_01
10
-1.85
20
0.0999993333
40
0.56
1
C19
72
1
73
2
11
-1.85
21
0.0999993333
50
90
41
0.75
7
W0$1
0
TEXT
8
LABEL_INFO
10
-0.15
20
1.5
40
0.56
1
0 0 1 1 0 1
72
1
73
1
11
-0.15
21
1.5
41
0.75
7
W0$1
0
TEXT
8
LABEL_ATTRIBUTE
10
-0.15
20
1.5
40
0.56
1
Value
72
1
73
1
11
-0.15
21
1.5
41
0.75
7
W0$1
0
TEXT
8
ATTRIBUTE_01
10
-0.15
20
1.5
40
0.56
1
 
72
1
73
2
11
-0.15
21
1.5
41
0.75
7
W0$1
0
TEXT
8
PART_INFO
10
-0.15
20
0.7
40
0.56
1
000000
72
1
73
2
11
-0.15
21
0.7
41
0.75
7
W0$1
0
TEXT
8
PART_PTS
10
-0.15
20
-0.1
40
0.56
1
1 2 
72
1
73
2
11
-0.15
21
-0.1
41
0.75
7
W0$1
0
ENDBLK
0
BLOCK
2
PART_TOP_10
8
0
10
0
20
0
3
PART_TOP_10
70
64
0
INSERT
2
SYM_TOP_3
8
0
10
0
20
0
0
INSERT
2
PKG_1
8
0
10
0
20
0
0
TEXT
8
LABEL_INFO
10
-1.124
20
1.652
40
0.7
1
0 0 0 0 0 1
41
0.75
7
W0$1
0
TEXT
8
LABEL_ATTRIBUTE
10
-1.124
20
1.652
40
0.7
1
PartType
41
0.75
7
W0$1
0
TEXT
8
PART_TYPE_01
10
-1.124
20
1.652
40
0.7
1
C_1005
41
0.75
7
W0$1
0
TEXT
8
LABEL_INFO
10
-0.4
20
-1.2
40
0.56
1
0 0 0 0 0 1
41
0.75
7
W0$1
0
TEXT
8
LABEL_ATTRIBUTE
10
-0.4
20
-1.2
40
0.56
1
Ref.Des.
41
0.75
7
W0$1
0
TEXT
8
PART_NAME_01
10
-0.4
20
-1.2
40
0.56
1
C2
41
0.75
7
W0$1
0
TEXT
8
PART_INFO
10
-0.4
20
-2
40
0.56
1
000000
41
0.75
7
W0$1
0
TEXT
8
PART_PTS
10
-0.4
20
-2.8
40
0.56
1
1 2 
41
0.75
7
W0$1
0
ENDBLK
0
BLOCK
2
PART_TOP_11
8
0
10
0
20
0
3
PART_TOP_11
70
64
0
INSERT
2
SYM_TOP_3
8
0
10
0
20
0
0
INSERT
2
PKG_1
8
0
10
0
20
0
0
TEXT
8
LABEL_INFO
10
-1.124
20
1.652
40
0.7
1
0 0 0 0 0 1
41
0.75
7
W0$1
0
TEXT
8
LABEL_ATTRIBUTE
10
-1.124
20
1.652
40
0.7
1
PartType
41
0.75
7
W0$1
0
TEXT
8
PART_TYPE_01
10
-1.124
20
1.652
40
0.7
1
C_1005
41
0.75
7
W0$1
0
TEXT
8
LABEL_INFO
10
1.1
20
0.5
40
0.56
1
0 486000000 0 0 0 1
50
270
41
0.75
7
W0$1
0
TEXT
8
LABEL_ATTRIBUTE
10
1.1
20
0.5
40
0.56
1
Ref.Des.
50
270
41
0.75
7
W0$1
0
TEXT
8
PART_NAME_01
10
1.1
20
0.5
40
0.56
1
C20
50
270
41
0.75
7
W0$1
0
TEXT
8
PART_INFO
10
1.1
20
-0.3
40
0.56
1
000000
50
270
41
0.75
7
W0$1
0
TEXT
8
PART_PTS
10
1.1
20
-1.1
40
0.56
1
1 2 
50
270
41
0.75
7
W0$1
0
ENDBLK
0
BLOCK
2
PART_TOP_12
8
0
10
0
20
0
3
PART_TOP_12
70
64
0
INSERT
2
SYM_TOP_2
8
0
10
0
20
0
0
INSERT
2
PKG_0
8
0
10
0
20
0
0
TEXT
8
LABEL_INFO
10
-0.1
20
1.7
40
0.9779
1
0 0 1 1 0 1
72
1
73
1
11
-0.1
21
1.7
41
0.75
7
W0$1778
0
TEXT
8
LABEL_ATTRIBUTE
10
-0.1
20
1.7
40
0.9779
1
PartType
72
1
73
1
11
-0.1
21
1.7
41
0.75
7
W0$1778
0
TEXT
8
PART_TYPE_01
10
-0.1
20
1.7
40
0.9779
1
C_1608
72
1
73
2
11
-0.1
21
1.7
41
0.75
7
W0$1778
0
TEXT
8
LABEL_INFO
10
1.95
20
-0.1
40
0.56
1
0 0 1 1 0 1
72
1
73
1
11
1.95
21
-0.1
41
0.75
7
W0$1
0
TEXT
8
LABEL_ATTRIBUTE
10
1.95
20
-0.1
40
0.56
1
Ref.Des.
72
1
73
1
11
1.95
21
-0.1
41
0.75
7
W0$1
0
TEXT
8
PART_NAME_01
10
1.95
20
-0.1
40
0.56
1
C21
72
1
73
2
11
1.95
21
-0.1
41
0.75
7
W0$1
0
TEXT
8
LABEL_INFO
10
-0.15
20
1.5
40
0.56
1
0 0 1 1 0 1
72
1
73
1
11
-0.15
21
1.5
41
0.75
7
W0$1
0
TEXT
8
LABEL_ATTRIBUTE
10
-0.15
20
1.5
40
0.56
1
Value
72
1
73
1
11
-0.15
21
1.5
41
0.75
7
W0$1
0
TEXT
8
ATTRIBUTE_01
10
-0.15
20
1.5
40
0.56
1
 
72
1
73
2
11
-0.15
21
1.5
41
0.75
7
W0$1
0
TEXT
8
PART_INFO
10
-0.15
20
0.7
40
0.56
1
000000
72
1
73
2
11
-0.15
21
0.7
41
0.75
7
W0$1
0
TEXT
8
PART_PTS
10
-0.15
20
-0.1
40
0.56
1
1 2 
72
1
73
2
11
-0.15
21
-0.1
41
0.75
7
W0$1
0
ENDBLK
0
BLOCK
2
PART_TOP_14
8
0
10
0
20
0
3
PART_TOP_14
70
64
0
INSERT
2
SYM_TOP_2
8
0
10
0
20
0
0
INSERT
2
PKG_0
8
0
10
0
20
0
0
TEXT
8
LABEL_INFO
10
-0.1
20
1.7
40
0.9779
1
0 0 1 1 0 1
72
1
73
1
11
-0.1
21
1.7
41
0.75
7
W0$1778
0
TEXT
8
LABEL_ATTRIBUTE
10
-0.1
20
1.7
40
0.9779
1
PartType
72
1
73
1
11
-0.1
21
1.7
41
0.75
7
W0$1778
0
TEXT
8
PART_TYPE_01
10
-0.1
20
1.7
40
0.9779
1
C_1608
72
1
73
2
11
-0.1
21
1.7
41
0.75
7
W0$1778
0
TEXT
8
LABEL_INFO
10
-1.0499993333
20
-1.1
40
0.56
1
0 324000000 1 1 0 1
72
1
73
1
11
-1.0499993333
21
-1.1
50
180
41
0.75
7
W0$1
0
TEXT
8
LABEL_ATTRIBUTE
10
-1.0499993333
20
-1.1
40
0.56
1
Ref.Des.
72
1
73
1
11
-1.0499993333
21
-1.1
50
180
41
0.75
7
W0$1
0
TEXT
8
PART_NAME_01
10
-1.0499993333
20
-1.1
40
0.56
1
C23
72
1
73
2
11
-1.0499993333
21
-1.1
50
180
41
0.75
7
W0$1
0
TEXT
8
LABEL_INFO
10
-0.15
20
1.5
40
0.56
1
0 0 1 1 0 1
72
1
73
1
11
-0.15
21
1.5
41
0.75
7
W0$1
0
TEXT
8
LABEL_ATTRIBUTE
10
-0.15
20
1.5
40
0.56
1
Value
72
1
73
1
11
-0.15
21
1.5
41
0.75
7
W0$1
0
TEXT
8
ATTRIBUTE_01
10
-0.15
20
1.5
40
0.56
1
 
72
1
73
2
11
-0.15
21
1.5
41
0.75
7
W0$1
0
TEXT
8
PART_INFO
10
-0.15
20
0.7
40
0.56
1
000000
72
1
73
2
11
-0.15
21
0.7
41
0.75
7
W0$1
0
TEXT
8
PART_PTS
10
-0.15
20
-0.1
40
0.56
1
1 2 
72
1
73
2
11
-0.15
21
-0.1
41
0.75
7
W0$1
0
ENDBLK
0
BLOCK
2
PART_TOP_15
8
0
10
0
20
0
3
PART_TOP_15
70
64
0
INSERT
2
SYM_TOP_2
8
0
10
0
20
0
0
INSERT
2
PKG_0
8
0
10
0
20
0
0
TEXT
8
LABEL_INFO
10
-0.1
20
1.7
40
0.9779
1
0 0 1 1 0 1
72
1
73
1
11
-0.1
21
1.7
41
0.75
7
W0$1778
0
TEXT
8
LABEL_ATTRIBUTE
10
-0.1
20
1.7
40
0.9779
1
PartType
72
1
73
1
11
-0.1
21
1.7
41
0.75
7
W0$1778
0
TEXT
8
PART_TYPE_01
10
-0.1
20
1.7
40
0.9779
1
C_1608
72
1
73
2
11
-0.1
21
1.7
41
0.75
7
W0$1778
0
TEXT
8
LABEL_INFO
10
2.15
20
0
40
0.56
1
0 0 1 1 0 1
72
1
73
1
11
2.15
21
0
41
0.75
7
W0$1
0
TEXT
8
LABEL_ATTRIBUTE
10
2.15
20
0
40
0.56
1
Ref.Des.
72
1
73
1
11
2.15
21
0
41
0.75
7
W0$1
0
TEXT
8
PART_NAME_01
10
2.15
20
0
40
0.56
1
C24
72
1
73
2
11
2.15
21
0
41
0.75
7
W0$1
0
TEXT
8
LABEL_INFO
10
-0.15
20
1.5
40
0.56
1
0 0 1 1 0 1
72
1
73
1
11
-0.15
21
1.5
41
0.75
7
W0$1
0
TEXT
8
LABEL_ATTRIBUTE
10
-0.15
20
1.5
40
0.56
1
Value
72
1
73
1
11
-0.15
21
1.5
41
0.75
7
W0$1
0
TEXT
8
ATTRIBUTE_01
10
-0.15
20
1.5
40
0.56
1
 
72
1
73
2
11
-0.15
21
1.5
41
0.75
7
W0$1
0
TEXT
8
PART_INFO
10
-0.15
20
0.7
40
0.56
1
000000
72
1
73
2
11
-0.15
21
0.7
41
0.75
7
W0$1
0
TEXT
8
PART_PTS
10
-0.15
20
-0.1
40
0.56
1
1 2 
72
1
73
2
11
-0.15
21
-0.1
41
0.75
7
W0$1
0
ENDBLK
0
BLOCK
2
PART_TOP_18
8
0
10
0
20
0
3
PART_TOP_18
70
64
0
INSERT
2
SYM_TOP_2
8
0
10
0
20
0
0
INSERT
2
PKG_0
8
0
10
0
20
0
0
TEXT
8
LABEL_INFO
10
-0.1
20
1.7
40
0.9779
1
0 0 1 1 0 1
72
1
73
1
11
-0.1
21
1.7
41
0.75
7
W0$1778
0
TEXT
8
LABEL_ATTRIBUTE
10
-0.1
20
1.7
40
0.9779
1
PartType
72
1
73
1
11
-0.1
21
1.7
41
0.75
7
W0$1778
0
TEXT
8
PART_TYPE_01
10
-0.1
20
1.7
40
0.9779
1
C_1608
72
1
73
2
11
-0.1
21
1.7
41
0.75
7
W0$1778
0
TEXT
8
LABEL_INFO
10
2.05
20
0.1
40
0.56
1
0 0 1 1 0 1
72
1
73
1
11
2.05
21
0.1
41
0.75
7
W0$1
0
TEXT
8
LABEL_ATTRIBUTE
10
2.05
20
0.1
40
0.56
1
Ref.Des.
72
1
73
1
11
2.05
21
0.1
41
0.75
7
W0$1
0
TEXT
8
PART_NAME_01
10
2.05
20
0.1
40
0.56
1
C27
72
1
73
2
11
2.05
21
0.1
41
0.75
7
W0$1
0
TEXT
8
LABEL_INFO
10
-0.15
20
1.5
40
0.56
1
0 0 1 1 0 1
72
1
73
1
11
-0.15
21
1.5
41
0.75
7
W0$1
0
TEXT
8
LABEL_ATTRIBUTE
10
-0.15
20
1.5
40
0.56
1
Value
72
1
73
1
11
-0.15
21
1.5
41
0.75
7
W0$1
0
TEXT
8
ATTRIBUTE_01
10
-0.15
20
1.5
40
0.56
1
 
72
1
73
2
11
-0.15
21
1.5
41
0.75
7
W0$1
0
TEXT
8
PART_INFO
10
-0.15
20
0.7
40
0.56
1
000000
72
1
73
2
11
-0.15
21
0.7
41
0.75
7
W0$1
0
TEXT
8
PART_PTS
10
-0.15
20
-0.1
40
0.56
1
1 2 
72
1
73
2
11
-0.15
21
-0.1
41
0.75
7
W0$1
0
ENDBLK
0
BLOCK
2
PART_TOP_21
8
0
10
0
20
0
3
PART_TOP_21
70
64
0
INSERT
2
SYM_TOP_3
8
0
10
0
20
0
0
INSERT
2
PKG_1
8
0
10
0
20
0
0
TEXT
8
LABEL_INFO
10
-1.124
20
1.652
40
0.7
1
0 0 0 0 0 1
41
0.75
7
W0$1
0
TEXT
8
LABEL_ATTRIBUTE
10
-1.124
20
1.652
40
0.7
1
PartType
41
0.75
7
W0$1
0
TEXT
8
PART_TYPE_01
10
-1.124
20
1.652
40
0.7
1
C_1005
41
0.75
7
W0$1
0
TEXT
8
LABEL_INFO
10
0.2999993333
20
1.2
40
0.56
1
0 324000000 0 0 0 1
50
180
41
0.75
7
W0$1
0
TEXT
8
LABEL_ATTRIBUTE
10
0.2999993333
20
1.2
40
0.56
1
Ref.Des.
50
180
41
0.75
7
W0$1
0
TEXT
8
PART_NAME_01
10
0.2999993333
20
1.2
40
0.56
1
C3
50
180
41
0.75
7
W0$1
0
TEXT
8
PART_INFO
10
0.2999993333
20
0.4
40
0.56
1
000000
50
180
41
0.75
7
W0$1
0
TEXT
8
PART_PTS
10
0.2999993333
20
-0.4
40
0.56
1
1 2 
50
180
41
0.75
7
W0$1
0
ENDBLK
0
BLOCK
2
PART_TOP_23
8
0
10
0
20
0
3
PART_TOP_23
70
64
0
INSERT
2
SYM_TOP_3
8
0
10
0
20
0
0
INSERT
2
PKG_1
8
0
10
0
20
0
0
TEXT
8
LABEL_INFO
10
-1.124
20
1.652
40
0.7
1
0 0 0 0 0 1
41
0.75
7
W0$1
0
TEXT
8
LABEL_ATTRIBUTE
10
-1.124
20
1.652
40
0.7
1
PartType
41
0.75
7
W0$1
0
TEXT
8
PART_TYPE_01
10
-1.124
20
1.652
40
0.7
1
C_1005
41
0.75
7
W0$1
0
TEXT
8
LABEL_INFO
10
-0.9
20
0.7
40
0.56
1
0 0 0 0 0 1
41
0.75
7
W0$1
0
TEXT
8
LABEL_ATTRIBUTE
10
-0.9
20
0.7
40
0.56
1
Ref.Des.
41
0.75
7
W0$1
0
TEXT
8
PART_NAME_01
10
-0.9
20
0.7
40
0.56
1
C4
41
0.75
7
W0$1
0
TEXT
8
PART_INFO
10
-0.9
20
-0.1
40
0.56
1
000000
41
0.75
7
W0$1
0
TEXT
8
PART_PTS
10
-0.9
20
-0.9
40
0.56
1
1 2 
41
0.75
7
W0$1
0
ENDBLK
0
BLOCK
2
PART_TOP_24
8
0
10
0
20
0
3
PART_TOP_24
70
64
0
INSERT
2
SYM_TOP_3
8
0
10
0
20
0
0
INSERT
2
PKG_1
8
0
10
0
20
0
0
TEXT
8
LABEL_INFO
10
-1.124
20
1.652
40
0.7
1
0 0 0 0 0 1
41
0.75
7
W0$1
0
TEXT
8
LABEL_ATTRIBUTE
10
-1.124
20
1.652
40
0.7
1
PartType
41
0.75
7
W0$1
0
TEXT
8
PART_TYPE_01
10
-1.124
20
1.652
40
0.7
1
C_1005
41
0.75
7
W0$1
0
TEXT
8
LABEL_INFO
10
-0.2999993333
20
-0.7
40
0.56
1
0 486000000 0 0 0 1
50
270
41
0.75
7
W0$1
0
TEXT
8
LABEL_ATTRIBUTE
10
-0.2999993333
20
-0.7
40
0.56
1
Ref.Des.
50
270
41
0.75
7
W0$1
0
TEXT
8
PART_NAME_01
10
-0.2999993333
20
-0.7
40
0.56
1
C5
50
270
41
0.75
7
W0$1
0
TEXT
8
PART_INFO
10
-0.2999993333
20
-1.5
40
0.56
1
000000
50
270
41
0.75
7
W0$1
0
TEXT
8
PART_PTS
10
-0.2999993333
20
-2.3
40
0.56
1
1 2 
50
270
41
0.75
7
W0$1
0
ENDBLK
0
BLOCK
2
PART_TOP_25
8
0
10
0
20
0
3
PART_TOP_25
70
64
0
INSERT
2
SYM_TOP_3
8
0
10
0
20
0
0
INSERT
2
PKG_1
8
0
10
0
20
0
0
TEXT
8
LABEL_INFO
10
-1.124
20
1.652
40
0.7
1
0 0 0 0 0 1
41
0.75
7
W0$1
0
TEXT
8
LABEL_ATTRIBUTE
10
-1.124
20
1.652
40
0.7
1
PartType
41
0.75
7
W0$1
0
TEXT
8
PART_TYPE_01
10
-1.124
20
1.652
40
0.7
1
C_1005
41
0.75
7
W0$1
0
TEXT
8
LABEL_INFO
10
-0.5
20
-0.6
40
0.56
1
0 486000000 0 0 0 1
50
270
41
0.75
7
W0$1
0
TEXT
8
LABEL_ATTRIBUTE
10
-0.5
20
-0.6
40
0.56
1
Ref.Des.
50
270
41
0.75
7
W0$1
0
TEXT
8
PART_NAME_01
10
-0.5
20
-0.6
40
0.56
1
C6
50
270
41
0.75
7
W0$1
0
TEXT
8
PART_INFO
10
-0.5
20
-1.4
40
0.56
1
000000
50
270
41
0.75
7
W0$1
0
TEXT
8
PART_PTS
10
-0.5
20
-2.2
40
0.56
1
1 2 
50
270
41
0.75
7
W0$1
0
ENDBLK
0
BLOCK
2
PART_TOP_26
8
0
10
0
20
0
3
PART_TOP_26
70
64
0
INSERT
2
SYM_TOP_4
8
0
10
0
20
0
0
INSERT
2
PKG_2
8
0
10
0
20
0
0
TEXT
8
LABEL_INFO
10
0.25
20
-1.6
40
0.56
1
1 162000000 1 1 0 1
72
1
73
1
11
0.25
21
-1.6
50
90
41
0.75
7
W0$1
0
TEXT
8
LABEL_ATTRIBUTE
10
0.25
20
-1.6
40
0.56
1
Ref.Des.
72
1
73
1
11
0.25
21
-1.6
50
90
41
0.75
7
W0$1
0
TEXT
8
PART_NAME_01
10
0.25
20
-1.6
40
0.56
1
C8
72
1
73
2
11
0.25
21
-1.6
50
-90
41
0.75
7
W0$1
0
TEXT
8
LABEL_INFO
10
0
20
1.8
40
0.7
1
1 0 1 1 0 1
72
1
73
1
11
0
21
1.8
41
0.75
7
W0$1
0
TEXT
8
LABEL_ATTRIBUTE
10
0
20
1.8
40
0.7
1
PartType
72
1
73
1
11
0
21
1.8
41
0.75
7
W0$1
0
TEXT
8
PART_TYPE_01
10
0
20
1.8
40
0.7
1
C_3216
72
1
73
2
11
0
21
1.8
41
0.75
7
W0$1
0
TEXT
8
PART_INFO
10
0
20
0.8
40
0.7
1
000000
72
1
73
2
11
0
21
0.8
41
0.75
7
W0$1
0
TEXT
8
PART_PTS
10
0
20
-0.2
40
0.7
1
1 2 
72
1
73
2
11
0
21
-0.2
41
0.75
7
W0$1
0
ENDBLK
0
BLOCK
2
PART_TOP_27
8
0
10
0
20
0
3
PART_TOP_27
70
64
0
INSERT
2
SYM_TOP_2
8
0
10
0
20
0
0
INSERT
2
PKG_0
8
0
10
0
20
0
0
TEXT
8
LABEL_INFO
10
-0.1
20
1.7
40
0.9779
1
0 0 1 1 0 1
72
1
73
1
11
-0.1
21
1.7
41
0.75
7
W0$1778
0
TEXT
8
LABEL_ATTRIBUTE
10
-0.1
20
1.7
40
0.9779
1
PartType
72
1
73
1
11
-0.1
21
1.7
41
0.75
7
W0$1778
0
TEXT
8
PART_TYPE_01
10
-0.1
20
1.7
40
0.9779
1
C_1608
72
1
73
2
11
-0.1
21
1.7
41
0.75
7
W0$1778
0
TEXT
8
LABEL_INFO
10
-1.75
20
0
40
0.56
1
0 162000000 1 1 0 1
72
1
73
1
11
-1.75
21
0
50
90
41
0.75
7
W0$1
0
TEXT
8
LABEL_ATTRIBUTE
10
-1.75
20
0
40
0.56
1
Ref.Des.
72
1
73
1
11
-1.75
21
0
50
90
41
0.75
7
W0$1
0
TEXT
8
PART_NAME_01
10
-1.75
20
0
40
0.56
1
C9
72
1
73
2
11
-1.75
21
0
50
90
41
0.75
7
W0$1
0
TEXT
8
LABEL_INFO
10
-0.15
20
1.5
40
0.56
1
0 0 1 1 0 1
72
1
73
1
11
-0.15
21
1.5
41
0.75
7
W0$1
0
TEXT
8
LABEL_ATTRIBUTE
10
-0.15
20
1.5
40
0.56
1
Value
72
1
73
1
11
-0.15
21
1.5
41
0.75
7
W0$1
0
TEXT
8
ATTRIBUTE_01
10
-0.15
20
1.5
40
0.56
1
 
72
1
73
2
11
-0.15
21
1.5
41
0.75
7
W0$1
0
TEXT
8
PART_INFO
10
-0.15
20
0.7
40
0.56
1
000000
72
1
73
2
11
-0.15
21
0.7
41
0.75
7
W0$1
0
TEXT
8
PART_PTS
10
-0.15
20
-0.1
40
0.56
1
1 2 
72
1
73
2
11
-0.15
21
-0.1
41
0.75
7
W0$1
0
ENDBLK
0
BLOCK
2
PART_TOP_28
8
0
10
0
20
0
3
PART_TOP_28
70
64
0
INSERT
2
SYM_TOP_6
8
0
10
0
20
0
0
INSERT
2
PKG_4
8
0
10
0
20
0
0
TEXT
8
LABEL_INFO
10
-0.4
20
1.8
40
0.56
1
0 0 0 0 0 1
41
0.75
7
W0$1
0
TEXT
8
LABEL_ATTRIBUTE
10
-0.4
20
1.8
40
0.56
1
Ref.Des.
41
0.75
7
W0$1
0
TEXT
8
PART_NAME_01
10
-0.4
20
1.8
40
0.56
1
CON3
41
0.75
7
W0$1
0
TEXT
8
LABEL_INFO
10
-1
20
3
40
0.889
1
0 0 0 2 0 1
73
2
11
-1
21
3
41
0.75
7
W0$127
0
TEXT
8
LABEL_ATTRIBUTE
10
-1
20
3
40
0.889
1
PartType
73
2
11
-1
21
3
41
0.75
7
W0$127
0
TEXT
8
PART_TYPE_01
10
-1
20
3
40
0.889
1
2.54MM_2PIN
73
3
11
-1
21
3
41
0.75
7
W0$127
0
TEXT
8
PART_INFO
10
-1
20
1.73
40
0.889
1
000000
73
3
11
-1
21
1.73
41
0.75
7
W0$127
0
TEXT
8
PART_PTS
10
-1
20
0.46
40
0.889
1
1 2 
73
3
11
-1
21
0.46
41
0.75
7
W0$127
0
ENDBLK
0
BLOCK
2
PART_TOP_29
8
0
10
0
20
0
3
PART_TOP_29
70
64
0
INSERT
2
SYM_TOP_6
8
0
10
0
20
0
0
INSERT
2
PKG_4
8
0
10
0
20
0
0
TEXT
8
LABEL_INFO
10
3.5
20
-0.8999993333
40
0.56
1
0 162000000 0 0 0 1
50
90
41
0.75
7
W0$1
0
TEXT
8
LABEL_ATTRIBUTE
10
3.5
20
-0.8999993333
40
0.56
1
Ref.Des.
50
90
41
0.75
7
W0$1
0
TEXT
8
PART_NAME_01
10
3.5
20
-0.8999993333
40
0.56
1
CON4
50
90
41
0.75
7
W0$1
0
TEXT
8
LABEL_INFO
10
-1
20
3
40
0.889
1
0 0 0 2 0 1
73
2
11
-1
21
3
41
0.75
7
W0$127
0
TEXT
8
LABEL_ATTRIBUTE
10
-1
20
3
40
0.889
1
PartType
73
2
11
-1
21
3
41
0.75
7
W0$127
0
TEXT
8
PART_TYPE_01
10
-1
20
3
40
0.889
1
2.54MM_2PIN
73
3
11
-1
21
3
41
0.75
7
W0$127
0
TEXT
8
PART_INFO
10
-1
20
1.73
40
0.889
1
000000
73
3
11
-1
21
1.73
41
0.75
7
W0$127
0
TEXT
8
PART_PTS
10
-1
20
0.46
40
0.889
1
1 2 
73
3
11
-1
21
0.46
41
0.75
7
W0$127
0
ENDBLK
0
BLOCK
2
PART_TOP_30
8
0
10
0
20
0
3
PART_TOP_30
70
64
0
INSERT
2
SYM_TOP_7
8
0
10
0
20
0
0
INSERT
2
PKG_5
8
0
10
0
20
0
0
TEXT
8
LABEL_INFO
10
-6.08
20
3
40
0.889
1
0 0 0 2 0 1
73
2
11
-6.08
21
3
41
0.75
7
W0$127
0
TEXT
8
LABEL_ATTRIBUTE
10
-6.08
20
3
40
0.889
1
PartType
73
2
11
-6.08
21
3
41
0.75
7
W0$127
0
TEXT
8
PART_TYPE_01
10
-6.08
20
3
40
0.889
1
2.54MM_6PIN
73
3
11
-6.08
21
3
41
0.75
7
W0$127
0
TEXT
8
LABEL_INFO
10
4.1
20
1.5
40
0.56
1
0 162000000 0 0 0 1
50
90
41
0.75
7
W0$1
0
TEXT
8
LABEL_ATTRIBUTE
10
4.1
20
1.5
40
0.56
1
Ref.Des.
50
90
41
0.75
7
W0$1
0
TEXT
8
PART_NAME_01
10
4.1
20
1.5
40
0.56
1
CON5
50
90
41
0.75
7
W0$1
0
TEXT
8
PART_INFO
10
4.1
20
0.7
40
0.56
1
000000
50
90
41
0.75
7
W0$1
0
TEXT
8
PART_PTS
10
4.1
20
-0.1
40
0.56
1
1 2 3 4 5 6 
50
90
41
0.75
7
W0$1
0
ENDBLK
0
BLOCK
2
PART_TOP_31
8
0
10
0
20
0
3
PART_TOP_31
70
64
0
INSERT
2
SYM_TOP_7
8
0
10
0
20
0
0
INSERT
2
PKG_5
8
0
10
0
20
0
0
TEXT
8
LABEL_INFO
10
-6.08
20
3
40
0.889
1
0 0 0 2 0 1
73
2
11
-6.08
21
3
41
0.75
7
W0$127
0
TEXT
8
LABEL_ATTRIBUTE
10
-6.08
20
3
40
0.889
1
PartType
73
2
11
-6.08
21
3
41
0.75
7
W0$127
0
TEXT
8
PART_TYPE_01
10
-6.08
20
3
40
0.889
1
2.54MM_6PIN
73
3
11
-6.08
21
3
41
0.75
7
W0$127
0
TEXT
8
LABEL_INFO
10
3.9
20
-3.1999993333
40
0.56
1
0 162000000 0 0 0 1
50
90
41
0.75
7
W0$1
0
TEXT
8
LABEL_ATTRIBUTE
10
3.9
20
-3.1999993333
40
0.56
1
Ref.Des.
50
90
41
0.75
7
W0$1
0
TEXT
8
PART_NAME_01
10
3.9
20
-3.1999993333
40
0.56
1
CON6
50
90
41
0.75
7
W0$1
0
TEXT
8
PART_INFO
10
3.9
20
-3.9999993333
40
0.56
1
000000
50
90
41
0.75
7
W0$1
0
TEXT
8
PART_PTS
10
3.9
20
-4.7999993333
40
0.56
1
1 2 3 4 5 6 
50
90
41
0.75
7
W0$1
0
ENDBLK
0
BLOCK
2
PART_TOP_33
8
0
10
0
20
0
3
PART_TOP_33
70
64
0
INSERT
2
SYM_TOP_9
8
0
10
0
20
0
0
INSERT
2
PKG_7
8
0
10
0
20
0
0
TEXT
8
LABEL_INFO
10
-0.17
20
2.77
40
0.889
1
0 0 0 2 0 1
73
2
11
-0.17
21
2.77
41
0.75
7
W0$127
0
TEXT
8
LABEL_ATTRIBUTE
10
-0.17
20
2.77
40
0.889
1
PartType
73
2
11
-0.17
21
2.77
41
0.75
7
W0$127
0
TEXT
8
PART_TYPE_01
10
-0.17
20
2.77
40
0.889
1
2.54MM_3PIN
73
3
11
-0.17
21
2.77
41
0.75
7
W0$127
0
TEXT
8
LABEL_INFO
10
3.3
20
-1.6999993333
40
0.56
1
0 324000000 0 0 0 1
50
180
41
0.75
7
W0$1
0
TEXT
8
LABEL_ATTRIBUTE
10
3.3
20
-1.6999993333
40
0.56
1
Ref.Des.
50
180
41
0.75
7
W0$1
0
TEXT
8
PART_NAME_01
10
3.3
20
-1.6999993333
40
0.56
1
CON9
50
180
41
0.75
7
W0$1
0
TEXT
8
PART_INFO
10
3.3
20
-2.4999993333
40
0.56
1
000000
50
180
41
0.75
7
W0$1
0
TEXT
8
PART_PTS
10
3.3
20
-3.2999993333
40
0.56
1
1 2 3 
50
180
41
0.75
7
W0$1
0
ENDBLK
0
BLOCK
2
PART_TOP_34
8
0
10
0
20
0
3
PART_TOP_34
70
64
0
INSERT
2
SYM_TOP_10
8
0
10
0
20
0
0
INSERT
2
PKG_8
8
0
10
0
20
0
0
TEXT
8
LABEL_INFO
10
3
20
0.3
40
0.56
1
0 324000000 0 0 0 1
50
180
41
0.75
7
W0$1
0
TEXT
8
LABEL_ATTRIBUTE
10
3
20
0.3
40
0.56
1
Ref.Des.
50
180
41
0.75
7
W0$1
0
TEXT
8
PART_NAME_01
10
3
20
0.3
40
0.56
1
ESD1
50
180
41
0.75
7
W0$1
0
TEXT
8
LABEL_INFO
10
-1.124
20
1.652
40
0.7
1
0 0 0 0 0 1
41
0.75
7
W0$1
0
TEXT
8
LABEL_ATTRIBUTE
10
-1.124
20
1.652
40
0.7
1
PartType
41
0.75
7
W0$1
0
TEXT
8
PART_TYPE_01
10
-1.124
20
1.652
40
0.7
1
LXES15AAA1-133
41
0.75
7
W0$1
0
TEXT
8
PART_INFO
10
-1.124
20
0.652
40
0.7
1
000000
41
0.75
7
W0$1
0
TEXT
8
PART_PTS
10
-1.124
20
-0.348
40
0.7
1
1 2 
41
0.75
7
W0$1
0
ENDBLK
0
BLOCK
2
PART_TOP_37
8
0
10
0
20
0
3
PART_TOP_37
70
64
0
INSERT
2
SYM_TOP_11
8
0
10
0
20
0
0
INSERT
2
PKG_9
8
0
10
0
20
0
0
TEXT
8
LABEL_INFO
10
-2.4
20
0.1999993333
40
0.56
1
0 324000000 0 0 0 1
50
180
41
0.75
7
W0$1
0
TEXT
8
LABEL_ATTRIBUTE
10
-2.4
20
0.1999993333
40
0.56
1
Ref.Des.
50
180
41
0.75
7
W0$1
0
TEXT
8
PART_NAME_01
10
-2.4
20
0.1999993333
40
0.56
1
ESD4
50
180
41
0.75
7
W0$1
0
TEXT
8
LABEL_INFO
10
-0.9
20
-1.3
40
0.7
1
0 0 0 0 0 1
41
0.75
7
W0$1
0
TEXT
8
LABEL_ATTRIBUTE
10
-0.9
20
-1.3
40
0.7
1
PartType
41
0.75
7
W0$1
0
TEXT
8
PART_TYPE_01
10
-0.9
20
-1.3
40
0.7
1
ULCE0505C015FR
41
0.75
7
W0$1
0
TEXT
8
PART_INFO
10
-0.9
20
-2.3
40
0.7
1
000000
41
0.75
7
W0$1
0
TEXT
8
PART_PTS
10
-0.9
20
-3.3
40
0.7
1
1 2 
41
0.75
7
W0$1
0
ENDBLK
0
BLOCK
2
PART_TOP_38
8
0
10
0
20
0
3
PART_TOP_38
70
64
0
INSERT
2
SYM_TOP_11
8
0
10
0
20
0
0
INSERT
2
PKG_9
8
0
10
0
20
0
0
TEXT
8
LABEL_INFO
10
-2.4
20
0.1999993333
40
0.56
1
0 324000000 0 0 0 1
50
180
41
0.75
7
W0$1
0
TEXT
8
LABEL_ATTRIBUTE
10
-2.4
20
0.1999993333
40
0.56
1
Ref.Des.
50
180
41
0.75
7
W0$1
0
TEXT
8
PART_NAME_01
10
-2.4
20
0.1999993333
40
0.56
1
ESD5
50
180
41
0.75
7
W0$1
0
TEXT
8
LABEL_INFO
10
-0.9
20
-1.3
40
0.7
1
0 0 0 0 0 1
41
0.75
7
W0$1
0
TEXT
8
LABEL_ATTRIBUTE
10
-0.9
20
-1.3
40
0.7
1
PartType
41
0.75
7
W0$1
0
TEXT
8
PART_TYPE_01
10
-0.9
20
-1.3
40
0.7
1
ULCE0505C015FR
41
0.75
7
W0$1
0
TEXT
8
PART_INFO
10
-0.9
20
-2.3
40
0.7
1
000000
41
0.75
7
W0$1
0
TEXT
8
PART_PTS
10
-0.9
20
-3.3
40
0.7
1
1 2 
41
0.75
7
W0$1
0
ENDBLK
0
BLOCK
2
PART_TOP_39
8
0
10
0
20
0
3
PART_TOP_39
70
64
0
INSERT
2
SYM_TOP_11
8
0
10
0
20
0
0
INSERT
2
PKG_9
8
0
10
0
20
0
0
TEXT
8
LABEL_INFO
10
-2.4
20
0.1999993333
40
0.56
1
0 324000000 0 0 0 1
50
180
41
0.75
7
W0$1
0
TEXT
8
LABEL_ATTRIBUTE
10
-2.4
20
0.1999993333
40
0.56
1
Ref.Des.
50
180
41
0.75
7
W0$1
0
TEXT
8
PART_NAME_01
10
-2.4
20
0.1999993333
40
0.56
1
ESD6
50
180
41
0.75
7
W0$1
0
TEXT
8
LABEL_INFO
10
-0.9
20
-1.3
40
0.7
1
0 0 0 0 0 1
41
0.75
7
W0$1
0
TEXT
8
LABEL_ATTRIBUTE
10
-0.9
20
-1.3
40
0.7
1
PartType
41
0.75
7
W0$1
0
TEXT
8
PART_TYPE_01
10
-0.9
20
-1.3
40
0.7
1
ULCE0505C015FR
41
0.75
7
W0$1
0
TEXT
8
PART_INFO
10
-0.9
20
-2.3
40
0.7
1
000000
41
0.75
7
W0$1
0
TEXT
8
PART_PTS
10
-0.9
20
-3.3
40
0.7
1
1 2 
41
0.75
7
W0$1
0
ENDBLK
0
BLOCK
2
PART_TOP_40
8
0
10
0
20
0
3
PART_TOP_40
70
64
0
INSERT
2
SYM_TOP_12
8
0
10
0
20
0
0
INSERT
2
PKG_10
8
0
10
0
20
0
0
TEXT
8
LABEL_INFO
10
-2.4
20
0.1999993333
40
0.56
1
0 324000000 0 0 0 1
50
180
41
0.75
7
W0$1
0
TEXT
8
LABEL_ATTRIBUTE
10
-2.4
20
0.1999993333
40
0.56
1
Ref.Des.
50
180
41
0.75
7
W0$1
0
TEXT
8
PART_NAME_01
10
-2.4
20
0.1999993333
40
0.56
1
ESD7
50
180
41
0.75
7
W0$1
0
TEXT
8
LABEL_INFO
10
-0.9
20
-1.3
40
0.7
1
0 0 0 0 0 1
41
0.75
7
W0$1
0
TEXT
8
LABEL_ATTRIBUTE
10
-0.9
20
-1.3
40
0.7
1
PartType
41
0.75
7
W0$1
0
TEXT
8
PART_TYPE_01
10
-0.9
20
-1.3
40
0.7
1
ICVN0514X300FR
41
0.75
7
W0$1
0
TEXT
8
PART_INFO
10
-0.9
20
-2.3
40
0.7
1
000000
41
0.75
7
W0$1
0
TEXT
8
PART_PTS
10
-0.9
20
-3.3
40
0.7
1
1 2 
41
0.75
7
W0$1
0
ENDBLK
0
BLOCK
2
PART_TOP_43
8
0
10
0
20
0
3
PART_TOP_43
70
64
0
INSERT
2
SYM_TOP_13
8
0
10
0
20
0
0
INSERT
2
PKG_11
8
0
10
0
20
0
0
TEXT
8
LABEL_INFO
10
0
20
0
40
0.889
1
0 0 0 2 0 1
73
2
11
0
21
0
41
0.75
7
W0$127
0
TEXT
8
LABEL_ATTRIBUTE
10
0
20
0
40
0.889
1
PartType
73
2
11
0
21
0
41
0.75
7
W0$127
0
TEXT
8
PART_TYPE_01
10
0
20
0
40
0.889
1
TXB0108PWR
73
3
11
0
21
0
41
0.75
7
W0$127
0
TEXT
8
LABEL_INFO
10
-0.2
20
3.6
40
0.56
1
0 0 0 0 0 1
41
0.75
7
W0$1
0
TEXT
8
LABEL_ATTRIBUTE
10
-0.2
20
3.6
40
0.56
1
Ref.Des.
41
0.75
7
W0$1
0
TEXT
8
PART_NAME_01
10
-0.2
20
3.6
40
0.56
1
U4
41
0.75
7
W0$1
0
TEXT
8
PART_INFO
10
-0.2
20
2.8
40
0.56
1
000000
41
0.75
7
W0$1
0
TEXT
8
PART_PTS
10
-0.2
20
2
40
0.56
1
1 2 3 4 5 6 7 8 9 10 11 12 13 14 15 16 17 18 19 20 
41
0.75
7
W0$1
0
ENDBLK
0
BLOCK
2
PART_TOP_46
8
0
10
0
20
0
3
PART_TOP_46
70
64
0
INSERT
2
SYM_TOP_16
8
0
10
0
20
0
0
INSERT
2
PKG_14
8
0
10
0
20
0
0
TEXT
8
LABEL_INFO
10
-0.1
20
0.8
40
0.56
1
0 162000000 0 0 0 1
50
90
41
0.75
7
W0$1
0
TEXT
8
LABEL_ATTRIBUTE
10
-0.1
20
0.8
40
0.56
1
Ref.Des.
50
90
41
0.75
7
W0$1
0
TEXT
8
PART_NAME_01
10
-0.1
20
0.8
40
0.56
1
LED1
50
90
41
0.75
7
W0$1
0
TEXT
8
LABEL_INFO
10
-1.778
20
3.81
40
1.778
1
0 0 0 2 0 1
73
2
11
-1.778
21
3.81
41
0.75
7
W0$254
0
TEXT
8
LABEL_ATTRIBUTE
10
-1.778
20
3.81
40
1.778
1
PartType
73
2
11
-1.778
21
3.81
41
0.75
7
W0$254
0
TEXT
8
PART_TYPE_01
10
-1.778
20
3.81
40
1.778
1
LED_1608
73
3
11
-1.778
21
3.81
41
0.75
7
W0$254
0
TEXT
8
PART_INFO
10
-1.778
20
1.27
40
1.778
1
000000
73
3
11
-1.778
21
1.27
41
0.75
7
W0$254
0
TEXT
8
PART_PTS
10
-1.778
20
-1.27
40
1.778
1
1 2 
73
3
11
-1.778
21
-1.27
41
0.75
7
W0$254
0
ENDBLK
0
BLOCK
2
PART_TOP_47
8
0
10
0
20
0
3
PART_TOP_47
70
64
0
INSERT
2
SYM_TOP_16
8
0
10
0
20
0
0
INSERT
2
PKG_14
8
0
10
0
20
0
0
TEXT
8
LABEL_INFO
10
-0.1
20
0.8
40
0.56
1
0 162000000 0 0 0 1
50
90
41
0.75
7
W0$1
0
TEXT
8
LABEL_ATTRIBUTE
10
-0.1
20
0.8
40
0.56
1
Ref.Des.
50
90
41
0.75
7
W0$1
0
TEXT
8
PART_NAME_01
10
-0.1
20
0.8
40
0.56
1
LED2
50
90
41
0.75
7
W0$1
0
TEXT
8
LABEL_INFO
10
-1.778
20
3.81
40
1.778
1
0 0 0 2 0 1
73
2
11
-1.778
21
3.81
41
0.75
7
W0$254
0
TEXT
8
LABEL_ATTRIBUTE
10
-1.778
20
3.81
40
1.778
1
PartType
73
2
11
-1.778
21
3.81
41
0.75
7
W0$254
0
TEXT
8
PART_TYPE_01
10
-1.778
20
3.81
40
1.778
1
LED_1608
73
3
11
-1.778
21
3.81
41
0.75
7
W0$254
0
TEXT
8
PART_INFO
10
-1.778
20
1.27
40
1.778
1
000000
73
3
11
-1.778
21
1.27
41
0.75
7
W0$254
0
TEXT
8
PART_PTS
10
-1.778
20
-1.27
40
1.778
1
1 2 
73
3
11
-1.778
21
-1.27
41
0.75
7
W0$254
0
ENDBLK
0
BLOCK
2
PART_TOP_51
8
0
10
0
20
0
3
PART_TOP_51
70
64
0
INSERT
2
SYM_TOP_18
8
0
10
0
20
0
0
INSERT
2
PKG_16
8
0
10
0
20
0
0
TEXT
8
LABEL_INFO
10
-1.124
20
1.652
40
0.7
1
0 0 0 0 0 1
41
0.75
7
W0$1
0
TEXT
8
LABEL_ATTRIBUTE
10
-1.124
20
1.652
40
0.7
1
PartType
41
0.75
7
W0$1
0
TEXT
8
PART_TYPE_01
10
-1.124
20
1.652
40
0.7
1
R_1005
41
0.75
7
W0$1
0
TEXT
8
LABEL_INFO
10
-0.7
20
-1.2
40
0.56
1
0 0 0 0 0 1
41
0.75
7
W0$1
0
TEXT
8
LABEL_ATTRIBUTE
10
-0.7
20
-1.2
40
0.56
1
Ref.Des.
41
0.75
7
W0$1
0
TEXT
8
PART_NAME_01
10
-0.7
20
-1.2
40
0.56
1
R1
41
0.75
7
W0$1
0
TEXT
8
PART_INFO
10
-0.7
20
-2
40
0.56
1
000000
41
0.75
7
W0$1
0
TEXT
8
PART_PTS
10
-0.7
20
-2.8
40
0.56
1
1 2 
41
0.75
7
W0$1
0
ENDBLK
0
BLOCK
2
PART_TOP_60
8
0
10
0
20
0
3
PART_TOP_60
70
64
0
INSERT
2
SYM_TOP_18
8
0
10
0
20
0
0
INSERT
2
PKG_16
8
0
10
0
20
0
0
TEXT
8
LABEL_INFO
10
-1.124
20
1.652
40
0.7
1
0 0 0 0 0 1
41
0.75
7
W0$1
0
TEXT
8
LABEL_ATTRIBUTE
10
-1.124
20
1.652
40
0.7
1
PartType
41
0.75
7
W0$1
0
TEXT
8
PART_TYPE_01
10
-1.124
20
1.652
40
0.7
1
R_1005
41
0.75
7
W0$1
0
TEXT
8
LABEL_INFO
10
-1.6
20
0.2999993333
40
0.56
1
0 486000000 0 0 0 1
50
270
41
0.75
7
W0$1
0
TEXT
8
LABEL_ATTRIBUTE
10
-1.6
20
0.2999993333
40
0.56
1
Ref.Des.
50
270
41
0.75
7
W0$1
0
TEXT
8
PART_NAME_01
10
-1.6
20
0.2999993333
40
0.56
1
R2
50
270
41
0.75
7
W0$1
0
TEXT
8
PART_INFO
10
-1.6
20
-0.5000006667
40
0.56
1
000000
50
270
41
0.75
7
W0$1
0
TEXT
8
PART_PTS
10
-1.6
20
-1.3000006667
40
0.56
1
1 2 
50
270
41
0.75
7
W0$1
0
ENDBLK
0
BLOCK
2
PART_TOP_68
8
0
10
0
20
0
3
PART_TOP_68
70
64
0
INSERT
2
SYM_TOP_18
8
0
10
0
20
0
0
INSERT
2
PKG_16
8
0
10
0
20
0
0
TEXT
8
LABEL_INFO
10
-1.124
20
1.652
40
0.7
1
0 0 0 0 0 1
41
0.75
7
W0$1
0
TEXT
8
LABEL_ATTRIBUTE
10
-1.124
20
1.652
40
0.7
1
PartType
41
0.75
7
W0$1
0
TEXT
8
PART_TYPE_01
10
-1.124
20
1.652
40
0.7
1
R_1005
41
0.75
7
W0$1
0
TEXT
8
LABEL_INFO
10
-1.2
20
0.1999993333
40
0.56
1
0 324000000 0 0 0 1
50
180
41
0.75
7
W0$1
0
TEXT
8
LABEL_ATTRIBUTE
10
-1.2
20
0.1999993333
40
0.56
1
Ref.Des.
50
180
41
0.75
7
W0$1
0
TEXT
8
PART_NAME_01
10
-1.2
20
0.1999993333
40
0.56
1
R27
50
180
41
0.75
7
W0$1
0
TEXT
8
PART_INFO
10
-1.2
20
-0.6000006667
40
0.56
1
000000
50
180
41
0.75
7
W0$1
0
TEXT
8
PART_PTS
10
-1.2
20
-1.4000006667
40
0.56
1
1 2 
50
180
41
0.75
7
W0$1
0
ENDBLK
0
BLOCK
2
PART_TOP_69
8
0
10
0
20
0
3
PART_TOP_69
70
64
0
INSERT
2
SYM_TOP_18
8
0
10
0
20
0
0
INSERT
2
PKG_16
8
0
10
0
20
0
0
TEXT
8
LABEL_INFO
10
-1.124
20
1.652
40
0.7
1
0 0 0 0 0 1
41
0.75
7
W0$1
0
TEXT
8
LABEL_ATTRIBUTE
10
-1.124
20
1.652
40
0.7
1
PartType
41
0.75
7
W0$1
0
TEXT
8
PART_TYPE_01
10
-1.124
20
1.652
40
0.7
1
R_1005
41
0.75
7
W0$1
0
TEXT
8
LABEL_INFO
10
-1.1
20
0.2999993333
40
0.56
1
0 324000000 0 0 0 1
50
180
41
0.75
7
W0$1
0
TEXT
8
LABEL_ATTRIBUTE
10
-1.1
20
0.2999993333
40
0.56
1
Ref.Des.
50
180
41
0.75
7
W0$1
0
TEXT
8
PART_NAME_01
10
-1.1
20
0.2999993333
40
0.56
1
R28
50
180
41
0.75
7
W0$1
0
TEXT
8
PART_INFO
10
-1.1
20
-0.5000006667
40
0.56
1
000000
50
180
41
0.75
7
W0$1
0
TEXT
8
PART_PTS
10
-1.1
20
-1.3000006667
40
0.56
1
1 2 
50
180
41
0.75
7
W0$1
0
ENDBLK
0
BLOCK
2
PART_TOP_70
8
0
10
0
20
0
3
PART_TOP_70
70
64
0
INSERT
2
SYM_TOP_18
8
0
10
0
20
0
0
INSERT
2
PKG_16
8
0
10
0
20
0
0
TEXT
8
LABEL_INFO
10
-1.124
20
1.652
40
0.7
1
0 0 0 0 0 1
41
0.75
7
W0$1
0
TEXT
8
LABEL_ATTRIBUTE
10
-1.124
20
1.652
40
0.7
1
PartType
41
0.75
7
W0$1
0
TEXT
8
PART_TYPE_01
10
-1.124
20
1.652
40
0.7
1
R_1005
41
0.75
7
W0$1
0
TEXT
8
LABEL_INFO
10
-1.6
20
0.6999993333
40
0.56
1
0 486000000 0 0 0 1
50
270
41
0.75
7
W0$1
0
TEXT
8
LABEL_ATTRIBUTE
10
-1.6
20
0.6999993333
40
0.56
1
Ref.Des.
50
270
41
0.75
7
W0$1
0
TEXT
8
PART_NAME_01
10
-1.6
20
0.6999993333
40
0.56
1
R29
50
270
41
0.75
7
W0$1
0
TEXT
8
PART_INFO
10
-1.6
20
-0.1000006667
40
0.56
1
000000
50
270
41
0.75
7
W0$1
0
TEXT
8
PART_PTS
10
-1.6
20
-0.9000006667
40
0.56
1
1 2 
50
270
41
0.75
7
W0$1
0
ENDBLK
0
BLOCK
2
PART_TOP_71
8
0
10
0
20
0
3
PART_TOP_71
70
64
0
INSERT
2
SYM_TOP_18
8
0
10
0
20
0
0
INSERT
2
PKG_16
8
0
10
0
20
0
0
TEXT
8
LABEL_INFO
10
-1.124
20
1.652
40
0.7
1
0 0 0 0 0 1
41
0.75
7
W0$1
0
TEXT
8
LABEL_ATTRIBUTE
10
-1.124
20
1.652
40
0.7
1
PartType
41
0.75
7
W0$1
0
TEXT
8
PART_TYPE_01
10
-1.124
20
1.652
40
0.7
1
R_1005
41
0.75
7
W0$1
0
TEXT
8
LABEL_INFO
10
-1.6
20
0.2999993333
40
0.56
1
0 486000000 0 0 0 1
50
270
41
0.75
7
W0$1
0
TEXT
8
LABEL_ATTRIBUTE
10
-1.6
20
0.2999993333
40
0.56
1
Ref.Des.
50
270
41
0.75
7
W0$1
0
TEXT
8
PART_NAME_01
10
-1.6
20
0.2999993333
40
0.56
1
R3
50
270
41
0.75
7
W0$1
0
TEXT
8
PART_INFO
10
-1.6
20
-0.5000006667
40
0.56
1
000000
50
270
41
0.75
7
W0$1
0
TEXT
8
PART_PTS
10
-1.6
20
-1.3000006667
40
0.56
1
1 2 
50
270
41
0.75
7
W0$1
0
ENDBLK
0
BLOCK
2
PART_TOP_72
8
0
10
0
20
0
3
PART_TOP_72
70
64
0
INSERT
2
SYM_TOP_18
8
0
10
0
20
0
0
INSERT
2
PKG_16
8
0
10
0
20
0
0
TEXT
8
LABEL_INFO
10
-1.124
20
1.652
40
0.7
1
0 0 0 0 0 1
41
0.75
7
W0$1
0
TEXT
8
LABEL_ATTRIBUTE
10
-1.124
20
1.652
40
0.7
1
PartType
41
0.75
7
W0$1
0
TEXT
8
PART_TYPE_01
10
-1.124
20
1.652
40
0.7
1
R_1005
41
0.75
7
W0$1
0
TEXT
8
LABEL_INFO
10
-1.6
20
0.4999993333
40
0.56
1
0 486000000 0 0 0 1
50
270
41
0.75
7
W0$1
0
TEXT
8
LABEL_ATTRIBUTE
10
-1.6
20
0.4999993333
40
0.56
1
Ref.Des.
50
270
41
0.75
7
W0$1
0
TEXT
8
PART_NAME_01
10
-1.6
20
0.4999993333
40
0.56
1
R30
50
270
41
0.75
7
W0$1
0
TEXT
8
PART_INFO
10
-1.6
20
-0.3000006667
40
0.56
1
000000
50
270
41
0.75
7
W0$1
0
TEXT
8
PART_PTS
10
-1.6
20
-1.1000006667
40
0.56
1
1 2 
50
270
41
0.75
7
W0$1
0
ENDBLK
0
BLOCK
2
PART_TOP_75
8
0
10
0
20
0
3
PART_TOP_75
70
64
0
INSERT
2
SYM_TOP_18
8
0
10
0
20
0
0
INSERT
2
PKG_16
8
0
10
0
20
0
0
TEXT
8
LABEL_INFO
10
-1.124
20
1.652
40
0.7
1
0 0 0 0 0 1
41
0.75
7
W0$1
0
TEXT
8
LABEL_ATTRIBUTE
10
-1.124
20
1.652
40
0.7
1
PartType
41
0.75
7
W0$1
0
TEXT
8
PART_TYPE_01
10
-1.124
20
1.652
40
0.7
1
R_1005
41
0.75
7
W0$1
0
TEXT
8
LABEL_INFO
10
-1.6
20
0.5999993333
40
0.56
1
0 486000000 0 0 0 1
50
270
41
0.75
7
W0$1
0
TEXT
8
LABEL_ATTRIBUTE
10
-1.6
20
0.5999993333
40
0.56
1
Ref.Des.
50
270
41
0.75
7
W0$1
0
TEXT
8
PART_NAME_01
10
-1.6
20
0.5999993333
40
0.56
1
R33
50
270
41
0.75
7
W0$1
0
TEXT
8
PART_INFO
10
-1.6
20
-0.2000006667
40
0.56
1
000000
50
270
41
0.75
7
W0$1
0
TEXT
8
PART_PTS
10
-1.6
20
-1.0000006667
40
0.56
1
1 2 
50
270
41
0.75
7
W0$1
0
ENDBLK
0
BLOCK
2
PART_TOP_76
8
0
10
0
20
0
3
PART_TOP_76
70
64
0
INSERT
2
SYM_TOP_18
8
0
10
0
20
0
0
INSERT
2
PKG_16
8
0
10
0
20
0
0
TEXT
8
LABEL_INFO
10
-1.124
20
1.652
40
0.7
1
0 0 0 0 0 1
41
0.75
7
W0$1
0
TEXT
8
LABEL_ATTRIBUTE
10
-1.124
20
1.652
40
0.7
1
PartType
41
0.75
7
W0$1
0
TEXT
8
PART_TYPE_01
10
-1.124
20
1.652
40
0.7
1
R_1005
41
0.75
7
W0$1
0
TEXT
8
LABEL_INFO
10
1.1
20
0.4
40
0.56
1
0 486000000 0 0 0 1
50
270
41
0.75
7
W0$1
0
TEXT
8
LABEL_ATTRIBUTE
10
1.1
20
0.4
40
0.56
1
Ref.Des.
50
270
41
0.75
7
W0$1
0
TEXT
8
PART_NAME_01
10
1.1
20
0.4
40
0.56
1
R34
50
270
41
0.75
7
W0$1
0
TEXT
8
PART_INFO
10
1.1
20
-0.4
40
0.56
1
000000
50
270
41
0.75
7
W0$1
0
TEXT
8
PART_PTS
10
1.1
20
-1.2
40
0.56
1
1 2 
50
270
41
0.75
7
W0$1
0
ENDBLK
0
BLOCK
2
PART_TOP_78
8
0
10
0
20
0
3
PART_TOP_78
70
64
0
INSERT
2
SYM_TOP_18
8
0
10
0
20
0
0
INSERT
2
PKG_16
8
0
10
0
20
0
0
TEXT
8
LABEL_INFO
10
-1.124
20
1.652
40
0.7
1
0 0 0 0 0 1
41
0.75
7
W0$1
0
TEXT
8
LABEL_ATTRIBUTE
10
-1.124
20
1.652
40
0.7
1
PartType
41
0.75
7
W0$1
0
TEXT
8
PART_TYPE_01
10
-1.124
20
1.652
40
0.7
1
R_1005
41
0.75
7
W0$1
0
TEXT
8
LABEL_INFO
10
-1.1
20
0.1999993333
40
0.56
1
0 324000000 0 0 0 1
50
180
41
0.75
7
W0$1
0
TEXT
8
LABEL_ATTRIBUTE
10
-1.1
20
0.1999993333
40
0.56
1
Ref.Des.
50
180
41
0.75
7
W0$1
0
TEXT
8
PART_NAME_01
10
-1.1
20
0.1999993333
40
0.56
1
R36
50
180
41
0.75
7
W0$1
0
TEXT
8
PART_INFO
10
-1.1
20
-0.6000006667
40
0.56
1
000000
50
180
41
0.75
7
W0$1
0
TEXT
8
PART_PTS
10
-1.1
20
-1.4000006667
40
0.56
1
1 2 
50
180
41
0.75
7
W0$1
0
ENDBLK
0
BLOCK
2
PART_TOP_79
8
0
10
0
20
0
3
PART_TOP_79
70
64
0
INSERT
2
SYM_TOP_18
8
0
10
0
20
0
0
INSERT
2
PKG_16
8
0
10
0
20
0
0
TEXT
8
LABEL_INFO
10
-1.124
20
1.652
40
0.7
1
0 0 0 0 0 1
41
0.75
7
W0$1
0
TEXT
8
LABEL_ATTRIBUTE
10
-1.124
20
1.652
40
0.7
1
PartType
41
0.75
7
W0$1
0
TEXT
8
PART_TYPE_01
10
-1.124
20
1.652
40
0.7
1
R_1005
41
0.75
7
W0$1
0
TEXT
8
LABEL_INFO
10
-0.2
20
-1.2
40
0.56
1
0 0 0 0 0 1
41
0.75
7
W0$1
0
TEXT
8
LABEL_ATTRIBUTE
10
-0.2
20
-1.2
40
0.56
1
Ref.Des.
41
0.75
7
W0$1
0
TEXT
8
PART_NAME_01
10
-0.2
20
-1.2
40
0.56
1
R4
41
0.75
7
W0$1
0
TEXT
8
PART_INFO
10
-0.2
20
-2
40
0.56
1
000000
41
0.75
7
W0$1
0
TEXT
8
PART_PTS
10
-0.2
20
-2.8
40
0.56
1
1 2 
41
0.75
7
W0$1
0
ENDBLK
0
BLOCK
2
PART_TOP_80
8
0
10
0
20
0
3
PART_TOP_80
70
64
0
INSERT
2
SYM_TOP_18
8
0
10
0
20
0
0
INSERT
2
PKG_16
8
0
10
0
20
0
0
TEXT
8
LABEL_INFO
10
-1.124
20
1.652
40
0.7
1
0 0 0 0 0 1
41
0.75
7
W0$1
0
TEXT
8
LABEL_ATTRIBUTE
10
-1.124
20
1.652
40
0.7
1
PartType
41
0.75
7
W0$1
0
TEXT
8
PART_TYPE_01
10
-1.124
20
1.652
40
0.7
1
R_1005
41
0.75
7
W0$1
0
TEXT
8
LABEL_INFO
10
1.1
20
0.4
40
0.56
1
0 0 0 0 0 1
41
0.75
7
W0$1
0
TEXT
8
LABEL_ATTRIBUTE
10
1.1
20
0.4
40
0.56
1
Ref.Des.
41
0.75
7
W0$1
0
TEXT
8
PART_NAME_01
10
1.1
20
0.4
40
0.56
1
R5
41
0.75
7
W0$1
0
TEXT
8
PART_INFO
10
1.1
20
-0.4
40
0.56
1
000000
41
0.75
7
W0$1
0
TEXT
8
PART_PTS
10
1.1
20
-1.2
40
0.56
1
1 2 
41
0.75
7
W0$1
0
ENDBLK
0
BLOCK
2
PART_TOP_83
8
0
10
0
20
0
3
PART_TOP_83
70
64
0
INSERT
2
SYM_TOP_18
8
0
10
0
20
0
0
INSERT
2
PKG_16
8
0
10
0
20
0
0
TEXT
8
LABEL_INFO
10
-1.124
20
1.652
40
0.7
1
0 0 0 0 0 1
41
0.75
7
W0$1
0
TEXT
8
LABEL_ATTRIBUTE
10
-1.124
20
1.652
40
0.7
1
PartType
41
0.75
7
W0$1
0
TEXT
8
PART_TYPE_01
10
-1.124
20
1.652
40
0.7
1
R_1005
41
0.75
7
W0$1
0
TEXT
8
LABEL_INFO
10
1.2
20
-0.3
40
0.56
1
0 0 0 0 0 1
41
0.75
7
W0$1
0
TEXT
8
LABEL_ATTRIBUTE
10
1.2
20
-0.3
40
0.56
1
Ref.Des.
41
0.75
7
W0$1
0
TEXT
8
PART_NAME_01
10
1.2
20
-0.3
40
0.56
1
R8
41
0.75
7
W0$1
0
TEXT
8
PART_INFO
10
1.2
20
-1.1
40
0.56
1
000000
41
0.75
7
W0$1
0
TEXT
8
PART_PTS
10
1.2
20
-1.9
40
0.56
1
1 2 
41
0.75
7
W0$1
0
ENDBLK
0
BLOCK
2
PART_TOP_85
8
0
10
0
20
0
3
PART_TOP_85
70
64
0
INSERT
2
SYM_TOP_19
8
0
10
0
20
0
0
INSERT
2
PKG_17
8
0
10
0
20
0
0
TEXT
8
LABEL_INFO
10
-12.4
20
11.4
40
0.56
1
0 0 0 0 0 1
41
0.75
7
W0$1
0
TEXT
8
LABEL_ATTRIBUTE
10
-12.4
20
11.4
40
0.56
1
Ref.Des.
41
0.75
7
W0$1
0
TEXT
8
PART_NAME_01
10
-12.4
20
11.4
40
0.56
1
U1
41
0.75
7
W0$1
0
TEXT
8
LABEL_INFO
10
0
20
0
40
0.889
1
0 0 0 2 0 1
73
2
11
0
21
0
41
0.75
7
W0$127
0
TEXT
8
LABEL_ATTRIBUTE
10
0
20
0
40
0.889
1
PartType
73
2
11
0
21
0
41
0.75
7
W0$127
0
TEXT
8
PART_TYPE_01
10
0
20
0
40
0.889
1
BG96
73
3
11
0
21
0
41
0.75
7
W0$127
0
TEXT
8
PART_INFO
10
0
20
-1.27
40
0.889
1
000010
73
3
11
0
21
-1.27
41
0.75
7
W0$127
0
TEXT
8
PART_PTS
10
0
20
-2.54
40
0.889
1
1 2 3 4 5 6 7 8 9 10 11 12 13 14 15 16 17 18 19 20 21 22 23 24 25 26 27 28 29 30 31 32 33 34 35 36 37 38 39 40 41 42 43 44 45 46 47 48 49 50 51 52 53 54 55 56 57 58 59 60 61 62 63 64 65 66 67 68 69 70 71 72 73 74 75 76 77 78 79 80 81 82 83 84 85 86 
73
3
11
0
21
-2.54
41
0.75
7
W0$127
0
TEXT
8
PART_PTS
10
0
20
-3.81
40
0.889
1
87 88 89 90 91 92 93 94 95 96 97 98 99 100 101 102 
73
3
11
0
21
-3.81
41
0.75
7
W0$127
0
ENDBLK
0
BLOCK
2
PART_TOP_86
8
0
10
0
20
0
3
PART_TOP_86
70
64
0
INSERT
2
SYM_TOP_20
8
0
10
0
20
0
0
INSERT
2
PKG_18
8
0
10
0
20
0
0
TEXT
8
LABEL_INFO
10
-1.7018
20
0.6858
40
1.778
1
0 0 0 2 0 1
73
2
11
-1.7018
21
0.6858
41
0.75
7
W0$254
0
TEXT
8
LABEL_ATTRIBUTE
10
-1.7018
20
0.6858
40
1.778
1
PartType
73
2
11
-1.7018
21
0.6858
41
0.75
7
W0$254
0
TEXT
8
PART_TYPE_01
10
-1.7018
20
0.6858
40
1.778
1
MCP1826-ADJE/DC
73
3
11
-1.7018
21
0.6858
41
0.75
7
W0$254
0
TEXT
8
LABEL_INFO
10
-2.6
20
3.6
40
0.56
1
0 486000000 0 0 0 1
50
270
41
0.75
7
W0$1
0
TEXT
8
LABEL_ATTRIBUTE
10
-2.6
20
3.6
40
0.56
1
Ref.Des.
50
270
41
0.75
7
W0$1
0
TEXT
8
PART_NAME_01
10
-2.6
20
3.6
40
0.56
1
U3
50
270
41
0.75
7
W0$1
0
TEXT
8
PART_INFO
10
-2.6
20
2.8
40
0.56
1
000000
50
270
41
0.75
7
W0$1
0
TEXT
8
PART_PTS
10
-2.6
20
2
40
0.56
1
1 2 3 4 5 6 
50
270
41
0.75
7
W0$1
0
ENDBLK
0
BLOCK
2
PART_TOP_87
8
0
10
0
20
0
3
PART_TOP_87
70
64
0
INSERT
2
SYM_TOP_24
8
0
10
0
20
0
0
INSERT
2
PKG_21
8
0
10
0
20
0
0
TEXT
8
LABEL_INFO
10
1
20
0.3
40
0.889
1
0 0 0 2 0 1
73
2
11
1
21
0.3
41
0.75
7
W0$127
0
TEXT
8
LABEL_ATTRIBUTE
10
1
20
0.3
40
0.889
1
PartType
73
2
11
1
21
0.3
41
0.75
7
W0$127
0
TEXT
8
PART_TYPE_01
10
1
20
0.3
40
0.889
1
TP-0.8MM
73
3
11
1
21
0.3
41
0.75
7
W0$127
0
TEXT
8
LABEL_INFO
10
-0.7
20
0.7
40
0.56
1
0 0 0 0 0 1
41
0.75
7
W0$1
0
TEXT
8
LABEL_ATTRIBUTE
10
-0.7
20
0.7
40
0.56
1
Ref.Des.
41
0.75
7
W0$1
0
TEXT
8
PART_NAME_01
10
-0.7
20
0.7
40
0.56
1
ICT1
41
0.75
7
W0$1
0
TEXT
8
PART_INFO
10
-0.7
20
-0.1
40
0.56
1
000000
41
0.75
7
W0$1
0
TEXT
8
PART_PTS
10
-0.7
20
-0.9
40
0.56
1
1 
41
0.75
7
W0$1
0
ENDBLK
0
BLOCK
2
PART_TOP_88
8
0
10
0
20
0
3
PART_TOP_88
70
64
0
INSERT
2
SYM_TOP_24
8
0
10
0
20
0
0
INSERT
2
PKG_21
8
0
10
0
20
0
0
TEXT
8
LABEL_INFO
10
1
20
0.3
40
0.889
1
0 0 0 2 0 1
73
2
11
1
21
0.3
41
0.75
7
W0$127
0
TEXT
8
LABEL_ATTRIBUTE
10
1
20
0.3
40
0.889
1
PartType
73
2
11
1
21
0.3
41
0.75
7
W0$127
0
TEXT
8
PART_TYPE_01
10
1
20
0.3
40
0.889
1
TP-0.8MM
73
3
11
1
21
0.3
41
0.75
7
W0$127
0
TEXT
8
LABEL_INFO
10
-0.6
20
-1.4
40
0.56
1
0 0 0 0 0 1
41
0.75
7
W0$1
0
TEXT
8
LABEL_ATTRIBUTE
10
-0.6
20
-1.4
40
0.56
1
Ref.Des.
41
0.75
7
W0$1
0
TEXT
8
PART_NAME_01
10
-0.6
20
-1.4
40
0.56
1
ICT2
41
0.75
7
W0$1
0
TEXT
8
PART_INFO
10
-0.6
20
-2.2
40
0.56
1
000000
41
0.75
7
W0$1
0
TEXT
8
PART_PTS
10
-0.6
20
-3
40
0.56
1
1 
41
0.75
7
W0$1
0
ENDBLK
0
BLOCK
2
PART_TOP_89
8
0
10
0
20
0
3
PART_TOP_89
70
64
0
INSERT
2
SYM_TOP_25
8
0
10
0
20
0
0
INSERT
2
PKG_22
8
0
10
0
20
0
0
TEXT
8
LABEL_INFO
10
-0.7
20
1.6
40
0.56
1
0 486000000 0 0 0 1
50
270
41
0.75
7
W0$1
0
TEXT
8
LABEL_ATTRIBUTE
10
-0.7
20
1.6
40
0.56
1
Ref.Des.
50
270
41
0.75
7
W0$1
0
TEXT
8
PART_NAME_01
10
-0.7
20
1.6
40
0.56
1
FB1
50
270
41
0.75
7
W0$1
0
TEXT
8
LABEL_INFO
10
-0.95
20
1.2
40
0.7
1
0 0 0 0 0 1
41
0.75
7
W0$1
0
TEXT
8
LABEL_ATTRIBUTE
10
-0.95
20
1.2
40
0.7
1
PartType
41
0.75
7
W0$1
0
TEXT
8
PART_TYPE_01
10
-0.95
20
1.2
40
0.7
1
FB_1005
41
0.75
7
W0$1
0
TEXT
8
PART_INFO
10
-0.95
20
0.2
40
0.7
1
000000
41
0.75
7
W0$1
0
TEXT
8
PART_PTS
10
-0.95
20
-0.8
40
0.7
1
1 2 
41
0.75
7
W0$1
0
ENDBLK
0
BLOCK
2
PART_TOP_90
8
0
10
0
20
0
3
PART_TOP_90
70
64
0
INSERT
2
SYM_TOP_25
8
0
10
0
20
0
0
INSERT
2
PKG_22
8
0
10
0
20
0
0
TEXT
8
LABEL_INFO
10
-1.7
20
0.2999993333
40
0.56
1
0 486000000 0 0 0 1
50
270
41
0.75
7
W0$1
0
TEXT
8
LABEL_ATTRIBUTE
10
-1.7
20
0.2999993333
40
0.56
1
Ref.Des.
50
270
41
0.75
7
W0$1
0
TEXT
8
PART_NAME_01
10
-1.7
20
0.2999993333
40
0.56
1
FB2
50
270
41
0.75
7
W0$1
0
TEXT
8
LABEL_INFO
10
-0.95
20
1.2
40
0.7
1
0 0 0 0 0 1
41
0.75
7
W0$1
0
TEXT
8
LABEL_ATTRIBUTE
10
-0.95
20
1.2
40
0.7
1
PartType
41
0.75
7
W0$1
0
TEXT
8
PART_TYPE_01
10
-0.95
20
1.2
40
0.7
1
FB_1005
41
0.75
7
W0$1
0
TEXT
8
PART_INFO
10
-0.95
20
0.2
40
0.7
1
000000
41
0.75
7
W0$1
0
TEXT
8
PART_PTS
10
-0.95
20
-0.8
40
0.7
1
1 2 
41
0.75
7
W0$1
0
ENDBLK
0
BLOCK
2
PART_TOP_91
8
0
10
0
20
0
3
PART_TOP_91
70
64
0
INSERT
2
SYM_TOP_27
8
0
10
0
20
0
0
INSERT
2
PKG_23
8
0
10
0
20
0
0
TEXT
8
LABEL_INFO
10
0
20
0
40
0.21
1
0 0 0 2 0 1
73
2
11
0
21
0
41
0.75
7
W0$01
0
TEXT
8
LABEL_ATTRIBUTE
10
0
20
0
40
0.21
1
PartType
73
2
11
0
21
0
41
0.75
7
W0$01
0
TEXT
8
PART_TYPE_01
10
0
20
0
40
0.21
1
MT1.5-3.0
73
3
11
0
21
0
41
0.75
7
W0$01
0
TEXT
8
PART_NAME_TOP
10
0
20
0
40
1.778
1
R17
73
3
11
0
21
0
41
0.75
7
W0$254
0
TEXT
8
PART_INFO
10
0
20
-2.54
40
1.778
1
000000
73
3
11
0
21
-2.54
41
0.75
7
W0$254
0
TEXT
8
PART_PTS
10
0
20
-5.08
40
1.778
1
1 
73
3
11
0
21
-5.08
41
0.75
7
W0$254
0
ENDBLK
0
BLOCK
2
PART_TOP_92
8
0
10
0
20
0
3
PART_TOP_92
70
64
0
INSERT
2
SYM_TOP_27
8
0
10
0
20
0
0
INSERT
2
PKG_23
8
0
10
0
20
0
0
TEXT
8
LABEL_INFO
10
0
20
0
40
0.21
1
0 0 0 2 0 1
73
2
11
0
21
0
41
0.75
7
W0$01
0
TEXT
8
LABEL_ATTRIBUTE
10
0
20
0
40
0.21
1
PartType
73
2
11
0
21
0
41
0.75
7
W0$01
0
TEXT
8
PART_TYPE_01
10
0
20
0
40
0.21
1
MT1.5-3.0
73
3
11
0
21
0
41
0.75
7
W0$01
0
TEXT
8
PART_NAME_TOP
10
0
20
0
40
1.778
1
R19
73
3
11
0
21
0
41
0.75
7
W0$254
0
TEXT
8
PART_INFO
10
0
20
-2.54
40
1.778
1
000000
73
3
11
0
21
-2.54
41
0.75
7
W0$254
0
TEXT
8
PART_PTS
10
0
20
-5.08
40
1.778
1
1 
73
3
11
0
21
-5.08
41
0.75
7
W0$254
0
ENDBLK
0
BLOCK
2
PART_TOP_95
8
0
10
0
20
0
3
PART_TOP_95
70
64
0
INSERT
2
SYM_TOP_24
8
0
10
0
20
0
0
INSERT
2
PKG_21
8
0
10
0
20
0
0
TEXT
8
LABEL_INFO
10
-0.6
20
0.9
40
0.56
1
0 0 0 0 0 1
41
0.75
7
W0$1
0
TEXT
8
LABEL_ATTRIBUTE
10
-0.6
20
0.9
40
0.56
1
Ref.Des.
41
0.75
7
W0$1
0
TEXT
8
PART_NAME_01
10
-0.6
20
0.9
40
0.56
1
ICT3
41
0.75
7
W0$1
0
TEXT
8
LABEL_INFO
10
1
20
0.3
40
0.889
1
0 0 0 2 0 1
73
2
11
1
21
0.3
41
0.75
7
W0$127
0
TEXT
8
LABEL_ATTRIBUTE
10
1
20
0.3
40
0.889
1
PartType
73
2
11
1
21
0.3
41
0.75
7
W0$127
0
TEXT
8
PART_TYPE_01
10
1
20
0.3
40
0.889
1
TP-0.8MM
73
3
11
1
21
0.3
41
0.75
7
W0$127
0
TEXT
8
PART_INFO
10
1
20
-0.97
40
0.889
1
000000
73
3
11
1
21
-0.97
41
0.75
7
W0$127
0
TEXT
8
PART_PTS
10
1
20
-2.24
40
0.889
1
1 
73
3
11
1
21
-2.24
41
0.75
7
W0$127
0
ENDBLK
0
BLOCK
2
PART_TOP_98
8
0
10
0
20
0
3
PART_TOP_98
70
64
0
INSERT
2
SYM_TOP_22
8
0
10
0
20
0
0
INSERT
2
PKG_20
8
0
10
0
20
0
0
TEXT
8
PART_NAME_TOP
10
0
20
0
40
1.778
1
CON1
73
3
11
0
21
0
41
0.75
7
W0$254
0
TEXT
8
PART_TYPE_TOP
10
0
20
-2.54
40
1.778
1
JB-SMA
73
3
11
0
21
-2.54
41
0.75
7
W0$254
0
TEXT
8
PART_INFO
10
0
20
-5.08
40
1.778
1
000010
73
3
11
0
21
-5.08
41
0.75
7
W0$254
0
TEXT
8
PART_PTS
10
0
20
-7.62
40
1.778
1
1 2 3 4 5 
73
3
11
0
21
-7.62
41
0.75
7
W0$254
0
ENDBLK
0
BLOCK
2
PART_TOP_99
8
0
10
0
20
0
3
PART_TOP_99
70
64
0
INSERT
2
SYM_TOP_22
8
0
10
0
20
0
0
INSERT
2
PKG_20
8
0
10
0
20
0
0
TEXT
8
PART_NAME_TOP
10
0
20
0
40
1.778
1
CON2
73
3
11
0
21
0
41
0.75
7
W0$254
0
TEXT
8
PART_TYPE_TOP
10
0
20
-2.54
40
1.778
1
JB-SMA
73
3
11
0
21
-2.54
41
0.75
7
W0$254
0
TEXT
8
PART_INFO
10
0
20
-5.08
40
1.778
1
000010
73
3
11
0
21
-5.08
41
0.75
7
W0$254
0
TEXT
8
PART_PTS
10
0
20
-7.62
40
1.778
1
1 2 3 4 5 
73
3
11
0
21
-7.62
41
0.75
7
W0$254
0
ENDBLK
0
BLOCK
2
SYM_TOP_2
8
0
10
0
20
0
3
SYM_TOP_2
70
64
0
TEXT
8
SYM_NAME
10
0
20
0
40
1.778
1
C_1608
41
0.75
0
TEXT
8
SYM_PART_TYPE_01
10
-0.1
20
1.7
40
0.9779
1
 
72
1
73
1
11
-0.1
21
1.7
41
0.75
7
W0$1778R0
0
TEXT
8
SYM_PART_NAME_01
10
-0.05
20
1.5
40
0.9779
1
 
72
1
73
1
11
-0.05
21
1.5
41
0.75
7
W0$1778R0
0
TEXT
8
SYM_ATTRIBUTE_01
10
-0.15
20
1.5
40
0.889
1
Value
72
1
73
1
11
-0.15
21
1.5
41
0.75
7
W0$127R0
0
INSERT
2
PART_BODY_TOP_1
8
0
10
0
20
0
0
INSERT
2
STK_TOP_5
8
0
10
-0.75
20
0
0
TEXT
8
SYM_TERMINAL
10
0
20
-3.048
40
1.778
1
1
0
INSERT
2
STK_TOP_5
8
0
10
0.75
20
0
0
TEXT
8
SYM_TERMINAL
10
0
20
-6.096
40
1.778
1
2
0
ENDBLK
0
BLOCK
2
PKG_0
8
0
10
0
20
0
3
PKG_0
70
64
0
TEXT
8
PKG_INFO
10
0
20
0
40
1.778
1
*SYM:= 2
0
TEXT
8
PKG_INFO
10
0
20
-3.048
40
1.778
1
*PKG:= 0 C_1608 UND
0
ENDBLK
0
BLOCK
2
SYM_TOP_3
8
0
10
0
20
0
3
SYM_TOP_3
70
64
0
TEXT
8
SYM_NAME
10
0
20
0
40
1.778
1
C_1005
41
0.75
0
TEXT
8
SYM_PART_TYPE_01
10
-1.124
20
1.652
40
0.7
1
 
41
0.75
7
W0$1R0
0
TEXT
8
SYM_PART_NAME_01
10
-1.117
20
0.778
40
0.7
1
 
41
0.75
7
W0$1R0
0
INSERT
2
PART_BODY_TOP_2
8
0
10
0
20
0
0
INSERT
2
STK_TOP_21
8
0
10
-0.45
20
0
0
TEXT
8
SYM_TERMINAL
10
0
20
-3.048
40
1.778
1
1
0
INSERT
2
STK_TOP_21
8
0
10
0.45
20
0
0
TEXT
8
SYM_TERMINAL
10
0
20
-6.096
40
1.778
1
2
0
ENDBLK
0
BLOCK
2
PKG_1
8
0
10
0
20
0
3
PKG_1
70
64
0
TEXT
8
PKG_INFO
10
0
20
0
40
1.778
1
*SYM:= 3
0
TEXT
8
PKG_INFO
10
0
20
-3.048
40
1.778
1
*PKG:= 0 C_1005 UND
0
ENDBLK
0
BLOCK
2
SYM_TOP_4
8
0
10
0
20
0
3
SYM_TOP_4
70
64
0
TEXT
8
SYM_NAME
10
0
20
0
40
1.778
1
C_3216
41
0.75
0
TEXT
8
SYM_PART_NAME_01
10
0.1
20
1.8
40
0.7
1
 
72
1
73
1
11
0.1
21
1.8
41
0.75
7
W0$1R1
0
TEXT
8
SYM_PART_TYPE_01
10
0
20
1.8
40
0.7
1
 
72
1
73
1
11
0
21
1.8
41
0.75
7
W0$1R1
0
INSERT
2
PART_BODY_TOP_3
8
0
10
0
20
0
0
INSERT
2
STK_TOP_6
8
0
10
-1.3
20
0
0
TEXT
8
SYM_TERMINAL
10
0
20
-3.048
40
1.778
1
1
0
INSERT
2
STK_TOP_6
8
0
10
1.3
20
0
0
TEXT
8
SYM_TERMINAL
10
0
20
-6.096
40
1.778
1
2
0
ENDBLK
0
BLOCK
2
PKG_2
8
0
10
0
20
0
3
PKG_2
70
64
0
TEXT
8
PKG_INFO
10
0
20
0
40
1.778
1
*SYM:= 4
0
TEXT
8
PKG_INFO
10
0
20
-3.048
40
1.778
1
*PKG:= 0 C_3216 UND
0
ENDBLK
0
BLOCK
2
SYM_TOP_6
8
0
10
0
20
0
3
SYM_TOP_6
70
64
0
TEXT
8
SYM_NAME
10
0
20
0
40
1.778
1
2.54MM_2PIN
41
0.75
0
TEXT
8
SYM_PART_NAME_01
10
-1.3175
20
2.0475
40
0.889
1
 
41
0.75
7
W0$127R0
0
TEXT
8
SYM_PART_TYPE_01
10
-1
20
3
40
0.889
1
 
73
2
11
-1
21
3
41
0.75
7
W0$127R0
0
INSERT
2
PART_BODY_TOP_5
8
0
10
0
20
0
0
INSERT
2
STK_TOP_148
8
0
10
-1.27
20
0
0
TEXT
8
SYM_TERMINAL
10
0
20
-3.048
40
1.778
1
1
0
INSERT
2
STK_TOP_147
8
0
10
1.27
20
0
0
TEXT
8
SYM_TERMINAL
10
0
20
-6.096
40
1.778
1
2
0
ENDBLK
0
BLOCK
2
PKG_4
8
0
10
0
20
0
3
PKG_4
70
64
0
TEXT
8
PKG_INFO
10
0
20
0
40
1.778
1
*SYM:= 6
0
TEXT
8
PKG_INFO
10
0
20
-3.048
40
1.778
1
*PKG:= 0 2.54MM_2PIN UND
0
TEXT
8
PKG_INFO
10
0
20
-6.096
40
1.778
1
*GATE:=0
0
TEXT
8
PKG_INFO
10
0
20
-9.144
40
1.778
1
*GATEPIN:= 0 9 1 <>
0
TEXT
8
PKG_INFO
10
0
20
-12.192
40
1.778
1
*GATEPIN:= 0 9 2 <>
0
ENDBLK
0
BLOCK
2
SYM_TOP_7
8
0
10
0
20
0
3
SYM_TOP_7
70
64
0
TEXT
8
SYM_NAME
10
0
20
0
40
1.778
1
2.54MM_6PIN
41
0.75
0
TEXT
8
SYM_PART_TYPE_01
10
-6.08
20
3
40
0.889
1
 
73
2
11
-6.08
21
3
41
0.75
7
W0$127R0
0
TEXT
8
SYM_PART_NAME_01
10
-4.93
20
2.23
40
0.889
1
 
41
0.75
7
W0$127R0
0
INSERT
2
PART_BODY_TOP_6
8
0
10
0
20
0
0
INSERT
2
STK_TOP_148
8
0
10
-6.35
20
0
0
TEXT
8
SYM_TERMINAL
10
0
20
-3.048
40
1.778
1
1
0
INSERT
2
STK_TOP_147
8
0
10
-3.81
20
0
0
TEXT
8
SYM_TERMINAL
10
0
20
-6.096
40
1.778
1
2
0
INSERT
2
STK_TOP_147
8
0
10
-1.27
20
0
0
TEXT
8
SYM_TERMINAL
10
0
20
-9.144
40
1.778
1
3
0
INSERT
2
STK_TOP_147
8
0
10
1.27
20
0
0
TEXT
8
SYM_TERMINAL
10
0
20
-12.192
40
1.778
1
4
0
INSERT
2
STK_TOP_147
8
0
10
3.81
20
0
0
TEXT
8
SYM_TERMINAL
10
0
20
-15.24
40
1.778
1
5
0
INSERT
2
STK_TOP_147
8
0
10
6.35
20
0
0
TEXT
8
SYM_TERMINAL
10
0
20
-18.288
40
1.778
1
6
0
ENDBLK
0
BLOCK
2
PKG_5
8
0
10
0
20
0
3
PKG_5
70
64
0
TEXT
8
PKG_INFO
10
0
20
0
40
1.778
1
*SYM:= 7
0
TEXT
8
PKG_INFO
10
0
20
-3.048
40
1.778
1
*PKG:= 0 2.54MM_6PIN UND
0
TEXT
8
PKG_INFO
10
0
20
-6.096
40
1.778
1
*GATE:=0
0
TEXT
8
PKG_INFO
10
0
20
-9.144
40
1.778
1
*GATEPIN:= 0 9 1 <>
0
TEXT
8
PKG_INFO
10
0
20
-12.192
40
1.778
1
*GATEPIN:= 0 9 2 <>
0
TEXT
8
PKG_INFO
10
0
20
-15.24
40
1.778
1
*GATEPIN:= 0 9 3 <>
0
TEXT
8
PKG_INFO
10
0
20
-18.288
40
1.778
1
*GATEPIN:= 0 9 4 <>
0
TEXT
8
PKG_INFO
10
0
20
-21.336
40
1.778
1
*GATEPIN:= 0 9 5 <>
0
TEXT
8
PKG_INFO
10
0
20
-24.384
40
1.778
1
*GATEPIN:= 0 9 6 <>
0
ENDBLK
0
BLOCK
2
SYM_TOP_9
8
0
10
0
20
0
3
SYM_TOP_9
70
64
0
TEXT
8
SYM_NAME
10
0
20
0
40
1.778
1
2.54MM_3PIN
41
0.75
0
TEXT
8
SYM_PART_TYPE_01
10
-0.17
20
2.77
40
0.889
1
 
73
2
11
-0.17
21
2.77
41
0.75
7
W0$127R0
0
TEXT
8
SYM_PART_NAME_01
10
0.01
20
1.71
40
0.889
1
 
41
0.75
7
W0$127R0
0
INSERT
2
PART_BODY_TOP_8
8
0
10
0
20
0
0
INSERT
2
STK_TOP_148
8
0
10
-2.54
20
0
0
TEXT
8
SYM_TERMINAL
10
0
20
-3.048
40
1.778
1
1
0
INSERT
2
STK_TOP_147
8
0
10
0
20
0
0
TEXT
8
SYM_TERMINAL
10
0
20
-6.096
40
1.778
1
2
0
INSERT
2
STK_TOP_147
8
0
10
2.54
20
0
0
TEXT
8
SYM_TERMINAL
10
0
20
-9.144
40
1.778
1
3
0
ENDBLK
0
BLOCK
2
PKG_7
8
0
10
0
20
0
3
PKG_7
70
64
0
TEXT
8
PKG_INFO
10
0
20
0
40
1.778
1
*SYM:= 9
0
TEXT
8
PKG_INFO
10
0
20
-3.048
40
1.778
1
*PKG:= 0 2.54MM_3PIN UND
0
TEXT
8
PKG_INFO
10
0
20
-6.096
40
1.778
1
*GATE:=0
0
TEXT
8
PKG_INFO
10
0
20
-9.144
40
1.778
1
*GATEPIN:= 0 9 1 <>
0
TEXT
8
PKG_INFO
10
0
20
-12.192
40
1.778
1
*GATEPIN:= 0 9 2 <>
0
ENDBLK
0
BLOCK
2
SYM_TOP_10
8
0
10
0
20
0
3
SYM_TOP_10
70
64
0
TEXT
8
SYM_NAME
10
0
20
0
40
1.778
1
LXES15AAA1-133
41
0.75
0
TEXT
8
SYM_PART_NAME_01
10
-1.117
20
0.778
40
0.7
1
 
41
0.75
7
W0$1R0
0
TEXT
8
SYM_PART_TYPE_01
10
-1.124
20
1.652
40
0.7
1
 
41
0.75
7
W0$1R0
0
INSERT
2
PART_BODY_TOP_9
8
0
10
0
20
0
0
INSERT
2
STK_TOP_21
8
0
10
-0.45
20
0
0
TEXT
8
SYM_TERMINAL
10
0
20
-3.048
40
1.778
1
1
0
INSERT
2
STK_TOP_21
8
0
10
0.45
20
0
0
TEXT
8
SYM_TERMINAL
10
0
20
-6.096
40
1.778
1
2
0
ENDBLK
0
BLOCK
2
PKG_8
8
0
10
0
20
0
3
PKG_8
70
64
0
TEXT
8
PKG_INFO
10
0
20
0
40
1.778
1
*SYM:= 10
0
TEXT
8
PKG_INFO
10
0
20
-3.048
40
1.778
1
*PKG:= 0 LXES15AAA1-133 UND
0
TEXT
8
PKG_INFO
10
0
20
-6.096
40
1.778
1
*GATE:=0
0
TEXT
8
PKG_INFO
10
0
20
-9.144
40
1.778
1
*GATEPIN:= 0 9 1 <>
0
TEXT
8
PKG_INFO
10
0
20
-12.192
40
1.778
1
*GATEPIN:= 0 9 2 <>
0
ENDBLK
0
BLOCK
2
SYM_TOP_11
8
0
10
0
20
0
3
SYM_TOP_11
70
64
0
TEXT
8
SYM_NAME
10
0
20
0
40
1.778
1
ULCE0505C015FR
41
0.75
0
TEXT
8
SYM_PART_NAME_01
10
-0.95
20
-1.3
40
0.7
1
 
41
0.75
7
W0$1R0
0
TEXT
8
SYM_PART_TYPE_01
10
-0.9
20
-1.3
40
0.7
1
 
41
0.75
7
W0$1R0
0
INSERT
2
PART_BODY_TOP_10
8
0
10
0
20
0
0
INSERT
2
STK_TOP_21
8
0
10
-0.45
20
0
0
TEXT
8
SYM_TERMINAL
10
0
20
-3.048
40
1.778
1
1
0
INSERT
2
STK_TOP_21
8
0
10
0.45
20
0
0
TEXT
8
SYM_TERMINAL
10
0
20
-6.096
40
1.778
1
2
0
ENDBLK
0
BLOCK
2
PKG_9
8
0
10
0
20
0
3
PKG_9
70
64
0
TEXT
8
PKG_INFO
10
0
20
0
40
1.778
1
*SYM:= 11
0
TEXT
8
PKG_INFO
10
0
20
-3.048
40
1.778
1
*PKG:= 0 ULCE0505C015FR UND
0
ENDBLK
0
BLOCK
2
SYM_TOP_12
8
0
10
0
20
0
3
SYM_TOP_12
70
64
0
TEXT
8
SYM_NAME
10
0
20
0
40
1.778
1
ICVN0514X300FR
41
0.75
0
TEXT
8
SYM_PART_NAME_01
10
-0.95
20
-1.3
40
0.7
1
 
41
0.75
7
W0$1R0
0
TEXT
8
SYM_PART_TYPE_01
10
-0.9
20
-1.3
40
0.7
1
 
41
0.75
7
W0$1R0
0
INSERT
2
PART_BODY_TOP_11
8
0
10
0
20
0
0
INSERT
2
STK_TOP_149
8
0
10
-0.5
20
0
0
TEXT
8
SYM_TERMINAL
10
0
20
-3.048
40
1.778
1
1
0
INSERT
2
STK_TOP_149
8
0
10
0.5
20
0
0
TEXT
8
SYM_TERMINAL
10
0
20
-6.096
40
1.778
1
2
0
ENDBLK
0
BLOCK
2
PKG_10
8
0
10
0
20
0
3
PKG_10
70
64
0
TEXT
8
PKG_INFO
10
0
20
0
40
1.778
1
*SYM:= 12
0
TEXT
8
PKG_INFO
10
0
20
-3.048
40
1.778
1
*PKG:= 0 ICVN0514X300FR UND
0
ENDBLK
0
BLOCK
2
SYM_TOP_13
8
0
10
0
20
0
3
SYM_TOP_13
70
64
0
TEXT
8
SYM_NAME
10
0
20
0
40
1.778
1
TXB0108PWR
41
0.75
0
TEXT
8
SYM_PART_TYPE_01
10
0
20
0
40
0.889
1
 
73
2
11
0
21
0
41
0.75
7
W0$127R0
0
TEXT
8
SYM_PART_NAME_01
10
0
20
0
40
0.889
1
 
41
0.75
7
W0$127R0
0
INSERT
2
PART_BODY_TOP_12
8
0
10
0
20
0
0
INSERT
2
STK_TOP_155
8
0
10
-2.8
20
2.925
0
TEXT
8
SYM_TERMINAL
10
0
20
-3.048
40
1.778
1
1
0
INSERT
2
STK_TOP_155
8
0
10
-2.8
20
2.275
0
TEXT
8
SYM_TERMINAL
10
0
20
-6.096
40
1.778
1
2
0
INSERT
2
STK_TOP_155
8
0
10
-2.8
20
1.625
0
TEXT
8
SYM_TERMINAL
10
0
20
-9.144
40
1.778
1
3
0
INSERT
2
STK_TOP_155
8
0
10
-2.8
20
0.975
0
TEXT
8
SYM_TERMINAL
10
0
20
-12.192
40
1.778
1
4
0
INSERT
2
STK_TOP_155
8
0
10
-2.8
20
0.325
0
TEXT
8
SYM_TERMINAL
10
0
20
-15.24
40
1.778
1
5
0
INSERT
2
STK_TOP_155
8
0
10
-2.8
20
-0.325
0
TEXT
8
SYM_TERMINAL
10
0
20
-18.288
40
1.778
1
6
0
INSERT
2
STK_TOP_155
8
0
10
-2.8
20
-0.975
0
TEXT
8
SYM_TERMINAL
10
0
20
-21.336
40
1.778
1
7
0
INSERT
2
STK_TOP_155
8
0
10
-2.8
20
-1.625
0
TEXT
8
SYM_TERMINAL
10
0
20
-24.384
40
1.778
1
8
0
INSERT
2
STK_TOP_155
8
0
10
-2.8
20
-2.275
0
TEXT
8
SYM_TERMINAL
10
0
20
-27.432
40
1.778
1
9
0
INSERT
2
STK_TOP_155
8
0
10
-2.8
20
-2.925
0
TEXT
8
SYM_TERMINAL
10
0
20
-30.48
40
1.778
1
10
0
INSERT
2
STK_TOP_155
8
0
10
2.8
20
-2.925
0
TEXT
8
SYM_TERMINAL
10
0
20
-33.528
40
1.778
1
11
0
INSERT
2
STK_TOP_155
8
0
10
2.8
20
-2.275
0
TEXT
8
SYM_TERMINAL
10
0
20
-36.576
40
1.778
1
12
0
INSERT
2
STK_TOP_155
8
0
10
2.8
20
-1.625
0
TEXT
8
SYM_TERMINAL
10
0
20
-39.624
40
1.778
1
13
0
INSERT
2
STK_TOP_155
8
0
10
2.8
20
-0.975
0
TEXT
8
SYM_TERMINAL
10
0
20
-42.672
40
1.778
1
14
0
INSERT
2
STK_TOP_155
8
0
10
2.8
20
-0.325
0
TEXT
8
SYM_TERMINAL
10
0
20
-45.72
40
1.778
1
15
0
INSERT
2
STK_TOP_155
8
0
10
2.8
20
0.325
0
TEXT
8
SYM_TERMINAL
10
0
20
-48.768
40
1.778
1
16
0
INSERT
2
STK_TOP_155
8
0
10
2.8
20
0.975
0
TEXT
8
SYM_TERMINAL
10
0
20
-51.816
40
1.778
1
17
0
INSERT
2
STK_TOP_155
8
0
10
2.8
20
1.625
0
TEXT
8
SYM_TERMINAL
10
0
20
-54.864
40
1.778
1
18
0
INSERT
2
STK_TOP_155
8
0
10
2.8
20
2.275
0
TEXT
8
SYM_TERMINAL
10
0
20
-57.912
40
1.778
1
19
0
INSERT
2
STK_TOP_155
8
0
10
2.8
20
2.925
0
TEXT
8
SYM_TERMINAL
10
0
20
-60.96
40
1.778
1
20
0
ENDBLK
0
BLOCK
2
PKG_11
8
0
10
0
20
0
3
PKG_11
70
64
0
TEXT
8
PKG_INFO
10
0
20
0
40
1.778
1
*SYM:= 13
0
TEXT
8
PKG_INFO
10
0
20
-3.048
40
1.778
1
*PKG:= 0 TXB0108PWR UND
0
TEXT
8
PKG_INFO
10
0
20
-6.096
40
1.778
1
*GATE:=0
0
TEXT
8
PKG_INFO
10
0
20
-9.144
40
1.778
1
*GATEPIN:= 0 9 1 <>
0
TEXT
8
PKG_INFO
10
0
20
-12.192
40
1.778
1
*GATEPIN:= 0 9 2 <>
0
TEXT
8
PKG_INFO
10
0
20
-15.24
40
1.778
1
*GATEPIN:= 0 9 3 <>
0
TEXT
8
PKG_INFO
10
0
20
-18.288
40
1.778
1
*GATEPIN:= 0 9 4 <>
0
TEXT
8
PKG_INFO
10
0
20
-21.336
40
1.778
1
*GATEPIN:= 0 9 5 <>
0
TEXT
8
PKG_INFO
10
0
20
-24.384
40
1.778
1
*GATEPIN:= 0 9 6 <>
0
TEXT
8
PKG_INFO
10
0
20
-27.432
40
1.778
1
*GATEPIN:= 0 9 7 <>
0
TEXT
8
PKG_INFO
10
0
20
-30.48
40
1.778
1
*GATEPIN:= 0 9 8 <>
0
TEXT
8
PKG_INFO
10
0
20
-33.528
40
1.778
1
*GATEPIN:= 0 9 9 <>
0
TEXT
8
PKG_INFO
10
0
20
-36.576
40
1.778
1
*GATEPIN:= 0 9 10 <>
0
TEXT
8
PKG_INFO
10
0
20
-39.624
40
1.778
1
*GATEPIN:= 0 9 11 <>
0
TEXT
8
PKG_INFO
10
0
20
-42.672
40
1.778
1
*GATEPIN:= 0 9 12 <>
0
TEXT
8
PKG_INFO
10
0
20
-45.72
40
1.778
1
*GATEPIN:= 0 9 13 <>
0
TEXT
8
PKG_INFO
10
0
20
-48.768
40
1.778
1
*GATEPIN:= 0 9 14 <>
0
TEXT
8
PKG_INFO
10
0
20
-51.816
40
1.778
1
*GATEPIN:= 0 9 15 <>
0
TEXT
8
PKG_INFO
10
0
20
-54.864
40
1.778
1
*GATEPIN:= 0 9 16 <>
0
TEXT
8
PKG_INFO
10
0
20
-57.912
40
1.778
1
*GATEPIN:= 0 9 17 <>
0
TEXT
8
PKG_INFO
10
0
20
-60.96
40
1.778
1
*GATEPIN:= 0 9 18 <>
0
TEXT
8
PKG_INFO
10
0
20
-64.008
40
1.778
1
*GATEPIN:= 0 9 19 <>
0
TEXT
8
PKG_INFO
10
0
20
-67.056
40
1.778
1
*GATEPIN:= 0 9 20 <>
0
ENDBLK
0
BLOCK
2
SYM_TOP_16
8
0
10
0
20
0
3
SYM_TOP_16
70
64
0
TEXT
8
SYM_NAME
10
0
20
0
40
1.778
1
LED_1608
41
0.75
0
TEXT
8
SYM_PART_NAME_01
10
-1.778
20
3.81
40
1.778
1
 
41
0.75
7
W0$254R0
0
TEXT
8
SYM_PART_TYPE_01
10
-1.778
20
3.81
40
1.778
1
 
73
2
11
-1.778
21
3.81
41
0.75
7
W0$254R0
0
INSERT
2
PART_BODY_TOP_15
8
0
10
0
20
0
0
INSERT
2
STK_TOP_117
8
0
10
0.825
20
0
0
TEXT
8
SYM_TERMINAL
10
0
20
-3.048
40
1.778
1
1
0
INSERT
2
STK_TOP_117
8
0
10
-0.825
20
0
0
TEXT
8
SYM_TERMINAL
10
0
20
-6.096
40
1.778
1
2
0
ENDBLK
0
BLOCK
2
PKG_14
8
0
10
0
20
0
3
PKG_14
70
64
0
TEXT
8
PKG_INFO
10
0
20
0
40
1.778
1
*SYM:= 16
0
TEXT
8
PKG_INFO
10
0
20
-3.048
40
1.778
1
*PKG:= 0 LED_1608 UND
0
ENDBLK
0
BLOCK
2
SYM_TOP_18
8
0
10
0
20
0
3
SYM_TOP_18
70
64
0
TEXT
8
SYM_NAME
10
0
20
0
40
1.778
1
R_1005
41
0.75
0
TEXT
8
SYM_PART_TYPE_01
10
-1.124
20
1.652
40
0.7
1
 
41
0.75
7
W0$1R0
0
TEXT
8
SYM_PART_NAME_01
10
-1.117
20
0.778
40
0.7
1
 
41
0.75
7
W0$1R0
0
INSERT
2
PART_BODY_TOP_17
8
0
10
0
20
0
0
INSERT
2
STK_TOP_21
8
0
10
-0.45
20
0
0
TEXT
8
SYM_TERMINAL
10
0
20
-3.048
40
1.778
1
1
0
INSERT
2
STK_TOP_21
8
0
10
0.45
20
0
0
TEXT
8
SYM_TERMINAL
10
0
20
-6.096
40
1.778
1
2
0
ENDBLK
0
BLOCK
2
PKG_16
8
0
10
0
20
0
3
PKG_16
70
64
0
TEXT
8
PKG_INFO
10
0
20
0
40
1.778
1
*SYM:= 18
0
TEXT
8
PKG_INFO
10
0
20
-3.048
40
1.778
1
*PKG:= 0 R_1005 UND
0
ENDBLK
0
BLOCK
2
SYM_TOP_19
8
0
10
0
20
0
3
SYM_TOP_19
70
64
0
TEXT
8
SYM_NAME
10
0
20
0
40
1.778
1
BG96
41
0.75
0
TEXT
8
SYM_PART_NAME_01
10
0
20
0
40
0.889
1
 
41
0.75
7
W0$127R0
0
TEXT
8
SYM_PART_TYPE_01
10
0
20
0
40
0.889
1
 
73
2
11
0
21
0
41
0.75
7
W0$127R0
0
INSERT
2
PART_BODY_TOP_18
8
0
10
0
20
0
0
INSERT
2
STK_TOP_152
8
0
10
-9.175
20
9.7
0
TEXT
8
SYM_TERMINAL
10
0
20
-3.048
40
1.778
1
1
0
INSERT
2
STK_TOP_152
8
0
10
-9.175
20
8.6
0
TEXT
8
SYM_TERMINAL
10
0
20
-6.096
40
1.778
1
2
0
INSERT
2
STK_TOP_152
8
0
10
-9.175
20
7.5
0
TEXT
8
SYM_TERMINAL
10
0
20
-9.144
40
1.778
1
3
0
INSERT
2
STK_TOP_152
8
0
10
-9.175
20
6.4
0
TEXT
8
SYM_TERMINAL
10
0
20
-12.192
40
1.778
1
4
0
INSERT
2
STK_TOP_152
8
0
10
-9.175
20
5.3
0
TEXT
8
SYM_TERMINAL
10
0
20
-15.24
40
1.778
1
5
0
INSERT
2
STK_TOP_152
8
0
10
-9.175
20
4.2
0
TEXT
8
SYM_TERMINAL
10
0
20
-18.288
40
1.778
1
6
0
INSERT
2
STK_TOP_152
8
0
10
-9.175
20
3.1
0
TEXT
8
SYM_TERMINAL
10
0
20
-21.336
40
1.778
1
7
0
INSERT
2
STK_TOP_152
8
0
10
-9.175
20
2
0
TEXT
8
SYM_TERMINAL
10
0
20
-24.384
40
1.778
1
8
0
INSERT
2
STK_TOP_152
8
0
10
-9.175
20
0.9
0
TEXT
8
SYM_TERMINAL
10
0
20
-27.432
40
1.778
1
9
0
INSERT
2
STK_TOP_152
8
0
10
-9.175
20
-0.2
0
TEXT
8
SYM_TERMINAL
10
0
20
-30.48
40
1.778
1
10
0
INSERT
2
STK_TOP_152
8
0
10
-9.175
20
-1.9
0
TEXT
8
SYM_TERMINAL
10
0
20
-33.528
40
1.778
1
11
0
INSERT
2
STK_TOP_152
8
0
10
-9.175
20
-3
0
TEXT
8
SYM_TERMINAL
10
0
20
-36.576
40
1.778
1
12
0
INSERT
2
STK_TOP_152
8
0
10
-9.175
20
-4.1
0
TEXT
8
SYM_TERMINAL
10
0
20
-39.624
40
1.778
1
13
0
INSERT
2
STK_TOP_152
8
0
10
-9.175
20
-5.2
0
TEXT
8
SYM_TERMINAL
10
0
20
-42.672
40
1.778
1
14
0
INSERT
2
STK_TOP_152
8
0
10
-9.175
20
-6.3
0
TEXT
8
SYM_TERMINAL
10
0
20
-45.72
40
1.778
1
15
0
INSERT
2
STK_TOP_152
8
0
10
-9.175
20
-7.4
0
TEXT
8
SYM_TERMINAL
10
0
20
-48.768
40
1.778
1
16
0
INSERT
2
STK_TOP_152
8
0
10
-9.175
20
-8.5
0
TEXT
8
SYM_TERMINAL
10
0
20
-51.816
40
1.778
1
17
0
INSERT
2
STK_TOP_152
8
0
10
-9.175
20
-9.6
0
TEXT
8
SYM_TERMINAL
10
0
20
-54.864
40
1.778
1
18
0
INSERT
2
STK_TOP_153
8
0
10
-7.45
20
-11.025
0
TEXT
8
SYM_TERMINAL
10
0
20
-57.912
40
1.778
1
19
0
INSERT
2
STK_TOP_153
8
0
10
-6.35
20
-11.025
0
TEXT
8
SYM_TERMINAL
10
0
20
-60.96
40
1.778
1
20
0
INSERT
2
STK_TOP_153
8
0
10
-5.25
20
-11.025
0
TEXT
8
SYM_TERMINAL
10
0
20
-64.008
40
1.778
1
21
0
INSERT
2
STK_TOP_153
8
0
10
-4.15
20
-11.025
0
TEXT
8
SYM_TERMINAL
10
0
20
-67.056
40
1.778
1
22
0
INSERT
2
STK_TOP_153
8
0
10
-3.05
20
-11.025
0
TEXT
8
SYM_TERMINAL
10
0
20
-70.104
40
1.778
1
23
0
INSERT
2
STK_TOP_153
8
0
10
-1.95
20
-11.025
0
TEXT
8
SYM_TERMINAL
10
0
20
-73.152
40
1.778
1
24
0
INSERT
2
STK_TOP_153
8
0
10
0.55
20
-11.025
0
TEXT
8
SYM_TERMINAL
10
0
20
-76.2
40
1.778
1
25
0
INSERT
2
STK_TOP_153
8
0
10
1.65
20
-11.025
0
TEXT
8
SYM_TERMINAL
10
0
20
-79.248
40
1.778
1
26
0
INSERT
2
STK_TOP_153
8
0
10
2.75
20
-11.025
0
TEXT
8
SYM_TERMINAL
10
0
20
-82.296
40
1.778
1
27
0
INSERT
2
STK_TOP_153
8
0
10
3.85
20
-11.025
0
TEXT
8
SYM_TERMINAL
10
0
20
-85.344
40
1.778
1
28
0
INSERT
2
STK_TOP_153
8
0
10
4.95
20
-11.025
0
TEXT
8
SYM_TERMINAL
10
0
20
-88.392
40
1.778
1
29
0
INSERT
2
STK_TOP_153
8
0
10
6.05
20
-11.025
0
TEXT
8
SYM_TERMINAL
10
0
20
-91.44
40
1.778
1
30
0
INSERT
2
STK_TOP_153
8
0
10
7.15
20
-11.025
0
TEXT
8
SYM_TERMINAL
10
0
20
-94.488
40
1.778
1
31
0
INSERT
2
STK_TOP_152
8
0
10
9.175
20
-9.6
0
TEXT
8
SYM_TERMINAL
10
0
20
-97.536
40
1.778
1
32
0
INSERT
2
STK_TOP_152
8
0
10
9.175
20
-8.5
0
TEXT
8
SYM_TERMINAL
10
0
20
-100.584
40
1.778
1
33
0
INSERT
2
STK_TOP_152
8
0
10
9.175
20
-7.4
0
TEXT
8
SYM_TERMINAL
10
0
20
-103.632
40
1.778
1
34
0
INSERT
2
STK_TOP_152
8
0
10
9.175
20
-6.3
0
TEXT
8
SYM_TERMINAL
10
0
20
-106.68
40
1.778
1
35
0
INSERT
2
STK_TOP_152
8
0
10
9.175
20
-5.2
0
TEXT
8
SYM_TERMINAL
10
0
20
-109.728
40
1.778
1
36
0
INSERT
2
STK_TOP_152
8
0
10
9.175
20
-4.1
0
TEXT
8
SYM_TERMINAL
10
0
20
-112.776
40
1.778
1
37
0
INSERT
2
STK_TOP_152
8
0
10
9.175
20
-3
0
TEXT
8
SYM_TERMINAL
10
0
20
-115.824
40
1.778
1
38
0
INSERT
2
STK_TOP_152
8
0
10
9.175
20
-1.9
0
TEXT
8
SYM_TERMINAL
10
0
20
-118.872
40
1.778
1
39
0
INSERT
2
STK_TOP_152
8
0
10
9.175
20
-0.2
0
TEXT
8
SYM_TERMINAL
10
0
20
-121.92
40
1.778
1
40
0
INSERT
2
STK_TOP_152
8
0
10
9.175
20
0.9
0
TEXT
8
SYM_TERMINAL
10
0
20
-124.968
40
1.778
1
41
0
INSERT
2
STK_TOP_152
8
0
10
9.175
20
2
0
TEXT
8
SYM_TERMINAL
10
0
20
-128.016
40
1.778
1
42
0
INSERT
2
STK_TOP_152
8
0
10
9.175
20
3.1
0
TEXT
8
SYM_TERMINAL
10
0
20
-131.064
40
1.778
1
43
0
INSERT
2
STK_TOP_152
8
0
10
9.175
20
4.2
0
TEXT
8
SYM_TERMINAL
10
0
20
-134.112
40
1.778
1
44
0
INSERT
2
STK_TOP_152
8
0
10
9.175
20
5.3
0
TEXT
8
SYM_TERMINAL
10
0
20
-137.16
40
1.778
1
45
0
INSERT
2
STK_TOP_152
8
0
10
9.175
20
6.4
0
TEXT
8
SYM_TERMINAL
10
0
20
-140.208
40
1.778
1
46
0
INSERT
2
STK_TOP_152
8
0
10
9.175
20
7.5
0
TEXT
8
SYM_TERMINAL
10
0
20
-143.256
40
1.778
1
47
0
INSERT
2
STK_TOP_152
8
0
10
9.175
20
8.6
0
TEXT
8
SYM_TERMINAL
10
0
20
-146.304
40
1.778
1
48
0
INSERT
2
STK_TOP_152
8
0
10
9.175
20
9.7
0
TEXT
8
SYM_TERMINAL
10
0
20
-149.352
40
1.778
1
49
0
INSERT
2
STK_TOP_153
8
0
10
7.15
20
11.025
0
TEXT
8
SYM_TERMINAL
10
0
20
-152.4
40
1.778
1
50
0
INSERT
2
STK_TOP_153
8
0
10
6.05
20
11.025
0
TEXT
8
SYM_TERMINAL
10
0
20
-155.448
40
1.778
1
51
0
INSERT
2
STK_TOP_153
8
0
10
4.95
20
11.025
0
TEXT
8
SYM_TERMINAL
10
0
20
-158.496
40
1.778
1
52
0
INSERT
2
STK_TOP_153
8
0
10
3.85
20
11.025
0
TEXT
8
SYM_TERMINAL
10
0
20
-161.544
40
1.778
1
53
0
INSERT
2
STK_TOP_153
8
0
10
2.75
20
11.025
0
TEXT
8
SYM_TERMINAL
10
0
20
-164.592
40
1.778
1
54
0
INSERT
2
STK_TOP_153
8
0
10
1.65
20
11.025
0
TEXT
8
SYM_TERMINAL
10
0
20
-167.64
40
1.778
1
55
0
INSERT
2
STK_TOP_153
8
0
10
0.55
20
11.025
0
TEXT
8
SYM_TERMINAL
10
0
20
-170.688
40
1.778
1
56
0
INSERT
2
STK_TOP_153
8
0
10
-1.95
20
11.025
0
TEXT
8
SYM_TERMINAL
10
0
20
-173.736
40
1.778
1
57
0
INSERT
2
STK_TOP_153
8
0
10
-3.05
20
11.025
0
TEXT
8
SYM_TERMINAL
10
0
20
-176.784
40
1.778
1
58
0
INSERT
2
STK_TOP_153
8
0
10
-4.15
20
11.025
0
TEXT
8
SYM_TERMINAL
10
0
20
-179.832
40
1.778
1
59
0
INSERT
2
STK_TOP_153
8
0
10
-5.25
20
11.025
0
TEXT
8
SYM_TERMINAL
10
0
20
-182.88
40
1.778
1
60
0
INSERT
2
STK_TOP_153
8
0
10
-6.35
20
11.025
0
TEXT
8
SYM_TERMINAL
10
0
20
-185.928
40
1.778
1
61
0
INSERT
2
STK_TOP_153
8
0
10
-7.45
20
11.025
0
TEXT
8
SYM_TERMINAL
10
0
20
-188.976
40
1.778
1
62
0
INSERT
2
STK_TOP_151
8
0
10
-5.95
20
4.25
0
TEXT
8
SYM_TERMINAL
10
0
20
-192.024
40
1.778
1
63
0
INSERT
2
STK_TOP_151
8
0
10
-5.95
20
2.55
0
TEXT
8
SYM_TERMINAL
10
0
20
-195.072
40
1.778
1
64
0
INSERT
2
STK_TOP_151
8
0
10
-5.95
20
0.85
0
TEXT
8
SYM_TERMINAL
10
0
20
-198.12
40
1.778
1
65
0
INSERT
2
STK_TOP_151
8
0
10
-5.95
20
-0.85
0
TEXT
8
SYM_TERMINAL
10
0
20
-201.168
40
1.778
1
66
0
INSERT
2
STK_TOP_151
8
0
10
-5.95
20
-2.55
0
TEXT
8
SYM_TERMINAL
10
0
20
-204.216
40
1.778
1
67
0
INSERT
2
STK_TOP_151
8
0
10
-5.95
20
-4.25
0
TEXT
8
SYM_TERMINAL
10
0
20
-207.264
40
1.778
1
68
0
INSERT
2
STK_TOP_151
8
0
10
-2.55
20
-7.65
0
TEXT
8
SYM_TERMINAL
10
0
20
-210.312
40
1.778
1
69
0
INSERT
2
STK_TOP_151
8
0
10
-0.85
20
-7.65
0
TEXT
8
SYM_TERMINAL
10
0
20
-213.36
40
1.778
1
70
0
INSERT
2
STK_TOP_151
8
0
10
0.85
20
-7.65
0
TEXT
8
SYM_TERMINAL
10
0
20
-216.408
40
1.778
1
71
0
INSERT
2
STK_TOP_151
8
0
10
2.55
20
-7.65
0
TEXT
8
SYM_TERMINAL
10
0
20
-219.456
40
1.778
1
72
0
INSERT
2
STK_TOP_151
8
0
10
5.95
20
-4.25
0
TEXT
8
SYM_TERMINAL
10
0
20
-222.504
40
1.778
1
73
0
INSERT
2
STK_TOP_151
8
0
10
5.95
20
-2.55
0
TEXT
8
SYM_TERMINAL
10
0
20
-225.552
40
1.778
1
74
0
INSERT
2
STK_TOP_151
8
0
10
5.95
20
-0.85
0
TEXT
8
SYM_TERMINAL
10
0
20
-228.6
40
1.778
1
75
0
INSERT
2
STK_TOP_151
8
0
10
5.95
20
0.85
0
TEXT
8
SYM_TERMINAL
10
0
20
-231.648
40
1.778
1
76
0
INSERT
2
STK_TOP_151
8
0
10
5.95
20
2.55
0
TEXT
8
SYM_TERMINAL
10
0
20
-234.696
40
1.778
1
77
0
INSERT
2
STK_TOP_151
8
0
10
5.95
20
4.25
0
TEXT
8
SYM_TERMINAL
10
0
20
-237.744
40
1.778
1
78
0
INSERT
2
STK_TOP_151
8
0
10
2.55
20
7.65
0
TEXT
8
SYM_TERMINAL
10
0
20
-240.792
40
1.778
1
79
0
INSERT
2
STK_TOP_151
8
0
10
0.85
20
7.65
0
TEXT
8
SYM_TERMINAL
10
0
20
-243.84
40
1.778
1
80
0
INSERT
2
STK_TOP_151
8
0
10
-0.85
20
7.65
0
TEXT
8
SYM_TERMINAL
10
0
20
-246.888
40
1.778
1
81
0
INSERT
2
STK_TOP_151
8
0
10
-2.55
20
7.65
0
TEXT
8
SYM_TERMINAL
10
0
20
-249.936
40
1.778
1
82
0
INSERT
2
STK_TOP_151
8
0
10
-4.25
20
4.25
0
TEXT
8
SYM_TERMINAL
10
0
20
-252.984
40
1.778
1
83
0
INSERT
2
STK_TOP_151
8
0
10
-4.25
20
2.55
0
TEXT
8
SYM_TERMINAL
10
0
20
-256.032
40
1.778
1
84
0
INSERT
2
STK_TOP_151
8
0
10
-4.25
20
0.85
0
TEXT
8
SYM_TERMINAL
10
0
20
-259.08
40
1.778
1
85
0
INSERT
2
STK_TOP_151
8
0
10
-4.25
20
-0.85
0
TEXT
8
SYM_TERMINAL
10
0
20
-262.128
40
1.778
1
86
0
INSERT
2
STK_TOP_151
8
0
10
-4.25
20
-2.55
0
TEXT
8
SYM_TERMINAL
10
0
20
-265.176
40
1.778
1
87
0
INSERT
2
STK_TOP_151
8
0
10
-4.25
20
-4.25
0
TEXT
8
SYM_TERMINAL
10
0
20
-268.224
40
1.778
1
88
0
INSERT
2
STK_TOP_151
8
0
10
-2.55
20
-5.95
0
TEXT
8
SYM_TERMINAL
10
0
20
-271.272
40
1.778
1
89
0
INSERT
2
STK_TOP_151
8
0
10
-0.85
20
-5.95
0
TEXT
8
SYM_TERMINAL
10
0
20
-274.32
40
1.778
1
90
0
INSERT
2
STK_TOP_151
8
0
10
0.85
20
-5.95
0
TEXT
8
SYM_TERMINAL
10
0
20
-277.368
40
1.778
1
91
0
INSERT
2
STK_TOP_151
8
0
10
2.55
20
-5.95
0
TEXT
8
SYM_TERMINAL
10
0
20
-280.416
40
1.778
1
92
0
INSERT
2
STK_TOP_151
8
0
10
4.25
20
-4.25
0
TEXT
8
SYM_TERMINAL
10
0
20
-283.464
40
1.778
1
93
0
INSERT
2
STK_TOP_151
8
0
10
4.25
20
-2.55
0
TEXT
8
SYM_TERMINAL
10
0
20
-286.512
40
1.778
1
94
0
INSERT
2
STK_TOP_151
8
0
10
4.25
20
-0.85
0
TEXT
8
SYM_TERMINAL
10
0
20
-289.56
40
1.778
1
95
0
INSERT
2
STK_TOP_151
8
0
10
4.25
20
0.85
0
TEXT
8
SYM_TERMINAL
10
0
20
-292.608
40
1.778
1
96
0
INSERT
2
STK_TOP_151
8
0
10
4.25
20
2.55
0
TEXT
8
SYM_TERMINAL
10
0
20
-295.656
40
1.778
1
97
0
INSERT
2
STK_TOP_151
8
0
10
4.25
20
4.25
0
TEXT
8
SYM_TERMINAL
10
0
20
-298.704
40
1.778
1
98
0
INSERT
2
STK_TOP_151
8
0
10
2.55
20
5.95
0
TEXT
8
SYM_TERMINAL
10
0
20
-301.752
40
1.778
1
99
0
INSERT
2
STK_TOP_151
8
0
10
0.85
20
5.95
0
TEXT
8
SYM_TERMINAL
10
0
20
-304.8
40
1.778
1
100
0
INSERT
2
STK_TOP_151
8
0
10
-0.85
20
5.95
0
TEXT
8
SYM_TERMINAL
10
0
20
-307.848
40
1.778
1
101
0
INSERT
2
STK_TOP_151
8
0
10
-2.55
20
5.95
0
TEXT
8
SYM_TERMINAL
10
0
20
-310.896
40
1.778
1
102
0
ENDBLK
0
BLOCK
2
PKG_17
8
0
10
0
20
0
3
PKG_17
70
64
0
TEXT
8
PKG_INFO
10
0
20
0
40
1.778
1
*SYM:= 19
0
TEXT
8
PKG_INFO
10
0
20
-3.048
40
1.778
1
*PKG:= 0 BG96 UND
0
TEXT
8
PKG_INFO
10
0
20
-6.096
40
1.778
1
*GATE:=0
0
TEXT
8
PKG_INFO
10
0
20
-9.144
40
1.778
1
*GATEPIN:= 0 9 1 PSM_IND
0
TEXT
8
PKG_INFO
10
0
20
-12.192
40
1.778
1
*GATEPIN:= 0 9 2 ADC1
0
TEXT
8
PKG_INFO
10
0
20
-15.24
40
1.778
1
*GATEPIN:= 0 9 3 GND
0
TEXT
8
PKG_INFO
10
0
20
-18.288
40
1.778
1
*GATEPIN:= 0 9 4 PCM_CLK
0
TEXT
8
PKG_INFO
10
0
20
-21.336
40
1.778
1
*GATEPIN:= 0 9 5 PCM_SYNC
0
TEXT
8
PKG_INFO
10
0
20
-24.384
40
1.778
1
*GATEPIN:= 0 9 6 PCM_IN
0
TEXT
8
PKG_INFO
10
0
20
-27.432
40
1.778
1
*GATEPIN:= 0 9 7 PCM_OUT
0
TEXT
8
PKG_INFO
10
0
20
-30.48
40
1.778
1
*GATEPIN:= 0 9 8 USB_VBUS
0
TEXT
8
PKG_INFO
10
0
20
-33.528
40
1.778
1
*GATEPIN:= 0 9 9 USB_DP
0
TEXT
8
PKG_INFO
10
0
20
-36.576
40
1.778
1
*GATEPIN:= 0 9 10 USB_DM
0
TEXT
8
PKG_INFO
10
0
20
-39.624
40
1.778
1
*GATEPIN:= 0 9 11 RESERVED
0
TEXT
8
PKG_INFO
10
0
20
-42.672
40
1.778
1
*GATEPIN:= 0 9 12 RESERVED
0
TEXT
8
PKG_INFO
10
0
20
-45.72
40
1.778
1
*GATEPIN:= 0 9 13 RESERVED
0
TEXT
8
PKG_INFO
10
0
20
-48.768
40
1.778
1
*GATEPIN:= 0 9 14 RESERVED
0
TEXT
8
PKG_INFO
10
0
20
-51.816
40
1.778
1
*GATEPIN:= 0 9 15 PWRKEY
0
TEXT
8
PKG_INFO
10
0
20
-54.864
40
1.778
1
*GATEPIN:= 0 9 16 RESERVED
0
TEXT
8
PKG_INFO
10
0
20
-57.912
40
1.778
1
*GATEPIN:= 0 9 17 RESET_N
0
TEXT
8
PKG_INFO
10
0
20
-60.96
40
1.778
1
*GATEPIN:= 0 9 18 W_DISABLE#
0
TEXT
8
PKG_INFO
10
0
20
-64.008
40
1.778
1
*GATEPIN:= 0 9 19 AP_READY
0
TEXT
8
PKG_INFO
10
0
20
-67.056
40
1.778
1
*GATEPIN:= 0 9 20 STATUS
0
TEXT
8
PKG_INFO
10
0
20
-70.104
40
1.778
1
*GATEPIN:= 0 9 21 NETLIGHT
0
TEXT
8
PKG_INFO
10
0
20
-73.152
40
1.778
1
*GATEPIN:= 0 9 22 DBG_RXD
0
TEXT
8
PKG_INFO
10
0
20
-76.2
40
1.778
1
*GATEPIN:= 0 9 23 DBG_TXD
0
TEXT
8
PKG_INFO
10
0
20
-79.248
40
1.778
1
*GATEPIN:= 0 9 24 ADC0
0
TEXT
8
PKG_INFO
10
0
20
-82.296
40
1.778
1
*GATEPIN:= 0 9 25 RESERVED
0
TEXT
8
PKG_INFO
10
0
20
-85.344
40
1.778
1
*GATEPIN:= 0 9 26 GPIO26
0
TEXT
8
PKG_INFO
10
0
20
-88.392
40
1.778
1
*GATEPIN:= 0 9 27 UART3_TXD
0
TEXT
8
PKG_INFO
10
0
20
-91.44
40
1.778
1
*GATEPIN:= 0 9 28 UART3_RXD
0
TEXT
8
PKG_INFO
10
0
20
-94.488
40
1.778
1
*GATEPIN:= 0 9 29 VDD_EXT
0
TEXT
8
PKG_INFO
10
0
20
-97.536
40
1.778
1
*GATEPIN:= 0 9 30 DTR
0
TEXT
8
PKG_INFO
10
0
20
-100.584
40
1.778
1
*GATEPIN:= 0 9 31 GND
0
TEXT
8
PKG_INFO
10
0
20
-103.632
40
1.778
1
*GATEPIN:= 0 9 32 VBAT_BB
0
TEXT
8
PKG_INFO
10
0
20
-106.68
40
1.778
1
*GATEPIN:= 0 9 33 VBAT_BB
0
TEXT
8
PKG_INFO
10
0
20
-109.728
40
1.778
1
*GATEPIN:= 0 9 34 RXD
0
TEXT
8
PKG_INFO
10
0
20
-112.776
40
1.778
1
*GATEPIN:= 0 9 35 TXD
0
TEXT
8
PKG_INFO
10
0
20
-115.824
40
1.778
1
*GATEPIN:= 0 9 36 CTS
0
TEXT
8
PKG_INFO
10
0
20
-118.872
40
1.778
1
*GATEPIN:= 0 9 37 RTS
0
TEXT
8
PKG_INFO
10
0
20
-121.92
40
1.778
1
*GATEPIN:= 0 9 38 DCD
0
TEXT
8
PKG_INFO
10
0
20
-124.968
40
1.778
1
*GATEPIN:= 0 9 39 RI
0
TEXT
8
PKG_INFO
10
0
20
-128.016
40
1.778
1
*GATEPIN:= 0 9 40 I2C_SCL
0
TEXT
8
PKG_INFO
10
0
20
-131.064
40
1.778
1
*GATEPIN:= 0 9 41 I2C_SDA
0
TEXT
8
PKG_INFO
10
0
20
-134.112
40
1.778
1
*GATEPIN:= 0 9 42 USIM_PRESENCE
0
TEXT
8
PKG_INFO
10
0
20
-137.16
40
1.778
1
*GATEPIN:= 0 9 43 USIM_VDD
0
TEXT
8
PKG_INFO
10
0
20
-140.208
40
1.778
1
*GATEPIN:= 0 9 44 USIM_RST
0
TEXT
8
PKG_INFO
10
0
20
-143.256
40
1.778
1
*GATEPIN:= 0 9 45 USIM_DATA
0
TEXT
8
PKG_INFO
10
0
20
-146.304
40
1.778
1
*GATEPIN:= 0 9 46 USIM_CLK
0
TEXT
8
PKG_INFO
10
0
20
-149.352
40
1.778
1
*GATEPIN:= 0 9 47 USIM_GND
0
TEXT
8
PKG_INFO
10
0
20
-152.4
40
1.778
1
*GATEPIN:= 0 9 48 GND
0
TEXT
8
PKG_INFO
10
0
20
-155.448
40
1.778
1
*GATEPIN:= 0 9 49 ANT_GNSS
0
TEXT
8
PKG_INFO
10
0
20
-158.496
40
1.778
1
*GATEPIN:= 0 9 50 GND
0
TEXT
8
PKG_INFO
10
0
20
-161.544
40
1.778
1
*GATEPIN:= 0 9 51 RESERVED
0
TEXT
8
PKG_INFO
10
0
20
-164.592
40
1.778
1
*GATEPIN:= 0 9 52 VBAT_RF
0
TEXT
8
PKG_INFO
10
0
20
-167.64
40
1.778
1
*GATEPIN:= 0 9 53 VBAT_RF
0
TEXT
8
PKG_INFO
10
0
20
-170.688
40
1.778
1
*GATEPIN:= 0 9 54 GND
0
TEXT
8
PKG_INFO
10
0
20
-173.736
40
1.778
1
*GATEPIN:= 0 9 55 GND
0
TEXT
8
PKG_INFO
10
0
20
-176.784
40
1.778
1
*GATEPIN:= 0 9 56 RESERVED
0
TEXT
8
PKG_INFO
10
0
20
-179.832
40
1.778
1
*GATEPIN:= 0 9 57 RESERVED
0
TEXT
8
PKG_INFO
10
0
20
-182.88
40
1.778
1
*GATEPIN:= 0 9 58 GND
0
TEXT
8
PKG_INFO
10
0
20
-185.928
40
1.778
1
*GATEPIN:= 0 9 59 GND
0
TEXT
8
PKG_INFO
10
0
20
-188.976
40
1.778
1
*GATEPIN:= 0 9 60 ANT_MAIN
0
TEXT
8
PKG_INFO
10
0
20
-192.024
40
1.778
1
*GATEPIN:= 0 9 61 GND
0
TEXT
8
PKG_INFO
10
0
20
-195.072
40
1.778
1
*GATEPIN:= 0 9 62 GND
0
TEXT
8
PKG_INFO
10
0
20
-198.12
40
1.778
1
*GATE:=0
0
TEXT
8
PKG_INFO
10
0
20
-201.168
40
1.778
1
*GATEPIN:= 0 9 63 RESERVED
0
TEXT
8
PKG_INFO
10
0
20
-204.216
40
1.778
1
*GATEPIN:= 0 9 64 GPIO64
0
TEXT
8
PKG_INFO
10
0
20
-207.264
40
1.778
1
*GATEPIN:= 0 9 65 RESERVED
0
TEXT
8
PKG_INFO
10
0
20
-210.312
40
1.778
1
*GATEPIN:= 0 9 66 RESERVED
0
TEXT
8
PKG_INFO
10
0
20
-213.36
40
1.778
1
*GATEPIN:= 0 9 67 GND
0
TEXT
8
PKG_INFO
10
0
20
-216.408
40
1.778
1
*GATEPIN:= 0 9 68 GND
0
TEXT
8
PKG_INFO
10
0
20
-219.456
40
1.778
1
*GATEPIN:= 0 9 69 GND
0
TEXT
8
PKG_INFO
10
0
20
-222.504
40
1.778
1
*GATEPIN:= 0 9 70 GND
0
TEXT
8
PKG_INFO
10
0
20
-225.552
40
1.778
1
*GATEPIN:= 0 9 71 GND
0
TEXT
8
PKG_INFO
10
0
20
-228.6
40
1.778
1
*GATEPIN:= 0 9 72 GND
0
TEXT
8
PKG_INFO
10
0
20
-231.648
40
1.778
1
*GATEPIN:= 0 9 73 GND
0
TEXT
8
PKG_INFO
10
0
20
-234.696
40
1.778
1
*GATEPIN:= 0 9 74 GND
0
TEXT
8
PKG_INFO
10
0
20
-237.744
40
1.778
1
*GATEPIN:= 0 9 75 USB_BOOT
0
TEXT
8
PKG_INFO
10
0
20
-240.792
40
1.778
1
*GATEPIN:= 0 9 76 RESERVED
0
TEXT
8
PKG_INFO
10
0
20
-243.84
40
1.778
1
*GATEPIN:= 0 9 77 RESERVED
0
TEXT
8
PKG_INFO
10
0
20
-246.888
40
1.778
1
*GATEPIN:= 0 9 78 RESERVED
0
TEXT
8
PKG_INFO
10
0
20
-249.936
40
1.778
1
*GATEPIN:= 0 9 79 GND
0
TEXT
8
PKG_INFO
10
0
20
-252.984
40
1.778
1
*GATEPIN:= 0 9 80 GND
0
TEXT
8
PKG_INFO
10
0
20
-256.032
40
1.778
1
*GATEPIN:= 0 9 81 GND
0
TEXT
8
PKG_INFO
10
0
20
-259.08
40
1.778
1
*GATEPIN:= 0 9 82 GND
0
TEXT
8
PKG_INFO
10
0
20
-262.128
40
1.778
1
*GATEPIN:= 0 9 83 RESERVED
0
TEXT
8
PKG_INFO
10
0
20
-265.176
40
1.778
1
*GATEPIN:= 0 9 84 RESERVED
0
TEXT
8
PKG_INFO
10
0
20
-268.224
40
1.778
1
*GATEPIN:= 0 9 85 RESERVED
0
TEXT
8
PKG_INFO
10
0
20
-271.272
40
1.778
1
*GATEPIN:= 0 9 86 RESERVED
0
TEXT
8
PKG_INFO
10
0
20
-274.32
40
1.778
1
*GATEPIN:= 0 9 87 RESERVED
0
TEXT
8
PKG_INFO
10
0
20
-277.368
40
1.778
1
*GATEPIN:= 0 9 88 RESERVED
0
TEXT
8
PKG_INFO
10
0
20
-280.416
40
1.778
1
*GATEPIN:= 0 9 89 GND
0
TEXT
8
PKG_INFO
10
0
20
-283.464
40
1.778
1
*GATEPIN:= 0 9 90 GND
0
TEXT
8
PKG_INFO
10
0
20
-286.512
40
1.778
1
*GATEPIN:= 0 9 91 GND
0
TEXT
8
PKG_INFO
10
0
20
-289.56
40
1.778
1
*GATEPIN:= 0 9 92 RESERVED
0
TEXT
8
PKG_INFO
10
0
20
-292.608
40
1.778
1
*GATEPIN:= 0 9 93 RESERVED
0
TEXT
8
PKG_INFO
10
0
20
-295.656
40
1.778
1
*GATEPIN:= 0 9 94 RESERVED
0
TEXT
8
PKG_INFO
10
0
20
-298.704
40
1.778
1
*GATEPIN:= 0 9 95 RESERVED
0
TEXT
8
PKG_INFO
10
0
20
-301.752
40
1.778
1
*GATEPIN:= 0 9 96 RESERVED
0
TEXT
8
PKG_INFO
10
0
20
-304.8
40
1.778
1
*GATEPIN:= 0 9 97 RESERVED
0
TEXT
8
PKG_INFO
10
0
20
-307.848
40
1.778
1
*GATEPIN:= 0 9 98 RESERVED
0
TEXT
8
PKG_INFO
10
0
20
-310.896
40
1.778
1
*GATEPIN:= 0 9 99 RESERVED
0
TEXT
8
PKG_INFO
10
0
20
-313.944
40
1.778
1
*GATEPIN:= 0 9 100 GND
0
TEXT
8
PKG_INFO
10
0
20
-316.992
40
1.778
1
*GATEPIN:= 0 9 101 GND
0
TEXT
8
PKG_INFO
10
0
20
-320.04
40
1.778
1
*GATEPIN:= 0 9 102 GND
0
ENDBLK
0
BLOCK
2
SYM_TOP_20
8
0
10
0
20
0
3
SYM_TOP_20
70
64
0
TEXT
8
SYM_NAME
10
0
20
0
40
1.778
1
MCP1826-ADJE/DC
41
0.75
0
TEXT
8
SYM_PART_TYPE_01
10
-1.7018
20
0.6858
40
1.778
1
 
73
2
11
-1.7018
21
0.6858
41
0.75
7
W0$254R0
0
TEXT
8
SYM_PART_NAME_01
10
-1.7018
20
0.6858
40
1.778
1
 
41
0.75
7
W0$254R0
0
INSERT
2
PART_BODY_TOP_19
8
0
10
0
20
0
0
INSERT
2
STK_TOP_177
8
0
10
-2.54
20
-3
0
TEXT
8
SYM_TERMINAL
10
0
20
-3.048
40
1.778
1
1
0
INSERT
2
STK_TOP_177
8
0
10
-1.27
20
-3
0
TEXT
8
SYM_TERMINAL
10
0
20
-6.096
40
1.778
1
2
0
INSERT
2
STK_TOP_177
8
0
10
0
20
-3
0
TEXT
8
SYM_TERMINAL
10
0
20
-9.144
40
1.778
1
3
0
INSERT
2
STK_TOP_177
8
0
10
1.27
20
-3
0
TEXT
8
SYM_TERMINAL
10
0
20
-12.192
40
1.778
1
4
0
INSERT
2
STK_TOP_177
8
0
10
2.54
20
-3
0
TEXT
8
SYM_TERMINAL
10
0
20
-15.24
40
1.778
1
5
0
INSERT
2
STK_TOP_178
8
0
10
0
20
3
0
TEXT
8
SYM_TERMINAL
10
0
20
-18.288
40
1.778
1
6
0
ENDBLK
0
BLOCK
2
PKG_18
8
0
10
0
20
0
3
PKG_18
70
64
0
TEXT
8
PKG_INFO
10
0
20
0
40
1.778
1
*SYM:= 20
0
TEXT
8
PKG_INFO
10
0
20
-3.048
40
1.778
1
*PKG:= 0 MCP1826-ADJE/DC UND
0
TEXT
8
PKG_INFO
10
0
20
-6.096
40
1.778
1
*GATE:=0
0
TEXT
8
PKG_INFO
10
0
20
-9.144
40
1.778
1
*GATEPIN:= 0 9 1 <>
0
TEXT
8
PKG_INFO
10
0
20
-12.192
40
1.778
1
*GATEPIN:= 0 9 2 <>
0
TEXT
8
PKG_INFO
10
0
20
-15.24
40
1.778
1
*GATEPIN:= 0 9 3 <>
0
TEXT
8
PKG_INFO
10
0
20
-18.288
40
1.778
1
*GATEPIN:= 0 9 4 <>
0
ENDBLK
0
BLOCK
2
SYM_TOP_24
8
0
10
0
20
0
3
SYM_TOP_24
70
64
0
TEXT
8
SYM_NAME
10
0
20
0
40
1.778
1
TP-0.8MM
41
0.75
0
TEXT
8
SYM_PART_TYPE_01
10
1
20
0.3
40
0.889
1
 
73
2
11
1
21
0.3
41
0.75
7
W0$127R0
0
TEXT
8
SYM_PART_NAME_01
10
1
20
0.3
40
0.889
1
 
41
0.75
7
W0$127R0
0
INSERT
2
PART_BODY_TOP_23
8
0
10
0
20
0
0
INSERT
2
STK_TOP_222
8
0
10
0
20
0
0
TEXT
8
SYM_TERMINAL
10
0
20
-3.048
40
1.778
1
1
0
ENDBLK
0
BLOCK
2
PKG_21
8
0
10
0
20
0
3
PKG_21
70
64
0
TEXT
8
PKG_INFO
10
0
20
0
40
1.778
1
*SYM:= 24
0
TEXT
8
PKG_INFO
10
0
20
-3.048
40
1.778
1
*PKG:= 0 TP-0.8MM UND
0
ENDBLK
0
BLOCK
2
SYM_TOP_25
8
0
10
0
20
0
3
SYM_TOP_25
70
64
0
TEXT
8
SYM_NAME
10
0
20
0
40
1.778
1
FB_1005
41
0.75
0
TEXT
8
SYM_PART_TYPE_01
10
-1.124
20
1.652
40
0.7
1
 
41
0.75
7
W0$1R0
0
TEXT
8
SYM_PART_NAME_01
10
-1.117
20
0.778
40
0.7
1
 
41
0.75
7
W0$1R0
0
INSERT
2
PART_BODY_TOP_24
8
0
10
0
20
0
0
INSERT
2
STK_TOP_21
8
0
10
-0.45
20
0
0
TEXT
8
SYM_TERMINAL
10
0
20
-3.048
40
1.778
1
1
0
INSERT
2
STK_TOP_21
8
0
10
0.45
20
0
0
TEXT
8
SYM_TERMINAL
10
0
20
-6.096
40
1.778
1
2
0
ENDBLK
0
BLOCK
2
PKG_22
8
0
10
0
20
0
3
PKG_22
70
64
0
TEXT
8
PKG_INFO
10
0
20
0
40
1.778
1
*SYM:= 25
0
TEXT
8
PKG_INFO
10
0
20
-3.048
40
1.778
1
*PKG:= 0 FB_1005 UND
0
ENDBLK
0
BLOCK
2
SYM_TOP_27
8
0
10
0
20
0
3
SYM_TOP_27
70
64
0
TEXT
8
SYM_NAME
10
0
20
0
40
1.778
1
MT1.5-3.0
41
0.75
0
TEXT
8
SYM_PART_NAME_01
10
0
20
0
40
0.21
1
 
41
0.75
7
W0$01R0
0
TEXT
8
SYM_PART_TYPE_01
10
0
20
0
40
0.21
1
 
73
2
11
0
21
0
41
0.75
7
W0$01R0
0
INSERT
2
PART_BODY_TOP_26
8
0
10
0
20
0
0
INSERT
2
STK_TOP_231
8
0
10
0
20
0
0
TEXT
8
SYM_TERMINAL
10
0
20
-3.048
40
1.778
1
1
0
ENDBLK
0
BLOCK
2
PKG_23
8
0
10
0
20
0
3
PKG_23
70
64
0
TEXT
8
PKG_INFO
10
0
20
0
40
1.778
1
*SYM:= 27
0
TEXT
8
PKG_INFO
10
0
20
-3.048
40
1.778
1
*PKG:= 0 MT1.5-3.0 UND
0
TEXT
8
PKG_INFO
10
0
20
-6.096
40
1.778
1
*GATE:=0
0
TEXT
8
PKG_INFO
10
0
20
-9.144
40
1.778
1
*GATEPIN:= 0 9 1 <>
0
ENDBLK
0
BLOCK
2
SYM_TOP_22
8
0
10
0
20
0
3
SYM_TOP_22
70
64
0
TEXT
8
SYM_NAME
10
0
20
0
40
1.778
1
JB-SMA
41
0.75
0
TEXT
8
SYM_PART_NAME_01
10
-2.5875
20
2.0475
40
0.889
1
 
41
0.75
7
W0$127R0
0
TEXT
8
SYM_PART_TYPE_01
10
-2.27
20
3
40
0.889
1
 
73
2
11
-2.27
21
3
41
0.75
7
W0$127R0
0
INSERT
2
PART_BODY_TOP_21
8
0
10
0
20
0
0
INSERT
2
STK_TOP_200
8
0
10
0
20
0
0
TEXT
8
SYM_TERMINAL
10
0
20
-3.048
40
1.778
1
1
0
INSERT
2
STK_TOP_255
8
0
10
2.75
20
0
0
TEXT
8
SYM_TERMINAL
10
0
20
-6.096
40
1.778
1
2
0
INSERT
2
STK_TOP_255
8
0
10
-2.75
20
0
0
TEXT
8
SYM_TERMINAL
10
0
20
-9.144
40
1.778
1
3
0
INSERT
2
STK_TOP_199
8
0
10
2.75
20
0
0
TEXT
8
SYM_TERMINAL
10
0
20
-12.192
40
1.778
1
4
0
INSERT
2
STK_TOP_199
8
0
10
-2.75
20
0
0
TEXT
8
SYM_TERMINAL
10
0
20
-15.24
40
1.778
1
5
0
ENDBLK
0
BLOCK
2
PKG_20
8
0
10
0
20
0
3
PKG_20
70
64
0
TEXT
8
PKG_INFO
10
0
20
0
40
1.778
1
*SYM:= 22
0
TEXT
8
PKG_INFO
10
0
20
-3.048
40
1.778
1
*PKG:= 0 JB-SMA UND
0
TEXT
8
PKG_INFO
10
0
20
-6.096
40
1.778
1
*GATE:=0
0
TEXT
8
PKG_INFO
10
0
20
-9.144
40
1.778
1
*GATEPIN:= 0 9 1 <>
0
TEXT
8
PKG_INFO
10
0
20
-12.192
40
1.778
1
*GATEPIN:= 0 9 2 <>
0
TEXT
8
PKG_INFO
10
0
20
-15.24
40
1.778
1
*GATEPIN:= 0 9 3 <>
0
ENDBLK
0
BLOCK
2
PART_BODY_TOP_1
8
0
10
0
20
0
3
PART_BODY_TOP_1
70
64
0
POLYLINE
8
PART_TOP_2DLINE_00
66
1
40
0.1
41
0.1
70
1
0
VERTEX
8
PART_TOP_2DLINE_00
10
-1.3
20
0.6
0
VERTEX
8
PART_TOP_2DLINE_00
10
1.3
20
0.6
0
VERTEX
8
PART_TOP_2DLINE_00
10
1.3
20
-0.6
0
VERTEX
8
PART_TOP_2DLINE_00
10
-1.3
20
-0.6
0
SEQEND
0
INSERT
2
SMOOTH_0$1
8
PART_TOP_2DLINE_00
10
-1.3
20
0.6
0
INSERT
2
SMOOTH_0$1
8
PART_TOP_2DLINE_00
10
1.3
20
0.6
0
INSERT
2
SMOOTH_0$1
8
PART_TOP_2DLINE_00
10
1.3
20
-0.6
0
INSERT
2
SMOOTH_0$1
8
PART_TOP_2DLINE_00
10
-1.3
20
-0.6
0
POLYLINE
8
PART_TOP_2DLINE_20
66
1
40
0.1
41
0.1
70
1
0
VERTEX
8
PART_TOP_2DLINE_20
10
-0.8
20
0.4
0
VERTEX
8
PART_TOP_2DLINE_20
10
0.8
20
0.4
0
VERTEX
8
PART_TOP_2DLINE_20
10
0.8
20
-0.4
0
VERTEX
8
PART_TOP_2DLINE_20
10
-0.8
20
-0.4
0
SEQEND
0
INSERT
2
SMOOTH_0$1
8
PART_TOP_2DLINE_20
10
-0.8
20
0.4
0
INSERT
2
SMOOTH_0$1
8
PART_TOP_2DLINE_20
10
0.8
20
0.4
0
INSERT
2
SMOOTH_0$1
8
PART_TOP_2DLINE_20
10
0.8
20
-0.4
0
INSERT
2
SMOOTH_0$1
8
PART_TOP_2DLINE_20
10
-0.8
20
-0.4
0
POLYLINE
8
PART_TOP_2DLINE_00
66
1
40
0.1
41
0.1
0
VERTEX
8
PART_TOP_2DLINE_00
10
0
20
0.6
0
VERTEX
8
PART_TOP_2DLINE_00
10
0
20
0.2
0
SEQEND
0
INSERT
2
SMOOTH_0$1
8
PART_TOP_2DLINE_00
10
0
20
0.6
0
INSERT
2
SMOOTH_0$1
8
PART_TOP_2DLINE_00
10
0
20
0.2
0
POLYLINE
8
PART_TOP_2DLINE_00
66
1
40
0.1
41
0.1
0
VERTEX
8
PART_TOP_2DLINE_00
10
0
20
-0.6
0
VERTEX
8
PART_TOP_2DLINE_00
10
0
20
-0.2
0
SEQEND
0
INSERT
2
SMOOTH_0$1
8
PART_TOP_2DLINE_00
10
0
20
-0.6
0
INSERT
2
SMOOTH_0$1
8
PART_TOP_2DLINE_00
10
0
20
-0.2
0
POLYLINE
8
PART_TOP_2DLINE_00
66
1
40
0.1
41
0.1
0
VERTEX
8
PART_TOP_2DLINE_00
10
-0.2
20
0.2
0
VERTEX
8
PART_TOP_2DLINE_00
10
0.2
20
0.2
0
SEQEND
0
INSERT
2
SMOOTH_0$1
8
PART_TOP_2DLINE_00
10
-0.2
20
0.2
0
INSERT
2
SMOOTH_0$1
8
PART_TOP_2DLINE_00
10
0.2
20
0.2
0
POLYLINE
8
PART_TOP_2DLINE_00
66
1
40
0.1
41
0.1
0
VERTEX
8
PART_TOP_2DLINE_00
10
-0.2
20
-0.2
0
VERTEX
8
PART_TOP_2DLINE_00
10
0.2
20
-0.2
0
SEQEND
0
INSERT
2
SMOOTH_0$1
8
PART_TOP_2DLINE_00
10
-0.2
20
-0.2
0
INSERT
2
SMOOTH_0$1
8
PART_TOP_2DLINE_00
10
0.2
20
-0.2
0
ENDBLK
0
BLOCK
2
STK_TOP_5
8
0
10
0
20
0
3
STK_TOP_5
70
64
0
INSERT
2
DRIL_HOLE_0
8
DRIL_PLTE_THRU_01
10
0
20
0
0
INSERT
2
DRIL_HOLE_0
8
DRIL_PLTE_THRU_02
10
0
20
0
0
INSERT
2
DRIL_HOLE_0
8
DRIL_PLTE_THRU_03
10
0
20
0
0
INSERT
2
DRIL_HOLE_0
8
DRIL_PLTE_THRU_04
10
0
20
0
0
INSERT
2
PAD_0
8
PADS_INNER
10
0
20
0
0
INSERT
2
PAD_0
8
PADS_BOT
10
0
20
0
0
INSERT
2
PAD_1
8
PADS_TOP
10
0
20
0
50
90
0
ENDBLK
0
BLOCK
2
PART_BODY_TOP_2
8
0
10
0
20
0
3
PART_BODY_TOP_2
70
64
0
POLYLINE
8
PART_TOP_2DLINE_20
66
1
40
0.1
41
0.1
70
1
0
VERTEX
8
PART_TOP_2DLINE_20
10
-0.5
20
0.25
0
VERTEX
8
PART_TOP_2DLINE_20
10
0.5
20
0.25
0
VERTEX
8
PART_TOP_2DLINE_20
10
0.5
20
-0.25
0
VERTEX
8
PART_TOP_2DLINE_20
10
-0.5
20
-0.25
0
SEQEND
0
INSERT
2
SMOOTH_0$1
8
PART_TOP_2DLINE_20
10
-0.5
20
0.25
0
INSERT
2
SMOOTH_0$1
8
PART_TOP_2DLINE_20
10
0.5
20
0.25
0
INSERT
2
SMOOTH_0$1
8
PART_TOP_2DLINE_20
10
0.5
20
-0.25
0
INSERT
2
SMOOTH_0$1
8
PART_TOP_2DLINE_20
10
-0.5
20
-0.25
0
POLYLINE
8
PART_TOP_2DLINE_01
66
1
40
0.1
41
0.1
70
1
0
VERTEX
8
PART_TOP_2DLINE_01
10
-0.9
20
-0.46
0
VERTEX
8
PART_TOP_2DLINE_01
10
0.9
20
-0.46
0
VERTEX
8
PART_TOP_2DLINE_01
10
0.9
20
0.45
0
VERTEX
8
PART_TOP_2DLINE_01
10
-0.9
20
0.45
0
SEQEND
0
INSERT
2
SMOOTH_0$1
8
PART_TOP_2DLINE_01
10
-0.9
20
-0.46
0
INSERT
2
SMOOTH_0$1
8
PART_TOP_2DLINE_01
10
0.9
20
-0.46
0
INSERT
2
SMOOTH_0$1
8
PART_TOP_2DLINE_01
10
0.9
20
0.45
0
INSERT
2
SMOOTH_0$1
8
PART_TOP_2DLINE_01
10
-0.9
20
0.45
0
ENDBLK
0
BLOCK
2
STK_TOP_21
8
0
10
0
20
0
3
STK_TOP_21
70
64
0
INSERT
2
DRIL_HOLE_0
8
DRIL_PLTE_THRU_01
10
0
20
0
0
INSERT
2
DRIL_HOLE_0
8
DRIL_PLTE_THRU_02
10
0
20
0
0
INSERT
2
DRIL_HOLE_0
8
DRIL_PLTE_THRU_03
10
0
20
0
0
INSERT
2
DRIL_HOLE_0
8
DRIL_PLTE_THRU_04
10
0
20
0
0
INSERT
2
PAD_0
8
PADS_INNER
10
0
20
0
0
INSERT
2
PAD_0
8
PADS_BOT
10
0
20
0
0
INSERT
2
PAD_2
8
PADS_TOP
10
0
20
0
0
ENDBLK
0
BLOCK
2
PART_BODY_TOP_3
8
0
10
0
20
0
3
PART_BODY_TOP_3
70
64
0
POLYLINE
8
PART_TOP_2DLINE_01
66
1
40
0.1
41
0.1
70
1
0
VERTEX
8
PART_TOP_2DLINE_01
10
-2.1
20
1
0
VERTEX
8
PART_TOP_2DLINE_01
10
2.1
20
1
0
VERTEX
8
PART_TOP_2DLINE_01
10
2.1
20
-1
0
VERTEX
8
PART_TOP_2DLINE_01
10
-2.1
20
-1
0
SEQEND
0
INSERT
2
SMOOTH_0$1
8
PART_TOP_2DLINE_01
10
-2.1
20
1
0
INSERT
2
SMOOTH_0$1
8
PART_TOP_2DLINE_01
10
2.1
20
1
0
INSERT
2
SMOOTH_0$1
8
PART_TOP_2DLINE_01
10
2.1
20
-1
0
INSERT
2
SMOOTH_0$1
8
PART_TOP_2DLINE_01
10
-2.1
20
-1
0
POLYLINE
8
PART_TOP_2DLINE_20
66
1
40
0.1
41
0.1
70
1
0
VERTEX
8
PART_TOP_2DLINE_20
10
-1.6
20
-0.8
0
VERTEX
8
PART_TOP_2DLINE_20
10
-1.6
20
0.8
0
VERTEX
8
PART_TOP_2DLINE_20
10
1.6
20
0.8
0
VERTEX
8
PART_TOP_2DLINE_20
10
1.6
20
-0.8
0
SEQEND
0
INSERT
2
SMOOTH_0$1
8
PART_TOP_2DLINE_20
10
-1.6
20
-0.8
0
INSERT
2
SMOOTH_0$1
8
PART_TOP_2DLINE_20
10
-1.6
20
0.8
0
INSERT
2
SMOOTH_0$1
8
PART_TOP_2DLINE_20
10
1.6
20
0.8
0
INSERT
2
SMOOTH_0$1
8
PART_TOP_2DLINE_20
10
1.6
20
-0.8
0
POLYLINE
8
PART_TOP_2DLINE_01
66
1
40
0.1
41
0.1
0
VERTEX
8
PART_TOP_2DLINE_01
10
0
20
1
0
VERTEX
8
PART_TOP_2DLINE_01
10
0
20
0.4
0
SEQEND
0
INSERT
2
SMOOTH_0$1
8
PART_TOP_2DLINE_01
10
0
20
1
0
INSERT
2
SMOOTH_0$1
8
PART_TOP_2DLINE_01
10
0
20
0.4
0
POLYLINE
8
PART_TOP_2DLINE_01
66
1
40
0.1
41
0.1
0
VERTEX
8
PART_TOP_2DLINE_01
10
-0.4
20
0.4
0
VERTEX
8
PART_TOP_2DLINE_01
10
0.4
20
0.4
0
SEQEND
0
INSERT
2
SMOOTH_0$1
8
PART_TOP_2DLINE_01
10
-0.4
20
0.4
0
INSERT
2
SMOOTH_0$1
8
PART_TOP_2DLINE_01
10
0.4
20
0.4
0
POLYLINE
8
PART_TOP_2DLINE_01
66
1
40
0.1
41
0.1
0
VERTEX
8
PART_TOP_2DLINE_01
10
-0.4
20
-0.4
0
VERTEX
8
PART_TOP_2DLINE_01
10
0.4
20
-0.4
0
SEQEND
0
INSERT
2
SMOOTH_0$1
8
PART_TOP_2DLINE_01
10
-0.4
20
-0.4
0
INSERT
2
SMOOTH_0$1
8
PART_TOP_2DLINE_01
10
0.4
20
-0.4
0
POLYLINE
8
PART_TOP_2DLINE_01
66
1
40
0.1
41
0.1
0
VERTEX
8
PART_TOP_2DLINE_01
10
0
20
-0.4
0
VERTEX
8
PART_TOP_2DLINE_01
10
0
20
-1
0
SEQEND
0
INSERT
2
SMOOTH_0$1
8
PART_TOP_2DLINE_01
10
0
20
-0.4
0
INSERT
2
SMOOTH_0$1
8
PART_TOP_2DLINE_01
10
0
20
-1
0
ENDBLK
0
BLOCK
2
STK_TOP_6
8
0
10
0
20
0
3
STK_TOP_6
70
64
0
INSERT
2
DRIL_HOLE_0
8
DRIL_PLTE_THRU_01
10
0
20
0
0
INSERT
2
DRIL_HOLE_0
8
DRIL_PLTE_THRU_02
10
0
20
0
0
INSERT
2
DRIL_HOLE_0
8
DRIL_PLTE_THRU_03
10
0
20
0
0
INSERT
2
DRIL_HOLE_0
8
DRIL_PLTE_THRU_04
10
0
20
0
0
INSERT
2
PAD_0
8
PADS_INNER
10
0
20
0
0
INSERT
2
PAD_0
8
PADS_BOT
10
0
20
0
0
INSERT
2
PAD_3
8
PADS_TOP
10
0
20
0
50
90
0
ENDBLK
0
BLOCK
2
PART_BODY_TOP_5
8
0
10
0
20
0
3
PART_BODY_TOP_5
70
64
0
POLYLINE
8
PART_TOP_2DLINE_01
66
1
40
0.254
41
0.254
70
1
0
VERTEX
8
PART_TOP_2DLINE_01
10
-2.54
20
1.27
0
VERTEX
8
PART_TOP_2DLINE_01
10
2.54
20
1.27
0
VERTEX
8
PART_TOP_2DLINE_01
10
2.54
20
-1.27
0
VERTEX
8
PART_TOP_2DLINE_01
10
-2.54
20
-1.27
0
SEQEND
0
INSERT
2
SMOOTH_0$254
8
PART_TOP_2DLINE_01
10
-2.54
20
1.27
0
INSERT
2
SMOOTH_0$254
8
PART_TOP_2DLINE_01
10
2.54
20
1.27
0
INSERT
2
SMOOTH_0$254
8
PART_TOP_2DLINE_01
10
2.54
20
-1.27
0
INSERT
2
SMOOTH_0$254
8
PART_TOP_2DLINE_01
10
-2.54
20
-1.27
0
ENDBLK
0
BLOCK
2
STK_TOP_148
8
0
10
0
20
0
3
STK_TOP_148
70
64
0
INSERT
2
DRIL_HOLE_1$1
8
DRIL_PLTE_THRU_01
10
0
20
0
0
INSERT
2
DRIL_HOLE_1$1
8
DRIL_PLTE_THRU_02
10
0
20
0
0
INSERT
2
DRIL_HOLE_1$1
8
DRIL_PLTE_THRU_03
10
0
20
0
0
INSERT
2
DRIL_HOLE_1$1
8
DRIL_PLTE_THRU_04
10
0
20
0
0
INSERT
2
PAD_4
8
PADS_INNER
10
0
20
0
0
INSERT
2
PAD_5
8
PADS_BOT
10
0
20
0
0
INSERT
2
PAD_5
8
PADS_TOP
10
0
20
0
0
ENDBLK
0
BLOCK
2
STK_TOP_147
8
0
10
0
20
0
3
STK_TOP_147
70
64
0
INSERT
2
DRIL_HOLE_1$1
8
DRIL_PLTE_THRU_01
10
0
20
0
0
INSERT
2
DRIL_HOLE_1$1
8
DRIL_PLTE_THRU_02
10
0
20
0
0
INSERT
2
DRIL_HOLE_1$1
8
DRIL_PLTE_THRU_03
10
0
20
0
0
INSERT
2
DRIL_HOLE_1$1
8
DRIL_PLTE_THRU_04
10
0
20
0
0
INSERT
2
PAD_4
8
PADS_INNER
10
0
20
0
0
INSERT
2
PAD_4
8
PADS_BOT
10
0
20
0
0
INSERT
2
PAD_4
8
PADS_TOP
10
0
20
0
0
ENDBLK
0
BLOCK
2
PART_BODY_TOP_6
8
0
10
0
20
0
3
PART_BODY_TOP_6
70
64
0
POLYLINE
8
PART_TOP_2DLINE_01
66
1
40
0.254
41
0.254
70
1
0
VERTEX
8
PART_TOP_2DLINE_01
10
-7.62
20
1.27
0
VERTEX
8
PART_TOP_2DLINE_01
10
7.62
20
1.27
0
VERTEX
8
PART_TOP_2DLINE_01
10
7.62
20
-1.27
0
VERTEX
8
PART_TOP_2DLINE_01
10
-7.62
20
-1.27
0
SEQEND
0
INSERT
2
SMOOTH_0$254
8
PART_TOP_2DLINE_01
10
-7.62
20
1.27
0
INSERT
2
SMOOTH_0$254
8
PART_TOP_2DLINE_01
10
7.62
20
1.27
0
INSERT
2
SMOOTH_0$254
8
PART_TOP_2DLINE_01
10
7.62
20
-1.27
0
INSERT
2
SMOOTH_0$254
8
PART_TOP_2DLINE_01
10
-7.62
20
-1.27
0
ENDBLK
0
BLOCK
2
PART_BODY_TOP_8
8
0
10
0
20
0
3
PART_BODY_TOP_8
70
64
0
POLYLINE
8
PART_TOP_2DLINE_01
66
1
40
0.254
41
0.254
70
1
0
VERTEX
8
PART_TOP_2DLINE_01
10
-3.81
20
1.27
0
VERTEX
8
PART_TOP_2DLINE_01
10
3.81
20
1.27
0
VERTEX
8
PART_TOP_2DLINE_01
10
3.81
20
-1.27
0
VERTEX
8
PART_TOP_2DLINE_01
10
-3.81
20
-1.27
0
SEQEND
0
INSERT
2
SMOOTH_0$254
8
PART_TOP_2DLINE_01
10
-3.81
20
1.27
0
INSERT
2
SMOOTH_0$254
8
PART_TOP_2DLINE_01
10
3.81
20
1.27
0
INSERT
2
SMOOTH_0$254
8
PART_TOP_2DLINE_01
10
3.81
20
-1.27
0
INSERT
2
SMOOTH_0$254
8
PART_TOP_2DLINE_01
10
-3.81
20
-1.27
0
ENDBLK
0
BLOCK
2
PART_BODY_TOP_9
8
0
10
0
20
0
3
PART_BODY_TOP_9
70
64
0
POLYLINE
8
PART_TOP_2DLINE_00
66
1
40
0.1
41
0.1
0
VERTEX
8
PART_TOP_2DLINE_00
10
0
20
-0.25
0
VERTEX
8
PART_TOP_2DLINE_00
10
0
20
0.25
0
SEQEND
0
INSERT
2
SMOOTH_0$1
8
PART_TOP_2DLINE_00
10
0
20
-0.25
0
INSERT
2
SMOOTH_0$1
8
PART_TOP_2DLINE_00
10
0
20
0.25
0
POLYLINE
8
PART_TOP_2DLINE_20
66
1
40
0.1
41
0.1
70
1
0
VERTEX
8
PART_TOP_2DLINE_20
10
-0.5
20
0.25
0
VERTEX
8
PART_TOP_2DLINE_20
10
0.5
20
0.25
0
VERTEX
8
PART_TOP_2DLINE_20
10
0.5
20
-0.25
0
VERTEX
8
PART_TOP_2DLINE_20
10
-0.5
20
-0.25
0
SEQEND
0
INSERT
2
SMOOTH_0$1
8
PART_TOP_2DLINE_20
10
-0.5
20
0.25
0
INSERT
2
SMOOTH_0$1
8
PART_TOP_2DLINE_20
10
0.5
20
0.25
0
INSERT
2
SMOOTH_0$1
8
PART_TOP_2DLINE_20
10
0.5
20
-0.25
0
INSERT
2
SMOOTH_0$1
8
PART_TOP_2DLINE_20
10
-0.5
20
-0.25
0
POLYLINE
8
PART_TOP_2DLINE_00
66
1
40
0.1
41
0.1
70
1
0
VERTEX
8
PART_TOP_2DLINE_00
10
-0.75
20
0.45
0
VERTEX
8
PART_TOP_2DLINE_00
10
-0.9
20
0.3
0
VERTEX
8
PART_TOP_2DLINE_00
10
-0.9
20
-0.3
0
VERTEX
8
PART_TOP_2DLINE_00
10
-0.75
20
-0.45
0
VERTEX
8
PART_TOP_2DLINE_00
10
0.75
20
-0.45
0
VERTEX
8
PART_TOP_2DLINE_00
10
0.9
20
-0.3
0
VERTEX
8
PART_TOP_2DLINE_00
10
0.9
20
0.3
0
VERTEX
8
PART_TOP_2DLINE_00
10
0.75
20
0.45
0
SEQEND
0
INSERT
2
SMOOTH_0$1
8
PART_TOP_2DLINE_00
10
-0.75
20
0.45
0
INSERT
2
SMOOTH_0$1
8
PART_TOP_2DLINE_00
10
-0.9
20
0.3
0
INSERT
2
SMOOTH_0$1
8
PART_TOP_2DLINE_00
10
-0.9
20
-0.3
0
INSERT
2
SMOOTH_0$1
8
PART_TOP_2DLINE_00
10
-0.75
20
-0.45
0
INSERT
2
SMOOTH_0$1
8
PART_TOP_2DLINE_00
10
0.75
20
-0.45
0
INSERT
2
SMOOTH_0$1
8
PART_TOP_2DLINE_00
10
0.9
20
-0.3
0
INSERT
2
SMOOTH_0$1
8
PART_TOP_2DLINE_00
10
0.9
20
0.3
0
INSERT
2
SMOOTH_0$1
8
PART_TOP_2DLINE_00
10
0.75
20
0.45
0
POLYLINE
8
KEEPOUT_01
6
KEEPOUT_00001000$0
66
1
70
1
0
VERTEX
8
KEEPOUT_01
10
-0.2
20
0.3
42
-0.4142135624
0
VERTEX
8
KEEPOUT_01
10
-0.1
20
0.4
0
VERTEX
8
KEEPOUT_01
10
0.1
20
0.4
42
-0.4142135624
0
VERTEX
8
KEEPOUT_01
10
0.2
20
0.3
0
VERTEX
8
KEEPOUT_01
10
0.2
20
-0.3
42
-0.4142135624
0
VERTEX
8
KEEPOUT_01
10
0.1
20
-0.4
0
VERTEX
8
KEEPOUT_01
10
-0.1
20
-0.4
42
-0.4142135624
0
VERTEX
8
KEEPOUT_01
10
-0.2
20
-0.3
0
SEQEND
0
ENDBLK
0
BLOCK
2
PART_BODY_TOP_10
8
0
10
0
20
0
3
PART_BODY_TOP_10
70
64
0
POLYLINE
8
PART_TOP_2DLINE_20
66
1
40
0.1
41
0.1
70
1
0
VERTEX
8
PART_TOP_2DLINE_20
10
-0.5
20
0.25
0
VERTEX
8
PART_TOP_2DLINE_20
10
0.5
20
0.25
0
VERTEX
8
PART_TOP_2DLINE_20
10
0.5
20
-0.25
0
VERTEX
8
PART_TOP_2DLINE_20
10
-0.5
20
-0.25
0
SEQEND
0
INSERT
2
SMOOTH_0$1
8
PART_TOP_2DLINE_20
10
-0.5
20
0.25
0
INSERT
2
SMOOTH_0$1
8
PART_TOP_2DLINE_20
10
0.5
20
0.25
0
INSERT
2
SMOOTH_0$1
8
PART_TOP_2DLINE_20
10
0.5
20
-0.25
0
INSERT
2
SMOOTH_0$1
8
PART_TOP_2DLINE_20
10
-0.5
20
-0.25
0
POLYLINE
8
PART_TOP_2DLINE_00
66
1
40
0.1
41
0.1
70
1
0
VERTEX
8
PART_TOP_2DLINE_00
10
-0.9
20
0.45
0
VERTEX
8
PART_TOP_2DLINE_00
10
-0.9
20
-0.45
0
VERTEX
8
PART_TOP_2DLINE_00
10
-0.1
20
-0.45
0
VERTEX
8
PART_TOP_2DLINE_00
10
0
20
-0.3
0
VERTEX
8
PART_TOP_2DLINE_00
10
0.1
20
-0.45
0
VERTEX
8
PART_TOP_2DLINE_00
10
0.9
20
-0.45
0
VERTEX
8
PART_TOP_2DLINE_00
10
0.9
20
0.45
0
VERTEX
8
PART_TOP_2DLINE_00
10
0.1
20
0.45
0
VERTEX
8
PART_TOP_2DLINE_00
10
0
20
0.3
0
VERTEX
8
PART_TOP_2DLINE_00
10
-0.1
20
0.45
0
SEQEND
0
INSERT
2
SMOOTH_0$1
8
PART_TOP_2DLINE_00
10
-0.9
20
0.45
0
INSERT
2
SMOOTH_0$1
8
PART_TOP_2DLINE_00
10
-0.9
20
-0.45
0
INSERT
2
SMOOTH_0$1
8
PART_TOP_2DLINE_00
10
-0.1
20
-0.45
0
INSERT
2
SMOOTH_0$1
8
PART_TOP_2DLINE_00
10
0
20
-0.3
0
INSERT
2
SMOOTH_0$1
8
PART_TOP_2DLINE_00
10
0.1
20
-0.45
0
INSERT
2
SMOOTH_0$1
8
PART_TOP_2DLINE_00
10
0.9
20
-0.45
0
INSERT
2
SMOOTH_0$1
8
PART_TOP_2DLINE_00
10
0.9
20
0.45
0
INSERT
2
SMOOTH_0$1
8
PART_TOP_2DLINE_00
10
0.1
20
0.45
0
INSERT
2
SMOOTH_0$1
8
PART_TOP_2DLINE_00
10
0
20
0.3
0
INSERT
2
SMOOTH_0$1
8
PART_TOP_2DLINE_00
10
-0.1
20
0.45
0
POLYLINE
8
KEEPOUT_01
6
KEEPOUT_00001000$0
66
1
70
1
0
VERTEX
8
KEEPOUT_01
10
-0.2
20
0.375
42
-0.4142135624
0
VERTEX
8
KEEPOUT_01
10
-0.1
20
0.475
0
VERTEX
8
KEEPOUT_01
10
0.1
20
0.475
42
-0.4142135624
0
VERTEX
8
KEEPOUT_01
10
0.2
20
0.375
0
VERTEX
8
KEEPOUT_01
10
0.2
20
-0.375
42
-0.4142135624
0
VERTEX
8
KEEPOUT_01
10
0.1
20
-0.475
0
VERTEX
8
KEEPOUT_01
10
-0.1
20
-0.475
42
-0.4142135624
0
VERTEX
8
KEEPOUT_01
10
-0.2
20
-0.375
0
SEQEND
0
ENDBLK
0
BLOCK
2
PART_BODY_TOP_11
8
0
10
0
20
0
3
PART_BODY_TOP_11
70
64
0
POLYLINE
8
PART_TOP_2DLINE_20
66
1
40
0.1
41
0.1
70
1
0
VERTEX
8
PART_TOP_2DLINE_20
10
-0.5
20
0.25
0
VERTEX
8
PART_TOP_2DLINE_20
10
0.5
20
0.25
0
VERTEX
8
PART_TOP_2DLINE_20
10
0.5
20
-0.25
0
VERTEX
8
PART_TOP_2DLINE_20
10
-0.5
20
-0.25
0
SEQEND
0
INSERT
2
SMOOTH_0$1
8
PART_TOP_2DLINE_20
10
-0.5
20
0.25
0
INSERT
2
SMOOTH_0$1
8
PART_TOP_2DLINE_20
10
0.5
20
0.25
0
INSERT
2
SMOOTH_0$1
8
PART_TOP_2DLINE_20
10
0.5
20
-0.25
0
INSERT
2
SMOOTH_0$1
8
PART_TOP_2DLINE_20
10
-0.5
20
-0.25
0
POLYLINE
8
PART_TOP_2DLINE_00
66
1
40
0.1
41
0.1
70
1
0
VERTEX
8
PART_TOP_2DLINE_00
10
-0.95
20
0.5
0
VERTEX
8
PART_TOP_2DLINE_00
10
-0.95
20
-0.5
0
VERTEX
8
PART_TOP_2DLINE_00
10
-0.1
20
-0.5
0
VERTEX
8
PART_TOP_2DLINE_00
10
0
20
-0.4
0
VERTEX
8
PART_TOP_2DLINE_00
10
0.1
20
-0.5
0
VERTEX
8
PART_TOP_2DLINE_00
10
0.95
20
-0.5
0
VERTEX
8
PART_TOP_2DLINE_00
10
0.95
20
0.5
0
VERTEX
8
PART_TOP_2DLINE_00
10
0.1
20
0.5
0
VERTEX
8
PART_TOP_2DLINE_00
10
0
20
0.4
0
VERTEX
8
PART_TOP_2DLINE_00
10
-0.1
20
0.5
0
SEQEND
0
INSERT
2
SMOOTH_0$1
8
PART_TOP_2DLINE_00
10
-0.95
20
0.5
0
INSERT
2
SMOOTH_0$1
8
PART_TOP_2DLINE_00
10
-0.95
20
-0.5
0
INSERT
2
SMOOTH_0$1
8
PART_TOP_2DLINE_00
10
-0.1
20
-0.5
0
INSERT
2
SMOOTH_0$1
8
PART_TOP_2DLINE_00
10
0
20
-0.4
0
INSERT
2
SMOOTH_0$1
8
PART_TOP_2DLINE_00
10
0.1
20
-0.5
0
INSERT
2
SMOOTH_0$1
8
PART_TOP_2DLINE_00
10
0.95
20
-0.5
0
INSERT
2
SMOOTH_0$1
8
PART_TOP_2DLINE_00
10
0.95
20
0.5
0
INSERT
2
SMOOTH_0$1
8
PART_TOP_2DLINE_00
10
0.1
20
0.5
0
INSERT
2
SMOOTH_0$1
8
PART_TOP_2DLINE_00
10
0
20
0.4
0
INSERT
2
SMOOTH_0$1
8
PART_TOP_2DLINE_00
10
-0.1
20
0.5
0
POLYLINE
8
KEEPOUT_01
6
KEEPOUT_00001000$0
66
1
70
1
0
VERTEX
8
KEEPOUT_01
10
-0.2
20
0.375
42
-0.4142135624
0
VERTEX
8
KEEPOUT_01
10
-0.1
20
0.475
0
VERTEX
8
KEEPOUT_01
10
0.1
20
0.475
42
-0.4142135624
0
VERTEX
8
KEEPOUT_01
10
0.2
20
0.375
0
VERTEX
8
KEEPOUT_01
10
0.2
20
-0.375
42
-0.4142135624
0
VERTEX
8
KEEPOUT_01
10
0.1
20
-0.475
0
VERTEX
8
KEEPOUT_01
10
-0.1
20
-0.475
42
-0.4142135624
0
VERTEX
8
KEEPOUT_01
10
-0.2
20
-0.375
0
SEQEND
0
ENDBLK
0
BLOCK
2
STK_TOP_149
8
0
10
0
20
0
3
STK_TOP_149
70
64
0
INSERT
2
DRIL_HOLE_0
8
DRIL_PLTE_THRU_01
10
0
20
0
0
INSERT
2
DRIL_HOLE_0
8
DRIL_PLTE_THRU_02
10
0
20
0
0
INSERT
2
DRIL_HOLE_0
8
DRIL_PLTE_THRU_03
10
0
20
0
0
INSERT
2
DRIL_HOLE_0
8
DRIL_PLTE_THRU_04
10
0
20
0
0
INSERT
2
PAD_0
8
PADS_INNER
10
0
20
0
0
INSERT
2
PAD_0
8
PADS_BOT
10
0
20
0
0
INSERT
2
PAD_6
8
PADS_TOP
10
0
20
0
50
90
0
ENDBLK
0
BLOCK
2
PART_BODY_TOP_12
8
0
10
0
20
0
3
PART_BODY_TOP_12
70
64
0
POLYLINE
8
PART_TOP_2DLINE_26
66
1
40
0.2
41
0.2
39
1.2
70
1
0
VERTEX
8
PART_TOP_2DLINE_26
10
-1.675
20
3.25
0
VERTEX
8
PART_TOP_2DLINE_26
10
-0.2093746667
20
3.25
0
VERTEX
8
PART_TOP_2DLINE_26
10
-0.2093746667
20
2.84375
0
VERTEX
8
PART_TOP_2DLINE_26
10
0.2093753333
20
2.84375
0
VERTEX
8
PART_TOP_2DLINE_26
10
0.2093753333
20
3.25
0
VERTEX
8
PART_TOP_2DLINE_26
10
1.675
20
3.25
0
VERTEX
8
PART_TOP_2DLINE_26
10
1.675
20
-3.25
0
VERTEX
8
PART_TOP_2DLINE_26
10
-1.675
20
-3.25
0
SEQEND
0
INSERT
2
SMOOTH_0$2
8
PART_TOP_2DLINE_26
10
-1.675
20
3.25
0
INSERT
2
SMOOTH_0$2
8
PART_TOP_2DLINE_26
10
-0.2093746667
20
3.25
0
INSERT
2
SMOOTH_0$2
8
PART_TOP_2DLINE_26
10
-0.2093746667
20
2.84375
0
INSERT
2
SMOOTH_0$2
8
PART_TOP_2DLINE_26
10
0.2093753333
20
2.84375
0
INSERT
2
SMOOTH_0$2
8
PART_TOP_2DLINE_26
10
0.2093753333
20
3.25
0
INSERT
2
SMOOTH_0$2
8
PART_TOP_2DLINE_26
10
1.675
20
3.25
0
INSERT
2
SMOOTH_0$2
8
PART_TOP_2DLINE_26
10
1.675
20
-3.25
0
INSERT
2
SMOOTH_0$2
8
PART_TOP_2DLINE_26
10
-1.675
20
-3.25
0
ENDBLK
0
BLOCK
2
STK_TOP_155
8
0
10
0
20
0
3
STK_TOP_155
70
64
0
INSERT
2
DRIL_HOLE_0
8
DRIL_NPLTE_THRU_01
10
0
20
0
0
INSERT
2
DRIL_HOLE_0
8
DRIL_NPLTE_THRU_02
10
0
20
0
0
INSERT
2
DRIL_HOLE_0
8
DRIL_NPLTE_THRU_03
10
0
20
0
0
INSERT
2
DRIL_HOLE_0
8
DRIL_NPLTE_THRU_04
10
0
20
0
0
INSERT
2
PAD_0
8
PADS_INNER
10
0
20
0
0
INSERT
2
PAD_0
8
PADS_BOT
10
0
20
0
0
INSERT
2
PAD_7
8
PADS_XR_21
10
0
20
0
0
INSERT
2
PAD_7
8
PADS_XR_23
10
0
20
0
0
INSERT
2
PAD_7
8
PADS_TOP
10
0
20
0
0
ENDBLK
0
BLOCK
2
PART_BODY_TOP_15
8
0
10
0
20
0
3
PART_BODY_TOP_15
70
64
0
POLYLINE
8
PART_TOP_2DLINE_00
66
1
40
0.1
41
0.1
0
VERTEX
8
PART_TOP_2DLINE_00
10
-1.5
20
0.6
0
VERTEX
8
PART_TOP_2DLINE_00
10
-1.5
20
-0.6
0
SEQEND
0
INSERT
2
SMOOTH_0$1
8
PART_TOP_2DLINE_00
10
-1.5
20
0.6
0
INSERT
2
SMOOTH_0$1
8
PART_TOP_2DLINE_00
10
-1.5
20
-0.6
0
POLYLINE
8
PART_TOP_2DLINE_00
66
1
40
0.1
41
0.1
70
1
0
VERTEX
8
PART_TOP_2DLINE_00
10
-1.5
20
0.65
0
VERTEX
8
PART_TOP_2DLINE_00
10
1.5
20
0.65
0
VERTEX
8
PART_TOP_2DLINE_00
10
1.5
20
-0.65
0
VERTEX
8
PART_TOP_2DLINE_00
10
-1.5
20
-0.65
0
SEQEND
0
INSERT
2
SMOOTH_0$1
8
PART_TOP_2DLINE_00
10
-1.5
20
0.65
0
INSERT
2
SMOOTH_0$1
8
PART_TOP_2DLINE_00
10
1.5
20
0.65
0
INSERT
2
SMOOTH_0$1
8
PART_TOP_2DLINE_00
10
1.5
20
-0.65
0
INSERT
2
SMOOTH_0$1
8
PART_TOP_2DLINE_00
10
-1.5
20
-0.65
0
POLYLINE
8
PART_TOP_2DLINE_00
66
1
40
0.1
41
0.1
70
1
0
VERTEX
8
PART_TOP_2DLINE_00
10
-1.5
20
0.65
0
VERTEX
8
PART_TOP_2DLINE_00
10
-0.15
20
0.65
0
VERTEX
8
PART_TOP_2DLINE_00
10
-0.15
20
-0.65
0
VERTEX
8
PART_TOP_2DLINE_00
10
-1.5
20
-0.65
0
SEQEND
0
INSERT
2
SMOOTH_0$1
8
PART_TOP_2DLINE_00
10
-1.5
20
0.65
0
INSERT
2
SMOOTH_0$1
8
PART_TOP_2DLINE_00
10
-0.15
20
0.65
0
INSERT
2
SMOOTH_0$1
8
PART_TOP_2DLINE_00
10
-0.15
20
-0.65
0
INSERT
2
SMOOTH_0$1
8
PART_TOP_2DLINE_00
10
-1.5
20
-0.65
0
POLYLINE
8
PART_TOP_2DLINE_00
66
1
40
0.1
41
0.1
0
VERTEX
8
PART_TOP_2DLINE_00
10
0.25
20
0.55
0
VERTEX
8
PART_TOP_2DLINE_00
10
-0.125
20
0.05
0
VERTEX
8
PART_TOP_2DLINE_00
10
0.25
20
-0.55
0
VERTEX
8
PART_TOP_2DLINE_00
10
0.25
20
0.55
0
SEQEND
0
INSERT
2
SMOOTH_0$1
8
PART_TOP_2DLINE_00
10
0.25
20
0.55
0
INSERT
2
SMOOTH_0$1
8
PART_TOP_2DLINE_00
10
-0.125
20
0.05
0
INSERT
2
SMOOTH_0$1
8
PART_TOP_2DLINE_00
10
0.25
20
-0.55
0
INSERT
2
SMOOTH_0$1
8
PART_TOP_2DLINE_00
10
0.25
20
0.55
0
POLYLINE
8
PART_TOP_2DLINE_00
66
1
40
0.1
41
0.1
0
VERTEX
8
PART_TOP_2DLINE_00
10
-1.5
20
0.6
0
VERTEX
8
PART_TOP_2DLINE_00
10
-1.5
20
-0.5
0
SEQEND
0
INSERT
2
SMOOTH_0$1
8
PART_TOP_2DLINE_00
10
-1.5
20
0.6
0
INSERT
2
SMOOTH_0$1
8
PART_TOP_2DLINE_00
10
-1.5
20
-0.5
0
POLYLINE
8
PART_TOP_2DLINE_00
66
1
40
0.1
41
0.1
70
1
0
VERTEX
8
PART_TOP_2DLINE_00
10
-1.6
20
0.65
0
VERTEX
8
PART_TOP_2DLINE_00
10
-1.5
20
0.65
0
VERTEX
8
PART_TOP_2DLINE_00
10
-1.5
20
-0.65
0
VERTEX
8
PART_TOP_2DLINE_00
10
-1.6
20
-0.65
0
SEQEND
0
INSERT
2
SMOOTH_0$1
8
PART_TOP_2DLINE_00
10
-1.6
20
0.65
0
INSERT
2
SMOOTH_0$1
8
PART_TOP_2DLINE_00
10
-1.5
20
0.65
0
INSERT
2
SMOOTH_0$1
8
PART_TOP_2DLINE_00
10
-1.5
20
-0.65
0
INSERT
2
SMOOTH_0$1
8
PART_TOP_2DLINE_00
10
-1.6
20
-0.65
0
POLYLINE
8
PART_TOP_2DLINE_00
66
1
40
0.1
41
0.1
70
1
0
VERTEX
8
PART_TOP_2DLINE_00
10
-1.65
20
0.65
0
VERTEX
8
PART_TOP_2DLINE_00
10
-1.55
20
0.65
0
VERTEX
8
PART_TOP_2DLINE_00
10
-1.55
20
-0.65
0
VERTEX
8
PART_TOP_2DLINE_00
10
-1.65
20
-0.65
0
SEQEND
0
INSERT
2
SMOOTH_0$1
8
PART_TOP_2DLINE_00
10
-1.65
20
0.65
0
INSERT
2
SMOOTH_0$1
8
PART_TOP_2DLINE_00
10
-1.55
20
0.65
0
INSERT
2
SMOOTH_0$1
8
PART_TOP_2DLINE_00
10
-1.55
20
-0.65
0
INSERT
2
SMOOTH_0$1
8
PART_TOP_2DLINE_00
10
-1.65
20
-0.65
0
POLYLINE
8
PART_TOP_2DLINE_00
66
1
40
0.1
41
0.1
0
VERTEX
8
PART_TOP_2DLINE_00
10
-2.2
20
0.5
0
VERTEX
8
PART_TOP_2DLINE_00
10
-1.85
20
0.15
0
SEQEND
0
INSERT
2
SMOOTH_0$1
8
PART_TOP_2DLINE_00
10
-2.2
20
0.5
0
INSERT
2
SMOOTH_0$1
8
PART_TOP_2DLINE_00
10
-1.85
20
0.15
0
POLYLINE
8
PART_TOP_2DLINE_00
66
1
40
0.1
41
0.1
0
VERTEX
8
PART_TOP_2DLINE_00
10
-2.2
20
-0.1
0
VERTEX
8
PART_TOP_2DLINE_00
10
-1.85
20
-0.45
0
SEQEND
0
INSERT
2
SMOOTH_0$1
8
PART_TOP_2DLINE_00
10
-2.2
20
-0.1
0
INSERT
2
SMOOTH_0$1
8
PART_TOP_2DLINE_00
10
-1.85
20
-0.45
0
POLYLINE
8
PART_TOP_2DLINE_00
66
1
40
0.1
41
0.1
0
VERTEX
8
PART_TOP_2DLINE_00
10
-2.2
20
0.3
0
VERTEX
8
PART_TOP_2DLINE_00
10
-2.2
20
0.5
0
VERTEX
8
PART_TOP_2DLINE_00
10
-2
20
0.5
0
SEQEND
0
INSERT
2
SMOOTH_0$1
8
PART_TOP_2DLINE_00
10
-2.2
20
0.3
0
INSERT
2
SMOOTH_0$1
8
PART_TOP_2DLINE_00
10
-2.2
20
0.5
0
INSERT
2
SMOOTH_0$1
8
PART_TOP_2DLINE_00
10
-2
20
0.5
0
POLYLINE
8
PART_TOP_2DLINE_00
66
1
40
0.1
41
0.1
0
VERTEX
8
PART_TOP_2DLINE_00
10
-2.2
20
-0.3
0
VERTEX
8
PART_TOP_2DLINE_00
10
-2.2
20
-0.1
0
VERTEX
8
PART_TOP_2DLINE_00
10
-2
20
-0.1
0
SEQEND
0
INSERT
2
SMOOTH_0$1
8
PART_TOP_2DLINE_00
10
-2.2
20
-0.3
0
INSERT
2
SMOOTH_0$1
8
PART_TOP_2DLINE_00
10
-2.2
20
-0.1
0
INSERT
2
SMOOTH_0$1
8
PART_TOP_2DLINE_00
10
-2
20
-0.1
0
ENDBLK
0
BLOCK
2
STK_TOP_117
8
0
10
0
20
0
3
STK_TOP_117
70
64
0
INSERT
2
DRIL_HOLE_0
8
DRIL_PLTE_THRU_01
10
0
20
0
0
INSERT
2
DRIL_HOLE_0
8
DRIL_PLTE_THRU_02
10
0
20
0
0
INSERT
2
DRIL_HOLE_0
8
DRIL_PLTE_THRU_03
10
0
20
0
0
INSERT
2
DRIL_HOLE_0
8
DRIL_PLTE_THRU_04
10
0
20
0
0
INSERT
2
PAD_0
8
PADS_INNER
10
0
20
0
0
INSERT
2
PAD_0
8
PADS_BOT
10
0
20
0
0
INSERT
2
PAD_8
8
PADS_TOP
10
0
20
0
0
ENDBLK
0
BLOCK
2
PART_BODY_TOP_17
8
0
10
0
20
0
3
PART_BODY_TOP_17
70
64
0
POLYLINE
8
PART_TOP_2DLINE_20
66
1
40
0.1
41
0.1
70
1
0
VERTEX
8
PART_TOP_2DLINE_20
10
-0.5
20
0.25
0
VERTEX
8
PART_TOP_2DLINE_20
10
0.5
20
0.25
0
VERTEX
8
PART_TOP_2DLINE_20
10
0.5
20
-0.25
0
VERTEX
8
PART_TOP_2DLINE_20
10
-0.5
20
-0.25
0
SEQEND
0
INSERT
2
SMOOTH_0$1
8
PART_TOP_2DLINE_20
10
-0.5
20
0.25
0
INSERT
2
SMOOTH_0$1
8
PART_TOP_2DLINE_20
10
0.5
20
0.25
0
INSERT
2
SMOOTH_0$1
8
PART_TOP_2DLINE_20
10
0.5
20
-0.25
0
INSERT
2
SMOOTH_0$1
8
PART_TOP_2DLINE_20
10
-0.5
20
-0.25
0
POLYLINE
8
PART_TOP_2DLINE_20
66
1
40
0.1
41
0.1
70
1
0
VERTEX
8
PART_TOP_2DLINE_20
10
-0.5
20
0.25
0
VERTEX
8
PART_TOP_2DLINE_20
10
0.5
20
0.25
0
VERTEX
8
PART_TOP_2DLINE_20
10
0.5
20
-0.25
0
VERTEX
8
PART_TOP_2DLINE_20
10
-0.5
20
-0.25
0
SEQEND
0
INSERT
2
SMOOTH_0$1
8
PART_TOP_2DLINE_20
10
-0.5
20
0.25
0
INSERT
2
SMOOTH_0$1
8
PART_TOP_2DLINE_20
10
0.5
20
0.25
0
INSERT
2
SMOOTH_0$1
8
PART_TOP_2DLINE_20
10
0.5
20
-0.25
0
INSERT
2
SMOOTH_0$1
8
PART_TOP_2DLINE_20
10
-0.5
20
-0.25
0
POLYLINE
8
PART_TOP_2DLINE_01
66
1
40
0.1
41
0.1
70
1
0
VERTEX
8
PART_TOP_2DLINE_01
10
-0.9
20
0.45
0
VERTEX
8
PART_TOP_2DLINE_01
10
0.9
20
0.45
0
VERTEX
8
PART_TOP_2DLINE_01
10
0.9
20
-0.45
0
VERTEX
8
PART_TOP_2DLINE_01
10
-0.9
20
-0.45
0
SEQEND
0
INSERT
2
SMOOTH_0$1
8
PART_TOP_2DLINE_01
10
-0.9
20
0.45
0
INSERT
2
SMOOTH_0$1
8
PART_TOP_2DLINE_01
10
0.9
20
0.45
0
INSERT
2
SMOOTH_0$1
8
PART_TOP_2DLINE_01
10
0.9
20
-0.45
0
INSERT
2
SMOOTH_0$1
8
PART_TOP_2DLINE_01
10
-0.9
20
-0.45
0
ENDBLK
0
BLOCK
2
PART_BODY_TOP_18
8
0
10
0
20
0
3
PART_BODY_TOP_18
70
64
0
POLYLINE
8
PART_TOP_2DLINE_27
66
1
40
0.01
41
0.01
39
2.3
70
1
0
VERTEX
8
PART_TOP_2DLINE_27
10
-11.4
20
-13.4
0
VERTEX
8
PART_TOP_2DLINE_27
10
11.4
20
-13.4
0
VERTEX
8
PART_TOP_2DLINE_27
10
11.4
20
13.4
0
VERTEX
8
PART_TOP_2DLINE_27
10
-11.4
20
13.4
0
SEQEND
0
INSERT
2
SMOOTH_0$01
8
PART_TOP_2DLINE_27
10
-11.4
20
-13.4
0
INSERT
2
SMOOTH_0$01
8
PART_TOP_2DLINE_27
10
11.4
20
-13.4
0
INSERT
2
SMOOTH_0$01
8
PART_TOP_2DLINE_27
10
11.4
20
13.4
0
INSERT
2
SMOOTH_0$01
8
PART_TOP_2DLINE_27
10
-11.4
20
13.4
0
POLYLINE
8
PART_TOP_COPPER_26
66
1
40
0.1
41
0.1
39
2.3
70
1
0
VERTEX
8
PART_TOP_COPPER_26
10
-12.18
20
14.24
0
VERTEX
8
PART_TOP_COPPER_26
10
-10.68
20
14.24
0
VERTEX
8
PART_TOP_COPPER_26
10
-12.18
20
12.79
0
SEQEND
0
INSERT
2
SMOOTH_0$1
8
PART_TOP_COPPER_26
10
-12.18
20
14.24
0
INSERT
2
SMOOTH_0$1
8
PART_TOP_COPPER_26
10
-10.68
20
14.24
0
INSERT
2
SMOOTH_0$1
8
PART_TOP_COPPER_26
10
-12.18
20
12.79
0
POLYLINE
8
PART_TOP_2DLINE_26
66
1
40
0.1
41
0.1
39
2.3
70
1
0
VERTEX
8
PART_TOP_2DLINE_26
10
-11.25
20
12.33
0
VERTEX
8
PART_TOP_2DLINE_26
10
-10.33
20
13.25
0
VERTEX
8
PART_TOP_2DLINE_26
10
10.85
20
13.25
42
0.4142135624
0
VERTEX
8
PART_TOP_2DLINE_26
10
11.25
20
12.85
0
VERTEX
8
PART_TOP_2DLINE_26
10
11.25
20
-12.85
42
0.4142135624
0
VERTEX
8
PART_TOP_2DLINE_26
10
10.85
20
-13.25
0
VERTEX
8
PART_TOP_2DLINE_26
10
-10.85
20
-13.25
42
0.4142135624
0
VERTEX
8
PART_TOP_2DLINE_26
10
-11.25
20
-12.85
0
SEQEND
0
INSERT
2
SMOOTH_0$1
8
PART_TOP_2DLINE_26
10
-11.25
20
12.33
0
INSERT
2
SMOOTH_0$1
8
PART_TOP_2DLINE_26
10
-10.33
20
13.25
0
INSERT
2
SMOOTH_0$1
8
PART_TOP_2DLINE_26
10
10.85
20
13.25
0
INSERT
2
SMOOTH_0$1
8
PART_TOP_2DLINE_26
10
11.25
20
12.85
0
INSERT
2
SMOOTH_0$1
8
PART_TOP_2DLINE_26
10
11.25
20
-12.85
0
INSERT
2
SMOOTH_0$1
8
PART_TOP_2DLINE_26
10
10.85
20
-13.25
0
INSERT
2
SMOOTH_0$1
8
PART_TOP_2DLINE_26
10
-10.85
20
-13.25
0
INSERT
2
SMOOTH_0$1
8
PART_TOP_2DLINE_26
10
-11.25
20
-12.85
0
ENDBLK
0
BLOCK
2
STK_TOP_152
8
0
10
0
20
0
3
STK_TOP_152
70
64
0
INSERT
2
DRIL_HOLE_0
8
DRIL_PLTE_THRU_01
10
0
20
0
0
INSERT
2
DRIL_HOLE_0
8
DRIL_PLTE_THRU_02
10
0
20
0
0
INSERT
2
DRIL_HOLE_0
8
DRIL_PLTE_THRU_03
10
0
20
0
0
INSERT
2
DRIL_HOLE_0
8
DRIL_PLTE_THRU_04
10
0
20
0
0
INSERT
2
PAD_0
8
PADS_INNER
10
0
20
0
0
INSERT
2
PAD_0
8
PADS_BOT
10
0
20
0
0
INSERT
2
PAD_9
8
PADS_XR_21
10
0
20
0
0
INSERT
2
PAD_10
8
PADS_XR_23
10
0
20
0
0
INSERT
2
PAD_10
8
PADS_TOP
10
0
20
0
0
ENDBLK
0
BLOCK
2
STK_TOP_153
8
0
10
0
20
0
3
STK_TOP_153
70
64
0
INSERT
2
DRIL_HOLE_0
8
DRIL_PLTE_THRU_01
10
0
20
0
0
INSERT
2
DRIL_HOLE_0
8
DRIL_PLTE_THRU_02
10
0
20
0
0
INSERT
2
DRIL_HOLE_0
8
DRIL_PLTE_THRU_03
10
0
20
0
0
INSERT
2
DRIL_HOLE_0
8
DRIL_PLTE_THRU_04
10
0
20
0
0
INSERT
2
PAD_0
8
PADS_INNER
10
0
20
0
0
INSERT
2
PAD_0
8
PADS_BOT
10
0
20
0
0
INSERT
2
PAD_9
8
PADS_XR_21
10
0
20
0
50
90
0
INSERT
2
PAD_10
8
PADS_XR_23
10
0
20
0
50
90
0
INSERT
2
PAD_10
8
PADS_TOP
10
0
20
0
50
90
0
ENDBLK
0
BLOCK
2
STK_TOP_151
8
0
10
0
20
0
3
STK_TOP_151
70
64
0
INSERT
2
DRIL_HOLE_0
8
DRIL_PLTE_THRU_01
10
0
20
0
0
INSERT
2
DRIL_HOLE_0
8
DRIL_PLTE_THRU_02
10
0
20
0
0
INSERT
2
DRIL_HOLE_0
8
DRIL_PLTE_THRU_03
10
0
20
0
0
INSERT
2
DRIL_HOLE_0
8
DRIL_PLTE_THRU_04
10
0
20
0
0
INSERT
2
PAD_0
8
PADS_INNER
10
0
20
0
0
INSERT
2
PAD_0
8
PADS_BOT
10
0
20
0
0
INSERT
2
PAD_11
8
PADS_XR_21
10
0
20
0
0
INSERT
2
PAD_12
8
PADS_XR_23
10
0
20
0
0
INSERT
2
PAD_12
8
PADS_TOP
10
0
20
0
0
ENDBLK
0
BLOCK
2
PART_BODY_TOP_19
8
0
10
0
20
0
3
PART_BODY_TOP_19
70
64
0
POLYLINE
8
PART_TOP_2DLINE_00
66
1
40
0.254
41
0.254
70
1
0
VERTEX
8
PART_TOP_2DLINE_00
10
-3.25
20
-1.8
0
VERTEX
8
PART_TOP_2DLINE_00
10
-3.25
20
1.8
0
VERTEX
8
PART_TOP_2DLINE_00
10
3.25
20
1.8
0
VERTEX
8
PART_TOP_2DLINE_00
10
3.25
20
-1.8
0
SEQEND
0
INSERT
2
SMOOTH_0$254
8
PART_TOP_2DLINE_00
10
-3.25
20
-1.8
0
INSERT
2
SMOOTH_0$254
8
PART_TOP_2DLINE_00
10
-3.25
20
1.8
0
INSERT
2
SMOOTH_0$254
8
PART_TOP_2DLINE_00
10
3.25
20
1.8
0
INSERT
2
SMOOTH_0$254
8
PART_TOP_2DLINE_00
10
3.25
20
-1.8
0
POLYLINE
8
PART_TOP_2DLINE_00
66
1
40
0.254
41
0.254
0
VERTEX
8
PART_TOP_2DLINE_00
10
-2.535
20
-4.355
0
VERTEX
8
PART_TOP_2DLINE_00
10
-2.938
20
-4.758
0
VERTEX
8
PART_TOP_2DLINE_00
10
-2.236
20
-4.758
0
VERTEX
8
PART_TOP_2DLINE_00
10
-2.6
20
-4.394
0
SEQEND
0
INSERT
2
SMOOTH_0$254
8
PART_TOP_2DLINE_00
10
-2.535
20
-4.355
0
INSERT
2
SMOOTH_0$254
8
PART_TOP_2DLINE_00
10
-2.938
20
-4.758
0
INSERT
2
SMOOTH_0$254
8
PART_TOP_2DLINE_00
10
-2.236
20
-4.758
0
INSERT
2
SMOOTH_0$254
8
PART_TOP_2DLINE_00
10
-2.6
20
-4.394
0
ENDBLK
0
BLOCK
2
STK_TOP_177
8
0
10
0
20
0
3
STK_TOP_177
70
64
0
INSERT
2
DRIL_HOLE_0
8
DRIL_PLTE_THRU_01
10
0
20
0
0
INSERT
2
DRIL_HOLE_0
8
DRIL_PLTE_THRU_02
10
0
20
0
0
INSERT
2
DRIL_HOLE_0
8
DRIL_PLTE_THRU_03
10
0
20
0
0
INSERT
2
DRIL_HOLE_0
8
DRIL_PLTE_THRU_04
10
0
20
0
0
INSERT
2
PAD_0
8
PADS_INNER
10
0
20
0
0
INSERT
2
PAD_0
8
PADS_BOT
10
0
20
0
0
INSERT
2
PAD_13
8
PADS_TOP
10
0
20
0
50
90
0
ENDBLK
0
BLOCK
2
STK_TOP_178
8
0
10
0
20
0
3
STK_TOP_178
70
64
0
INSERT
2
DRIL_HOLE_0
8
DRIL_PLTE_THRU_01
10
0
20
0
0
INSERT
2
DRIL_HOLE_0
8
DRIL_PLTE_THRU_02
10
0
20
0
0
INSERT
2
DRIL_HOLE_0
8
DRIL_PLTE_THRU_03
10
0
20
0
0
INSERT
2
DRIL_HOLE_0
8
DRIL_PLTE_THRU_04
10
0
20
0
0
INSERT
2
PAD_0
8
PADS_INNER
10
0
20
0
0
INSERT
2
PAD_0
8
PADS_BOT
10
0
20
0
0
INSERT
2
PAD_14
8
PADS_TOP
10
0
20
0
0
ENDBLK
0
BLOCK
2
PART_BODY_TOP_23
8
0
10
0
20
0
3
PART_BODY_TOP_23
70
64
0
POLYLINE
8
PART_TOP_2DLINE_00
66
1
40
0.1
41
0.1
70
1
0
VERTEX
8
PART_TOP_2DLINE_00
10
-0.60208
20
0
42
1
0
VERTEX
8
PART_TOP_2DLINE_00
10
0.60208
20
0
42
1
0
SEQEND
0
ENDBLK
0
BLOCK
2
STK_TOP_222
8
0
10
0
20
0
3
STK_TOP_222
70
64
0
INSERT
2
DRIL_HOLE_0
8
DRIL_PLTE_THRU_01
10
0
20
0
0
INSERT
2
DRIL_HOLE_0
8
DRIL_PLTE_THRU_02
10
0
20
0
0
INSERT
2
DRIL_HOLE_0
8
DRIL_PLTE_THRU_03
10
0
20
0
0
INSERT
2
DRIL_HOLE_0
8
DRIL_PLTE_THRU_04
10
0
20
0
0
INSERT
2
PAD_0
8
PADS_INNER
10
0
20
0
0
INSERT
2
PAD_0
8
PADS_BOT
10
0
20
0
0
INSERT
2
PAD_15
8
PADS_TOP
10
0
20
0
0
ENDBLK
0
BLOCK
2
PART_BODY_TOP_24
8
0
10
0
20
0
3
PART_BODY_TOP_24
70
64
0
POLYLINE
8
PART_TOP_2DLINE_00
66
1
40
0.1
41
0.1
0
VERTEX
8
PART_TOP_2DLINE_00
10
0
20
-0.15
0
VERTEX
8
PART_TOP_2DLINE_00
10
0
20
0.15
0
SEQEND
0
INSERT
2
SMOOTH_0$1
8
PART_TOP_2DLINE_00
10
0
20
-0.15
0
INSERT
2
SMOOTH_0$1
8
PART_TOP_2DLINE_00
10
0
20
0.15
0
POLYLINE
8
PART_TOP_2DLINE_20
66
1
40
0.1
41
0.1
70
1
0
VERTEX
8
PART_TOP_2DLINE_20
10
-0.5
20
0.25
0
VERTEX
8
PART_TOP_2DLINE_20
10
0.5
20
0.25
0
VERTEX
8
PART_TOP_2DLINE_20
10
0.5
20
-0.25
0
VERTEX
8
PART_TOP_2DLINE_20
10
-0.5
20
-0.25
0
SEQEND
0
INSERT
2
SMOOTH_0$1
8
PART_TOP_2DLINE_20
10
-0.5
20
0.25
0
INSERT
2
SMOOTH_0$1
8
PART_TOP_2DLINE_20
10
0.5
20
0.25
0
INSERT
2
SMOOTH_0$1
8
PART_TOP_2DLINE_20
10
0.5
20
-0.25
0
INSERT
2
SMOOTH_0$1
8
PART_TOP_2DLINE_20
10
-0.5
20
-0.25
0
POLYLINE
8
KEEPOUT_01
6
KEEPOUT_00001000$0
66
1
70
1
0
VERTEX
8
KEEPOUT_01
10
-0.2
20
0.3
42
-0.4142135624
0
VERTEX
8
KEEPOUT_01
10
-0.1
20
0.4
0
VERTEX
8
KEEPOUT_01
10
0.1
20
0.4
42
-0.4142135624
0
VERTEX
8
KEEPOUT_01
10
0.2
20
0.3
0
VERTEX
8
KEEPOUT_01
10
0.2
20
-0.3
42
-0.4142135624
0
VERTEX
8
KEEPOUT_01
10
0.1
20
-0.4
0
VERTEX
8
KEEPOUT_01
10
-0.1
20
-0.4
42
-0.4142135624
0
VERTEX
8
KEEPOUT_01
10
-0.2
20
-0.3
0
SEQEND
0
POLYLINE
8
PART_TOP_2DLINE_20
66
1
40
0.1
41
0.1
70
1
0
VERTEX
8
PART_TOP_2DLINE_20
10
-0.5
20
0.25
0
VERTEX
8
PART_TOP_2DLINE_20
10
0.5
20
0.25
0
VERTEX
8
PART_TOP_2DLINE_20
10
0.5
20
-0.25
0
VERTEX
8
PART_TOP_2DLINE_20
10
-0.5
20
-0.25
0
SEQEND
0
INSERT
2
SMOOTH_0$1
8
PART_TOP_2DLINE_20
10
-0.5
20
0.25
0
INSERT
2
SMOOTH_0$1
8
PART_TOP_2DLINE_20
10
0.5
20
0.25
0
INSERT
2
SMOOTH_0$1
8
PART_TOP_2DLINE_20
10
0.5
20
-0.25
0
INSERT
2
SMOOTH_0$1
8
PART_TOP_2DLINE_20
10
-0.5
20
-0.25
0
POLYLINE
8
PART_TOP_2DLINE_00
66
1
40
0.1
41
0.1
70
1
0
VERTEX
8
PART_TOP_2DLINE_00
10
0.9
20
0.45
0
VERTEX
8
PART_TOP_2DLINE_00
10
-0.9
20
0.45
0
VERTEX
8
PART_TOP_2DLINE_00
10
-0.9
20
-0.45
0
VERTEX
8
PART_TOP_2DLINE_00
10
0.9
20
-0.45
0
SEQEND
0
INSERT
2
SMOOTH_0$1
8
PART_TOP_2DLINE_00
10
0.9
20
0.45
0
INSERT
2
SMOOTH_0$1
8
PART_TOP_2DLINE_00
10
-0.9
20
0.45
0
INSERT
2
SMOOTH_0$1
8
PART_TOP_2DLINE_00
10
-0.9
20
-0.45
0
INSERT
2
SMOOTH_0$1
8
PART_TOP_2DLINE_00
10
0.9
20
-0.45
0
ENDBLK
0
BLOCK
2
PART_BODY_TOP_26
8
0
10
0
20
0
3
PART_BODY_TOP_26
70
64
0
ENDBLK
0
BLOCK
2
STK_TOP_231
8
0
10
0
20
0
3
STK_TOP_231
70
64
0
INSERT
2
DRIL_HOLE_2
8
DRIL_PLTE_THRU_01
10
0
20
0
0
INSERT
2
DRIL_HOLE_2
8
DRIL_PLTE_THRU_02
10
0
20
0
0
INSERT
2
DRIL_HOLE_2
8
DRIL_PLTE_THRU_03
10
0
20
0
0
INSERT
2
DRIL_HOLE_2
8
DRIL_PLTE_THRU_04
10
0
20
0
0
INSERT
2
PAD_16
8
PADS_INNER
10
0
20
0
0
INSERT
2
PAD_16
8
PADS_BOT
10
0
20
0
0
INSERT
2
PAD_17
8
PADS_TOP
10
0
20
0
0
ENDBLK
0
BLOCK
2
PART_BODY_TOP_21
8
0
10
0
20
0
3
PART_BODY_TOP_21
70
64
0
POLYLINE
8
PART_TOP_2DLINE_00
66
1
40
0.1
41
0.1
0
VERTEX
8
PART_TOP_2DLINE_00
10
-1.344
20
1.912
0
VERTEX
8
PART_TOP_2DLINE_00
10
-1.544
20
1.912
0
SEQEND
0
INSERT
2
SMOOTH_0$1
8
PART_TOP_2DLINE_00
10
-1.344
20
1.912
0
INSERT
2
SMOOTH_0$1
8
PART_TOP_2DLINE_00
10
-1.544
20
1.912
0
POLYLINE
8
PART_TOP_2DLINE_01
66
1
40
0.254
41
0.254
70
1
0
VERTEX
8
PART_TOP_2DLINE_01
10
-3.81
20
3.81
0
VERTEX
8
PART_TOP_2DLINE_01
10
3.81
20
3.81
0
VERTEX
8
PART_TOP_2DLINE_01
10
3.81
20
-2.54
0
VERTEX
8
PART_TOP_2DLINE_01
10
-3.81
20
-2.54
0
SEQEND
0
INSERT
2
SMOOTH_0$254
8
PART_TOP_2DLINE_01
10
-3.81
20
3.81
0
INSERT
2
SMOOTH_0$254
8
PART_TOP_2DLINE_01
10
3.81
20
3.81
0
INSERT
2
SMOOTH_0$254
8
PART_TOP_2DLINE_01
10
3.81
20
-2.54
0
INSERT
2
SMOOTH_0$254
8
PART_TOP_2DLINE_01
10
-3.81
20
-2.54
0
ENDBLK
0
BLOCK
2
STK_TOP_200
8
0
10
0
20
0
3
STK_TOP_200
70
64
0
INSERT
2
DRIL_HOLE_0
8
DRIL_NPLTE_THRU_01
10
0
20
0
0
INSERT
2
DRIL_HOLE_0
8
DRIL_NPLTE_THRU_02
10
0
20
0
0
INSERT
2
DRIL_HOLE_0
8
DRIL_NPLTE_THRU_03
10
0
20
0
0
INSERT
2
DRIL_HOLE_0
8
DRIL_NPLTE_THRU_04
10
0
20
0
0
INSERT
2
PAD_0
8
PADS_INNER
10
0
20
0
0
INSERT
2
PAD_18
8
PADS_BOT
10
0
20
0
0
INSERT
2
PAD_19
8
PADS_TOP
10
0
20
0
50
90
0
ENDBLK
0
BLOCK
2
STK_TOP_255
8
0
10
0
20
0
3
STK_TOP_255
70
64
0
INSERT
2
DRIL_HOLE_0
8
DRIL_NPLTE_THRU_01
10
0
20
0
0
INSERT
2
DRIL_HOLE_0
8
DRIL_NPLTE_THRU_02
10
0
20
0
0
INSERT
2
DRIL_HOLE_0
8
DRIL_NPLTE_THRU_03
10
0
20
0
0
INSERT
2
DRIL_HOLE_0
8
DRIL_NPLTE_THRU_04
10
0
20
0
0
INSERT
2
PAD_0
8
PADS_INNER
10
0
20
0
0
INSERT
2
PAD_20
8
PADS_BOT
10
0
20
0
50
90
0
INSERT
2
PAD_19
8
PADS_TOP
10
0
20
0
50
90
0
ENDBLK
0
BLOCK
2
STK_TOP_199
8
0
10
0
20
0
3
STK_TOP_199
70
64
0
INSERT
2
DRIL_HOLE_0
8
DRIL_NPLTE_THRU_01
10
0
20
0
0
INSERT
2
DRIL_HOLE_0
8
DRIL_NPLTE_THRU_02
10
0
20
0
0
INSERT
2
DRIL_HOLE_0
8
DRIL_NPLTE_THRU_03
10
0
20
0
0
INSERT
2
DRIL_HOLE_0
8
DRIL_NPLTE_THRU_04
10
0
20
0
0
INSERT
2
PAD_0
8
PADS_INNER
10
0
20
0
0
INSERT
2
PAD_19
8
PADS_BOT
10
0
20
0
50
90
0
INSERT
2
PAD_18
8
PADS_TOP
10
0
20
0
0
ENDBLK
999
*** POWERPCB  PCB PARAMETER ***
0
BLOCK
2
PCB_PARAMS
8
0
10
0
20
0
3
PCB_PARAMS
70
64
999
 *  1.Job name           2.Backupfile name       3.CursorType
999
 *  4.TearDropFlag       5.HighlighNetsFlag      6.HatchDisplayFlag
999
 *  7.PadsFlag           8.TracksFlag            9.ViasFlag
999
 * 10.CopperFlag        11.LinesFlag            12.TextFlag
999
 * 13.TopComponentFlag  14.BottomComponentFlag  16.ObjectSnapFlags
0
TEXT
8
PCB_PARAMS
10
0
20
-3.048
40
1.778
1
A:=BG96_Module_REV0.1_191216.pcb <> 3 0 1 1 1 1 1 1 1 1 1 1 0 510
999
 *  1.RefDesHeight       2.RefDesWidth           3.DefaultWidth
999
 *  4.VGX                5.VGY                   6.OVR
999
 *  7.HatchGrid          8.ObjectSnapRadius
0
TEXT
8
PCB_PARAMS
10
0
20
-6.096
40
1.778
1
B:=2.54 0.254 0.1 0.1 0.1 0 0.1 5
999
 *  1.ScaleFactor        2.NetAttributeFlags     3.BackupInterval
999
 *  4.WorkingLevel       5.HatchMode             6.HatchDirection
999
 *  7.ConnectionColor    8.BackgroundColor       9.ForegroundColor
999
 * 10.BoardOutlineColor
0
TEXT
8
PCB_PARAMS
10
0
20
-9.144
40
1.778
1
C:=12.2211265564 10002 3 1 0 0 15 0 8 8
999
 * MitreAngle0 - MitreAngle6
0
TEXT
8
PCB_PARAMS
10
0
20
-12.192
40
1.778
1
D:=324000000 324000000 324000000 324000000 324000000 324000000 324000000
999
 * Hatch & Keepout Parameters
0
TEXT
8
PCB_PARAMS
10
0
20
-15.24
40
1.778
1
E:=0.2 0 0 2.54 2 1
999
 * Fanout Parameters
0
TEXT
8
PCB_PARAMS
10
0
20
-18.288
40
1.778
1
F:=0.635 0.635 6.35 1 2 0 1 1 0 0 1 1 1 1
999
 * Pad Entry Parameters
0
TEXT
8
PCB_PARAMS
10
0
20
-21.336
40
1.778
1
P:= 1 1 1 1
999
 * DFF Parameters
0
TEXT
8
PCB_PARAMS
10
0
20
-24.384
40
1.778
1
Q:=89.9999 3967 114300 114300 114300 5 4 114300 114300 114300 114300 1 114300 1 114300 1 114300 0
0
ENDBLK
0
BLOCK
2
DRIL_SYMBOL_0
8
0
10
0
20
0
3
DRIL_SYMBOL_0
70
64
0
ENDBLK
0
BLOCK
2
DRIL_SYMBOL_1$1
8
0
10
0
20
0
3
DRIL_SYMBOL_1$1
70
64
0
POLYLINE
8
DRIL_SYMBOL
66
1
40
0.0508
41
0.0508
0
VERTEX
8
DRIL_SYMBOL
10
0
20
-0.254
0
VERTEX
8
DRIL_SYMBOL
10
0
20
0.254
0
SEQEND
0
POLYLINE
8
DRIL_SYMBOL
66
1
40
0.0508
41
0.0508
0
VERTEX
8
DRIL_SYMBOL
10
-0.254
20
0
0
VERTEX
8
DRIL_SYMBOL
10
0.254
20
0
0
SEQEND
0
ENDBLK
0
BLOCK
2
DRIL_SYMBOL_2
8
0
10
0
20
0
3
DRIL_SYMBOL_2
70
64
0
POLYLINE
8
DRIL_SYMBOL
66
1
40
0.0508
41
0.0508
0
VERTEX
8
DRIL_SYMBOL
10
0
20
-0.254
0
VERTEX
8
DRIL_SYMBOL
10
0
20
0.254
0
SEQEND
0
POLYLINE
8
DRIL_SYMBOL
66
1
40
0.0508
41
0.0508
0
VERTEX
8
DRIL_SYMBOL
10
-0.254
20
0
0
VERTEX
8
DRIL_SYMBOL
10
0.254
20
0
0
SEQEND
0
ENDBLK
999
*** POWERPCB  SMOOTH CIRCLE ***
0
BLOCK
2
SMOOTH_0$1
8
0
10
0
20
0
3
SMOOTH_0$1
70
64
0
POLYLINE
8
0
66
1
40
0.05
41
0.05
70
1
0
VERTEX
8
0
10
-0.025
20
0
42
1
0
VERTEX
8
0
10
0.025
20
0
42
1
0
SEQEND
0
ENDBLK
0
BLOCK
2
SMOOTH_0$254
8
0
10
0
20
0
3
SMOOTH_0$254
70
64
0
POLYLINE
8
0
66
1
40
0.127
41
0.127
70
1
0
VERTEX
8
0
10
-0.0635
20
0
42
1
0
VERTEX
8
0
10
0.0635
20
0
42
1
0
SEQEND
0
ENDBLK
0
BLOCK
2
SMOOTH_0$2
8
0
10
0
20
0
3
SMOOTH_0$2
70
64
0
POLYLINE
8
0
66
1
40
0.1
41
0.1
70
1
0
VERTEX
8
0
10
-0.05
20
0
42
1
0
VERTEX
8
0
10
0.05
20
0
42
1
0
SEQEND
0
ENDBLK
0
BLOCK
2
SMOOTH_0$01
8
0
10
0
20
0
3
SMOOTH_0$01
70
64
0
POLYLINE
8
0
66
1
40
0.005
41
0.005
70
1
0
VERTEX
8
0
10
-0.0025
20
0
42
1
0
VERTEX
8
0
10
0.0025
20
0
42
1
0
SEQEND
0
ENDBLK
0
BLOCK
2
PAD_0
8
0
10
0
20
0
3
PAD_0
70
64
0
POLYLINE
8
0
70
1
66
1
0
VERTEX
8
0
10
0
20
0
42
1
0
VERTEX
8
0
10
0
20
0
42
1
0
SEQEND
0
ENDBLK
0
BLOCK
2
PAD_1
8
0
10
0
20
0
3
PAD_1
70
64
0
POLYLINE
8
0
66
1
40
0.7
41
0.7
0
VERTEX
8
0
10
-0.4
20
0
0
VERTEX
8
0
10
0.4
20
0
0
SEQEND
0
ENDBLK
0
BLOCK
2
PAD_2
8
0
10
0
20
0
3
PAD_2
70
64
0
POLYLINE
8
0
66
1
40
0.5
41
0.5
0
VERTEX
8
0
10
-0.25
20
0
0
VERTEX
8
0
10
0.25
20
0
0
SEQEND
0
ENDBLK
0
BLOCK
2
PAD_3
8
0
10
0
20
0
3
PAD_3
70
64
0
POLYLINE
8
0
66
1
40
1.2
41
1.2
0
VERTEX
8
0
10
-0.8
20
0
0
VERTEX
8
0
10
0.8
20
0
0
SEQEND
0
ENDBLK
0
BLOCK
2
PAD_4
8
0
10
0
20
0
3
PAD_4
70
64
0
POLYLINE
8
0
70
1
66
1
40
0.75
41
0.75
0
VERTEX
8
0
10
0
20
-0.375
42
1
0
VERTEX
8
0
10
0
20
0.375
42
1
0
SEQEND
0
ENDBLK
0
BLOCK
2
PAD_5
8
0
10
0
20
0
3
PAD_5
70
64
0
POLYLINE
8
0
66
1
40
1.5
41
1.5
0
VERTEX
8
0
10
-0.75
20
0
0
VERTEX
8
0
10
0.75
20
0
0
SEQEND
0
ENDBLK
0
BLOCK
2
PAD_6
8
0
10
0
20
0
3
PAD_6
70
64
0
POLYLINE
8
0
66
1
40
0.5
41
0.5
0
VERTEX
8
0
10
-0.3
20
0
0
VERTEX
8
0
10
0.3
20
0
0
SEQEND
0
ENDBLK
0
BLOCK
2
PAD_7
8
0
10
0
20
0
3
PAD_7
70
64
0
POLYLINE
8
0
66
1
40
0.35
41
0.35
0
VERTEX
8
0
10
-0.775
20
0
0
VERTEX
8
0
10
0.775
20
0
0
SEQEND
0
ENDBLK
0
BLOCK
2
PAD_8
8
0
10
0
20
0
3
PAD_8
70
64
0
POLYLINE
8
0
66
1
40
0.8
41
0.8
0
VERTEX
8
0
10
-0.4
20
0
0
VERTEX
8
0
10
0.4
20
0
0
SEQEND
0
ENDBLK
0
BLOCK
2
PAD_9
8
0
10
0
20
0
3
PAD_9
70
64
0
POLYLINE
8
0
66
1
40
0.8
41
0.8
0
VERTEX
8
0
10
-0.625
20
0
0
VERTEX
8
0
10
0.625
20
0
0
SEQEND
0
ENDBLK
0
BLOCK
2
PAD_10
8
0
10
0
20
0
3
PAD_10
70
64
0
POLYLINE
8
0
66
1
40
0.7
41
0.7
0
VERTEX
8
0
10
-0.575
20
0
0
VERTEX
8
0
10
0.575
20
0
0
SEQEND
0
ENDBLK
0
BLOCK
2
PAD_11
8
0
10
0
20
0
3
PAD_11
70
64
0
POLYLINE
8
0
66
1
40
1.1
41
1.1
0
VERTEX
8
0
10
-0.55
20
0
0
VERTEX
8
0
10
0.55
20
0
0
SEQEND
0
ENDBLK
0
BLOCK
2
PAD_12
8
0
10
0
20
0
3
PAD_12
70
64
0
POLYLINE
8
0
66
1
40
1
41
1
0
VERTEX
8
0
10
-0.5
20
0
0
VERTEX
8
0
10
0.5
20
0
0
SEQEND
0
ENDBLK
0
BLOCK
2
PAD_13
8
0
10
0
20
0
3
PAD_13
70
64
0
POLYLINE
8
0
66
1
40
0.65
41
0.65
0
VERTEX
8
0
10
-1
20
0
0
VERTEX
8
0
10
1
20
0
0
SEQEND
0
ENDBLK
0
BLOCK
2
PAD_14
8
0
10
0
20
0
3
PAD_14
70
64
0
POLYLINE
8
0
66
1
40
2
41
2
0
VERTEX
8
0
10
-1.6
20
0
0
VERTEX
8
0
10
1.6
20
0
0
SEQEND
0
ENDBLK
0
BLOCK
2
PAD_15
8
0
10
0
20
0
3
PAD_15
70
64
0
POLYLINE
8
0
70
1
66
1
40
0.4
41
0.4
0
VERTEX
8
0
10
0
20
-0.2
42
1
0
VERTEX
8
0
10
0
20
0.2
42
1
0
SEQEND
0
ENDBLK
0
BLOCK
2
PAD_16
8
0
10
0
20
0
3
PAD_16
70
64
0
POLYLINE
8
0
70
1
66
1
40
1
41
1
0
VERTEX
8
0
10
0
20
-0.5
42
1
0
VERTEX
8
0
10
0
20
0.5
42
1
0
SEQEND
0
ENDBLK
0
BLOCK
2
PAD_17
8
0
10
0
20
0
3
PAD_17
70
64
0
POLYLINE
8
0
70
1
66
1
40
2
41
2
0
VERTEX
8
0
10
0
20
-1
42
1
0
VERTEX
8
0
10
0
20
1
42
1
0
SEQEND
0
ENDBLK
0
BLOCK
2
PAD_18
8
0
10
0
20
0
3
PAD_18
70
64
0
POLYLINE
8
0
66
1
0
VERTEX
8
0
10
0
20
0
0
VERTEX
8
0
10
0
20
0
0
SEQEND
0
ENDBLK
0
BLOCK
2
PAD_19
8
0
10
0
20
0
3
PAD_19
70
64
0
POLYLINE
8
0
66
1
40
1.5
41
1.5
0
VERTEX
8
0
10
-2
20
0
0
VERTEX
8
0
10
2
20
0
0
SEQEND
0
ENDBLK
0
BLOCK
2
PAD_20
8
0
10
0
20
0
3
PAD_20
70
64
0
POLYLINE
8
0
66
1
0
VERTEX
8
0
10
0
20
0
0
VERTEX
8
0
10
0
20
0
0
SEQEND
0
ENDBLK
999
*** POWERPCB  DRILL HOLE ***
0
BLOCK
2
DRIL_HOLE_0
8
0
10
0
20
0
3
DRIL_HOLE_0
70
64
0
POLYLINE
8
0
66
1
70
1
0
VERTEX
8
0
10
0
20
0
42
1
0
VERTEX
8
0
10
0
20
0
42
1
0
SEQEND
0
INSERT
2
DRIL_SYMBOL_0
8
0
10
0
20
0
0
ENDBLK
0
BLOCK
2
DRIL_HOLE_1$1
8
0
10
0
20
0
3
DRIL_HOLE_1$1
70
64
0
POLYLINE
8
0
66
1
40
0.55
41
0.55
70
1
0
VERTEX
8
0
10
-0.275
20
0
42
1
0
VERTEX
8
0
10
0.275
20
0
42
1
0
SEQEND
0
INSERT
2
DRIL_SYMBOL_1$1
8
0
10
0
20
0
0
ENDBLK
0
BLOCK
2
DRIL_HOLE_2
8
0
10
0
20
0
3
DRIL_HOLE_2
70
64
0
POLYLINE
8
0
66
1
40
1
41
1
70
1
0
VERTEX
8
0
10
-0.5
20
0
42
1
0
VERTEX
8
0
10
0.5
20
0
42
1
0
SEQEND
0
INSERT
2
DRIL_SYMBOL_2
8
0
10
0
20
0
0
ENDBLK
0
ENDSEC
0
SECTION
2
ENTITIES
999
*** POWERPCB  DBLAYER ***
0
INSERT
2
DBLAYERS
8
0
10
0
20
0
999
*** POWERPCB  BOARD ***
0
INSERT
2
BOARD_27
8
0
10
7
20
0
999
*** POWERPCB  2DLINE ***
999
*** POWERPCB  FREE TEXT ***
999
*** POWERPCB  COMPONENT ***
0
INSERT
2
PART_TOP_0
8
0
10
21
20
49
50
180
0
INSERT
2
PART_TOP_1
8
0
10
11.4
20
8.3
50
180
0
INSERT
2
PART_TOP_2
8
0
10
10.9
20
11.9
0
INSERT
2
PART_TOP_3
8
0
10
10.9
20
13.3
50
180
0
INSERT
2
PART_TOP_4
8
0
10
11.2
20
14.5
50
180
0
INSERT
2
PART_TOP_6
8
0
10
24.6
20
2.6
50
90
0
INSERT
2
PART_TOP_7
8
0
10
13.7
20
11.9
50
180
0
INSERT
2
PART_TOP_8
8
0
10
13.4
20
14.6
0
INSERT
2
PART_TOP_9
8
0
10
22.4
20
2
50
270
0
INSERT
2
PART_TOP_10
8
0
10
14.6
20
49.5
0
INSERT
2
PART_TOP_11
8
0
10
21.1
20
1.7
50
90
0
INSERT
2
PART_TOP_12
8
0
10
13.7
20
13.3
0
INSERT
2
PART_TOP_14
8
0
10
26.8
20
18.8
50
180
0
INSERT
2
PART_TOP_15
8
0
10
26.8
20
17.4
0
INSERT
2
PART_TOP_18
8
0
10
23.4
20
5.6
0
INSERT
2
PART_TOP_21
8
0
10
10.3
20
49.5
50
180
0
INSERT
2
PART_TOP_23
8
0
10
27.8
20
47.9
0
INSERT
2
PART_TOP_24
8
0
10
30.2
20
49.4
50
90
0
INSERT
2
PART_TOP_25
8
0
10
28.3
20
49.4
50
90
0
INSERT
2
PART_TOP_26
8
0
10
16.4
20
9.6
50
90
0
INSERT
2
PART_TOP_27
8
0
10
14.6
20
9
50
270
0
INSERT
2
PART_TOP_28
8
0
10
3
20
18
0
INSERT
2
PART_TOP_29
8
0
10
34.6
20
19.8
50
270
0
INSERT
2
PART_TOP_30
8
0
10
8
20
8.5
50
270
0
INSERT
2
PART_TOP_31
8
0
10
30
20
8.5
50
270
0
INSERT
2
PART_TOP_33
8
0
10
10
20
18
50
180
0
INSERT
2
PART_TOP_34
8
0
10
25.8
20
50.1
50
180
0
INSERT
2
PART_TOP_37
8
0
10
2
20
35.8
50
180
0
INSERT
2
PART_TOP_38
8
0
10
2
20
34.7
50
180
0
INSERT
2
PART_TOP_39
8
0
10
2
20
33.6
50
180
0
INSERT
2
PART_TOP_40
8
0
10
2
20
32.5
50
180
0
INSERT
2
PART_TOP_43
8
0
10
23
20
10.8
0
INSERT
2
PART_TOP_46
8
0
10
1.9
20
24.6
50
270
0
INSERT
2
PART_TOP_47
8
0
10
4.9
20
24.6
50
270
0
INSERT
2
PART_TOP_51
8
0
10
23.7
20
49
0
INSERT
2
PART_TOP_60
8
0
10
1.9
20
21.8
50
90
0
INSERT
2
PART_TOP_68
8
0
10
16.4
20
19.4
50
180
0
INSERT
2
PART_TOP_69
8
0
10
17.5
20
18.3
50
180
0
INSERT
2
PART_TOP_70
8
0
10
23.7
20
18.5
50
90
0
INSERT
2
PART_TOP_71
8
0
10
4.9
20
21.8
50
90
0
INSERT
2
PART_TOP_72
8
0
10
24.8
20
18.5
50
90
0
INSERT
2
PART_TOP_75
8
0
10
20.1
20
5.7
50
90
0
INSERT
2
PART_TOP_76
8
0
10
21.2
20
5.7
50
90
0
INSERT
2
PART_TOP_78
8
0
10
23.1
20
6.8
50
180
0
INSERT
2
PART_TOP_79
8
0
10
12.5
20
49.5
0
INSERT
2
PART_TOP_80
8
0
10
25.8
20
49
0
INSERT
2
PART_TOP_83
8
0
10
29.8
20
47.9
0
INSERT
2
PART_TOP_85
8
0
10
21
20
33.7
0
INSERT
2
PART_TOP_86
8
0
10
15
20
3.8
50
90
0
INSERT
2
PART_TOP_87
8
0
10
14.7
20
19.4
0
INSERT
2
PART_TOP_88
8
0
10
14.9
20
18
0
INSERT
2
PART_TOP_89
8
0
10
11.8
20
10.1
50
90
0
INSERT
2
PART_TOP_90
8
0
10
12.9
20
10.1
50
90
0
INSERT
2
PART_TOP_91
8
0
10
3
20
48
50
270
0
INSERT
2
PART_TOP_92
8
0
10
35
20
48
50
270
0
INSERT
2
PART_TOP_95
8
0
10
8.2
20
23.9
0
INSERT
2
PART_TOP_98
8
0
10
12
20
53.5
0
INSERT
2
PART_TOP_99
8
0
10
26
20
53.5
999
*** POWERPCB  PCB PARAMETER ***
0
INSERT
2
PCB_PARAMS
8
0
10
0
20
0
0
ENDSEC
0
EOF
