0
SECTION
2
HEADER
999
*** POWERPCB  HEADER ***
9
$EXTMIN
10
-0.5
20
-0.05
9
$EXTMAX
10
38.05
20
56.05
9
$FILLMODE
70
0
9
$GRIDMODE
70
1
9
$GRIDUNIT
10
1
20
1
9
$INSBASE
10
26.036
20
11.673
9
$LIMCHECK
70
0
9
$PLINEWID
40
0.01
9
$SNAPMODE
70
1
9
$SNAPUNIT
10
0.1
20
0.1
9
$TEXTSIZE
40
2.54
9
$TEXTSTYLE
7
W0$254
9
$USERI1
70
101
9
$USERI2
70
0
9
$USERI5
70
150
9
$VIEWCTR
10
19
20
28
0
ENDSEC
0
SECTION
2
TABLES
999
*** POWERPCB  LTYPE ***
0
TABLE
2
LTYPE
70
1
0
LTYPE
2
CONTINUOUS
70
64
3
---
72
65
73
0
40
0
0
LTYPE
2
KEEPOUT_00001000$0
70
64
3
---
72
65
73
2
40
2
49
1
49
1
0
ENDTAB
999
*** POWERPCB  LAYER ***
0
TABLE
2
LAYER
70
40
0
LAYER
2
DBLAYERS
70
1
62
-254
6
CONTINUOUS
0
LAYER
2
BOARD_OUTLINE_00
70
0
62
254
6
CONTINUOUS
0
LAYER
2
LABEL_INFO
70
1
62
-254
6
CONTINUOUS
0
LAYER
2
LABEL_ATTRIBUTE
70
1
62
-254
6
CONTINUOUS
0
LAYER
2
PART_TYPE_04
70
1
62
-250
6
CONTINUOUS
0
LAYER
2
PART_NAME_04
70
0
62
130
6
CONTINUOUS
0
LAYER
2
PART_INFO
70
1
62
-254
6
CONTINUOUS
0
LAYER
2
PART_PTS
70
1
62
-254
6
CONTINUOUS
0
LAYER
2
ATTRIBUTE_04
70
0
62
1
6
CONTINUOUS
0
LAYER
2
PART_NAME_BOT
70
1
62
-250
6
CONTINUOUS
0
LAYER
2
PART_TYPE_BOT
70
1
62
-250
6
CONTINUOUS
0
LAYER
2
SYM_NAME
70
1
62
-254
6
CONTINUOUS
0
LAYER
2
SYM_PART_TYPE_01
70
1
62
-254
6
CONTINUOUS
0
LAYER
2
SYM_PART_NAME_01
70
1
62
-254
6
CONTINUOUS
0
LAYER
2
SYM_TERMINAL
70
1
62
-254
6
CONTINUOUS
0
LAYER
2
PKG_INFO
70
1
62
-254
6
CONTINUOUS
0
LAYER
2
SYM_ATTRIBUTE_01
70
1
62
-254
6
CONTINUOUS
0
LAYER
2
PART_BOT_2DLINE_20
70
1
62
-2
6
CONTINUOUS
0
LAYER
2
PART_BOT_2DLINE_01
70
1
62
-250
6
CONTINUOUS
0
LAYER
2
DRIL_PLTE_THRU_01
70
0
62
176
6
CONTINUOUS
0
LAYER
2
DRIL_PLTE_THRU_02
70
0
62
136
6
CONTINUOUS
0
LAYER
2
DRIL_PLTE_THRU_03
70
0
62
255
6
CONTINUOUS
0
LAYER
2
DRIL_PLTE_THRU_04
70
0
62
16
6
CONTINUOUS
0
LAYER
2
PADS_INNER
70
0
62
5
6
CONTINUOUS
0
LAYER
2
PADS_BOT
70
0
62
1
6
CONTINUOUS
0
LAYER
2
PADS_TOP
70
0
62
5
6
CONTINUOUS
0
LAYER
2
PART_BOT_2DLINE_00
70
0
62
130
6
CONTINUOUS
0
LAYER
2
PART_BOT_COPPER_26
70
1
62
-250
6
CONTINUOUS
0
LAYER
2
PART_BOT_2DLINE_26
70
1
62
-250
6
CONTINUOUS
0
LAYER
2
DRIL_NPLTE_THRU_01
70
0
62
176
6
CONTINUOUS
0
LAYER
2
DRIL_NPLTE_THRU_02
70
0
62
136
6
CONTINUOUS
0
LAYER
2
DRIL_NPLTE_THRU_03
70
0
62
255
6
CONTINUOUS
0
LAYER
2
DRIL_NPLTE_THRU_04
70
0
62
16
6
CONTINUOUS
0
LAYER
2
KEEPOUT_01
70
0
62
130
6
CONTINUOUS
0
LAYER
2
PART_TOP_COPPER_26
70
0
62
254
6
CONTINUOUS
0
LAYER
2
PART_TOP_2DLINE_01
70
0
62
254
6
CONTINUOUS
0
LAYER
2
PART_TOP_2DLINE_00
70
0
62
254
6
CONTINUOUS
0
LAYER
2
PART_TOP_2DLINE_20
70
1
62
-6
6
CONTINUOUS
0
LAYER
2
PCB_PARAMS
70
1
62
-254
6
CONTINUOUS
0
LAYER
2
DRIL_SYMBOL
70
0
62
254
6
CONTINUOUS
0
ENDTAB
999
*** POWERPCB  TEXT STYLE ***
0
TABLE
2
STYLE
70
9
0
STYLE
2
W0$1
70
64
40
0
41
0.75
42
0
50
0
71
0
3
simplex
0
STYLE
2
W0$127
70
64
40
0
41
0.75
42
0
50
0
71
0
3
simplex
0
STYLE
2
W0$12
70
64
40
0
41
0.75
42
0
50
0
71
0
3
simplex
0
STYLE
2
W0$254
70
64
40
0
41
0.75
42
0
50
0
71
0
3
simplex
0
STYLE
2
W0$1R0
70
64
40
0
41
0.75
42
0
50
0
71
0
3
simplex
0
STYLE
2
W0$127R0
70
64
40
0
41
0.75
42
0
50
0
71
0
3
simplex
0
STYLE
2
W0$12R1
70
64
40
0
41
0.75
42
0
50
0
71
0
3
simplex
0
STYLE
2
W0$254R0
70
64
40
0
41
0.75
42
0
50
0
71
0
3
simplex
0
STYLE
2
W0$1R1
70
64
40
0
41
0.75
42
0
50
0
71
0
3
simplex
0
ENDTAB
0
ENDSEC
0
SECTION
2
BLOCKS
999
*** POWERPCB  DBLAYER ***
0
BLOCK
2
DBLAYERS
8
0
10
0
20
0
3
DBLAYERS
70
64
0
TEXT
8
DBLAYERS
10
0
20
-3.048
40
1.778
1
__It__Is__Job__Name__:=BG96_Module_REV0.1_191216.pcb
999
 *  1.Number             2.Type                  3.RouteColor
999
 *  4.ViaColor           5.PadColor              6.CopperColor
999
 *  7.2DLineColor        8.TextColor             9.ErrorColor
999
 * 10.TopComponentColor 11.BottomComponentColor 12.RoutingDirection
999
 * 13.LayerThickness    14.CopperThickness      15.Dielectric
999
 * 16.IsRouteable       17.IsVisible            18.IsSelectable
999
 * 19.IsPrepreg         20.AssSilkScreen        21.AssPasteMask
999
 * 22.AssSolderMask     23.AssAssembly
0
TEXT
8
DBLAYERS
10
0
20
-6.096
40
1.778
1
Bottom:=4 1 12 8 12 28 13 12 15 0 27 1 0 51435 3.2999999523 1 1 1 0 29 22 28 30 0 0 1 27 0 12 20 
0
ENDBLK
999
*** POWERPCB  BOARD ***
0
BLOCK
2
BOARD_27
8
0
10
0
20
0
3
BOARD_27
70
64
0
POLYLINE
8
BOARD_OUTLINE_00
66
1
40
0.1
41
0.1
70
1
0
VERTEX
8
BOARD_OUTLINE_00
10
-1
20
1
42
0.4142135624
0
VERTEX
8
BOARD_OUTLINE_00
10
0
20
0
0
VERTEX
8
BOARD_OUTLINE_00
10
24
20
0
42
0.4142135624
0
VERTEX
8
BOARD_OUTLINE_00
10
25
20
1
0
VERTEX
8
BOARD_OUTLINE_00
10
25
20
16
0
VERTEX
8
BOARD_OUTLINE_00
10
30
20
16
42
0.4142135624
0
VERTEX
8
BOARD_OUTLINE_00
10
31
20
17
0
VERTEX
8
BOARD_OUTLINE_00
10
31
20
55
42
0.4142135624
0
VERTEX
8
BOARD_OUTLINE_00
10
30
20
56
0
VERTEX
8
BOARD_OUTLINE_00
10
-6
20
56
42
0.4142135624
0
VERTEX
8
BOARD_OUTLINE_00
10
-7
20
55
0
VERTEX
8
BOARD_OUTLINE_00
10
-7
20
17
42
0.4142135624
0
VERTEX
8
BOARD_OUTLINE_00
10
-6
20
16
0
VERTEX
8
BOARD_OUTLINE_00
10
-1
20
16
0
SEQEND
0
INSERT
2
SMOOTH_0$1
8
BOARD_OUTLINE_00
10
-1
20
1
0
INSERT
2
SMOOTH_0$1
8
BOARD_OUTLINE_00
10
0
20
0
0
ENDBLK
999
*** POWERPCB  2DLINE ***
999
*** POWERPCB  COMPONENT ***
0
BLOCK
2
PART_BOT_5
8
0
10
0
20
0
3
PART_BOT_5
70
64
0
INSERT
2
SYM_BOT_3
8
0
10
0
20
0
0
INSERT
2
PKG_1
8
0
10
0
20
0
41
-1
0
TEXT
8
LABEL_INFO
10
-1.124
20
1.652
40
0.7
1
0 0 0 0 0 1
41
0.75
7
W0$1
0
TEXT
8
LABEL_ATTRIBUTE
10
-1.124
20
1.652
40
0.7
1
PartType
41
0.75
7
W0$1
0
TEXT
8
PART_TYPE_04
10
-1.124
20
1.652
40
0.7
1
C_1005
41
0.75
7
W0$1
0
TEXT
8
LABEL_INFO
10
-0.1
20
0.7
40
0.56
1
0 0 0 0 0 1
41
0.75
7
W0$1
0
TEXT
8
LABEL_ATTRIBUTE
10
-0.1
20
0.7
40
0.56
1
Ref.Des.
41
0.75
7
W0$1
0
TEXT
8
PART_NAME_04
10
-0.1
20
0.7
40
0.56
1
C14
41
0.75
7
W0$1
0
TEXT
8
PART_INFO
10
-0.1
20
-0.1
40
0.56
1
000000
71
2
41
0.75
7
W0$1
0
TEXT
8
PART_PTS
10
-0.1
20
-0.9
40
0.56
1
1 2 
71
2
41
0.75
7
W0$1
0
ENDBLK
0
BLOCK
2
PART_BOT_13
8
0
10
0
20
0
3
PART_BOT_13
70
64
0
INSERT
2
SYM_BOT_3
8
0
10
0
20
0
0
INSERT
2
PKG_1
8
0
10
0
20
0
41
-1
0
TEXT
8
LABEL_INFO
10
-1.124
20
1.652
40
0.7
1
0 0 0 0 0 1
41
0.75
7
W0$1
0
TEXT
8
LABEL_ATTRIBUTE
10
-1.124
20
1.652
40
0.7
1
PartType
41
0.75
7
W0$1
0
TEXT
8
PART_TYPE_04
10
-1.124
20
1.652
40
0.7
1
C_1005
41
0.75
7
W0$1
0
TEXT
8
LABEL_INFO
10
1.2
20
-0.3
40
0.56
1
0 0 0 0 0 1
41
0.75
7
W0$1
0
TEXT
8
LABEL_ATTRIBUTE
10
1.2
20
-0.3
40
0.56
1
Ref.Des.
41
0.75
7
W0$1
0
TEXT
8
PART_NAME_04
10
1.2
20
-0.3
40
0.56
1
C22
41
0.75
7
W0$1
0
TEXT
8
PART_INFO
10
1.2
20
-1.1
40
0.56
1
000000
71
2
41
0.75
7
W0$1
0
TEXT
8
PART_PTS
10
1.2
20
-1.9
40
0.56
1
1 2 
71
2
41
0.75
7
W0$1
0
ENDBLK
0
BLOCK
2
PART_BOT_16
8
0
10
0
20
0
3
PART_BOT_16
70
64
0
INSERT
2
SYM_BOT_3
8
0
10
0
20
0
0
INSERT
2
PKG_1
8
0
10
0
20
0
41
-1
0
TEXT
8
LABEL_INFO
10
-1.124
20
1.652
40
0.7
1
0 0 0 0 0 1
41
0.75
7
W0$1
0
TEXT
8
LABEL_ATTRIBUTE
10
-1.124
20
1.652
40
0.7
1
PartType
41
0.75
7
W0$1
0
TEXT
8
PART_TYPE_04
10
-1.124
20
1.652
40
0.7
1
C_1005
41
0.75
7
W0$1
0
TEXT
8
LABEL_INFO
10
2.2
20
0.5
40
0.56
1
0 324000000 0 0 0 1
50
180
41
0.75
7
W0$1
0
TEXT
8
LABEL_ATTRIBUTE
10
2.2
20
0.5
40
0.56
1
Ref.Des.
50
180
41
0.75
7
W0$1
0
TEXT
8
PART_NAME_04
10
2.2
20
0.5
40
0.56
1
C25
50
180
41
0.75
7
W0$1
0
TEXT
8
PART_INFO
10
2.2
20
-0.3
40
0.56
1
000000
71
2
50
180
41
0.75
7
W0$1
0
TEXT
8
PART_PTS
10
2.2
20
-1.1
40
0.56
1
1 2 
71
2
50
180
41
0.75
7
W0$1
0
ENDBLK
0
BLOCK
2
PART_BOT_17
8
0
10
0
20
0
3
PART_BOT_17
70
64
0
INSERT
2
SYM_BOT_5
8
0
10
0
20
0
0
INSERT
2
PKG_3
8
0
10
0
20
0
41
-1
0
TEXT
8
LABEL_INFO
10
-0.95
20
1.2
40
0.7
1
0 0 0 0 0 1
41
0.75
7
W0$1
0
TEXT
8
LABEL_ATTRIBUTE
10
-0.95
20
1.2
40
0.7
1
PartType
41
0.75
7
W0$1
0
TEXT
8
PART_TYPE_04
10
-0.95
20
1.2
40
0.7
1
C_2012
41
0.75
7
W0$1
0
TEXT
8
LABEL_INFO
10
2.3
20
-0.4999993333
40
0.56
1
0 162000000 0 0 0 1
50
90
41
0.75
7
W0$1
0
TEXT
8
LABEL_ATTRIBUTE
10
2.3
20
-0.4999993333
40
0.56
1
Ref.Des.
50
90
41
0.75
7
W0$1
0
TEXT
8
PART_NAME_04
10
2.3
20
-0.4999993333
40
0.56
1
C26
50
90
41
0.75
7
W0$1
0
TEXT
8
PART_INFO
10
2.3
20
-1.2999993333
40
0.56
1
000000
71
2
50
90
41
0.75
7
W0$1
0
TEXT
8
PART_PTS
10
2.3
20
-2.0999993333
40
0.56
1
1 2 
71
2
50
90
41
0.75
7
W0$1
0
ENDBLK
0
BLOCK
2
PART_BOT_19
8
0
10
0
20
0
3
PART_BOT_19
70
64
0
INSERT
2
SYM_BOT_3
8
0
10
0
20
0
0
INSERT
2
PKG_1
8
0
10
0
20
0
41
-1
0
TEXT
8
LABEL_INFO
10
-1.124
20
1.652
40
0.7
1
0 0 0 0 0 1
41
0.75
7
W0$1
0
TEXT
8
LABEL_ATTRIBUTE
10
-1.124
20
1.652
40
0.7
1
PartType
41
0.75
7
W0$1
0
TEXT
8
PART_TYPE_04
10
-1.124
20
1.652
40
0.7
1
C_1005
41
0.75
7
W0$1
0
TEXT
8
LABEL_INFO
10
-0.5
20
0.7
40
0.56
1
0 0 0 0 0 1
41
0.75
7
W0$1
0
TEXT
8
LABEL_ATTRIBUTE
10
-0.5
20
0.7
40
0.56
1
Ref.Des.
41
0.75
7
W0$1
0
TEXT
8
PART_NAME_04
10
-0.5
20
0.7
40
0.56
1
C28
41
0.75
7
W0$1
0
TEXT
8
PART_INFO
10
-0.5
20
-0.1
40
0.56
1
000000
71
2
41
0.75
7
W0$1
0
TEXT
8
PART_PTS
10
-0.5
20
-0.9
40
0.56
1
1 2 
71
2
41
0.75
7
W0$1
0
ENDBLK
0
BLOCK
2
PART_BOT_20
8
0
10
0
20
0
3
PART_BOT_20
70
64
0
INSERT
2
SYM_BOT_3
8
0
10
0
20
0
0
INSERT
2
PKG_1
8
0
10
0
20
0
41
-1
0
TEXT
8
LABEL_INFO
10
-1.124
20
1.652
40
0.7
1
0 0 0 0 0 1
41
0.75
7
W0$1
0
TEXT
8
LABEL_ATTRIBUTE
10
-1.124
20
1.652
40
0.7
1
PartType
41
0.75
7
W0$1
0
TEXT
8
PART_TYPE_04
10
-1.124
20
1.652
40
0.7
1
C_1005
41
0.75
7
W0$1
0
TEXT
8
LABEL_INFO
10
2.2
20
0.2
40
0.56
1
0 324000000 0 0 0 1
50
180
41
0.75
7
W0$1
0
TEXT
8
LABEL_ATTRIBUTE
10
2.2
20
0.2
40
0.56
1
Ref.Des.
50
180
41
0.75
7
W0$1
0
TEXT
8
PART_NAME_04
10
2.2
20
0.2
40
0.56
1
C29
50
180
41
0.75
7
W0$1
0
TEXT
8
PART_INFO
10
2.2
20
-0.6
40
0.56
1
000000
71
2
50
180
41
0.75
7
W0$1
0
TEXT
8
PART_PTS
10
2.2
20
-1.4
40
0.56
1
1 2 
71
2
50
180
41
0.75
7
W0$1
0
ENDBLK
0
BLOCK
2
PART_BOT_22
8
0
10
0
20
0
3
PART_BOT_22
70
64
0
INSERT
2
SYM_BOT_3
8
0
10
0
20
0
0
INSERT
2
PKG_1
8
0
10
0
20
0
41
-1
0
TEXT
8
LABEL_INFO
10
-1.124
20
1.652
40
0.7
1
0 0 0 0 0 1
41
0.75
7
W0$1
0
TEXT
8
LABEL_ATTRIBUTE
10
-1.124
20
1.652
40
0.7
1
PartType
41
0.75
7
W0$1
0
TEXT
8
PART_TYPE_04
10
-1.124
20
1.652
40
0.7
1
C_1005
41
0.75
7
W0$1
0
TEXT
8
LABEL_INFO
10
2.6
20
-0.5999993333
40
0.56
1
0 162000000 0 0 0 1
50
90
41
0.75
7
W0$1
0
TEXT
8
LABEL_ATTRIBUTE
10
2.6
20
-0.5999993333
40
0.56
1
Ref.Des.
50
90
41
0.75
7
W0$1
0
TEXT
8
PART_NAME_04
10
2.6
20
-0.5999993333
40
0.56
1
C30
50
90
41
0.75
7
W0$1
0
TEXT
8
PART_INFO
10
2.6
20
-1.3999993333
40
0.56
1
000000
71
2
50
90
41
0.75
7
W0$1
0
TEXT
8
PART_PTS
10
2.6
20
-2.1999993333
40
0.56
1
1 2 
71
2
50
90
41
0.75
7
W0$1
0
ENDBLK
0
BLOCK
2
PART_BOT_32
8
0
10
0
20
0
3
PART_BOT_32
70
64
0
INSERT
2
SYM_BOT_23
8
0
10
0
20
0
0
INSERT
2
PKG_6
8
0
10
0
20
0
41
-1
0
TEXT
8
LABEL_INFO
10
10.2999993333
20
7.4
40
0.56
1
0 162000000 0 0 0 1
50
90
41
0.75
7
W0$1
0
TEXT
8
LABEL_ATTRIBUTE
10
10.2999993333
20
7.4
40
0.56
1
Ref.Des.
50
90
41
0.75
7
W0$1
0
TEXT
8
PART_NAME_04
10
10.2999993333
20
7.4
40
0.56
1
CON7
50
90
41
0.75
7
W0$1
0
TEXT
8
LABEL_INFO
10
0
20
0
40
0.889
1
0 0 0 2 0 1
73
2
11
0
21
0
41
0.75
7
W0$127
0
TEXT
8
LABEL_ATTRIBUTE
10
0
20
0
40
0.889
1
PartType
73
2
11
0
21
0
41
0.75
7
W0$127
0
TEXT
8
PART_TYPE_04
10
0
20
0
40
0.889
1
104244-0820
73
3
11
0
21
0
41
0.75
7
W0$127
0
TEXT
8
PART_INFO
10
0
20
-1.27
40
0.889
1
000001
71
2
73
3
11
0
21
-1.27
41
0.75
7
W0$127
0
TEXT
8
PART_PTS
10
0
20
-2.54
40
0.889
1
1 2 3 4 5 6 7 8 9 10 11 12 
71
2
73
3
11
0
21
-2.54
41
0.75
7
W0$127
0
ENDBLK
0
BLOCK
2
PART_BOT_35
8
0
10
0
20
0
3
PART_BOT_35
70
64
0
INSERT
2
SYM_BOT_11
8
0
10
0
20
0
0
INSERT
2
PKG_9
8
0
10
0
20
0
41
-1
0
TEXT
8
LABEL_INFO
10
-1.9
20
0.2999993333
40
0.56
1
0 324000000 0 0 0 1
50
180
41
0.75
7
W0$1
0
TEXT
8
LABEL_ATTRIBUTE
10
-1.9
20
0.2999993333
40
0.56
1
Ref.Des.
50
180
41
0.75
7
W0$1
0
TEXT
8
PART_NAME_04
10
-1.9
20
0.2999993333
40
0.56
1
ESD2
50
180
41
0.75
7
W0$1
0
TEXT
8
LABEL_INFO
10
-0.9
20
-1.3
40
0.7
1
0 0 0 0 0 1
41
0.75
7
W0$1
0
TEXT
8
LABEL_ATTRIBUTE
10
-0.9
20
-1.3
40
0.7
1
PartType
41
0.75
7
W0$1
0
TEXT
8
PART_TYPE_04
10
-0.9
20
-1.3
40
0.7
1
ULCE0505C015FR
41
0.75
7
W0$1
0
TEXT
8
PART_INFO
10
-0.9
20
-2.3
40
0.7
1
000000
71
2
41
0.75
7
W0$1
0
TEXT
8
PART_PTS
10
-0.9
20
-3.3
40
0.7
1
1 2 
71
2
41
0.75
7
W0$1
0
ENDBLK
0
BLOCK
2
PART_BOT_36
8
0
10
0
20
0
3
PART_BOT_36
70
64
0
INSERT
2
SYM_BOT_11
8
0
10
0
20
0
0
INSERT
2
PKG_9
8
0
10
0
20
0
41
-1
0
TEXT
8
LABEL_INFO
10
2.5
20
0
40
0.56
1
0 324000000 0 0 0 1
50
180
41
0.75
7
W0$1
0
TEXT
8
LABEL_ATTRIBUTE
10
2.5
20
0
40
0.56
1
Ref.Des.
50
180
41
0.75
7
W0$1
0
TEXT
8
PART_NAME_04
10
2.5
20
0
40
0.56
1
ESD3
50
180
41
0.75
7
W0$1
0
TEXT
8
LABEL_INFO
10
-0.9
20
-1.3
40
0.7
1
0 0 0 0 0 1
41
0.75
7
W0$1
0
TEXT
8
LABEL_ATTRIBUTE
10
-0.9
20
-1.3
40
0.7
1
PartType
41
0.75
7
W0$1
0
TEXT
8
PART_TYPE_04
10
-0.9
20
-1.3
40
0.7
1
ULCE0505C015FR
41
0.75
7
W0$1
0
TEXT
8
PART_INFO
10
-0.9
20
-2.3
40
0.7
1
000000
71
2
41
0.75
7
W0$1
0
TEXT
8
PART_PTS
10
-0.9
20
-3.3
40
0.7
1
1 2 
71
2
41
0.75
7
W0$1
0
ENDBLK
0
BLOCK
2
PART_BOT_41
8
0
10
0
20
0
3
PART_BOT_41
70
64
0
INSERT
2
SYM_BOT_11
8
0
10
0
20
0
0
INSERT
2
PKG_9
8
0
10
0
20
0
41
-1
0
TEXT
8
LABEL_INFO
10
2.7
20
0.2
40
0.56
1
0 324000000 0 0 0 1
50
180
41
0.75
7
W0$1
0
TEXT
8
LABEL_ATTRIBUTE
10
2.7
20
0.2
40
0.56
1
Ref.Des.
50
180
41
0.75
7
W0$1
0
TEXT
8
PART_NAME_04
10
2.7
20
0.2
40
0.56
1
ESD8
50
180
41
0.75
7
W0$1
0
TEXT
8
LABEL_INFO
10
-0.9
20
-1.3
40
0.7
1
0 0 0 0 0 1
41
0.75
7
W0$1
0
TEXT
8
LABEL_ATTRIBUTE
10
-0.9
20
-1.3
40
0.7
1
PartType
41
0.75
7
W0$1
0
TEXT
8
PART_TYPE_04
10
-0.9
20
-1.3
40
0.7
1
ULCE0505C015FR
41
0.75
7
W0$1
0
TEXT
8
PART_INFO
10
-0.9
20
-2.3
40
0.7
1
000000
71
2
41
0.75
7
W0$1
0
TEXT
8
PART_PTS
10
-0.9
20
-3.3
40
0.7
1
1 2 
71
2
41
0.75
7
W0$1
0
ENDBLK
0
BLOCK
2
PART_BOT_42
8
0
10
0
20
0
3
PART_BOT_42
70
64
0
INSERT
2
SYM_BOT_11
8
0
10
0
20
0
0
INSERT
2
PKG_9
8
0
10
0
20
0
41
-1
0
TEXT
8
LABEL_INFO
10
-1.2
20
-1.1
40
0.56
1
0 0 0 0 0 1
41
0.75
7
W0$1
0
TEXT
8
LABEL_ATTRIBUTE
10
-1.2
20
-1.1
40
0.56
1
Ref.Des.
41
0.75
7
W0$1
0
TEXT
8
PART_NAME_04
10
-1.2
20
-1.1
40
0.56
1
ESD9
41
0.75
7
W0$1
0
TEXT
8
LABEL_INFO
10
-0.9
20
-1.3
40
0.7
1
0 0 0 0 0 1
41
0.75
7
W0$1
0
TEXT
8
LABEL_ATTRIBUTE
10
-0.9
20
-1.3
40
0.7
1
PartType
41
0.75
7
W0$1
0
TEXT
8
PART_TYPE_04
10
-0.9
20
-1.3
40
0.7
1
ULCE0505C015FR
41
0.75
7
W0$1
0
TEXT
8
PART_INFO
10
-0.9
20
-2.3
40
0.7
1
000000
71
2
41
0.75
7
W0$1
0
TEXT
8
PART_PTS
10
-0.9
20
-3.3
40
0.7
1
1 2 
71
2
41
0.75
7
W0$1
0
ENDBLK
0
BLOCK
2
PART_BOT_44
8
0
10
0
20
0
3
PART_BOT_44
70
64
0
INSERT
2
SYM_BOT_14
8
0
10
0
20
0
0
INSERT
2
PKG_12
8
0
10
0
20
0
41
-1
0
TEXT
8
LABEL_INFO
10
-0.95
20
1.2
40
0.889
1
1 0 0 0 0 1
41
0.75
7
W0$12
0
TEXT
8
LABEL_ATTRIBUTE
10
-0.95
20
1.2
40
0.889
1
PartType
41
0.75
7
W0$12
0
TEXT
8
PART_TYPE_04
10
-0.95
20
1.2
40
0.889
1
DLW21SN900SQ2
72
2
73
3
11
-0.95
21
1.2
50
-180
41
0.75
7
W0$12
0
TEXT
8
LABEL_INFO
10
-0.4
20
1.6
40
0.56
1
1 486000000 0 0 0 1
50
270
41
0.75
7
W0$1
0
TEXT
8
LABEL_ATTRIBUTE
10
-0.4
20
1.6
40
0.56
1
Ref.Des.
50
270
41
0.75
7
W0$1
0
TEXT
8
PART_NAME_04
10
-0.4
20
1.6
40
0.56
1
L1
50
-90
41
0.75
7
W0$1
0
TEXT
8
PART_INFO
10
-0.4
20
0.8
40
0.56
1
000000
71
2
50
-90
41
0.75
7
W0$1
0
TEXT
8
PART_PTS
10
-0.4
20
0
40
0.56
1
1 2 3 4 
71
2
50
-90
41
0.75
7
W0$1
0
ENDBLK
0
BLOCK
2
PART_BOT_45
8
0
10
0
20
0
3
PART_BOT_45
70
64
0
INSERT
2
SYM_BOT_15
8
0
10
0
20
0
0
INSERT
2
PKG_13
8
0
10
0
20
0
41
-1
0
TEXT
8
LABEL_INFO
10
0
20
1.5
40
0.889
1
1 0 1 1 0 1
72
1
73
1
11
0
21
1.5
41
0.75
7
W0$12
0
TEXT
8
LABEL_ATTRIBUTE
10
0
20
1.5
40
0.889
1
PartType
72
1
73
1
11
0
21
1.5
41
0.75
7
W0$12
0
TEXT
8
PART_TYPE_04
10
0
20
1.5
40
0.889
1
MLF1608E6R8K
72
1
73
2
11
0
21
1.5
50
-180
41
0.75
7
W0$12
0
TEXT
8
LABEL_INFO
10
1.75
20
0
40
0.56
1
1 0 1 1 0 1
72
1
73
1
11
1.75
21
0
41
0.75
7
W0$1
0
TEXT
8
LABEL_ATTRIBUTE
10
1.75
20
0
40
0.56
1
Ref.Des.
72
1
73
1
11
1.75
21
0
41
0.75
7
W0$1
0
TEXT
8
PART_NAME_04
10
1.75
20
0
40
0.56
1
L2
72
1
73
2
11
1.75
21
0
50
-180
41
0.75
7
W0$1
0
TEXT
8
LABEL_INFO
10
-0.05
20
1.3
40
0.56
1
1 0 1 1 0 1
72
1
73
1
11
-0.05
21
1.3
41
0.75
7
W0$1
0
TEXT
8
LABEL_ATTRIBUTE
10
-0.05
20
1.3
40
0.56
1
Value
72
1
73
1
11
-0.05
21
1.3
41
0.75
7
W0$1
0
TEXT
8
ATTRIBUTE_04
10
-0.05
20
1.3
40
0.56
1
 
72
1
73
2
11
-0.05
21
1.3
50
-180
41
0.75
7
W0$1
0
TEXT
8
PART_INFO
10
-0.05
20
0.5
40
0.56
1
000000
71
2
72
1
73
2
11
-0.05
21
0.5
50
-180
41
0.75
7
W0$1
0
TEXT
8
PART_PTS
10
-0.05
20
-0.3
40
0.56
1
1 2 
71
2
72
1
73
2
11
-0.05
21
-0.3
50
-180
41
0.75
7
W0$1
0
ENDBLK
0
BLOCK
2
PART_BOT_48
8
0
10
0
20
0
3
PART_BOT_48
70
64
0
INSERT
2
SYM_BOT_26
8
0
10
0
20
0
0
INSERT
2
PKG_15
8
0
10
0
20
0
41
-1
0
TEXT
8
LABEL_INFO
10
-1.524
20
5.3086
40
1.778
1
0 0 0 2 0 1
73
2
11
-1.524
21
5.3086
41
0.75
7
W0$254
0
TEXT
8
LABEL_ATTRIBUTE
10
-1.524
20
5.3086
40
1.778
1
PartType
73
2
11
-1.524
21
5.3086
41
0.75
7
W0$254
0
TEXT
8
PART_TYPE_04
10
-1.524
20
5.3086
40
1.778
1
MMBT2222ALT1
73
3
11
-1.524
21
5.3086
41
0.75
7
W0$254
0
TEXT
8
LABEL_INFO
10
0.6
20
0.7
40
0.56
1
0 0 0 0 0 1
41
0.75
7
W0$1
0
TEXT
8
LABEL_ATTRIBUTE
10
0.6
20
0.7
40
0.56
1
Ref.Des.
41
0.75
7
W0$1
0
TEXT
8
PART_NAME_04
10
0.6
20
0.7
40
0.56
1
Q1
41
0.75
7
W0$1
0
TEXT
8
PART_INFO
10
0.6
20
-0.1
40
0.56
1
000001
71
2
41
0.75
7
W0$1
0
TEXT
8
PART_PTS
10
0.6
20
-0.9
40
0.56
1
1 2 3 
71
2
41
0.75
7
W0$1
0
ENDBLK
0
BLOCK
2
PART_BOT_49
8
0
10
0
20
0
3
PART_BOT_49
70
64
0
INSERT
2
SYM_BOT_26
8
0
10
0
20
0
0
INSERT
2
PKG_15
8
0
10
0
20
0
41
-1
0
TEXT
8
LABEL_INFO
10
-1.524
20
5.3086
40
1.778
1
0 0 0 2 0 1
73
2
11
-1.524
21
5.3086
41
0.75
7
W0$254
0
TEXT
8
LABEL_ATTRIBUTE
10
-1.524
20
5.3086
40
1.778
1
PartType
73
2
11
-1.524
21
5.3086
41
0.75
7
W0$254
0
TEXT
8
PART_TYPE_04
10
-1.524
20
5.3086
40
1.778
1
MMBT2222ALT1
73
3
11
-1.524
21
5.3086
41
0.75
7
W0$254
0
TEXT
8
LABEL_INFO
10
0.6
20
0.7
40
0.56
1
0 0 0 0 0 1
41
0.75
7
W0$1
0
TEXT
8
LABEL_ATTRIBUTE
10
0.6
20
0.7
40
0.56
1
Ref.Des.
41
0.75
7
W0$1
0
TEXT
8
PART_NAME_04
10
0.6
20
0.7
40
0.56
1
Q2
41
0.75
7
W0$1
0
TEXT
8
PART_INFO
10
0.6
20
-0.1
40
0.56
1
000001
71
2
41
0.75
7
W0$1
0
TEXT
8
PART_PTS
10
0.6
20
-0.9
40
0.56
1
1 2 3 
71
2
41
0.75
7
W0$1
0
ENDBLK
0
BLOCK
2
PART_BOT_50
8
0
10
0
20
0
3
PART_BOT_50
70
64
0
INSERT
2
SYM_BOT_26
8
0
10
0
20
0
0
INSERT
2
PKG_15
8
0
10
0
20
0
41
-1
0
TEXT
8
LABEL_INFO
10
-1.524
20
5.3086
40
1.778
1
0 0 0 2 0 1
73
2
11
-1.524
21
5.3086
41
0.75
7
W0$254
0
TEXT
8
LABEL_ATTRIBUTE
10
-1.524
20
5.3086
40
1.778
1
PartType
73
2
11
-1.524
21
5.3086
41
0.75
7
W0$254
0
TEXT
8
PART_TYPE_04
10
-1.524
20
5.3086
40
1.778
1
MMBT2222ALT1
73
3
11
-1.524
21
5.3086
41
0.75
7
W0$254
0
TEXT
8
LABEL_INFO
10
-0.2
20
2
40
0.56
1
0 486000000 0 0 0 1
50
270
41
0.75
7
W0$1
0
TEXT
8
LABEL_ATTRIBUTE
10
-0.2
20
2
40
0.56
1
Ref.Des.
50
270
41
0.75
7
W0$1
0
TEXT
8
PART_NAME_04
10
-0.2
20
2
40
0.56
1
Q3
50
270
41
0.75
7
W0$1
0
TEXT
8
PART_INFO
10
-0.2
20
1.2
40
0.56
1
000001
71
2
50
270
41
0.75
7
W0$1
0
TEXT
8
PART_PTS
10
-0.2
20
0.4
40
0.56
1
1 2 3 
71
2
50
270
41
0.75
7
W0$1
0
ENDBLK
0
BLOCK
2
PART_BOT_52
8
0
10
0
20
0
3
PART_BOT_52
70
64
0
INSERT
2
SYM_BOT_18
8
0
10
0
20
0
0
INSERT
2
PKG_16
8
0
10
0
20
0
41
-1
0
TEXT
8
LABEL_INFO
10
-1.124
20
1.652
40
0.7
1
0 0 0 0 0 1
41
0.75
7
W0$1
0
TEXT
8
LABEL_ATTRIBUTE
10
-1.124
20
1.652
40
0.7
1
PartType
41
0.75
7
W0$1
0
TEXT
8
PART_TYPE_04
10
-1.124
20
1.652
40
0.7
1
R_1005
41
0.75
7
W0$1
0
TEXT
8
LABEL_INFO
10
-1.9
20
-0.3
40
0.56
1
0 0 0 0 0 1
41
0.75
7
W0$1
0
TEXT
8
LABEL_ATTRIBUTE
10
-1.9
20
-0.3
40
0.56
1
Ref.Des.
41
0.75
7
W0$1
0
TEXT
8
PART_NAME_04
10
-1.9
20
-0.3
40
0.56
1
R10
41
0.75
7
W0$1
0
TEXT
8
PART_INFO
10
-1.9
20
-1.1
40
0.56
1
000000
71
2
41
0.75
7
W0$1
0
TEXT
8
PART_PTS
10
-1.9
20
-1.9
40
0.56
1
1 2 
71
2
41
0.75
7
W0$1
0
ENDBLK
0
BLOCK
2
PART_BOT_53
8
0
10
0
20
0
3
PART_BOT_53
70
64
0
INSERT
2
SYM_BOT_18
8
0
10
0
20
0
0
INSERT
2
PKG_16
8
0
10
0
20
0
41
-1
0
TEXT
8
LABEL_INFO
10
-1.124
20
1.652
40
0.7
1
0 0 0 0 0 1
41
0.75
7
W0$1
0
TEXT
8
LABEL_ATTRIBUTE
10
-1.124
20
1.652
40
0.7
1
PartType
41
0.75
7
W0$1
0
TEXT
8
PART_TYPE_04
10
-1.124
20
1.652
40
0.7
1
R_1005
41
0.75
7
W0$1
0
TEXT
8
LABEL_INFO
10
-1.8
20
-0.3
40
0.56
1
0 0 0 0 0 1
41
0.75
7
W0$1
0
TEXT
8
LABEL_ATTRIBUTE
10
-1.8
20
-0.3
40
0.56
1
Ref.Des.
41
0.75
7
W0$1
0
TEXT
8
PART_NAME_04
10
-1.8
20
-0.3
40
0.56
1
R11
41
0.75
7
W0$1
0
TEXT
8
PART_INFO
10
-1.8
20
-1.1
40
0.56
1
000000
71
2
41
0.75
7
W0$1
0
TEXT
8
PART_PTS
10
-1.8
20
-1.9
40
0.56
1
1 2 
71
2
41
0.75
7
W0$1
0
ENDBLK
0
BLOCK
2
PART_BOT_54
8
0
10
0
20
0
3
PART_BOT_54
70
64
0
INSERT
2
SYM_BOT_18
8
0
10
0
20
0
0
INSERT
2
PKG_16
8
0
10
0
20
0
41
-1
0
TEXT
8
LABEL_INFO
10
-1.124
20
1.652
40
0.7
1
0 0 0 0 0 1
41
0.75
7
W0$1
0
TEXT
8
LABEL_ATTRIBUTE
10
-1.124
20
1.652
40
0.7
1
PartType
41
0.75
7
W0$1
0
TEXT
8
PART_TYPE_04
10
-1.124
20
1.652
40
0.7
1
R_1005
41
0.75
7
W0$1
0
TEXT
8
LABEL_INFO
10
2.4
20
-0.2
40
0.56
1
0 0 0 0 0 1
41
0.75
7
W0$1
0
TEXT
8
LABEL_ATTRIBUTE
10
2.4
20
-0.2
40
0.56
1
Ref.Des.
41
0.75
7
W0$1
0
TEXT
8
PART_NAME_04
10
2.4
20
-0.2
40
0.56
1
R12
41
0.75
7
W0$1
0
TEXT
8
PART_INFO
10
2.4
20
-1
40
0.56
1
000000
71
2
41
0.75
7
W0$1
0
TEXT
8
PART_PTS
10
2.4
20
-1.8
40
0.56
1
1 2 
71
2
41
0.75
7
W0$1
0
ENDBLK
0
BLOCK
2
PART_BOT_55
8
0
10
0
20
0
3
PART_BOT_55
70
64
0
INSERT
2
SYM_BOT_18
8
0
10
0
20
0
0
INSERT
2
PKG_16
8
0
10
0
20
0
41
-1
0
TEXT
8
LABEL_INFO
10
-1.124
20
1.652
40
0.7
1
0 0 0 0 0 1
41
0.75
7
W0$1
0
TEXT
8
LABEL_ATTRIBUTE
10
-1.124
20
1.652
40
0.7
1
PartType
41
0.75
7
W0$1
0
TEXT
8
PART_TYPE_04
10
-1.124
20
1.652
40
0.7
1
R_1005
41
0.75
7
W0$1
0
TEXT
8
LABEL_INFO
10
-2.5
20
0.1999986667
40
0.56
1
0 324000000 0 0 0 1
50
180
41
0.75
7
W0$1
0
TEXT
8
LABEL_ATTRIBUTE
10
-2.5
20
0.1999986667
40
0.56
1
Ref.Des.
50
180
41
0.75
7
W0$1
0
TEXT
8
PART_NAME_04
10
-2.5
20
0.1999986667
40
0.56
1
R13
50
180
41
0.75
7
W0$1
0
TEXT
8
PART_INFO
10
-2.5
20
-0.6000013333
40
0.56
1
000000
71
2
50
180
41
0.75
7
W0$1
0
TEXT
8
PART_PTS
10
-2.5
20
-1.4000013333
40
0.56
1
1 2 
71
2
50
180
41
0.75
7
W0$1
0
ENDBLK
0
BLOCK
2
PART_BOT_56
8
0
10
0
20
0
3
PART_BOT_56
70
64
0
INSERT
2
SYM_BOT_18
8
0
10
0
20
0
0
INSERT
2
PKG_16
8
0
10
0
20
0
41
-1
0
TEXT
8
LABEL_INFO
10
-1.124
20
1.652
40
0.7
1
0 0 0 0 0 1
41
0.75
7
W0$1
0
TEXT
8
LABEL_ATTRIBUTE
10
-1.124
20
1.652
40
0.7
1
PartType
41
0.75
7
W0$1
0
TEXT
8
PART_TYPE_04
10
-1.124
20
1.652
40
0.7
1
R_1005
41
0.75
7
W0$1
0
TEXT
8
LABEL_INFO
10
-2.5
20
0.1999986667
40
0.56
1
0 324000000 0 0 0 1
50
180
41
0.75
7
W0$1
0
TEXT
8
LABEL_ATTRIBUTE
10
-2.5
20
0.1999986667
40
0.56
1
Ref.Des.
50
180
41
0.75
7
W0$1
0
TEXT
8
PART_NAME_04
10
-2.5
20
0.1999986667
40
0.56
1
R14
50
180
41
0.75
7
W0$1
0
TEXT
8
PART_INFO
10
-2.5
20
-0.6000013333
40
0.56
1
000000
71
2
50
180
41
0.75
7
W0$1
0
TEXT
8
PART_PTS
10
-2.5
20
-1.4000013333
40
0.56
1
1 2 
71
2
50
180
41
0.75
7
W0$1
0
ENDBLK
0
BLOCK
2
PART_BOT_57
8
0
10
0
20
0
3
PART_BOT_57
70
64
0
INSERT
2
SYM_BOT_18
8
0
10
0
20
0
0
INSERT
2
PKG_16
8
0
10
0
20
0
41
-1
0
TEXT
8
LABEL_INFO
10
-1.124
20
1.652
40
0.7
1
0 0 0 0 0 1
41
0.75
7
W0$1
0
TEXT
8
LABEL_ATTRIBUTE
10
-1.124
20
1.652
40
0.7
1
PartType
41
0.75
7
W0$1
0
TEXT
8
PART_TYPE_04
10
-1.124
20
1.652
40
0.7
1
R_1005
41
0.75
7
W0$1
0
TEXT
8
LABEL_INFO
10
-2.5
20
0.1999986667
40
0.56
1
0 324000000 0 0 0 1
50
180
41
0.75
7
W0$1
0
TEXT
8
LABEL_ATTRIBUTE
10
-2.5
20
0.1999986667
40
0.56
1
Ref.Des.
50
180
41
0.75
7
W0$1
0
TEXT
8
PART_NAME_04
10
-2.5
20
0.1999986667
40
0.56
1
R15
50
180
41
0.75
7
W0$1
0
TEXT
8
PART_INFO
10
-2.5
20
-0.6000013333
40
0.56
1
000000
71
2
50
180
41
0.75
7
W0$1
0
TEXT
8
PART_PTS
10
-2.5
20
-1.4000013333
40
0.56
1
1 2 
71
2
50
180
41
0.75
7
W0$1
0
ENDBLK
0
BLOCK
2
PART_BOT_58
8
0
10
0
20
0
3
PART_BOT_58
70
64
0
INSERT
2
SYM_BOT_18
8
0
10
0
20
0
0
INSERT
2
PKG_16
8
0
10
0
20
0
41
-1
0
TEXT
8
LABEL_INFO
10
-1.124
20
1.652
40
0.7
1
0 0 0 0 0 1
41
0.75
7
W0$1
0
TEXT
8
LABEL_ATTRIBUTE
10
-1.124
20
1.652
40
0.7
1
PartType
41
0.75
7
W0$1
0
TEXT
8
PART_TYPE_04
10
-1.124
20
1.652
40
0.7
1
R_1005
41
0.75
7
W0$1
0
TEXT
8
LABEL_INFO
10
1.7
20
-0.4999993333
40
0.56
1
0 162000000 0 0 0 1
50
90
41
0.75
7
W0$1
0
TEXT
8
LABEL_ATTRIBUTE
10
1.7
20
-0.4999993333
40
0.56
1
Ref.Des.
50
90
41
0.75
7
W0$1
0
TEXT
8
PART_NAME_04
10
1.7
20
-0.4999993333
40
0.56
1
R16
50
90
41
0.75
7
W0$1
0
TEXT
8
PART_INFO
10
1.7
20
-1.2999993333
40
0.56
1
000000
71
2
50
90
41
0.75
7
W0$1
0
TEXT
8
PART_PTS
10
1.7
20
-2.0999993333
40
0.56
1
1 2 
71
2
50
90
41
0.75
7
W0$1
0
ENDBLK
0
BLOCK
2
PART_BOT_59
8
0
10
0
20
0
3
PART_BOT_59
70
64
0
INSERT
2
SYM_BOT_18
8
0
10
0
20
0
0
INSERT
2
PKG_16
8
0
10
0
20
0
41
-1
0
TEXT
8
LABEL_INFO
10
-1.124
20
1.652
40
0.7
1
0 0 0 0 0 1
41
0.75
7
W0$1
0
TEXT
8
LABEL_ATTRIBUTE
10
-1.124
20
1.652
40
0.7
1
PartType
41
0.75
7
W0$1
0
TEXT
8
PART_TYPE_04
10
-1.124
20
1.652
40
0.7
1
R_1005
41
0.75
7
W0$1
0
TEXT
8
LABEL_INFO
10
2.3
20
-0.3
40
0.56
1
0 0 0 0 0 1
41
0.75
7
W0$1
0
TEXT
8
LABEL_ATTRIBUTE
10
2.3
20
-0.3
40
0.56
1
Ref.Des.
41
0.75
7
W0$1
0
TEXT
8
PART_NAME_04
10
2.3
20
-0.3
40
0.56
1
R18
41
0.75
7
W0$1
0
TEXT
8
PART_INFO
10
2.3
20
-1.1
40
0.56
1
000000
71
2
41
0.75
7
W0$1
0
TEXT
8
PART_PTS
10
2.3
20
-1.9
40
0.56
1
1 2 
71
2
41
0.75
7
W0$1
0
ENDBLK
0
BLOCK
2
PART_BOT_61
8
0
10
0
20
0
3
PART_BOT_61
70
64
0
INSERT
2
SYM_BOT_18
8
0
10
0
20
0
0
INSERT
2
PKG_16
8
0
10
0
20
0
41
-1
0
TEXT
8
LABEL_INFO
10
-1.124
20
1.652
40
0.7
1
0 0 0 0 0 1
41
0.75
7
W0$1
0
TEXT
8
LABEL_ATTRIBUTE
10
-1.124
20
1.652
40
0.7
1
PartType
41
0.75
7
W0$1
0
TEXT
8
PART_TYPE_04
10
-1.124
20
1.652
40
0.7
1
R_1005
41
0.75
7
W0$1
0
TEXT
8
LABEL_INFO
10
2.2
20
-0.3
40
0.56
1
0 0 0 0 0 1
41
0.75
7
W0$1
0
TEXT
8
LABEL_ATTRIBUTE
10
2.2
20
-0.3
40
0.56
1
Ref.Des.
41
0.75
7
W0$1
0
TEXT
8
PART_NAME_04
10
2.2
20
-0.3
40
0.56
1
R20
41
0.75
7
W0$1
0
TEXT
8
PART_INFO
10
2.2
20
-1.1
40
0.56
1
000000
71
2
41
0.75
7
W0$1
0
TEXT
8
PART_PTS
10
2.2
20
-1.9
40
0.56
1
1 2 
71
2
41
0.75
7
W0$1
0
ENDBLK
0
BLOCK
2
PART_BOT_62
8
0
10
0
20
0
3
PART_BOT_62
70
64
0
INSERT
2
SYM_BOT_18
8
0
10
0
20
0
0
INSERT
2
PKG_16
8
0
10
0
20
0
41
-1
0
TEXT
8
LABEL_INFO
10
-1.124
20
1.652
40
0.7
1
0 0 0 0 0 1
41
0.75
7
W0$1
0
TEXT
8
LABEL_ATTRIBUTE
10
-1.124
20
1.652
40
0.7
1
PartType
41
0.75
7
W0$1
0
TEXT
8
PART_TYPE_04
10
-1.124
20
1.652
40
0.7
1
R_1005
41
0.75
7
W0$1
0
TEXT
8
LABEL_INFO
10
2.3
20
-0.3
40
0.56
1
0 0 0 0 0 1
41
0.75
7
W0$1
0
TEXT
8
LABEL_ATTRIBUTE
10
2.3
20
-0.3
40
0.56
1
Ref.Des.
41
0.75
7
W0$1
0
TEXT
8
PART_NAME_04
10
2.3
20
-0.3
40
0.56
1
R21
41
0.75
7
W0$1
0
TEXT
8
PART_INFO
10
2.3
20
-1.1
40
0.56
1
000000
71
2
41
0.75
7
W0$1
0
TEXT
8
PART_PTS
10
2.3
20
-1.9
40
0.56
1
1 2 
71
2
41
0.75
7
W0$1
0
ENDBLK
0
BLOCK
2
PART_BOT_63
8
0
10
0
20
0
3
PART_BOT_63
70
64
0
INSERT
2
SYM_BOT_18
8
0
10
0
20
0
0
INSERT
2
PKG_16
8
0
10
0
20
0
41
-1
0
TEXT
8
LABEL_INFO
10
-1.124
20
1.652
40
0.7
1
0 0 0 0 0 1
41
0.75
7
W0$1
0
TEXT
8
LABEL_ATTRIBUTE
10
-1.124
20
1.652
40
0.7
1
PartType
41
0.75
7
W0$1
0
TEXT
8
PART_TYPE_04
10
-1.124
20
1.652
40
0.7
1
R_1005
41
0.75
7
W0$1
0
TEXT
8
LABEL_INFO
10
-2.2
20
0.1999993333
40
0.56
1
0 324000000 0 0 0 1
50
180
41
0.75
7
W0$1
0
TEXT
8
LABEL_ATTRIBUTE
10
-2.2
20
0.1999993333
40
0.56
1
Ref.Des.
50
180
41
0.75
7
W0$1
0
TEXT
8
PART_NAME_04
10
-2.2
20
0.1999993333
40
0.56
1
R22
50
180
41
0.75
7
W0$1
0
TEXT
8
PART_INFO
10
-2.2
20
-0.6000006667
40
0.56
1
000000
71
2
50
180
41
0.75
7
W0$1
0
TEXT
8
PART_PTS
10
-2.2
20
-1.4000006667
40
0.56
1
1 2 
71
2
50
180
41
0.75
7
W0$1
0
ENDBLK
0
BLOCK
2
PART_BOT_64
8
0
10
0
20
0
3
PART_BOT_64
70
64
0
INSERT
2
SYM_BOT_18
8
0
10
0
20
0
0
INSERT
2
PKG_16
8
0
10
0
20
0
41
-1
0
TEXT
8
LABEL_INFO
10
-1.124
20
1.652
40
0.7
1
0 0 0 0 0 1
41
0.75
7
W0$1
0
TEXT
8
LABEL_ATTRIBUTE
10
-1.124
20
1.652
40
0.7
1
PartType
41
0.75
7
W0$1
0
TEXT
8
PART_TYPE_04
10
-1.124
20
1.652
40
0.7
1
R_1005
41
0.75
7
W0$1
0
TEXT
8
LABEL_INFO
10
-2.2
20
0.1999993333
40
0.56
1
0 324000000 0 0 0 1
50
180
41
0.75
7
W0$1
0
TEXT
8
LABEL_ATTRIBUTE
10
-2.2
20
0.1999993333
40
0.56
1
Ref.Des.
50
180
41
0.75
7
W0$1
0
TEXT
8
PART_NAME_04
10
-2.2
20
0.1999993333
40
0.56
1
R23
50
180
41
0.75
7
W0$1
0
TEXT
8
PART_INFO
10
-2.2
20
-0.6000006667
40
0.56
1
000000
71
2
50
180
41
0.75
7
W0$1
0
TEXT
8
PART_PTS
10
-2.2
20
-1.4000006667
40
0.56
1
1 2 
71
2
50
180
41
0.75
7
W0$1
0
ENDBLK
0
BLOCK
2
PART_BOT_65
8
0
10
0
20
0
3
PART_BOT_65
70
64
0
INSERT
2
SYM_BOT_18
8
0
10
0
20
0
0
INSERT
2
PKG_16
8
0
10
0
20
0
41
-1
0
TEXT
8
LABEL_INFO
10
-1.124
20
1.652
40
0.7
1
0 0 0 0 0 1
41
0.75
7
W0$1
0
TEXT
8
LABEL_ATTRIBUTE
10
-1.124
20
1.652
40
0.7
1
PartType
41
0.75
7
W0$1
0
TEXT
8
PART_TYPE_04
10
-1.124
20
1.652
40
0.7
1
R_1005
41
0.75
7
W0$1
0
TEXT
8
LABEL_INFO
10
-2.2
20
0.1999993333
40
0.56
1
0 324000000 0 0 0 1
50
180
41
0.75
7
W0$1
0
TEXT
8
LABEL_ATTRIBUTE
10
-2.2
20
0.1999993333
40
0.56
1
Ref.Des.
50
180
41
0.75
7
W0$1
0
TEXT
8
PART_NAME_04
10
-2.2
20
0.1999993333
40
0.56
1
R24
50
180
41
0.75
7
W0$1
0
TEXT
8
PART_INFO
10
-2.2
20
-0.6000006667
40
0.56
1
000000
71
2
50
180
41
0.75
7
W0$1
0
TEXT
8
PART_PTS
10
-2.2
20
-1.4000006667
40
0.56
1
1 2 
71
2
50
180
41
0.75
7
W0$1
0
ENDBLK
0
BLOCK
2
PART_BOT_66
8
0
10
0
20
0
3
PART_BOT_66
70
64
0
INSERT
2
SYM_BOT_18
8
0
10
0
20
0
0
INSERT
2
PKG_16
8
0
10
0
20
0
41
-1
0
TEXT
8
LABEL_INFO
10
-1.124
20
1.652
40
0.7
1
0 0 0 0 0 1
41
0.75
7
W0$1
0
TEXT
8
LABEL_ATTRIBUTE
10
-1.124
20
1.652
40
0.7
1
PartType
41
0.75
7
W0$1
0
TEXT
8
PART_TYPE_04
10
-1.124
20
1.652
40
0.7
1
R_1005
41
0.75
7
W0$1
0
TEXT
8
LABEL_INFO
10
2.7
20
0
40
0.56
1
0 324000000 0 0 0 1
50
180
41
0.75
7
W0$1
0
TEXT
8
LABEL_ATTRIBUTE
10
2.7
20
0
40
0.56
1
Ref.Des.
50
180
41
0.75
7
W0$1
0
TEXT
8
PART_NAME_04
10
2.7
20
0
40
0.56
1
R25
50
180
41
0.75
7
W0$1
0
TEXT
8
PART_INFO
10
2.7
20
-0.8
40
0.56
1
000000
71
2
50
180
41
0.75
7
W0$1
0
TEXT
8
PART_PTS
10
2.7
20
-1.6
40
0.56
1
1 2 
71
2
50
180
41
0.75
7
W0$1
0
ENDBLK
0
BLOCK
2
PART_BOT_67
8
0
10
0
20
0
3
PART_BOT_67
70
64
0
INSERT
2
SYM_BOT_18
8
0
10
0
20
0
0
INSERT
2
PKG_16
8
0
10
0
20
0
41
-1
0
TEXT
8
LABEL_INFO
10
-1.124
20
1.652
40
0.7
1
0 0 0 0 0 1
41
0.75
7
W0$1
0
TEXT
8
LABEL_ATTRIBUTE
10
-1.124
20
1.652
40
0.7
1
PartType
41
0.75
7
W0$1
0
TEXT
8
PART_TYPE_04
10
-1.124
20
1.652
40
0.7
1
R_1005
41
0.75
7
W0$1
0
TEXT
8
LABEL_INFO
10
2.3
20
0.3
40
0.56
1
0 324000000 0 0 0 1
50
180
41
0.75
7
W0$1
0
TEXT
8
LABEL_ATTRIBUTE
10
2.3
20
0.3
40
0.56
1
Ref.Des.
50
180
41
0.75
7
W0$1
0
TEXT
8
PART_NAME_04
10
2.3
20
0.3
40
0.56
1
R26
50
180
41
0.75
7
W0$1
0
TEXT
8
PART_INFO
10
2.3
20
-0.5
40
0.56
1
000000
71
2
50
180
41
0.75
7
W0$1
0
TEXT
8
PART_PTS
10
2.3
20
-1.3
40
0.56
1
1 2 
71
2
50
180
41
0.75
7
W0$1
0
ENDBLK
0
BLOCK
2
PART_BOT_73
8
0
10
0
20
0
3
PART_BOT_73
70
64
0
INSERT
2
SYM_BOT_18
8
0
10
0
20
0
0
INSERT
2
PKG_16
8
0
10
0
20
0
41
-1
0
TEXT
8
LABEL_INFO
10
-1.124
20
1.652
40
0.7
1
0 0 0 0 0 1
41
0.75
7
W0$1
0
TEXT
8
LABEL_ATTRIBUTE
10
-1.124
20
1.652
40
0.7
1
PartType
41
0.75
7
W0$1
0
TEXT
8
PART_TYPE_04
10
-1.124
20
1.652
40
0.7
1
R_1005
41
0.75
7
W0$1
0
TEXT
8
LABEL_INFO
10
-2.1
20
-0.3
40
0.56
1
0 0 0 0 0 1
41
0.75
7
W0$1
0
TEXT
8
LABEL_ATTRIBUTE
10
-2.1
20
-0.3
40
0.56
1
Ref.Des.
41
0.75
7
W0$1
0
TEXT
8
PART_NAME_04
10
-2.1
20
-0.3
40
0.56
1
R31
41
0.75
7
W0$1
0
TEXT
8
PART_INFO
10
-2.1
20
-1.1
40
0.56
1
000000
71
2
41
0.75
7
W0$1
0
TEXT
8
PART_PTS
10
-2.1
20
-1.9
40
0.56
1
1 2 
71
2
41
0.75
7
W0$1
0
ENDBLK
0
BLOCK
2
PART_BOT_74
8
0
10
0
20
0
3
PART_BOT_74
70
64
0
INSERT
2
SYM_BOT_18
8
0
10
0
20
0
0
INSERT
2
PKG_16
8
0
10
0
20
0
41
-1
0
TEXT
8
LABEL_INFO
10
-1.124
20
1.652
40
0.7
1
0 0 0 0 0 1
41
0.75
7
W0$1
0
TEXT
8
LABEL_ATTRIBUTE
10
-1.124
20
1.652
40
0.7
1
PartType
41
0.75
7
W0$1
0
TEXT
8
PART_TYPE_04
10
-1.124
20
1.652
40
0.7
1
R_1005
41
0.75
7
W0$1
0
TEXT
8
LABEL_INFO
10
1.1
20
0.5
40
0.56
1
0 486000000 0 0 0 1
50
270
41
0.75
7
W0$1
0
TEXT
8
LABEL_ATTRIBUTE
10
1.1
20
0.5
40
0.56
1
Ref.Des.
50
270
41
0.75
7
W0$1
0
TEXT
8
PART_NAME_04
10
1.1
20
0.5
40
0.56
1
R32
50
270
41
0.75
7
W0$1
0
TEXT
8
PART_INFO
10
1.1
20
-0.3
40
0.56
1
000000
71
2
50
270
41
0.75
7
W0$1
0
TEXT
8
PART_PTS
10
1.1
20
-1.1
40
0.56
1
1 2 
71
2
50
270
41
0.75
7
W0$1
0
ENDBLK
0
BLOCK
2
PART_BOT_77
8
0
10
0
20
0
3
PART_BOT_77
70
64
0
INSERT
2
SYM_BOT_18
8
0
10
0
20
0
0
INSERT
2
PKG_16
8
0
10
0
20
0
41
-1
0
TEXT
8
LABEL_INFO
10
-1.124
20
1.652
40
0.7
1
0 0 0 0 0 1
41
0.75
7
W0$1
0
TEXT
8
LABEL_ATTRIBUTE
10
-1.124
20
1.652
40
0.7
1
PartType
41
0.75
7
W0$1
0
TEXT
8
PART_TYPE_04
10
-1.124
20
1.652
40
0.7
1
R_1005
41
0.75
7
W0$1
0
TEXT
8
LABEL_INFO
10
-1.0999993333
20
-0.7
40
0.56
1
0 162000000 0 0 0 1
50
90
41
0.75
7
W0$1
0
TEXT
8
LABEL_ATTRIBUTE
10
-1.0999993333
20
-0.7
40
0.56
1
Ref.Des.
50
90
41
0.75
7
W0$1
0
TEXT
8
PART_NAME_04
10
-1.0999993333
20
-0.7
40
0.56
1
R35
50
90
41
0.75
7
W0$1
0
TEXT
8
PART_INFO
10
-1.0999993333
20
-1.5
40
0.56
1
000000
71
2
50
90
41
0.75
7
W0$1
0
TEXT
8
PART_PTS
10
-1.0999993333
20
-2.3
40
0.56
1
1 2 
71
2
50
90
41
0.75
7
W0$1
0
ENDBLK
0
BLOCK
2
PART_BOT_81
8
0
10
0
20
0
3
PART_BOT_81
70
64
0
INSERT
2
SYM_BOT_18
8
0
10
0
20
0
0
INSERT
2
PKG_16
8
0
10
0
20
0
41
-1
0
TEXT
8
LABEL_INFO
10
-1.124
20
1.652
40
0.7
1
0 0 0 0 0 1
41
0.75
7
W0$1
0
TEXT
8
LABEL_ATTRIBUTE
10
-1.124
20
1.652
40
0.7
1
PartType
41
0.75
7
W0$1
0
TEXT
8
PART_TYPE_04
10
-1.124
20
1.652
40
0.7
1
R_1005
41
0.75
7
W0$1
0
TEXT
8
LABEL_INFO
10
-1.8
20
-0.3
40
0.56
1
0 0 0 0 0 1
41
0.75
7
W0$1
0
TEXT
8
LABEL_ATTRIBUTE
10
-1.8
20
-0.3
40
0.56
1
Ref.Des.
41
0.75
7
W0$1
0
TEXT
8
PART_NAME_04
10
-1.8
20
-0.3
40
0.56
1
R6
41
0.75
7
W0$1
0
TEXT
8
PART_INFO
10
-1.8
20
-1.1
40
0.56
1
000000
71
2
41
0.75
7
W0$1
0
TEXT
8
PART_PTS
10
-1.8
20
-1.9
40
0.56
1
1 2 
71
2
41
0.75
7
W0$1
0
ENDBLK
0
BLOCK
2
PART_BOT_82
8
0
10
0
20
0
3
PART_BOT_82
70
64
0
INSERT
2
SYM_BOT_18
8
0
10
0
20
0
0
INSERT
2
PKG_16
8
0
10
0
20
0
41
-1
0
TEXT
8
LABEL_INFO
10
-1.124
20
1.652
40
0.7
1
0 0 0 0 0 1
41
0.75
7
W0$1
0
TEXT
8
LABEL_ATTRIBUTE
10
-1.124
20
1.652
40
0.7
1
PartType
41
0.75
7
W0$1
0
TEXT
8
PART_TYPE_04
10
-1.124
20
1.652
40
0.7
1
R_1005
41
0.75
7
W0$1
0
TEXT
8
LABEL_INFO
10
-1.7
20
-0.3
40
0.56
1
0 0 0 0 0 1
41
0.75
7
W0$1
0
TEXT
8
LABEL_ATTRIBUTE
10
-1.7
20
-0.3
40
0.56
1
Ref.Des.
41
0.75
7
W0$1
0
TEXT
8
PART_NAME_04
10
-1.7
20
-0.3
40
0.56
1
R7
41
0.75
7
W0$1
0
TEXT
8
PART_INFO
10
-1.7
20
-1.1
40
0.56
1
000000
71
2
41
0.75
7
W0$1
0
TEXT
8
PART_PTS
10
-1.7
20
-1.9
40
0.56
1
1 2 
71
2
41
0.75
7
W0$1
0
ENDBLK
0
BLOCK
2
PART_BOT_84
8
0
10
0
20
0
3
PART_BOT_84
70
64
0
INSERT
2
SYM_BOT_18
8
0
10
0
20
0
0
INSERT
2
PKG_16
8
0
10
0
20
0
41
-1
0
TEXT
8
LABEL_INFO
10
-1.124
20
1.652
40
0.7
1
0 0 0 0 0 1
41
0.75
7
W0$1
0
TEXT
8
LABEL_ATTRIBUTE
10
-1.124
20
1.652
40
0.7
1
PartType
41
0.75
7
W0$1
0
TEXT
8
PART_TYPE_04
10
-1.124
20
1.652
40
0.7
1
R_1005
41
0.75
7
W0$1
0
TEXT
8
LABEL_INFO
10
2.6
20
-0.1
40
0.56
1
0 0 0 0 0 1
41
0.75
7
W0$1
0
TEXT
8
LABEL_ATTRIBUTE
10
2.6
20
-0.1
40
0.56
1
Ref.Des.
41
0.75
7
W0$1
0
TEXT
8
PART_NAME_04
10
2.6
20
-0.1
40
0.56
1
R9
41
0.75
7
W0$1
0
TEXT
8
PART_INFO
10
2.6
20
-0.9
40
0.56
1
000000
71
2
41
0.75
7
W0$1
0
TEXT
8
PART_PTS
10
2.6
20
-1.7
40
0.56
1
1 2 
71
2
41
0.75
7
W0$1
0
ENDBLK
0
BLOCK
2
PART_BOT_93
8
0
10
0
20
0
3
PART_BOT_93
70
64
0
INSERT
2
SYM_BOT_4
8
0
10
0
20
0
0
INSERT
2
PKG_2
8
0
10
0
20
0
41
-1
0
TEXT
8
LABEL_INFO
10
0
20
1.8
40
0.7
1
1 0 1 1 0 1
72
1
73
1
11
0
21
1.8
41
0.75
7
W0$1
0
TEXT
8
LABEL_ATTRIBUTE
10
0
20
1.8
40
0.7
1
PartType
72
1
73
1
11
0
21
1.8
41
0.75
7
W0$1
0
TEXT
8
PART_TYPE_04
10
0
20
1.8
40
0.7
1
C_3216
72
1
73
2
11
0
21
1.8
41
0.75
7
W0$1
0
TEXT
8
LABEL_INFO
10
2.95
20
0.1
40
0.56
1
1 0 1 1 0 1
72
1
73
1
11
2.95
21
0.1
41
0.75
7
W0$1
0
TEXT
8
LABEL_ATTRIBUTE
10
2.95
20
0.1
40
0.56
1
Ref.Des.
72
1
73
1
11
2.95
21
0.1
41
0.75
7
W0$1
0
TEXT
8
PART_NAME_04
10
2.95
20
0.1
40
0.56
1
C31
72
1
73
2
11
2.95
21
0.1
41
0.75
7
W0$1
0
TEXT
8
PART_INFO
10
2.95
20
-0.7
40
0.56
1
000000
71
2
72
1
73
2
11
2.95
21
-0.7
41
0.75
7
W0$1
0
TEXT
8
PART_PTS
10
2.95
20
-1.5
40
0.56
1
1 2 
71
2
72
1
73
2
11
2.95
21
-1.5
41
0.75
7
W0$1
0
ENDBLK
0
BLOCK
2
PART_BOT_94
8
0
10
0
20
0
3
PART_BOT_94
70
64
0
INSERT
2
SYM_BOT_4
8
0
10
0
20
0
0
INSERT
2
PKG_2
8
0
10
0
20
0
41
-1
0
TEXT
8
LABEL_INFO
10
-2.65
20
0
40
0.56
1
1 162000000 1 1 0 1
72
1
73
1
11
-2.65
21
0
50
90
41
0.75
7
W0$1
0
TEXT
8
LABEL_ATTRIBUTE
10
-2.65
20
0
40
0.56
1
Ref.Des.
72
1
73
1
11
-2.65
21
0
50
90
41
0.75
7
W0$1
0
TEXT
8
PART_NAME_04
10
-2.65
20
0
40
0.56
1
C18
72
1
73
2
11
-2.65
21
0
50
-270
41
0.75
7
W0$1
0
TEXT
8
LABEL_INFO
10
0
20
1.8
40
0.7
1
1 0 1 1 0 1
72
1
73
1
11
0
21
1.8
41
0.75
7
W0$1
0
TEXT
8
LABEL_ATTRIBUTE
10
0
20
1.8
40
0.7
1
PartType
72
1
73
1
11
0
21
1.8
41
0.75
7
W0$1
0
TEXT
8
PART_TYPE_04
10
0
20
1.8
40
0.7
1
C_3216
72
1
73
2
11
0
21
1.8
50
-180
41
0.75
7
W0$1
0
TEXT
8
PART_INFO
10
0
20
0.8
40
0.7
1
000000
71
2
72
1
73
2
11
0
21
0.8
50
-180
41
0.75
7
W0$1
0
TEXT
8
PART_PTS
10
0
20
-0.2
40
0.7
1
1 2 
71
2
72
1
73
2
11
0
21
-0.2
50
-180
41
0.75
7
W0$1
0
ENDBLK
0
BLOCK
2
PART_BOT_96
8
0
10
0
20
0
3
PART_BOT_96
70
64
0
INSERT
2
SYM_BOT_28
8
0
10
0
20
0
0
INSERT
2
PKG_19
8
0
10
0
20
0
41
-1
0
TEXT
8
PART_NAME_BOT
10
0
20
0
40
1.778
1
USB1
73
2
11
0
21
0
41
0.75
7
W0$254
0
TEXT
8
PART_TYPE_BOT
10
0
20
-2.54
40
1.778
1
USB205FB-C1013201
73
2
11
0
21
-2.54
41
0.75
7
W0$254
0
TEXT
8
PART_INFO
10
0
20
-5.08
40
1.778
1
000100
71
2
73
2
11
0
21
-5.08
41
0.75
7
W0$254
0
TEXT
8
PART_PTS
10
0
20
-7.62
40
1.778
1
1 2 3 4 5 6 7 8 9 10 11 12 13 
71
2
73
2
11
0
21
-7.62
41
0.75
7
W0$254
0
ENDBLK
0
BLOCK
2
PART_BOT_97
8
0
10
0
20
0
3
PART_BOT_97
70
64
0
INSERT
2
SYM_BOT_29
8
0
10
0
20
0
0
INSERT
2
PKG_24
8
0
10
0
20
0
41
-1
0
TEXT
8
LABEL_INFO
10
3.3
20
-0.4
40
0.7
1
0 0 0 0 0 1
41
0.75
7
W0$1
0
TEXT
8
LABEL_ATTRIBUTE
10
3.3
20
-0.4
40
0.7
1
Ref.Des.
41
0.75
7
W0$1
0
TEXT
8
PART_NAME_04
10
3.3
20
-0.4
40
0.7
1
D1
41
0.75
7
W0$1
0
TEXT
8
LABEL_INFO
10
-0.76591
20
2.36407
40
0.7
1
0 0 0 2 0 1
73
2
11
-0.76591
21
2.36407
41
0.75
7
W0$254
0
TEXT
8
LABEL_ATTRIBUTE
10
-0.76591
20
2.36407
40
0.7
1
PartType
73
2
11
-0.76591
21
2.36407
41
0.75
7
W0$254
0
TEXT
8
PART_TYPE_04
10
-0.76591
20
2.36407
40
0.7
1
D_RB060M-30(SOD-123_H0.8)
73
3
11
-0.76591
21
2.36407
41
0.75
7
W0$254
0
TEXT
8
PART_INFO
10
-0.76591
20
1.36407
40
0.7
1
000000
71
2
73
3
11
-0.76591
21
1.36407
41
0.75
7
W0$254
0
TEXT
8
PART_PTS
10
-0.76591
20
0.36407
40
0.7
1
1 2 
71
2
73
3
11
-0.76591
21
0.36407
41
0.75
7
W0$254
0
ENDBLK
0
BLOCK
2
SYM_BOT_3
8
0
10
0
20
0
3
SYM_BOT_3
70
64
0
TEXT
8
SYM_NAME
10
0
20
0
40
1.778
1
C_1005
41
0.75
0
TEXT
8
SYM_PART_TYPE_01
10
-1.124
20
1.652
40
0.7
1
 
41
0.75
7
W0$1R0
0
TEXT
8
SYM_PART_NAME_01
10
-1.117
20
0.778
40
0.7
1
 
41
0.75
7
W0$1R0
0
INSERT
2
PART_BODY_BOT_2
8
0
10
0
20
0
0
INSERT
2
STK_BOT_21
8
0
10
-0.45
20
0
0
TEXT
8
SYM_TERMINAL
10
0
20
-3.048
40
1.778
1
1
0
INSERT
2
STK_BOT_21
8
0
10
0.45
20
0
0
TEXT
8
SYM_TERMINAL
10
0
20
-6.096
40
1.778
1
2
0
ENDBLK
0
BLOCK
2
PKG_1
8
0
10
0
20
0
3
PKG_1
70
64
0
TEXT
8
PKG_INFO
10
0
20
0
40
1.778
1
*SYM:= 3
0
TEXT
8
PKG_INFO
10
0
20
-3.048
40
1.778
1
*PKG:= 0 C_1005 UND
0
ENDBLK
0
BLOCK
2
SYM_BOT_5
8
0
10
0
20
0
3
SYM_BOT_5
70
64
0
TEXT
8
SYM_NAME
10
0
20
0
40
1.778
1
C_2012
41
0.75
0
TEXT
8
SYM_PART_TYPE_01
10
-0.95
20
1.2
40
0.7
1
 
41
0.75
7
W0$1R0
0
TEXT
8
SYM_PART_NAME_01
10
-0.976
20
1.148
40
0.7
1
 
41
0.75
7
W0$1R0
0
INSERT
2
PART_BODY_BOT_4
8
0
10
0
20
0
0
INSERT
2
STK_BOT_8
8
0
10
-0.85
20
0
0
TEXT
8
SYM_TERMINAL
10
0
20
-3.048
40
1.778
1
1
0
INSERT
2
STK_BOT_8
8
0
10
0.85
20
0
0
TEXT
8
SYM_TERMINAL
10
0
20
-6.096
40
1.778
1
2
0
ENDBLK
0
BLOCK
2
PKG_3
8
0
10
0
20
0
3
PKG_3
70
64
0
TEXT
8
PKG_INFO
10
0
20
0
40
1.778
1
*SYM:= 5
0
TEXT
8
PKG_INFO
10
0
20
-3.048
40
1.778
1
*PKG:= 0 C_2012 UND
0
ENDBLK
0
BLOCK
2
SYM_BOT_23
8
0
10
0
20
0
3
SYM_BOT_23
70
64
0
TEXT
8
SYM_NAME
10
0
20
0
40
1.778
1
WM9364CT-ND
41
0.75
0
TEXT
8
SYM_PART_NAME_01
10
0
20
0
40
0.889
1
 
41
0.75
7
W0$127R0
0
TEXT
8
SYM_PART_TYPE_01
10
0
20
0
40
0.889
1
 
73
2
11
0
21
0
41
0.75
7
W0$127R0
0
INSERT
2
PART_BODY_BOT_22
8
0
10
0
20
0
0
INSERT
2
STK_BOT_218
8
0
10
0
20
2.755
0
TEXT
8
SYM_TERMINAL
10
0
20
-3.048
40
1.778
1
1
0
INSERT
2
STK_BOT_218
8
0
10
0
20
0.215
0
TEXT
8
SYM_TERMINAL
10
0
20
-6.096
40
1.778
1
2
0
INSERT
2
STK_BOT_218
8
0
10
0
20
-2.325
0
TEXT
8
SYM_TERMINAL
10
0
20
-9.144
40
1.778
1
3
0
INSERT
2
STK_BOT_218
8
0
10
0
20
4.025
0
TEXT
8
SYM_TERMINAL
10
0
20
-12.192
40
1.778
1
4
0
INSERT
2
STK_BOT_218
8
0
10
0
20
1.485
0
TEXT
8
SYM_TERMINAL
10
0
20
-15.24
40
1.778
1
5
0
INSERT
2
STK_BOT_218
8
0
10
0
20
-1.055
0
TEXT
8
SYM_TERMINAL
10
0
20
-18.288
40
1.778
1
6
0
INSERT
2
STK_BOT_219
8
0
10
2.17
20
-6.27
0
TEXT
8
SYM_TERMINAL
10
0
20
-21.336
40
1.778
1
7
0
INSERT
2
STK_BOT_219
8
0
10
4.17
20
-6.27
0
TEXT
8
SYM_TERMINAL
10
0
20
-24.384
40
1.778
1
8
0
INSERT
2
STK_BOT_219
8
0
10
2.17
20
6.38
0
TEXT
8
SYM_TERMINAL
10
0
20
-27.432
40
1.778
1
9
0
INSERT
2
STK_BOT_219
8
0
10
4.17
20
6.38
0
TEXT
8
SYM_TERMINAL
10
0
20
-30.48
40
1.778
1
10
0
INSERT
2
STK_BOT_220
8
0
10
13.73
20
6.105
0
TEXT
8
SYM_TERMINAL
10
0
20
-33.528
40
1.778
1
11
0
INSERT
2
STK_BOT_220
8
0
10
13.73
20
-6.105
0
TEXT
8
SYM_TERMINAL
10
0
20
-36.576
40
1.778
1
12
0
ENDBLK
0
BLOCK
2
PKG_6
8
0
10
0
20
0
3
PKG_6
70
64
0
TEXT
8
PKG_INFO
10
0
20
0
40
1.778
1
*SYM:= 8 23
0
TEXT
8
PKG_INFO
10
0
20
-3.048
40
1.778
1
*PKG:= 0 104244-0820 UND
0
TEXT
8
PKG_INFO
10
0
20
-6.096
40
1.778
1
*GATE:=0
0
TEXT
8
PKG_INFO
10
0
20
-9.144
40
1.778
1
*GATEPIN:= 0 9 1 <>
0
TEXT
8
PKG_INFO
10
0
20
-12.192
40
1.778
1
*GATEPIN:= 0 9 2 <>
0
TEXT
8
PKG_INFO
10
0
20
-15.24
40
1.778
1
*GATEPIN:= 0 9 3 <>
0
TEXT
8
PKG_INFO
10
0
20
-18.288
40
1.778
1
*GATEPIN:= 0 9 4 <>
0
TEXT
8
PKG_INFO
10
0
20
-21.336
40
1.778
1
*GATEPIN:= 0 9 5 <>
0
TEXT
8
PKG_INFO
10
0
20
-24.384
40
1.778
1
*GATEPIN:= 0 9 6 <>
0
TEXT
8
PKG_INFO
10
0
20
-27.432
40
1.778
1
*GATEPIN:= 0 9 7 <>
0
TEXT
8
PKG_INFO
10
0
20
-30.48
40
1.778
1
*GATEPIN:= 0 9 8 <>
0
TEXT
8
PKG_INFO
10
0
20
-33.528
40
1.778
1
*GATEPIN:= 0 9 9 <>
0
TEXT
8
PKG_INFO
10
0
20
-36.576
40
1.778
1
*GATEPIN:= 0 9 10 <>
0
TEXT
8
PKG_INFO
10
0
20
-39.624
40
1.778
1
*GATEPIN:= 0 9 11 <>
0
TEXT
8
PKG_INFO
10
0
20
-42.672
40
1.778
1
*GATEPIN:= 0 9 12 <>
0
ENDBLK
0
BLOCK
2
SYM_BOT_11
8
0
10
0
20
0
3
SYM_BOT_11
70
64
0
TEXT
8
SYM_NAME
10
0
20
0
40
1.778
1
ULCE0505C015FR
41
0.75
0
TEXT
8
SYM_PART_NAME_01
10
-0.95
20
-1.3
40
0.7
1
 
41
0.75
7
W0$1R0
0
TEXT
8
SYM_PART_TYPE_01
10
-0.9
20
-1.3
40
0.7
1
 
41
0.75
7
W0$1R0
0
INSERT
2
PART_BODY_BOT_10
8
0
10
0
20
0
0
INSERT
2
STK_BOT_21
8
0
10
-0.45
20
0
0
TEXT
8
SYM_TERMINAL
10
0
20
-3.048
40
1.778
1
1
0
INSERT
2
STK_BOT_21
8
0
10
0.45
20
0
0
TEXT
8
SYM_TERMINAL
10
0
20
-6.096
40
1.778
1
2
0
ENDBLK
0
BLOCK
2
PKG_9
8
0
10
0
20
0
3
PKG_9
70
64
0
TEXT
8
PKG_INFO
10
0
20
0
40
1.778
1
*SYM:= 11
0
TEXT
8
PKG_INFO
10
0
20
-3.048
40
1.778
1
*PKG:= 0 ULCE0505C015FR UND
0
ENDBLK
0
BLOCK
2
SYM_BOT_14
8
0
10
0
20
0
3
SYM_BOT_14
70
64
0
TEXT
8
SYM_NAME
10
0
20
0
40
1.778
1
DLW21SN900SQ2
41
0.75
0
TEXT
8
SYM_PART_TYPE_01
10
-0.95
20
1.2
40
0.889
1
 
41
0.75
7
W0$12R1
0
TEXT
8
SYM_PART_NAME_01
10
-0.976
20
1.148
40
0.889
1
 
41
0.75
7
W0$12R1
0
INSERT
2
PART_BODY_BOT_13
8
0
10
0
20
0
0
INSERT
2
STK_BOT_150
8
0
10
-0.9
20
0.4
0
TEXT
8
SYM_TERMINAL
10
0
20
-3.048
40
1.778
1
1
0
INSERT
2
STK_BOT_150
8
0
10
0.9
20
0.4
0
TEXT
8
SYM_TERMINAL
10
0
20
-6.096
40
1.778
1
2
0
INSERT
2
STK_BOT_150
8
0
10
0.9
20
-0.4
0
TEXT
8
SYM_TERMINAL
10
0
20
-9.144
40
1.778
1
3
0
INSERT
2
STK_BOT_150
8
0
10
-0.9
20
-0.4
0
TEXT
8
SYM_TERMINAL
10
0
20
-12.192
40
1.778
1
4
0
ENDBLK
0
BLOCK
2
PKG_12
8
0
10
0
20
0
3
PKG_12
70
64
0
TEXT
8
PKG_INFO
10
0
20
0
40
1.778
1
*SYM:= 14
0
TEXT
8
PKG_INFO
10
0
20
-3.048
40
1.778
1
*PKG:= 0 DLW21SN900SQ2 UND
0
ENDBLK
0
BLOCK
2
SYM_BOT_15
8
0
10
0
20
0
3
SYM_BOT_15
70
64
0
TEXT
8
SYM_NAME
10
0
20
0
40
1.778
1
MLF1608E6R8K
41
0.75
0
TEXT
8
SYM_PART_TYPE_01
10
0
20
1.5
40
0.889
1
 
72
1
73
1
11
0
21
1.5
41
0.75
7
W0$12R1
0
TEXT
8
SYM_PART_NAME_01
10
0.05
20
1.3
40
0.889
1
 
72
1
73
1
11
0.05
21
1.3
41
0.75
7
W0$12R1
0
TEXT
8
SYM_ATTRIBUTE_01
10
-0.05
20
1.3
40
0.889
1
Value
72
1
73
1
11
-0.05
21
1.3
41
0.75
7
W0$12R1
0
INSERT
2
PART_BODY_BOT_14
8
0
10
0
20
0
0
INSERT
2
STK_BOT_35
8
0
10
-0.8
20
0
0
TEXT
8
SYM_TERMINAL
10
0
20
-3.048
40
1.778
1
1
0
INSERT
2
STK_BOT_35
8
0
10
0.8
20
0
0
TEXT
8
SYM_TERMINAL
10
0
20
-6.096
40
1.778
1
2
0
ENDBLK
0
BLOCK
2
PKG_13
8
0
10
0
20
0
3
PKG_13
70
64
0
TEXT
8
PKG_INFO
10
0
20
0
40
1.778
1
*SYM:= 15
0
TEXT
8
PKG_INFO
10
0
20
-3.048
40
1.778
1
*PKG:= 0 MLF1608E6R8K UND
0
ENDBLK
0
BLOCK
2
SYM_BOT_26
8
0
10
0
20
0
3
SYM_BOT_26
70
64
0
TEXT
8
SYM_NAME
10
0
20
0
40
1.778
1
2SC4617TLR
41
0.75
0
TEXT
8
SYM_PART_TYPE_01
10
-1.524
20
5.3086
40
1.778
1
 
73
2
11
-1.524
21
5.3086
41
0.75
7
W0$254R0
0
TEXT
8
SYM_PART_NAME_01
10
-1.524
20
5.3086
40
1.778
1
 
41
0.75
7
W0$254R0
0
INSERT
2
PART_BODY_BOT_25
8
0
10
0
20
0
0
INSERT
2
STK_BOT_20
8
0
10
-0.5
20
-0.55
0
TEXT
8
SYM_TERMINAL
10
0
20
-3.048
40
1.778
1
1
0
INSERT
2
STK_BOT_20
8
0
10
0.5
20
-0.55
0
TEXT
8
SYM_TERMINAL
10
0
20
-6.096
40
1.778
1
2
0
INSERT
2
STK_BOT_20
8
0
10
0
20
0.55
0
TEXT
8
SYM_TERMINAL
10
0
20
-9.144
40
1.778
1
3
0
ENDBLK
0
BLOCK
2
PKG_15
8
0
10
0
20
0
3
PKG_15
70
64
0
TEXT
8
PKG_INFO
10
0
20
0
40
1.778
1
*SYM:= 17 26
0
TEXT
8
PKG_INFO
10
0
20
-3.048
40
1.778
1
*PKG:= 0 MMBT2222ALT1 UND
0
TEXT
8
PKG_INFO
10
0
20
-6.096
40
1.778
1
*GATE:=0
0
TEXT
8
PKG_INFO
10
0
20
-9.144
40
1.778
1
*GATEPIN:= 0 9 1 <>
0
TEXT
8
PKG_INFO
10
0
20
-12.192
40
1.778
1
*GATEPIN:= 0 9 2 <>
0
TEXT
8
PKG_INFO
10
0
20
-15.24
40
1.778
1
*GATEPIN:= 0 9 3 <>
0
ENDBLK
0
BLOCK
2
SYM_BOT_18
8
0
10
0
20
0
3
SYM_BOT_18
70
64
0
TEXT
8
SYM_NAME
10
0
20
0
40
1.778
1
R_1005
41
0.75
0
TEXT
8
SYM_PART_TYPE_01
10
-1.124
20
1.652
40
0.7
1
 
41
0.75
7
W0$1R0
0
TEXT
8
SYM_PART_NAME_01
10
-1.117
20
0.778
40
0.7
1
 
41
0.75
7
W0$1R0
0
INSERT
2
PART_BODY_BOT_17
8
0
10
0
20
0
0
INSERT
2
STK_BOT_21
8
0
10
-0.45
20
0
0
TEXT
8
SYM_TERMINAL
10
0
20
-3.048
40
1.778
1
1
0
INSERT
2
STK_BOT_21
8
0
10
0.45
20
0
0
TEXT
8
SYM_TERMINAL
10
0
20
-6.096
40
1.778
1
2
0
ENDBLK
0
BLOCK
2
PKG_16
8
0
10
0
20
0
3
PKG_16
70
64
0
TEXT
8
PKG_INFO
10
0
20
0
40
1.778
1
*SYM:= 18
0
TEXT
8
PKG_INFO
10
0
20
-3.048
40
1.778
1
*PKG:= 0 R_1005 UND
0
ENDBLK
0
BLOCK
2
SYM_BOT_4
8
0
10
0
20
0
3
SYM_BOT_4
70
64
0
TEXT
8
SYM_NAME
10
0
20
0
40
1.778
1
C_3216
41
0.75
0
TEXT
8
SYM_PART_NAME_01
10
0.1
20
1.8
40
0.7
1
 
72
1
73
1
11
0.1
21
1.8
41
0.75
7
W0$1R1
0
TEXT
8
SYM_PART_TYPE_01
10
0
20
1.8
40
0.7
1
 
72
1
73
1
11
0
21
1.8
41
0.75
7
W0$1R1
0
INSERT
2
PART_BODY_BOT_3
8
0
10
0
20
0
0
INSERT
2
STK_BOT_6
8
0
10
-1.3
20
0
0
TEXT
8
SYM_TERMINAL
10
0
20
-3.048
40
1.778
1
1
0
INSERT
2
STK_BOT_6
8
0
10
1.3
20
0
0
TEXT
8
SYM_TERMINAL
10
0
20
-6.096
40
1.778
1
2
0
ENDBLK
0
BLOCK
2
PKG_2
8
0
10
0
20
0
3
PKG_2
70
64
0
TEXT
8
PKG_INFO
10
0
20
0
40
1.778
1
*SYM:= 4
0
TEXT
8
PKG_INFO
10
0
20
-3.048
40
1.778
1
*PKG:= 0 C_3216 UND
0
ENDBLK
0
BLOCK
2
SYM_BOT_28
8
0
10
0
20
0
3
SYM_BOT_28
70
64
0
TEXT
8
SYM_NAME
10
0
20
0
40
1.778
1
A01SB141B1-069
41
0.75
0
INSERT
2
PART_BODY_BOT_37
8
0
10
0
20
0
0
INSERT
2
STK_BOT_247
8
0
10
-1.3
20
2.8
0
TEXT
8
SYM_TERMINAL
10
0
20
-3.048
40
1.778
1
1
0
INSERT
2
STK_BOT_247
8
0
10
-0.65
20
2.8
0
TEXT
8
SYM_TERMINAL
10
0
20
-6.096
40
1.778
1
2
0
INSERT
2
STK_BOT_247
8
0
10
0
20
2.8
0
TEXT
8
SYM_TERMINAL
10
0
20
-9.144
40
1.778
1
3
0
INSERT
2
STK_BOT_247
8
0
10
0.65
20
2.8
0
TEXT
8
SYM_TERMINAL
10
0
20
-12.192
40
1.778
1
4
0
INSERT
2
STK_BOT_247
8
0
10
1.3
20
2.8
0
TEXT
8
SYM_TERMINAL
10
0
20
-15.24
40
1.778
1
5
0
INSERT
2
STK_BOT_248
8
0
10
-3.2
20
2.25
0
TEXT
8
SYM_TERMINAL
10
0
20
-18.288
40
1.778
1
6
0
INSERT
2
STK_BOT_249
8
0
10
-3.2
20
0
0
TEXT
8
SYM_TERMINAL
10
0
20
-21.336
40
1.778
1
7
0
INSERT
2
STK_BOT_249
8
0
10
3.2
20
0
0
TEXT
8
SYM_TERMINAL
10
0
20
-24.384
40
1.778
1
8
0
INSERT
2
STK_BOT_248
8
0
10
3.2
20
2.25
0
TEXT
8
SYM_TERMINAL
10
0
20
-27.432
40
1.778
1
9
0
INSERT
2
STK_BOT_250
8
0
10
-2
20
2.15
0
TEXT
8
SYM_TERMINAL
10
0
20
-30.48
40
1.778
1
10
0
INSERT
2
STK_BOT_250
8
0
10
2
20
2.15
0
TEXT
8
SYM_TERMINAL
10
0
20
-33.528
40
1.778
1
11
0
INSERT
2
STK_BOT_251
8
0
10
1.15
20
0
0
TEXT
8
SYM_TERMINAL
10
0
20
-36.576
40
1.778
1
12
0
INSERT
2
STK_BOT_251
8
0
10
-1.15
20
0
0
TEXT
8
SYM_TERMINAL
10
0
20
-39.624
40
1.778
1
13
0
ENDBLK
0
BLOCK
2
PKG_19
8
0
10
0
20
0
3
PKG_19
70
64
0
TEXT
8
PKG_INFO
10
0
20
0
40
1.778
1
*SYM:= 21 28
0
TEXT
8
PKG_INFO
10
0
20
-3.048
40
1.778
1
*PKG:= 0 USB205FB-C1013201 UND
0
TEXT
8
PKG_INFO
10
0
20
-6.096
40
1.778
1
*GATE:=0
0
TEXT
8
PKG_INFO
10
0
20
-9.144
40
1.778
1
*GATEPIN:= 0 9 1 <>
0
TEXT
8
PKG_INFO
10
0
20
-12.192
40
1.778
1
*GATEPIN:= 0 9 2 <>
0
TEXT
8
PKG_INFO
10
0
20
-15.24
40
1.778
1
*GATEPIN:= 0 9 3 <>
0
TEXT
8
PKG_INFO
10
0
20
-18.288
40
1.778
1
*GATEPIN:= 0 9 4 <>
0
TEXT
8
PKG_INFO
10
0
20
-21.336
40
1.778
1
*GATEPIN:= 0 9 5 <>
0
TEXT
8
PKG_INFO
10
0
20
-24.384
40
1.778
1
*GATEPIN:= 0 9 6 <>
0
TEXT
8
PKG_INFO
10
0
20
-27.432
40
1.778
1
*GATEPIN:= 0 9 7 <>
0
TEXT
8
PKG_INFO
10
0
20
-30.48
40
1.778
1
*GATEPIN:= 0 9 8 <>
0
TEXT
8
PKG_INFO
10
0
20
-33.528
40
1.778
1
*GATEPIN:= 0 9 9 <>
0
ENDBLK
0
BLOCK
2
SYM_BOT_29
8
0
10
0
20
0
3
SYM_BOT_29
70
64
0
TEXT
8
SYM_NAME
10
0
20
0
40
1.778
1
D_RB060M-30(SOD-123_H0.8)
41
0.75
0
TEXT
8
SYM_PART_NAME_01
10
-0.93409
20
1.39844
40
0.7
1
 
41
0.75
7
W0$254R0
0
TEXT
8
SYM_PART_TYPE_01
10
-0.76591
20
2.36407
40
0.7
1
 
73
2
11
-0.76591
21
2.36407
41
0.75
7
W0$254R0
0
INSERT
2
PART_BODY_BOT_38
8
0
10
0
20
0
0
INSERT
2
STK_BOT_252
8
0
10
-1.525
20
0
0
TEXT
8
SYM_TERMINAL
10
0
20
-3.048
40
1.778
1
1
0
INSERT
2
STK_BOT_252
8
0
10
1.525
20
0
0
TEXT
8
SYM_TERMINAL
10
0
20
-6.096
40
1.778
1
2
0
ENDBLK
0
BLOCK
2
PKG_24
8
0
10
0
20
0
3
PKG_24
70
64
0
TEXT
8
PKG_INFO
10
0
20
0
40
1.778
1
*SYM:= 29
0
TEXT
8
PKG_INFO
10
0
20
-3.048
40
1.778
1
*PKG:= 0 D_RB060M-30(SOD-123_H0.8) UND
0
ENDBLK
0
BLOCK
2
PART_BODY_BOT_2
8
0
10
0
20
0
3
PART_BODY_BOT_2
70
64
0
POLYLINE
8
PART_BOT_2DLINE_20
66
1
40
0.1
41
0.1
70
1
0
VERTEX
8
PART_BOT_2DLINE_20
10
-0.5
20
0.25
0
VERTEX
8
PART_BOT_2DLINE_20
10
0.5
20
0.25
0
VERTEX
8
PART_BOT_2DLINE_20
10
0.5
20
-0.25
0
VERTEX
8
PART_BOT_2DLINE_20
10
-0.5
20
-0.25
0
SEQEND
0
INSERT
2
SMOOTH_0$1
8
PART_BOT_2DLINE_20
10
-0.5
20
0.25
0
INSERT
2
SMOOTH_0$1
8
PART_BOT_2DLINE_20
10
0.5
20
0.25
0
INSERT
2
SMOOTH_0$1
8
PART_BOT_2DLINE_20
10
0.5
20
-0.25
0
INSERT
2
SMOOTH_0$1
8
PART_BOT_2DLINE_20
10
-0.5
20
-0.25
0
POLYLINE
8
PART_BOT_2DLINE_01
66
1
40
0.1
41
0.1
70
1
0
VERTEX
8
PART_BOT_2DLINE_01
10
-0.9
20
-0.46
0
VERTEX
8
PART_BOT_2DLINE_01
10
0.9
20
-0.46
0
VERTEX
8
PART_BOT_2DLINE_01
10
0.9
20
0.45
0
VERTEX
8
PART_BOT_2DLINE_01
10
-0.9
20
0.45
0
SEQEND
0
INSERT
2
SMOOTH_0$1
8
PART_BOT_2DLINE_01
10
-0.9
20
-0.46
0
INSERT
2
SMOOTH_0$1
8
PART_BOT_2DLINE_01
10
0.9
20
-0.46
0
INSERT
2
SMOOTH_0$1
8
PART_BOT_2DLINE_01
10
0.9
20
0.45
0
INSERT
2
SMOOTH_0$1
8
PART_BOT_2DLINE_01
10
-0.9
20
0.45
0
ENDBLK
0
BLOCK
2
STK_BOT_21
8
0
10
0
20
0
3
STK_BOT_21
70
64
0
INSERT
2
DRIL_HOLE_0
8
DRIL_PLTE_THRU_01
10
0
20
0
0
INSERT
2
DRIL_HOLE_0
8
DRIL_PLTE_THRU_02
10
0
20
0
0
INSERT
2
DRIL_HOLE_0
8
DRIL_PLTE_THRU_03
10
0
20
0
0
INSERT
2
DRIL_HOLE_0
8
DRIL_PLTE_THRU_04
10
0
20
0
0
INSERT
2
PAD_0
8
PADS_INNER
10
0
20
0
0
INSERT
2
PAD_1
8
PADS_BOT
10
0
20
0
0
INSERT
2
PAD_0
8
PADS_TOP
10
0
20
0
0
ENDBLK
0
BLOCK
2
PART_BODY_BOT_4
8
0
10
0
20
0
3
PART_BODY_BOT_4
70
64
0
POLYLINE
8
PART_BOT_2DLINE_20
66
1
40
0.1
41
0.1
70
1
0
VERTEX
8
PART_BOT_2DLINE_20
10
-1
20
0.6
0
VERTEX
8
PART_BOT_2DLINE_20
10
1
20
0.6
0
VERTEX
8
PART_BOT_2DLINE_20
10
1
20
-0.6
0
VERTEX
8
PART_BOT_2DLINE_20
10
-1
20
-0.6
0
SEQEND
0
INSERT
2
SMOOTH_0$1
8
PART_BOT_2DLINE_20
10
-1
20
0.6
0
INSERT
2
SMOOTH_0$1
8
PART_BOT_2DLINE_20
10
1
20
0.6
0
INSERT
2
SMOOTH_0$1
8
PART_BOT_2DLINE_20
10
1
20
-0.6
0
INSERT
2
SMOOTH_0$1
8
PART_BOT_2DLINE_20
10
-1
20
-0.6
0
POLYLINE
8
PART_BOT_2DLINE_00
66
1
40
0.1
41
0.1
70
1
0
VERTEX
8
PART_BOT_2DLINE_00
10
-1.5
20
0.8
0
VERTEX
8
PART_BOT_2DLINE_00
10
1.5
20
0.8
0
VERTEX
8
PART_BOT_2DLINE_00
10
1.5
20
-0.8
0
VERTEX
8
PART_BOT_2DLINE_00
10
-1.5
20
-0.8
0
SEQEND
0
INSERT
2
SMOOTH_0$1
8
PART_BOT_2DLINE_00
10
-1.5
20
0.8
0
INSERT
2
SMOOTH_0$1
8
PART_BOT_2DLINE_00
10
1.5
20
0.8
0
INSERT
2
SMOOTH_0$1
8
PART_BOT_2DLINE_00
10
1.5
20
-0.8
0
INSERT
2
SMOOTH_0$1
8
PART_BOT_2DLINE_00
10
-1.5
20
-0.8
0
POLYLINE
8
PART_BOT_2DLINE_00
66
1
40
0.1
41
0.1
0
VERTEX
8
PART_BOT_2DLINE_00
10
-0.2
20
0.2
0
VERTEX
8
PART_BOT_2DLINE_00
10
0.2
20
0.2
0
SEQEND
0
INSERT
2
SMOOTH_0$1
8
PART_BOT_2DLINE_00
10
-0.2
20
0.2
0
INSERT
2
SMOOTH_0$1
8
PART_BOT_2DLINE_00
10
0.2
20
0.2
0
POLYLINE
8
PART_BOT_2DLINE_00
66
1
40
0.1
41
0.1
0
VERTEX
8
PART_BOT_2DLINE_00
10
-0.2
20
-0.2
0
VERTEX
8
PART_BOT_2DLINE_00
10
0.2
20
-0.2
0
SEQEND
0
INSERT
2
SMOOTH_0$1
8
PART_BOT_2DLINE_00
10
-0.2
20
-0.2
0
INSERT
2
SMOOTH_0$1
8
PART_BOT_2DLINE_00
10
0.2
20
-0.2
0
POLYLINE
8
PART_BOT_2DLINE_00
66
1
40
0.1
41
0.1
0
VERTEX
8
PART_BOT_2DLINE_00
10
0
20
-0.2
0
VERTEX
8
PART_BOT_2DLINE_00
10
0
20
-0.5
0
SEQEND
0
INSERT
2
SMOOTH_0$1
8
PART_BOT_2DLINE_00
10
0
20
-0.2
0
INSERT
2
SMOOTH_0$1
8
PART_BOT_2DLINE_00
10
0
20
-0.5
0
POLYLINE
8
PART_BOT_2DLINE_00
66
1
40
0.1
41
0.1
0
VERTEX
8
PART_BOT_2DLINE_00
10
0
20
0.2
0
VERTEX
8
PART_BOT_2DLINE_00
10
0
20
0.5
0
SEQEND
0
INSERT
2
SMOOTH_0$1
8
PART_BOT_2DLINE_00
10
0
20
0.2
0
INSERT
2
SMOOTH_0$1
8
PART_BOT_2DLINE_00
10
0
20
0.5
0
ENDBLK
0
BLOCK
2
STK_BOT_8
8
0
10
0
20
0
3
STK_BOT_8
70
64
0
INSERT
2
DRIL_HOLE_0
8
DRIL_PLTE_THRU_01
10
0
20
0
0
INSERT
2
DRIL_HOLE_0
8
DRIL_PLTE_THRU_02
10
0
20
0
0
INSERT
2
DRIL_HOLE_0
8
DRIL_PLTE_THRU_03
10
0
20
0
0
INSERT
2
DRIL_HOLE_0
8
DRIL_PLTE_THRU_04
10
0
20
0
0
INSERT
2
PAD_0
8
PADS_INNER
10
0
20
0
0
INSERT
2
PAD_2
8
PADS_BOT
10
0
20
0
50
90
0
INSERT
2
PAD_0
8
PADS_TOP
10
0
20
0
0
ENDBLK
0
BLOCK
2
PART_BODY_BOT_22
8
0
10
0
20
0
3
PART_BODY_BOT_22
70
64
0
POLYLINE
8
PART_BOT_COPPER_26
66
1
40
0.254
41
0.254
39
-1.2
70
1
0
VERTEX
8
PART_BOT_COPPER_26
10
1.41
20
6.05
0
VERTEX
8
PART_BOT_COPPER_26
10
12.62
20
6.05
0
VERTEX
8
PART_BOT_COPPER_26
10
12.62
20
-5.8
0
VERTEX
8
PART_BOT_COPPER_26
10
1.41
20
-5.8
0
SEQEND
0
INSERT
2
SMOOTH_0$254
8
PART_BOT_COPPER_26
10
1.41
20
6.05
0
INSERT
2
SMOOTH_0$254
8
PART_BOT_COPPER_26
10
12.62
20
6.05
0
INSERT
2
SMOOTH_0$254
8
PART_BOT_COPPER_26
10
12.62
20
-5.8
0
INSERT
2
SMOOTH_0$254
8
PART_BOT_COPPER_26
10
1.41
20
-5.8
0
POLYLINE
8
PART_BOT_2DLINE_26
66
1
40
0.254
41
0.254
39
-1.2
0
VERTEX
8
PART_BOT_2DLINE_26
10
-0.37
20
-2.75
0
VERTEX
8
PART_BOT_2DLINE_26
10
-0.37
20
-6.26
0
VERTEX
8
PART_BOT_2DLINE_26
10
1.37
20
-6.26
0
SEQEND
0
INSERT
2
SMOOTH_0$254
8
PART_BOT_2DLINE_26
10
-0.37
20
-2.75
0
INSERT
2
SMOOTH_0$254
8
PART_BOT_2DLINE_26
10
-0.37
20
-6.26
0
INSERT
2
SMOOTH_0$254
8
PART_BOT_2DLINE_26
10
1.37
20
-6.26
0
POLYLINE
8
PART_BOT_2DLINE_26
66
1
40
0.254
41
0.254
39
-1.2
0
VERTEX
8
PART_BOT_2DLINE_26
10
-0.38
20
4.46
0
VERTEX
8
PART_BOT_2DLINE_26
10
-0.38
20
6.43
0
VERTEX
8
PART_BOT_2DLINE_26
10
1.37
20
6.43
0
SEQEND
0
INSERT
2
SMOOTH_0$254
8
PART_BOT_2DLINE_26
10
-0.38
20
4.46
0
INSERT
2
SMOOTH_0$254
8
PART_BOT_2DLINE_26
10
-0.38
20
6.43
0
INSERT
2
SMOOTH_0$254
8
PART_BOT_2DLINE_26
10
1.37
20
6.43
0
POLYLINE
8
PART_BOT_2DLINE_26
66
1
40
0.254
41
0.254
39
-1.2
0
VERTEX
8
PART_BOT_2DLINE_26
10
5.01
20
6.39
0
VERTEX
8
PART_BOT_2DLINE_26
10
12.7
20
6.39
0
SEQEND
0
INSERT
2
SMOOTH_0$254
8
PART_BOT_2DLINE_26
10
5.01
20
6.39
0
INSERT
2
SMOOTH_0$254
8
PART_BOT_2DLINE_26
10
12.7
20
6.39
0
POLYLINE
8
PART_BOT_2DLINE_26
66
1
40
0.254
41
0.254
39
-1.2
0
VERTEX
8
PART_BOT_2DLINE_26
10
14.85
20
6.37
0
VERTEX
8
PART_BOT_2DLINE_26
10
15.13
20
6.37
0
VERTEX
8
PART_BOT_2DLINE_26
10
15.13
20
-6.23
0
VERTEX
8
PART_BOT_2DLINE_26
10
14.74
20
-6.23
0
SEQEND
0
INSERT
2
SMOOTH_0$254
8
PART_BOT_2DLINE_26
10
14.85
20
6.37
0
INSERT
2
SMOOTH_0$254
8
PART_BOT_2DLINE_26
10
15.13
20
6.37
0
INSERT
2
SMOOTH_0$254
8
PART_BOT_2DLINE_26
10
15.13
20
-6.23
0
INSERT
2
SMOOTH_0$254
8
PART_BOT_2DLINE_26
10
14.74
20
-6.23
0
POLYLINE
8
PART_BOT_2DLINE_26
66
1
40
0.254
41
0.254
39
-1.2
0
VERTEX
8
PART_BOT_2DLINE_26
10
12.78
20
-6.25
0
VERTEX
8
PART_BOT_2DLINE_26
10
4.95
20
-6.25
0
SEQEND
0
INSERT
2
SMOOTH_0$254
8
PART_BOT_2DLINE_26
10
12.78
20
-6.25
0
INSERT
2
SMOOTH_0$254
8
PART_BOT_2DLINE_26
10
4.95
20
-6.25
0
ENDBLK
0
BLOCK
2
STK_BOT_218
8
0
10
0
20
0
3
STK_BOT_218
70
64
0
INSERT
2
DRIL_HOLE_0
8
DRIL_NPLTE_THRU_01
10
0
20
0
0
INSERT
2
DRIL_HOLE_0
8
DRIL_NPLTE_THRU_02
10
0
20
0
0
INSERT
2
DRIL_HOLE_0
8
DRIL_NPLTE_THRU_03
10
0
20
0
0
INSERT
2
DRIL_HOLE_0
8
DRIL_NPLTE_THRU_04
10
0
20
0
0
INSERT
2
PAD_0
8
PADS_INNER
10
0
20
0
0
INSERT
2
PAD_3
8
PADS_BOT
10
0
20
0
0
INSERT
2
PAD_0
8
PADS_TOP
10
0
20
0
0
ENDBLK
0
BLOCK
2
STK_BOT_219
8
0
10
0
20
0
3
STK_BOT_219
70
64
0
INSERT
2
DRIL_HOLE_0
8
DRIL_NPLTE_THRU_01
10
0
20
0
0
INSERT
2
DRIL_HOLE_0
8
DRIL_NPLTE_THRU_02
10
0
20
0
0
INSERT
2
DRIL_HOLE_0
8
DRIL_NPLTE_THRU_03
10
0
20
0
0
INSERT
2
DRIL_HOLE_0
8
DRIL_NPLTE_THRU_04
10
0
20
0
0
INSERT
2
PAD_0
8
PADS_INNER
10
0
20
0
0
INSERT
2
PAD_4
8
PADS_BOT
10
0
20
0
0
INSERT
2
PAD_0
8
PADS_TOP
10
0
20
0
0
ENDBLK
0
BLOCK
2
STK_BOT_220
8
0
10
0
20
0
3
STK_BOT_220
70
64
0
INSERT
2
DRIL_HOLE_0
8
DRIL_NPLTE_THRU_01
10
0
20
0
0
INSERT
2
DRIL_HOLE_0
8
DRIL_NPLTE_THRU_02
10
0
20
0
0
INSERT
2
DRIL_HOLE_0
8
DRIL_NPLTE_THRU_03
10
0
20
0
0
INSERT
2
DRIL_HOLE_0
8
DRIL_NPLTE_THRU_04
10
0
20
0
0
INSERT
2
PAD_0
8
PADS_INNER
10
0
20
0
0
INSERT
2
PAD_5
8
PADS_BOT
10
0
20
0
0
INSERT
2
PAD_0
8
PADS_TOP
10
0
20
0
0
ENDBLK
0
BLOCK
2
SYM_TOP_8
8
0
10
0
20
0
3
SYM_TOP_8
70
64
0
TEXT
8
SYM_NAME
10
0
20
0
40
1.778
1
104244-0820
41
0.75
0
TEXT
8
SYM_PART_NAME_01
10
0
20
0
40
0.889
1
 
41
0.75
7
W0$127R0
0
TEXT
8
SYM_PART_TYPE_01
10
0
20
0
40
0.889
1
 
73
2
11
0
21
0
41
0.75
7
W0$127R0
0
INSERT
2
PART_BODY_TOP_7
8
0
10
0
20
0
0
INSERT
2
STK_TOP_204
8
0
10
4.8
20
-1.2
0
TEXT
8
SYM_TERMINAL
10
0
20
-3.048
40
1.778
1
1
0
INSERT
2
STK_TOP_204
8
0
10
4.8
20
0
0
TEXT
8
SYM_TERMINAL
10
0
20
-6.096
40
1.778
1
2
0
INSERT
2
STK_TOP_204
8
0
10
-4.8
20
-1.2
0
TEXT
8
SYM_TERMINAL
10
0
20
-9.144
40
1.778
1
3
0
INSERT
2
STK_TOP_204
8
0
10
4.8
20
1.2
0
TEXT
8
SYM_TERMINAL
10
0
20
-12.192
40
1.778
1
4
0
INSERT
2
STK_TOP_204
8
0
10
-4.8
20
0
0
TEXT
8
SYM_TERMINAL
10
0
20
-15.24
40
1.778
1
5
0
INSERT
2
STK_TOP_204
8
0
10
-4.8
20
1.2
0
TEXT
8
SYM_TERMINAL
10
0
20
-18.288
40
1.778
1
6
0
INSERT
2
STK_TOP_205
8
0
10
-5
20
3.15
0
TEXT
8
SYM_TERMINAL
10
0
20
-21.336
40
1.778
1
7
0
INSERT
2
STK_TOP_204
8
0
10
-5
20
-4.05
0
TEXT
8
SYM_TERMINAL
10
0
20
-24.384
40
1.778
1
8
0
INSERT
2
STK_TOP_204
8
0
10
5
20
3.15
0
TEXT
8
SYM_TERMINAL
10
0
20
-27.432
40
1.778
1
9
0
INSERT
2
STK_TOP_204
8
0
10
5
20
-4.05
0
TEXT
8
SYM_TERMINAL
10
0
20
-30.48
40
1.778
1
10
0
INSERT
2
STK_TOP_207
8
0
10
-1.82
20
7.2
0
TEXT
8
SYM_TERMINAL
10
0
20
-33.528
40
1.778
1
11
0
INSERT
2
STK_TOP_207
8
0
10
1.82
20
7.2
0
TEXT
8
SYM_TERMINAL
10
0
20
-36.576
40
1.778
1
12
0
ENDBLK
0
BLOCK
2
PART_BODY_BOT_10
8
0
10
0
20
0
3
PART_BODY_BOT_10
70
64
0
POLYLINE
8
PART_BOT_2DLINE_20
66
1
40
0.1
41
0.1
70
1
0
VERTEX
8
PART_BOT_2DLINE_20
10
-0.5
20
0.25
0
VERTEX
8
PART_BOT_2DLINE_20
10
0.5
20
0.25
0
VERTEX
8
PART_BOT_2DLINE_20
10
0.5
20
-0.25
0
VERTEX
8
PART_BOT_2DLINE_20
10
-0.5
20
-0.25
0
SEQEND
0
INSERT
2
SMOOTH_0$1
8
PART_BOT_2DLINE_20
10
-0.5
20
0.25
0
INSERT
2
SMOOTH_0$1
8
PART_BOT_2DLINE_20
10
0.5
20
0.25
0
INSERT
2
SMOOTH_0$1
8
PART_BOT_2DLINE_20
10
0.5
20
-0.25
0
INSERT
2
SMOOTH_0$1
8
PART_BOT_2DLINE_20
10
-0.5
20
-0.25
0
POLYLINE
8
PART_BOT_2DLINE_00
66
1
40
0.1
41
0.1
70
1
0
VERTEX
8
PART_BOT_2DLINE_00
10
-0.9
20
0.45
0
VERTEX
8
PART_BOT_2DLINE_00
10
-0.9
20
-0.45
0
VERTEX
8
PART_BOT_2DLINE_00
10
-0.1
20
-0.45
0
VERTEX
8
PART_BOT_2DLINE_00
10
0
20
-0.3
0
VERTEX
8
PART_BOT_2DLINE_00
10
0.1
20
-0.45
0
VERTEX
8
PART_BOT_2DLINE_00
10
0.9
20
-0.45
0
VERTEX
8
PART_BOT_2DLINE_00
10
0.9
20
0.45
0
VERTEX
8
PART_BOT_2DLINE_00
10
0.1
20
0.45
0
VERTEX
8
PART_BOT_2DLINE_00
10
0
20
0.3
0
VERTEX
8
PART_BOT_2DLINE_00
10
-0.1
20
0.45
0
SEQEND
0
INSERT
2
SMOOTH_0$1
8
PART_BOT_2DLINE_00
10
-0.9
20
0.45
0
INSERT
2
SMOOTH_0$1
8
PART_BOT_2DLINE_00
10
-0.9
20
-0.45
0
INSERT
2
SMOOTH_0$1
8
PART_BOT_2DLINE_00
10
-0.1
20
-0.45
0
INSERT
2
SMOOTH_0$1
8
PART_BOT_2DLINE_00
10
0
20
-0.3
0
INSERT
2
SMOOTH_0$1
8
PART_BOT_2DLINE_00
10
0.1
20
-0.45
0
INSERT
2
SMOOTH_0$1
8
PART_BOT_2DLINE_00
10
0.9
20
-0.45
0
INSERT
2
SMOOTH_0$1
8
PART_BOT_2DLINE_00
10
0.9
20
0.45
0
INSERT
2
SMOOTH_0$1
8
PART_BOT_2DLINE_00
10
0.1
20
0.45
0
INSERT
2
SMOOTH_0$1
8
PART_BOT_2DLINE_00
10
0
20
0.3
0
INSERT
2
SMOOTH_0$1
8
PART_BOT_2DLINE_00
10
-0.1
20
0.45
0
POLYLINE
8
KEEPOUT_01
6
KEEPOUT_00001000$0
66
1
70
1
0
VERTEX
8
KEEPOUT_01
10
-0.2
20
0.375
42
-0.4142135624
0
VERTEX
8
KEEPOUT_01
10
-0.1
20
0.475
0
VERTEX
8
KEEPOUT_01
10
0.1
20
0.475
42
-0.4142135624
0
VERTEX
8
KEEPOUT_01
10
0.2
20
0.375
0
VERTEX
8
KEEPOUT_01
10
0.2
20
-0.375
42
-0.4142135624
0
VERTEX
8
KEEPOUT_01
10
0.1
20
-0.475
0
VERTEX
8
KEEPOUT_01
10
-0.1
20
-0.475
42
-0.4142135624
0
VERTEX
8
KEEPOUT_01
10
-0.2
20
-0.375
0
SEQEND
0
ENDBLK
0
BLOCK
2
PART_BODY_BOT_13
8
0
10
0
20
0
3
PART_BODY_BOT_13
70
64
0
POLYLINE
8
PART_BOT_2DLINE_20
66
1
40
0.1
41
0.1
70
1
0
VERTEX
8
PART_BOT_2DLINE_20
10
-1
20
0.6
0
VERTEX
8
PART_BOT_2DLINE_20
10
1
20
0.6
0
VERTEX
8
PART_BOT_2DLINE_20
10
1
20
-0.6
0
VERTEX
8
PART_BOT_2DLINE_20
10
-1
20
-0.6
0
SEQEND
0
INSERT
2
SMOOTH_0$1
8
PART_BOT_2DLINE_20
10
-1
20
0.6
0
INSERT
2
SMOOTH_0$1
8
PART_BOT_2DLINE_20
10
1
20
0.6
0
INSERT
2
SMOOTH_0$1
8
PART_BOT_2DLINE_20
10
1
20
-0.6
0
INSERT
2
SMOOTH_0$1
8
PART_BOT_2DLINE_20
10
-1
20
-0.6
0
POLYLINE
8
PART_BOT_2DLINE_00
66
1
40
0.1
41
0.1
0
VERTEX
8
PART_BOT_2DLINE_00
10
-1.25
20
0.8
0
VERTEX
8
PART_BOT_2DLINE_00
10
1.25
20
0.8
0
SEQEND
0
INSERT
2
SMOOTH_0$1
8
PART_BOT_2DLINE_00
10
-1.25
20
0.8
0
INSERT
2
SMOOTH_0$1
8
PART_BOT_2DLINE_00
10
1.25
20
0.8
0
POLYLINE
8
PART_BOT_2DLINE_00
66
1
40
0.1
41
0.1
0
VERTEX
8
PART_BOT_2DLINE_00
10
-1.25
20
-0.8
0
VERTEX
8
PART_BOT_2DLINE_00
10
1.25
20
-0.8
0
SEQEND
0
INSERT
2
SMOOTH_0$1
8
PART_BOT_2DLINE_00
10
-1.25
20
-0.8
0
INSERT
2
SMOOTH_0$1
8
PART_BOT_2DLINE_00
10
1.25
20
-0.8
0
POLYLINE
8
PART_BOT_2DLINE_00
66
1
40
0.1
41
0.1
0
VERTEX
8
PART_BOT_2DLINE_00
10
-0.1998906667
20
0.3
42
-1.9991321028
0
VERTEX
8
PART_BOT_2DLINE_00
10
0.0001093333
20
0.3
0
SEQEND
0
INSERT
2
SMOOTH_0$1
8
PART_BOT_2DLINE_00
10
-0.1998906667
20
0.3
0
INSERT
2
SMOOTH_0$1
8
PART_BOT_2DLINE_00
10
0.0001093333
20
0.3
0
POLYLINE
8
PART_BOT_2DLINE_00
66
1
40
0.1
41
0.1
0
VERTEX
8
PART_BOT_2DLINE_00
10
0.0001093333
20
0.3
42
-1.9991321028
0
VERTEX
8
PART_BOT_2DLINE_00
10
0.2001093333
20
0.3
0
SEQEND
0
INSERT
2
SMOOTH_0$1
8
PART_BOT_2DLINE_00
10
0.0001093333
20
0.3
0
INSERT
2
SMOOTH_0$1
8
PART_BOT_2DLINE_00
10
0.2001093333
20
0.3
0
POLYLINE
8
PART_BOT_2DLINE_00
66
1
40
0.1
41
0.1
0
VERTEX
8
PART_BOT_2DLINE_00
10
-0.1998906667
20
-0.4
42
-1.9991321028
0
VERTEX
8
PART_BOT_2DLINE_00
10
0.0001093333
20
-0.4
0
SEQEND
0
INSERT
2
SMOOTH_0$1
8
PART_BOT_2DLINE_00
10
-0.1998906667
20
-0.4
0
INSERT
2
SMOOTH_0$1
8
PART_BOT_2DLINE_00
10
0.0001093333
20
-0.4
0
POLYLINE
8
PART_BOT_2DLINE_00
66
1
40
0.1
41
0.1
0
VERTEX
8
PART_BOT_2DLINE_00
10
0.0001093333
20
-0.4
42
-1.9991321028
0
VERTEX
8
PART_BOT_2DLINE_00
10
0.2001093333
20
-0.4
0
SEQEND
0
INSERT
2
SMOOTH_0$1
8
PART_BOT_2DLINE_00
10
0.0001093333
20
-0.4
0
INSERT
2
SMOOTH_0$1
8
PART_BOT_2DLINE_00
10
0.2001093333
20
-0.4
0
POLYLINE
8
PART_BOT_2DLINE_00
66
1
40
0.1
41
0.1
0
VERTEX
8
PART_BOT_2DLINE_00
10
-0.35
20
0.3
0
VERTEX
8
PART_BOT_2DLINE_00
10
-0.2
20
0.3
0
SEQEND
0
INSERT
2
SMOOTH_0$1
8
PART_BOT_2DLINE_00
10
-0.35
20
0.3
0
INSERT
2
SMOOTH_0$1
8
PART_BOT_2DLINE_00
10
-0.2
20
0.3
0
POLYLINE
8
PART_BOT_2DLINE_00
66
1
40
0.1
41
0.1
0
VERTEX
8
PART_BOT_2DLINE_00
10
0.35
20
0.3
0
VERTEX
8
PART_BOT_2DLINE_00
10
0.2
20
0.3
0
SEQEND
0
INSERT
2
SMOOTH_0$1
8
PART_BOT_2DLINE_00
10
0.35
20
0.3
0
INSERT
2
SMOOTH_0$1
8
PART_BOT_2DLINE_00
10
0.2
20
0.3
0
POLYLINE
8
PART_BOT_2DLINE_00
66
1
40
0.1
41
0.1
0
VERTEX
8
PART_BOT_2DLINE_00
10
-0.35
20
-0.4
0
VERTEX
8
PART_BOT_2DLINE_00
10
-0.2
20
-0.4
0
SEQEND
0
INSERT
2
SMOOTH_0$1
8
PART_BOT_2DLINE_00
10
-0.35
20
-0.4
0
INSERT
2
SMOOTH_0$1
8
PART_BOT_2DLINE_00
10
-0.2
20
-0.4
0
POLYLINE
8
PART_BOT_2DLINE_00
66
1
40
0.1
41
0.1
0
VERTEX
8
PART_BOT_2DLINE_00
10
0.35
20
-0.4
0
VERTEX
8
PART_BOT_2DLINE_00
10
0.2
20
-0.4
0
SEQEND
0
INSERT
2
SMOOTH_0$1
8
PART_BOT_2DLINE_00
10
0.35
20
-0.4
0
INSERT
2
SMOOTH_0$1
8
PART_BOT_2DLINE_00
10
0.2
20
-0.4
0
ENDBLK
0
BLOCK
2
STK_BOT_150
8
0
10
0
20
0
3
STK_BOT_150
70
64
0
INSERT
2
DRIL_HOLE_0
8
DRIL_PLTE_THRU_01
10
0
20
0
0
INSERT
2
DRIL_HOLE_0
8
DRIL_PLTE_THRU_02
10
0
20
0
0
INSERT
2
DRIL_HOLE_0
8
DRIL_PLTE_THRU_03
10
0
20
0
0
INSERT
2
DRIL_HOLE_0
8
DRIL_PLTE_THRU_04
10
0
20
0
0
INSERT
2
PAD_0
8
PADS_INNER
10
0
20
0
0
INSERT
2
PAD_6
8
PADS_BOT
10
0
20
0
0
INSERT
2
PAD_0
8
PADS_TOP
10
0
20
0
0
ENDBLK
0
BLOCK
2
PART_BODY_BOT_14
8
0
10
0
20
0
3
PART_BODY_BOT_14
70
64
0
POLYLINE
8
PART_BOT_2DLINE_20
66
1
40
0.1
41
0.1
70
1
0
VERTEX
8
PART_BOT_2DLINE_20
10
-0.8
20
0.4
0
VERTEX
8
PART_BOT_2DLINE_20
10
0.8
20
0.4
0
VERTEX
8
PART_BOT_2DLINE_20
10
0.8
20
-0.4
0
VERTEX
8
PART_BOT_2DLINE_20
10
-0.8
20
-0.4
0
SEQEND
0
INSERT
2
SMOOTH_0$1
8
PART_BOT_2DLINE_20
10
-0.8
20
0.4
0
INSERT
2
SMOOTH_0$1
8
PART_BOT_2DLINE_20
10
0.8
20
0.4
0
INSERT
2
SMOOTH_0$1
8
PART_BOT_2DLINE_20
10
0.8
20
-0.4
0
INSERT
2
SMOOTH_0$1
8
PART_BOT_2DLINE_20
10
-0.8
20
-0.4
0
POLYLINE
8
PART_BOT_2DLINE_00
66
1
40
0.1
41
0.1
0
VERTEX
8
PART_BOT_2DLINE_00
10
0.1566953333
20
0.299834
42
2.0412539671
0
VERTEX
8
PART_BOT_2DLINE_00
10
0.1566953333
20
-0.000166
0
SEQEND
0
INSERT
2
SMOOTH_0$1
8
PART_BOT_2DLINE_00
10
0.1566953333
20
0.299834
0
INSERT
2
SMOOTH_0$1
8
PART_BOT_2DLINE_00
10
0.1566953333
20
-0.000166
0
POLYLINE
8
PART_BOT_2DLINE_00
66
1
40
0.1
41
0.1
0
VERTEX
8
PART_BOT_2DLINE_00
10
0.1566953333
20
-0.000166
42
2.0412539671
0
VERTEX
8
PART_BOT_2DLINE_00
10
0.1566953333
20
-0.300166
0
SEQEND
0
INSERT
2
SMOOTH_0$1
8
PART_BOT_2DLINE_00
10
0.1566953333
20
-0.000166
0
INSERT
2
SMOOTH_0$1
8
PART_BOT_2DLINE_00
10
0.1566953333
20
-0.300166
0
POLYLINE
8
PART_BOT_2DLINE_00
66
1
40
0.1
41
0.1
0
VERTEX
8
PART_BOT_2DLINE_00
10
0.15
20
0.3
0
VERTEX
8
PART_BOT_2DLINE_00
10
0.15
20
0.6
0
SEQEND
0
INSERT
2
SMOOTH_0$1
8
PART_BOT_2DLINE_00
10
0.15
20
0.3
0
INSERT
2
SMOOTH_0$1
8
PART_BOT_2DLINE_00
10
0.15
20
0.6
0
POLYLINE
8
PART_BOT_2DLINE_00
66
1
40
0.1
41
0.1
0
VERTEX
8
PART_BOT_2DLINE_00
10
0.15
20
-0.3
0
VERTEX
8
PART_BOT_2DLINE_00
10
0.15
20
-0.6
0
SEQEND
0
INSERT
2
SMOOTH_0$1
8
PART_BOT_2DLINE_00
10
0.15
20
-0.3
0
INSERT
2
SMOOTH_0$1
8
PART_BOT_2DLINE_00
10
0.15
20
-0.6
0
POLYLINE
8
PART_BOT_2DLINE_00
66
1
40
0.1
41
0.1
0
VERTEX
8
PART_BOT_2DLINE_00
10
-1.15
20
0.6
0
VERTEX
8
PART_BOT_2DLINE_00
10
1.15
20
0.6
0
SEQEND
0
INSERT
2
SMOOTH_0$1
8
PART_BOT_2DLINE_00
10
-1.15
20
0.6
0
INSERT
2
SMOOTH_0$1
8
PART_BOT_2DLINE_00
10
1.15
20
0.6
0
POLYLINE
8
PART_BOT_2DLINE_00
66
1
40
0.1
41
0.1
0
VERTEX
8
PART_BOT_2DLINE_00
10
-1.15
20
-0.6
0
VERTEX
8
PART_BOT_2DLINE_00
10
1.15
20
-0.6
0
SEQEND
0
INSERT
2
SMOOTH_0$1
8
PART_BOT_2DLINE_00
10
-1.15
20
-0.6
0
INSERT
2
SMOOTH_0$1
8
PART_BOT_2DLINE_00
10
1.15
20
-0.6
0
ENDBLK
0
BLOCK
2
STK_BOT_35
8
0
10
0
20
0
3
STK_BOT_35
70
64
0
INSERT
2
DRIL_HOLE_0
8
DRIL_PLTE_THRU_01
10
0
20
0
0
INSERT
2
DRIL_HOLE_0
8
DRIL_PLTE_THRU_02
10
0
20
0
0
INSERT
2
DRIL_HOLE_0
8
DRIL_PLTE_THRU_03
10
0
20
0
0
INSERT
2
DRIL_HOLE_0
8
DRIL_PLTE_THRU_04
10
0
20
0
0
INSERT
2
PAD_0
8
PADS_INNER
10
0
20
0
0
INSERT
2
PAD_7
8
PADS_BOT
10
0
20
0
50
90
0
INSERT
2
PAD_0
8
PADS_TOP
10
0
20
0
0
ENDBLK
0
BLOCK
2
PART_BODY_BOT_25
8
0
10
0
20
0
3
PART_BODY_BOT_25
70
64
0
POLYLINE
8
PART_BOT_2DLINE_01
66
1
40
0.1
41
0.1
0
VERTEX
8
PART_BOT_2DLINE_01
10
-0.3
20
0.45
0
VERTEX
8
PART_BOT_2DLINE_01
10
-0.85
20
0.45
0
VERTEX
8
PART_BOT_2DLINE_01
10
-0.85
20
-0.45
0
VERTEX
8
PART_BOT_2DLINE_01
10
-0.78
20
-0.45
0
SEQEND
0
INSERT
2
SMOOTH_0$1
8
PART_BOT_2DLINE_01
10
-0.3
20
0.45
0
INSERT
2
SMOOTH_0$1
8
PART_BOT_2DLINE_01
10
-0.85
20
0.45
0
INSERT
2
SMOOTH_0$1
8
PART_BOT_2DLINE_01
10
-0.85
20
-0.45
0
INSERT
2
SMOOTH_0$1
8
PART_BOT_2DLINE_01
10
-0.78
20
-0.45
0
POLYLINE
8
PART_BOT_2DLINE_01
66
1
40
0.1
41
0.1
0
VERTEX
8
PART_BOT_2DLINE_01
10
-0.24
20
-0.45
0
VERTEX
8
PART_BOT_2DLINE_01
10
0.23
20
-0.45
0
SEQEND
0
INSERT
2
SMOOTH_0$1
8
PART_BOT_2DLINE_01
10
-0.24
20
-0.45
0
INSERT
2
SMOOTH_0$1
8
PART_BOT_2DLINE_01
10
0.23
20
-0.45
0
POLYLINE
8
PART_BOT_2DLINE_01
66
1
40
0.1
41
0.1
0
VERTEX
8
PART_BOT_2DLINE_01
10
0.76
20
-0.45
0
VERTEX
8
PART_BOT_2DLINE_01
10
0.85
20
-0.45
0
VERTEX
8
PART_BOT_2DLINE_01
10
0.85
20
0.45
0
VERTEX
8
PART_BOT_2DLINE_01
10
0.28
20
0.45
0
SEQEND
0
INSERT
2
SMOOTH_0$1
8
PART_BOT_2DLINE_01
10
0.76
20
-0.45
0
INSERT
2
SMOOTH_0$1
8
PART_BOT_2DLINE_01
10
0.85
20
-0.45
0
INSERT
2
SMOOTH_0$1
8
PART_BOT_2DLINE_01
10
0.85
20
0.45
0
INSERT
2
SMOOTH_0$1
8
PART_BOT_2DLINE_01
10
0.28
20
0.45
0
ENDBLK
0
BLOCK
2
STK_BOT_20
8
0
10
0
20
0
3
STK_BOT_20
70
64
0
INSERT
2
DRIL_HOLE_0
8
DRIL_PLTE_THRU_01
10
0
20
0
0
INSERT
2
DRIL_HOLE_0
8
DRIL_PLTE_THRU_02
10
0
20
0
0
INSERT
2
DRIL_HOLE_0
8
DRIL_PLTE_THRU_03
10
0
20
0
0
INSERT
2
DRIL_HOLE_0
8
DRIL_PLTE_THRU_04
10
0
20
0
0
INSERT
2
PAD_0
8
PADS_INNER
10
0
20
0
0
INSERT
2
PAD_8
8
PADS_BOT
10
0
20
0
50
90
0
INSERT
2
PAD_0
8
PADS_TOP
10
0
20
0
0
ENDBLK
0
BLOCK
2
SYM_TOP_17
8
0
10
0
20
0
3
SYM_TOP_17
70
64
0
TEXT
8
SYM_NAME
10
0
20
0
40
1.778
1
MMBT2222ALT1
41
0.75
0
TEXT
8
SYM_PART_TYPE_01
10
-1.524
20
5.3086
40
1.778
1
 
73
2
11
-1.524
21
5.3086
41
0.75
7
W0$254R0
0
TEXT
8
SYM_PART_NAME_01
10
-1.524
20
5.3086
40
1.778
1
 
41
0.75
7
W0$254R0
0
INSERT
2
PART_BODY_TOP_16
8
0
10
0
20
0
0
INSERT
2
STK_TOP_35
8
0
10
-0.95
20
-1.45
0
TEXT
8
SYM_TERMINAL
10
0
20
-3.048
40
1.778
1
1
0
INSERT
2
STK_TOP_35
8
0
10
0.95
20
-1.45
0
TEXT
8
SYM_TERMINAL
10
0
20
-6.096
40
1.778
1
2
0
INSERT
2
STK_TOP_35
8
0
10
0
20
1.45
0
TEXT
8
SYM_TERMINAL
10
0
20
-9.144
40
1.778
1
3
0
ENDBLK
0
BLOCK
2
PART_BODY_BOT_17
8
0
10
0
20
0
3
PART_BODY_BOT_17
70
64
0
POLYLINE
8
PART_BOT_2DLINE_20
66
1
40
0.1
41
0.1
70
1
0
VERTEX
8
PART_BOT_2DLINE_20
10
-0.5
20
0.25
0
VERTEX
8
PART_BOT_2DLINE_20
10
0.5
20
0.25
0
VERTEX
8
PART_BOT_2DLINE_20
10
0.5
20
-0.25
0
VERTEX
8
PART_BOT_2DLINE_20
10
-0.5
20
-0.25
0
SEQEND
0
INSERT
2
SMOOTH_0$1
8
PART_BOT_2DLINE_20
10
-0.5
20
0.25
0
INSERT
2
SMOOTH_0$1
8
PART_BOT_2DLINE_20
10
0.5
20
0.25
0
INSERT
2
SMOOTH_0$1
8
PART_BOT_2DLINE_20
10
0.5
20
-0.25
0
INSERT
2
SMOOTH_0$1
8
PART_BOT_2DLINE_20
10
-0.5
20
-0.25
0
POLYLINE
8
PART_BOT_2DLINE_20
66
1
40
0.1
41
0.1
70
1
0
VERTEX
8
PART_BOT_2DLINE_20
10
-0.5
20
0.25
0
VERTEX
8
PART_BOT_2DLINE_20
10
0.5
20
0.25
0
VERTEX
8
PART_BOT_2DLINE_20
10
0.5
20
-0.25
0
VERTEX
8
PART_BOT_2DLINE_20
10
-0.5
20
-0.25
0
SEQEND
0
INSERT
2
SMOOTH_0$1
8
PART_BOT_2DLINE_20
10
-0.5
20
0.25
0
INSERT
2
SMOOTH_0$1
8
PART_BOT_2DLINE_20
10
0.5
20
0.25
0
INSERT
2
SMOOTH_0$1
8
PART_BOT_2DLINE_20
10
0.5
20
-0.25
0
INSERT
2
SMOOTH_0$1
8
PART_BOT_2DLINE_20
10
-0.5
20
-0.25
0
POLYLINE
8
PART_BOT_2DLINE_01
66
1
40
0.1
41
0.1
70
1
0
VERTEX
8
PART_BOT_2DLINE_01
10
-0.9
20
0.45
0
VERTEX
8
PART_BOT_2DLINE_01
10
0.9
20
0.45
0
VERTEX
8
PART_BOT_2DLINE_01
10
0.9
20
-0.45
0
VERTEX
8
PART_BOT_2DLINE_01
10
-0.9
20
-0.45
0
SEQEND
0
INSERT
2
SMOOTH_0$1
8
PART_BOT_2DLINE_01
10
-0.9
20
0.45
0
INSERT
2
SMOOTH_0$1
8
PART_BOT_2DLINE_01
10
0.9
20
0.45
0
INSERT
2
SMOOTH_0$1
8
PART_BOT_2DLINE_01
10
0.9
20
-0.45
0
INSERT
2
SMOOTH_0$1
8
PART_BOT_2DLINE_01
10
-0.9
20
-0.45
0
ENDBLK
0
BLOCK
2
PART_BODY_BOT_3
8
0
10
0
20
0
3
PART_BODY_BOT_3
70
64
0
POLYLINE
8
PART_BOT_2DLINE_01
66
1
40
0.1
41
0.1
70
1
0
VERTEX
8
PART_BOT_2DLINE_01
10
-2.1
20
1
0
VERTEX
8
PART_BOT_2DLINE_01
10
2.1
20
1
0
VERTEX
8
PART_BOT_2DLINE_01
10
2.1
20
-1
0
VERTEX
8
PART_BOT_2DLINE_01
10
-2.1
20
-1
0
SEQEND
0
INSERT
2
SMOOTH_0$1
8
PART_BOT_2DLINE_01
10
-2.1
20
1
0
INSERT
2
SMOOTH_0$1
8
PART_BOT_2DLINE_01
10
2.1
20
1
0
INSERT
2
SMOOTH_0$1
8
PART_BOT_2DLINE_01
10
2.1
20
-1
0
INSERT
2
SMOOTH_0$1
8
PART_BOT_2DLINE_01
10
-2.1
20
-1
0
POLYLINE
8
PART_BOT_2DLINE_20
66
1
40
0.1
41
0.1
70
1
0
VERTEX
8
PART_BOT_2DLINE_20
10
-1.6
20
-0.8
0
VERTEX
8
PART_BOT_2DLINE_20
10
-1.6
20
0.8
0
VERTEX
8
PART_BOT_2DLINE_20
10
1.6
20
0.8
0
VERTEX
8
PART_BOT_2DLINE_20
10
1.6
20
-0.8
0
SEQEND
0
INSERT
2
SMOOTH_0$1
8
PART_BOT_2DLINE_20
10
-1.6
20
-0.8
0
INSERT
2
SMOOTH_0$1
8
PART_BOT_2DLINE_20
10
-1.6
20
0.8
0
INSERT
2
SMOOTH_0$1
8
PART_BOT_2DLINE_20
10
1.6
20
0.8
0
INSERT
2
SMOOTH_0$1
8
PART_BOT_2DLINE_20
10
1.6
20
-0.8
0
POLYLINE
8
PART_BOT_2DLINE_01
66
1
40
0.1
41
0.1
0
VERTEX
8
PART_BOT_2DLINE_01
10
0
20
1
0
VERTEX
8
PART_BOT_2DLINE_01
10
0
20
0.4
0
SEQEND
0
INSERT
2
SMOOTH_0$1
8
PART_BOT_2DLINE_01
10
0
20
1
0
INSERT
2
SMOOTH_0$1
8
PART_BOT_2DLINE_01
10
0
20
0.4
0
POLYLINE
8
PART_BOT_2DLINE_01
66
1
40
0.1
41
0.1
0
VERTEX
8
PART_BOT_2DLINE_01
10
-0.4
20
0.4
0
VERTEX
8
PART_BOT_2DLINE_01
10
0.4
20
0.4
0
SEQEND
0
INSERT
2
SMOOTH_0$1
8
PART_BOT_2DLINE_01
10
-0.4
20
0.4
0
INSERT
2
SMOOTH_0$1
8
PART_BOT_2DLINE_01
10
0.4
20
0.4
0
POLYLINE
8
PART_BOT_2DLINE_01
66
1
40
0.1
41
0.1
0
VERTEX
8
PART_BOT_2DLINE_01
10
-0.4
20
-0.4
0
VERTEX
8
PART_BOT_2DLINE_01
10
0.4
20
-0.4
0
SEQEND
0
INSERT
2
SMOOTH_0$1
8
PART_BOT_2DLINE_01
10
-0.4
20
-0.4
0
INSERT
2
SMOOTH_0$1
8
PART_BOT_2DLINE_01
10
0.4
20
-0.4
0
POLYLINE
8
PART_BOT_2DLINE_01
66
1
40
0.1
41
0.1
0
VERTEX
8
PART_BOT_2DLINE_01
10
0
20
-0.4
0
VERTEX
8
PART_BOT_2DLINE_01
10
0
20
-1
0
SEQEND
0
INSERT
2
SMOOTH_0$1
8
PART_BOT_2DLINE_01
10
0
20
-0.4
0
INSERT
2
SMOOTH_0$1
8
PART_BOT_2DLINE_01
10
0
20
-1
0
ENDBLK
0
BLOCK
2
STK_BOT_6
8
0
10
0
20
0
3
STK_BOT_6
70
64
0
INSERT
2
DRIL_HOLE_0
8
DRIL_PLTE_THRU_01
10
0
20
0
0
INSERT
2
DRIL_HOLE_0
8
DRIL_PLTE_THRU_02
10
0
20
0
0
INSERT
2
DRIL_HOLE_0
8
DRIL_PLTE_THRU_03
10
0
20
0
0
INSERT
2
DRIL_HOLE_0
8
DRIL_PLTE_THRU_04
10
0
20
0
0
INSERT
2
PAD_0
8
PADS_INNER
10
0
20
0
0
INSERT
2
PAD_9
8
PADS_BOT
10
0
20
0
50
90
0
INSERT
2
PAD_0
8
PADS_TOP
10
0
20
0
0
ENDBLK
0
BLOCK
2
PART_BODY_BOT_37
8
0
10
0
20
0
3
PART_BODY_BOT_37
70
64
0
POLYLINE
8
PART_BOT_2DLINE_00
66
1
40
0.1
41
0.1
0
VERTEX
8
PART_BOT_2DLINE_00
10
-3.75
20
-0.9
0
VERTEX
8
PART_BOT_2DLINE_00
10
-3.75
20
-1.95
0
VERTEX
8
PART_BOT_2DLINE_00
10
3.75
20
-1.95
0
VERTEX
8
PART_BOT_2DLINE_00
10
3.75
20
-0.9
0
SEQEND
0
INSERT
2
SMOOTH_0$1
8
PART_BOT_2DLINE_00
10
-3.75
20
-0.9
0
INSERT
2
SMOOTH_0$1
8
PART_BOT_2DLINE_00
10
-3.75
20
-1.95
0
INSERT
2
SMOOTH_0$1
8
PART_BOT_2DLINE_00
10
3.75
20
-1.95
0
INSERT
2
SMOOTH_0$1
8
PART_BOT_2DLINE_00
10
3.75
20
-0.9
0
POLYLINE
8
PART_BOT_2DLINE_20
66
1
40
0.1
41
0.1
0
VERTEX
8
PART_BOT_2DLINE_20
10
-0.2
20
2.15
0
VERTEX
8
PART_BOT_2DLINE_20
10
0
20
2.15
0
VERTEX
8
PART_BOT_2DLINE_20
10
0
20
2.35
0
SEQEND
0
INSERT
2
SMOOTH_0$1
8
PART_BOT_2DLINE_20
10
-0.2
20
2.15
0
INSERT
2
SMOOTH_0$1
8
PART_BOT_2DLINE_20
10
0
20
2.15
0
INSERT
2
SMOOTH_0$1
8
PART_BOT_2DLINE_20
10
0
20
2.35
0
POLYLINE
8
PART_BOT_2DLINE_00
66
1
40
0.1
41
0.1
0
VERTEX
8
PART_BOT_2DLINE_00
10
-3.75
20
-1.35
0
VERTEX
8
PART_BOT_2DLINE_00
10
3.75
20
-1.35
0
SEQEND
0
INSERT
2
SMOOTH_0$1
8
PART_BOT_2DLINE_00
10
-3.75
20
-1.35
0
INSERT
2
SMOOTH_0$1
8
PART_BOT_2DLINE_00
10
3.75
20
-1.35
0
POLYLINE
8
PART_BOT_2DLINE_00
66
1
40
0.1
41
0.1
0
VERTEX
8
PART_BOT_2DLINE_00
10
-3.35
20
3.3
0
VERTEX
8
PART_BOT_2DLINE_00
10
-3.75
20
3.3
0
VERTEX
8
PART_BOT_2DLINE_00
10
-3.75
20
0
0
SEQEND
0
INSERT
2
SMOOTH_0$1
8
PART_BOT_2DLINE_00
10
-3.35
20
3.3
0
INSERT
2
SMOOTH_0$1
8
PART_BOT_2DLINE_00
10
-3.75
20
3.3
0
INSERT
2
SMOOTH_0$1
8
PART_BOT_2DLINE_00
10
-3.75
20
0
0
POLYLINE
8
PART_BOT_2DLINE_00
66
1
40
0.1
41
0.1
0
VERTEX
8
PART_BOT_2DLINE_00
10
3.35
20
3.3
0
VERTEX
8
PART_BOT_2DLINE_00
10
3.75
20
3.3
0
VERTEX
8
PART_BOT_2DLINE_00
10
3.75
20
0
0
SEQEND
0
INSERT
2
SMOOTH_0$1
8
PART_BOT_2DLINE_00
10
3.35
20
3.3
0
INSERT
2
SMOOTH_0$1
8
PART_BOT_2DLINE_00
10
3.75
20
3.3
0
INSERT
2
SMOOTH_0$1
8
PART_BOT_2DLINE_00
10
3.75
20
0
0
POLYLINE
8
PART_BOT_2DLINE_00
66
1
40
0.1
41
0.1
0
VERTEX
8
PART_BOT_2DLINE_00
10
-1.33
20
3.81
0
VERTEX
8
PART_BOT_2DLINE_00
10
-1.13
20
4.01
0
VERTEX
8
PART_BOT_2DLINE_00
10
-1.53
20
4.01
0
VERTEX
8
PART_BOT_2DLINE_00
10
-1.33
20
3.81
0
SEQEND
0
INSERT
2
SMOOTH_0$1
8
PART_BOT_2DLINE_00
10
-1.33
20
3.81
0
INSERT
2
SMOOTH_0$1
8
PART_BOT_2DLINE_00
10
-1.13
20
4.01
0
INSERT
2
SMOOTH_0$1
8
PART_BOT_2DLINE_00
10
-1.53
20
4.01
0
INSERT
2
SMOOTH_0$1
8
PART_BOT_2DLINE_00
10
-1.33
20
3.81
0
POLYLINE
8
PART_BOT_2DLINE_20
66
1
40
0.1
41
0.1
0
VERTEX
8
PART_BOT_2DLINE_20
10
0.2
20
2.15
0
VERTEX
8
PART_BOT_2DLINE_20
10
0
20
2.15
0
VERTEX
8
PART_BOT_2DLINE_20
10
0
20
1.95
0
SEQEND
0
INSERT
2
SMOOTH_0$1
8
PART_BOT_2DLINE_20
10
0.2
20
2.15
0
INSERT
2
SMOOTH_0$1
8
PART_BOT_2DLINE_20
10
0
20
2.15
0
INSERT
2
SMOOTH_0$1
8
PART_BOT_2DLINE_20
10
0
20
1.95
0
POLYLINE
8
PART_BOT_2DLINE_00
66
1
40
0.1
41
0.1
0
VERTEX
8
PART_BOT_2DLINE_00
10
-3.75
20
-1.95
0
VERTEX
8
PART_BOT_2DLINE_00
10
-4.05
20
-2.25
0
VERTEX
8
PART_BOT_2DLINE_00
10
-3.95
20
-2.25
0
VERTEX
8
PART_BOT_2DLINE_00
10
-3.65
20
-1.95
0
VERTEX
8
PART_BOT_2DLINE_00
10
-3.75
20
-1.95
0
SEQEND
0
INSERT
2
SMOOTH_0$1
8
PART_BOT_2DLINE_00
10
-3.75
20
-1.95
0
INSERT
2
SMOOTH_0$1
8
PART_BOT_2DLINE_00
10
-4.05
20
-2.25
0
INSERT
2
SMOOTH_0$1
8
PART_BOT_2DLINE_00
10
-3.95
20
-2.25
0
INSERT
2
SMOOTH_0$1
8
PART_BOT_2DLINE_00
10
-3.65
20
-1.95
0
INSERT
2
SMOOTH_0$1
8
PART_BOT_2DLINE_00
10
-3.75
20
-1.95
0
POLYLINE
8
PART_BOT_2DLINE_00
66
1
40
0.1
41
0.1
0
VERTEX
8
PART_BOT_2DLINE_00
10
3.75
20
-1.95
0
VERTEX
8
PART_BOT_2DLINE_00
10
4.05
20
-2.25
0
VERTEX
8
PART_BOT_2DLINE_00
10
3.95
20
-2.25
0
VERTEX
8
PART_BOT_2DLINE_00
10
3.65
20
-1.95
0
VERTEX
8
PART_BOT_2DLINE_00
10
3.75
20
-1.95
0
SEQEND
0
INSERT
2
SMOOTH_0$1
8
PART_BOT_2DLINE_00
10
3.75
20
-1.95
0
INSERT
2
SMOOTH_0$1
8
PART_BOT_2DLINE_00
10
4.05
20
-2.25
0
INSERT
2
SMOOTH_0$1
8
PART_BOT_2DLINE_00
10
3.95
20
-2.25
0
INSERT
2
SMOOTH_0$1
8
PART_BOT_2DLINE_00
10
3.65
20
-1.95
0
INSERT
2
SMOOTH_0$1
8
PART_BOT_2DLINE_00
10
3.75
20
-1.95
0
ENDBLK
0
BLOCK
2
STK_BOT_247
8
0
10
0
20
0
3
STK_BOT_247
70
64
0
INSERT
2
DRIL_HOLE_0
8
DRIL_PLTE_THRU_01
10
0
20
0
0
INSERT
2
DRIL_HOLE_0
8
DRIL_PLTE_THRU_02
10
0
20
0
0
INSERT
2
DRIL_HOLE_0
8
DRIL_PLTE_THRU_03
10
0
20
0
0
INSERT
2
DRIL_HOLE_0
8
DRIL_PLTE_THRU_04
10
0
20
0
0
INSERT
2
PAD_0
8
PADS_INNER
10
0
20
0
0
INSERT
2
PAD_10
8
PADS_BOT
10
0
20
0
50
90
0
INSERT
2
PAD_0
8
PADS_TOP
10
0
20
0
0
ENDBLK
0
BLOCK
2
STK_BOT_248
8
0
10
0
20
0
3
STK_BOT_248
70
64
0
INSERT
2
DRIL_HOLE_0
8
DRIL_NPLTE_THRU_01
10
0
20
0
0
INSERT
2
DRIL_HOLE_0
8
DRIL_NPLTE_THRU_02
10
0
20
0
0
INSERT
2
DRIL_HOLE_0
8
DRIL_NPLTE_THRU_03
10
0
20
0
0
INSERT
2
DRIL_HOLE_0
8
DRIL_NPLTE_THRU_04
10
0
20
0
0
INSERT
2
PAD_11
8
PADS_INNER
10
0
20
0
0
INSERT
2
PAD_12
8
PADS_BOT
10
0
20
0
0
INSERT
2
PAD_11
8
PADS_TOP
10
0
20
0
0
ENDBLK
0
BLOCK
2
STK_BOT_249
8
0
10
0
20
0
3
STK_BOT_249
70
64
0
INSERT
2
DRIL_SLOT_0001900062000000900
8
DRIL_PLTE_THRU_01
10
0
20
0
0
INSERT
2
DRIL_SLOT_0001900062000000900
8
DRIL_PLTE_THRU_02
10
0
20
0
0
INSERT
2
DRIL_SLOT_0001900062000000900
8
DRIL_PLTE_THRU_03
10
0
20
0
0
INSERT
2
DRIL_SLOT_0001900062000000900
8
DRIL_PLTE_THRU_04
10
0
20
0
0
INSERT
2
PAD_13
8
PADS_INNER
10
0
20
0
50
90
0
INSERT
2
PAD_13
8
PADS_BOT
10
0
20
0
50
90
0
INSERT
2
PAD_13
8
PADS_TOP
10
0
20
0
50
90
0
ENDBLK
0
BLOCK
2
STK_BOT_250
8
0
10
0
20
0
3
STK_BOT_250
70
64
0
INSERT
2
DRIL_HOLE_0$6
8
DRIL_PLTE_THRU_01
10
0
20
0
0
INSERT
2
DRIL_HOLE_0$6
8
DRIL_PLTE_THRU_02
10
0
20
0
0
INSERT
2
DRIL_HOLE_0$6
8
DRIL_PLTE_THRU_03
10
0
20
0
0
INSERT
2
DRIL_HOLE_0$6
8
DRIL_PLTE_THRU_04
10
0
20
0
0
INSERT
2
PAD_0
8
PADS_INNER
10
0
20
0
0
INSERT
2
PAD_14
8
PADS_BOT
10
0
20
0
0
INSERT
2
PAD_0
8
PADS_TOP
10
0
20
0
0
ENDBLK
0
BLOCK
2
STK_BOT_251
8
0
10
0
20
0
3
STK_BOT_251
70
64
0
INSERT
2
DRIL_HOLE_0
8
DRIL_PLTE_THRU_01
10
0
20
0
0
INSERT
2
DRIL_HOLE_0
8
DRIL_PLTE_THRU_02
10
0
20
0
0
INSERT
2
DRIL_HOLE_0
8
DRIL_PLTE_THRU_03
10
0
20
0
0
INSERT
2
DRIL_HOLE_0
8
DRIL_PLTE_THRU_04
10
0
20
0
0
INSERT
2
PAD_0
8
PADS_INNER
10
0
20
0
0
INSERT
2
PAD_15
8
PADS_BOT
10
0
20
0
0
INSERT
2
PAD_0
8
PADS_TOP
10
0
20
0
0
ENDBLK
0
BLOCK
2
SYM_TOP_21
8
0
10
0
20
0
3
SYM_TOP_21
70
64
0
TEXT
8
SYM_NAME
10
0
20
0
40
1.778
1
USB205FB-C1013201
41
0.75
0
INSERT
2
PART_BODY_TOP_20
8
0
10
0
20
0
0
INSERT
2
STK_TOP_156
8
0
10
-1.3
20
4.025
0
TEXT
8
SYM_TERMINAL
10
0
20
-3.048
40
1.778
1
1
0
INSERT
2
STK_TOP_156
8
0
10
-0.65
20
4.025
0
TEXT
8
SYM_TERMINAL
10
0
20
-6.096
40
1.778
1
2
0
INSERT
2
STK_TOP_156
8
0
10
0
20
4.025
0
TEXT
8
SYM_TERMINAL
10
0
20
-9.144
40
1.778
1
3
0
INSERT
2
STK_TOP_156
8
0
10
0.65
20
4.025
0
TEXT
8
SYM_TERMINAL
10
0
20
-12.192
40
1.778
1
4
0
INSERT
2
STK_TOP_156
8
0
10
1.3
20
4.025
0
TEXT
8
SYM_TERMINAL
10
0
20
-15.24
40
1.778
1
5
0
INSERT
2
STK_TOP_157
8
0
10
-4.825
20
3.3
0
TEXT
8
SYM_TERMINAL
10
0
20
-18.288
40
1.778
1
6
0
INSERT
2
STK_TOP_157
8
0
10
-4.825
20
0
0
TEXT
8
SYM_TERMINAL
10
0
20
-21.336
40
1.778
1
7
0
INSERT
2
STK_TOP_157
8
0
10
4.825
20
0
0
TEXT
8
SYM_TERMINAL
10
0
20
-24.384
40
1.778
1
8
0
INSERT
2
STK_TOP_157
8
0
10
4.825
20
3.3
0
TEXT
8
SYM_TERMINAL
10
0
20
-27.432
40
1.778
1
9
0
ENDBLK
0
BLOCK
2
PART_BODY_BOT_38
8
0
10
0
20
0
3
PART_BODY_BOT_38
70
64
0
POLYLINE
8
PART_BOT_2DLINE_00
66
1
40
0.1
41
0.1
0
VERTEX
8
PART_BOT_2DLINE_00
10
0.75
20
0.775
0
VERTEX
8
PART_BOT_2DLINE_00
10
0.75
20
-0.8
0
SEQEND
0
INSERT
2
SMOOTH_0$1
8
PART_BOT_2DLINE_00
10
0.75
20
0.775
0
INSERT
2
SMOOTH_0$1
8
PART_BOT_2DLINE_00
10
0.75
20
-0.8
0
POLYLINE
8
PART_BOT_2DLINE_00
66
1
40
0.1
41
0.1
0
VERTEX
8
PART_BOT_2DLINE_00
10
0.8
20
0.775
0
VERTEX
8
PART_BOT_2DLINE_00
10
0.8
20
-0.8
0
SEQEND
0
INSERT
2
SMOOTH_0$1
8
PART_BOT_2DLINE_00
10
0.8
20
0.775
0
INSERT
2
SMOOTH_0$1
8
PART_BOT_2DLINE_00
10
0.8
20
-0.8
0
POLYLINE
8
PART_BOT_2DLINE_00
66
1
40
0.1
41
0.1
0
VERTEX
8
PART_BOT_2DLINE_00
10
0.7
20
0.75
0
VERTEX
8
PART_BOT_2DLINE_00
10
0.7
20
-0.8
0
SEQEND
0
INSERT
2
SMOOTH_0$1
8
PART_BOT_2DLINE_00
10
0.7
20
0.75
0
INSERT
2
SMOOTH_0$1
8
PART_BOT_2DLINE_00
10
0.7
20
-0.8
0
POLYLINE
8
PART_BOT_2DLINE_00
66
1
40
0.1
41
0.1
0
VERTEX
8
PART_BOT_2DLINE_00
10
0.6
20
0.75
0
VERTEX
8
PART_BOT_2DLINE_00
10
0.6
20
-0.8
0
SEQEND
0
INSERT
2
SMOOTH_0$1
8
PART_BOT_2DLINE_00
10
0.6
20
0.75
0
INSERT
2
SMOOTH_0$1
8
PART_BOT_2DLINE_00
10
0.6
20
-0.8
0
POLYLINE
8
PART_BOT_2DLINE_00
66
1
40
0.1
41
0.1
0
VERTEX
8
PART_BOT_2DLINE_00
10
0.5
20
0.75
0
VERTEX
8
PART_BOT_2DLINE_00
10
0.5
20
-0.8
0
SEQEND
0
INSERT
2
SMOOTH_0$1
8
PART_BOT_2DLINE_00
10
0.5
20
0.75
0
INSERT
2
SMOOTH_0$1
8
PART_BOT_2DLINE_00
10
0.5
20
-0.8
0
POLYLINE
8
PART_BOT_2DLINE_00
66
1
40
0.1
41
0.1
0
VERTEX
8
PART_BOT_2DLINE_00
10
0.55
20
0.775
0
VERTEX
8
PART_BOT_2DLINE_00
10
0.55
20
-0.8
0
SEQEND
0
INSERT
2
SMOOTH_0$1
8
PART_BOT_2DLINE_00
10
0.55
20
0.775
0
INSERT
2
SMOOTH_0$1
8
PART_BOT_2DLINE_00
10
0.55
20
-0.8
0
POLYLINE
8
PART_BOT_2DLINE_00
66
1
40
0.1
41
0.1
0
VERTEX
8
PART_BOT_2DLINE_00
10
-1.7
20
0.8
0
VERTEX
8
PART_BOT_2DLINE_00
10
1.7
20
0.8
0
SEQEND
0
INSERT
2
SMOOTH_0$1
8
PART_BOT_2DLINE_00
10
-1.7
20
0.8
0
INSERT
2
SMOOTH_0$1
8
PART_BOT_2DLINE_00
10
1.7
20
0.8
0
POLYLINE
8
PART_BOT_2DLINE_00
66
1
40
0.1
41
0.1
0
VERTEX
8
PART_BOT_2DLINE_00
10
-1.7
20
-0.8
0
VERTEX
8
PART_BOT_2DLINE_00
10
1.7
20
-0.8
0
SEQEND
0
INSERT
2
SMOOTH_0$1
8
PART_BOT_2DLINE_00
10
-1.7
20
-0.8
0
INSERT
2
SMOOTH_0$1
8
PART_BOT_2DLINE_00
10
1.7
20
-0.8
0
ENDBLK
0
BLOCK
2
STK_BOT_252
8
0
10
0
20
0
3
STK_BOT_252
70
64
0
INSERT
2
DRIL_HOLE_0
8
DRIL_NPLTE_THRU_01
10
0
20
0
0
INSERT
2
DRIL_HOLE_0
8
DRIL_NPLTE_THRU_02
10
0
20
0
0
INSERT
2
DRIL_HOLE_0
8
DRIL_NPLTE_THRU_03
10
0
20
0
0
INSERT
2
DRIL_HOLE_0
8
DRIL_NPLTE_THRU_04
10
0
20
0
0
INSERT
2
PAD_0
8
PADS_INNER
10
0
20
0
0
INSERT
2
PAD_16
8
PADS_BOT
10
0
20
0
50
90
0
INSERT
2
PAD_0
8
PADS_TOP
10
0
20
0
0
ENDBLK
0
BLOCK
2
PART_BODY_TOP_7
8
0
10
0
20
0
3
PART_BODY_TOP_7
70
64
0
POLYLINE
8
PART_TOP_COPPER_26
66
1
40
0.254
41
0.254
70
1
0
VERTEX
8
PART_TOP_COPPER_26
10
-4
20
6.65
0
VERTEX
8
PART_TOP_COPPER_26
10
4
20
6.65
0
VERTEX
8
PART_TOP_COPPER_26
10
4
20
-5.2
0
VERTEX
8
PART_TOP_COPPER_26
10
-4
20
-5.2
0
SEQEND
0
INSERT
2
SMOOTH_0$254
8
PART_TOP_COPPER_26
10
-4
20
6.65
0
INSERT
2
SMOOTH_0$254
8
PART_TOP_COPPER_26
10
4
20
6.65
0
INSERT
2
SMOOTH_0$254
8
PART_TOP_COPPER_26
10
4
20
-5.2
0
INSERT
2
SMOOTH_0$254
8
PART_TOP_COPPER_26
10
-4
20
-5.2
0
ENDBLK
0
BLOCK
2
STK_TOP_204
8
0
10
0
20
0
3
STK_TOP_204
70
64
0
INSERT
2
DRIL_HOLE_0
8
DRIL_NPLTE_THRU_01
10
0
20
0
0
INSERT
2
DRIL_HOLE_0
8
DRIL_NPLTE_THRU_02
10
0
20
0
0
INSERT
2
DRIL_HOLE_0
8
DRIL_NPLTE_THRU_03
10
0
20
0
0
INSERT
2
DRIL_HOLE_0
8
DRIL_NPLTE_THRU_04
10
0
20
0
0
INSERT
2
PAD_0
8
PADS_INNER
10
0
20
0
0
INSERT
2
PAD_0
8
PADS_BOT
10
0
20
0
0
INSERT
2
PAD_17
8
PADS_TOP
10
0
20
0
0
ENDBLK
0
BLOCK
2
STK_TOP_205
8
0
10
0
20
0
3
STK_TOP_205
70
64
0
INSERT
2
DRIL_HOLE_0
8
DRIL_NPLTE_THRU_01
10
0
20
0
0
INSERT
2
DRIL_HOLE_0
8
DRIL_NPLTE_THRU_02
10
0
20
0
0
INSERT
2
DRIL_HOLE_0
8
DRIL_NPLTE_THRU_03
10
0
20
0
0
INSERT
2
DRIL_HOLE_0
8
DRIL_NPLTE_THRU_04
10
0
20
0
0
INSERT
2
PAD_0
8
PADS_INNER
10
0
20
0
0
INSERT
2
PAD_0
8
PADS_BOT
10
0
20
0
0
INSERT
2
PAD_18
8
PADS_TOP
10
0
20
0
50
90
0
ENDBLK
0
BLOCK
2
STK_TOP_207
8
0
10
0
20
0
3
STK_TOP_207
70
64
0
INSERT
2
DRIL_HOLE_0
8
DRIL_NPLTE_THRU_01
10
0
20
0
0
INSERT
2
DRIL_HOLE_0
8
DRIL_NPLTE_THRU_02
10
0
20
0
0
INSERT
2
DRIL_HOLE_0
8
DRIL_NPLTE_THRU_03
10
0
20
0
0
INSERT
2
DRIL_HOLE_0
8
DRIL_NPLTE_THRU_04
10
0
20
0
0
INSERT
2
PAD_0
8
PADS_INNER
10
0
20
0
0
INSERT
2
PAD_0
8
PADS_BOT
10
0
20
0
0
INSERT
2
PAD_19
8
PADS_TOP
10
0
20
0
0
ENDBLK
0
BLOCK
2
PART_BODY_TOP_16
8
0
10
0
20
0
3
PART_BODY_TOP_16
70
64
0
POLYLINE
8
PART_TOP_2DLINE_01
66
1
40
0.254
41
0.254
70
1
0
VERTEX
8
PART_TOP_2DLINE_01
10
-1.5
20
0.7
0
VERTEX
8
PART_TOP_2DLINE_01
10
1.5
20
0.7
0
VERTEX
8
PART_TOP_2DLINE_01
10
1.5
20
-0.7
0
VERTEX
8
PART_TOP_2DLINE_01
10
-1.5
20
-0.7
0
SEQEND
0
INSERT
2
SMOOTH_0$254
8
PART_TOP_2DLINE_01
10
-1.5
20
0.7
0
INSERT
2
SMOOTH_0$254
8
PART_TOP_2DLINE_01
10
1.5
20
0.7
0
INSERT
2
SMOOTH_0$254
8
PART_TOP_2DLINE_01
10
1.5
20
-0.7
0
INSERT
2
SMOOTH_0$254
8
PART_TOP_2DLINE_01
10
-1.5
20
-0.7
0
ENDBLK
0
BLOCK
2
STK_TOP_35
8
0
10
0
20
0
3
STK_TOP_35
70
64
0
INSERT
2
DRIL_HOLE_0
8
DRIL_PLTE_THRU_01
10
0
20
0
0
INSERT
2
DRIL_HOLE_0
8
DRIL_PLTE_THRU_02
10
0
20
0
0
INSERT
2
DRIL_HOLE_0
8
DRIL_PLTE_THRU_03
10
0
20
0
0
INSERT
2
DRIL_HOLE_0
8
DRIL_PLTE_THRU_04
10
0
20
0
0
INSERT
2
PAD_0
8
PADS_INNER
10
0
20
0
0
INSERT
2
PAD_0
8
PADS_BOT
10
0
20
0
0
INSERT
2
PAD_7
8
PADS_TOP
10
0
20
0
50
90
0
ENDBLK
0
BLOCK
2
PART_BODY_TOP_20
8
0
10
0
20
0
3
PART_BODY_TOP_20
70
64
0
POLYLINE
8
PART_TOP_2DLINE_00
66
1
40
0.1
41
0.1
0
VERTEX
8
PART_TOP_2DLINE_00
10
-3.75
20
-0.9
0
VERTEX
8
PART_TOP_2DLINE_00
10
-3.75
20
-1.95
0
VERTEX
8
PART_TOP_2DLINE_00
10
3.75
20
-1.95
0
VERTEX
8
PART_TOP_2DLINE_00
10
3.75
20
-0.9
0
SEQEND
0
INSERT
2
SMOOTH_0$1
8
PART_TOP_2DLINE_00
10
-3.75
20
-0.9
0
INSERT
2
SMOOTH_0$1
8
PART_TOP_2DLINE_00
10
-3.75
20
-1.95
0
INSERT
2
SMOOTH_0$1
8
PART_TOP_2DLINE_00
10
3.75
20
-1.95
0
INSERT
2
SMOOTH_0$1
8
PART_TOP_2DLINE_00
10
3.75
20
-0.9
0
POLYLINE
8
PART_TOP_2DLINE_20
66
1
40
0.1
41
0.1
0
VERTEX
8
PART_TOP_2DLINE_20
10
-0.2
20
2.15
0
VERTEX
8
PART_TOP_2DLINE_20
10
0
20
2.15
0
VERTEX
8
PART_TOP_2DLINE_20
10
0
20
2.35
0
SEQEND
0
INSERT
2
SMOOTH_0$1
8
PART_TOP_2DLINE_20
10
-0.2
20
2.15
0
INSERT
2
SMOOTH_0$1
8
PART_TOP_2DLINE_20
10
0
20
2.15
0
INSERT
2
SMOOTH_0$1
8
PART_TOP_2DLINE_20
10
0
20
2.35
0
POLYLINE
8
PART_TOP_2DLINE_00
66
1
40
0.1
41
0.1
0
VERTEX
8
PART_TOP_2DLINE_00
10
-3.75
20
-1.35
0
VERTEX
8
PART_TOP_2DLINE_00
10
3.75
20
-1.35
0
SEQEND
0
INSERT
2
SMOOTH_0$1
8
PART_TOP_2DLINE_00
10
-3.75
20
-1.35
0
INSERT
2
SMOOTH_0$1
8
PART_TOP_2DLINE_00
10
3.75
20
-1.35
0
POLYLINE
8
PART_TOP_2DLINE_00
66
1
40
0.1
41
0.1
0
VERTEX
8
PART_TOP_2DLINE_00
10
-3.35
20
3.3
0
VERTEX
8
PART_TOP_2DLINE_00
10
-3.75
20
3.3
0
VERTEX
8
PART_TOP_2DLINE_00
10
-3.75
20
0
0
SEQEND
0
INSERT
2
SMOOTH_0$1
8
PART_TOP_2DLINE_00
10
-3.35
20
3.3
0
INSERT
2
SMOOTH_0$1
8
PART_TOP_2DLINE_00
10
-3.75
20
3.3
0
INSERT
2
SMOOTH_0$1
8
PART_TOP_2DLINE_00
10
-3.75
20
0
0
POLYLINE
8
PART_TOP_2DLINE_00
66
1
40
0.1
41
0.1
0
VERTEX
8
PART_TOP_2DLINE_00
10
3.35
20
3.3
0
VERTEX
8
PART_TOP_2DLINE_00
10
3.75
20
3.3
0
VERTEX
8
PART_TOP_2DLINE_00
10
3.75
20
0
0
SEQEND
0
INSERT
2
SMOOTH_0$1
8
PART_TOP_2DLINE_00
10
3.35
20
3.3
0
INSERT
2
SMOOTH_0$1
8
PART_TOP_2DLINE_00
10
3.75
20
3.3
0
INSERT
2
SMOOTH_0$1
8
PART_TOP_2DLINE_00
10
3.75
20
0
0
POLYLINE
8
PART_TOP_2DLINE_00
66
1
40
0.1
41
0.1
0
VERTEX
8
PART_TOP_2DLINE_00
10
-1.33
20
4.81
0
VERTEX
8
PART_TOP_2DLINE_00
10
-1.13
20
5.01
0
VERTEX
8
PART_TOP_2DLINE_00
10
-1.53
20
5.01
0
VERTEX
8
PART_TOP_2DLINE_00
10
-1.33
20
4.81
0
SEQEND
0
INSERT
2
SMOOTH_0$1
8
PART_TOP_2DLINE_00
10
-1.33
20
4.81
0
INSERT
2
SMOOTH_0$1
8
PART_TOP_2DLINE_00
10
-1.13
20
5.01
0
INSERT
2
SMOOTH_0$1
8
PART_TOP_2DLINE_00
10
-1.53
20
5.01
0
INSERT
2
SMOOTH_0$1
8
PART_TOP_2DLINE_00
10
-1.33
20
4.81
0
POLYLINE
8
PART_TOP_2DLINE_20
66
1
40
0.1
41
0.1
0
VERTEX
8
PART_TOP_2DLINE_20
10
0.2
20
2.15
0
VERTEX
8
PART_TOP_2DLINE_20
10
0
20
2.15
0
VERTEX
8
PART_TOP_2DLINE_20
10
0
20
1.95
0
SEQEND
0
INSERT
2
SMOOTH_0$1
8
PART_TOP_2DLINE_20
10
0.2
20
2.15
0
INSERT
2
SMOOTH_0$1
8
PART_TOP_2DLINE_20
10
0
20
2.15
0
INSERT
2
SMOOTH_0$1
8
PART_TOP_2DLINE_20
10
0
20
1.95
0
POLYLINE
8
PART_TOP_2DLINE_00
66
1
40
0.1
41
0.1
0
VERTEX
8
PART_TOP_2DLINE_00
10
-3.75
20
-1.95
0
VERTEX
8
PART_TOP_2DLINE_00
10
-4.05
20
-2.25
0
VERTEX
8
PART_TOP_2DLINE_00
10
-3.95
20
-2.25
0
VERTEX
8
PART_TOP_2DLINE_00
10
-3.65
20
-1.95
0
VERTEX
8
PART_TOP_2DLINE_00
10
-3.75
20
-1.95
0
SEQEND
0
INSERT
2
SMOOTH_0$1
8
PART_TOP_2DLINE_00
10
-3.75
20
-1.95
0
INSERT
2
SMOOTH_0$1
8
PART_TOP_2DLINE_00
10
-4.05
20
-2.25
0
INSERT
2
SMOOTH_0$1
8
PART_TOP_2DLINE_00
10
-3.95
20
-2.25
0
INSERT
2
SMOOTH_0$1
8
PART_TOP_2DLINE_00
10
-3.65
20
-1.95
0
INSERT
2
SMOOTH_0$1
8
PART_TOP_2DLINE_00
10
-3.75
20
-1.95
0
POLYLINE
8
PART_TOP_2DLINE_00
66
1
40
0.1
41
0.1
0
VERTEX
8
PART_TOP_2DLINE_00
10
3.75
20
-1.95
0
VERTEX
8
PART_TOP_2DLINE_00
10
4.05
20
-2.25
0
VERTEX
8
PART_TOP_2DLINE_00
10
3.95
20
-2.25
0
VERTEX
8
PART_TOP_2DLINE_00
10
3.65
20
-1.95
0
VERTEX
8
PART_TOP_2DLINE_00
10
3.75
20
-1.95
0
SEQEND
0
INSERT
2
SMOOTH_0$1
8
PART_TOP_2DLINE_00
10
3.75
20
-1.95
0
INSERT
2
SMOOTH_0$1
8
PART_TOP_2DLINE_00
10
4.05
20
-2.25
0
INSERT
2
SMOOTH_0$1
8
PART_TOP_2DLINE_00
10
3.95
20
-2.25
0
INSERT
2
SMOOTH_0$1
8
PART_TOP_2DLINE_00
10
3.65
20
-1.95
0
INSERT
2
SMOOTH_0$1
8
PART_TOP_2DLINE_00
10
3.75
20
-1.95
0
ENDBLK
0
BLOCK
2
STK_TOP_156
8
0
10
0
20
0
3
STK_TOP_156
70
64
0
INSERT
2
DRIL_HOLE_0
8
DRIL_PLTE_THRU_01
10
0
20
0
0
INSERT
2
DRIL_HOLE_0
8
DRIL_PLTE_THRU_02
10
0
20
0
0
INSERT
2
DRIL_HOLE_0
8
DRIL_PLTE_THRU_03
10
0
20
0
0
INSERT
2
DRIL_HOLE_0
8
DRIL_PLTE_THRU_04
10
0
20
0
0
INSERT
2
PAD_0
8
PADS_INNER
10
0
20
0
0
INSERT
2
PAD_0
8
PADS_BOT
10
0
20
0
0
INSERT
2
PAD_20
8
PADS_TOP
10
0
20
0
50
90
0
ENDBLK
0
BLOCK
2
STK_TOP_157
8
0
10
0
20
0
3
STK_TOP_157
70
64
0
INSERT
2
DRIL_SLOT_0002300051000000900
8
DRIL_PLTE_THRU_01
10
0
20
0
0
INSERT
2
DRIL_SLOT_0002300051000000900
8
DRIL_PLTE_THRU_02
10
0
20
0
0
INSERT
2
DRIL_SLOT_0002300051000000900
8
DRIL_PLTE_THRU_03
10
0
20
0
0
INSERT
2
DRIL_SLOT_0002300051000000900
8
DRIL_PLTE_THRU_04
10
0
20
0
0
INSERT
2
PAD_13
8
PADS_INNER
10
0
20
0
50
90
0
INSERT
2
PAD_13
8
PADS_BOT
10
0
20
0
50
90
0
INSERT
2
PAD_13
8
PADS_TOP
10
0
20
0
50
90
0
ENDBLK
999
*** POWERPCB  PCB PARAMETER ***
0
BLOCK
2
PCB_PARAMS
8
0
10
0
20
0
3
PCB_PARAMS
70
64
999
 *  1.Job name           2.Backupfile name       3.CursorType
999
 *  4.TearDropFlag       5.HighlighNetsFlag      6.HatchDisplayFlag
999
 *  7.PadsFlag           8.TracksFlag            9.ViasFlag
999
 * 10.CopperFlag        11.LinesFlag            12.TextFlag
999
 * 13.TopComponentFlag  14.BottomComponentFlag  16.ObjectSnapFlags
0
TEXT
8
PCB_PARAMS
10
0
20
-3.048
40
1.778
1
A:=BG96_Module_REV0.1_191216.pcb <> 3 0 1 1 1 1 1 1 1 1 1 1 0 510
999
 *  1.RefDesHeight       2.RefDesWidth           3.DefaultWidth
999
 *  4.VGX                5.VGY                   6.OVR
999
 *  7.HatchGrid          8.ObjectSnapRadius
0
TEXT
8
PCB_PARAMS
10
0
20
-6.096
40
1.778
1
B:=2.54 0.254 0.1 0.1 0.1 0 0.1 5
999
 *  1.ScaleFactor        2.NetAttributeFlags     3.BackupInterval
999
 *  4.WorkingLevel       5.HatchMode             6.HatchDirection
999
 *  7.ConnectionColor    8.BackgroundColor       9.ForegroundColor
999
 * 10.BoardOutlineColor
0
TEXT
8
PCB_PARAMS
10
0
20
-9.144
40
1.778
1
C:=12.2211265564 10002 3 1 0 0 15 0 8 8
999
 * MitreAngle0 - MitreAngle6
0
TEXT
8
PCB_PARAMS
10
0
20
-12.192
40
1.778
1
D:=324000000 324000000 324000000 324000000 324000000 324000000 324000000
999
 * Hatch & Keepout Parameters
0
TEXT
8
PCB_PARAMS
10
0
20
-15.24
40
1.778
1
E:=0.2 0 0 2.54 2 1
999
 * Fanout Parameters
0
TEXT
8
PCB_PARAMS
10
0
20
-18.288
40
1.778
1
F:=0.635 0.635 6.35 1 2 0 1 1 0 0 1 1 1 1
999
 * Pad Entry Parameters
0
TEXT
8
PCB_PARAMS
10
0
20
-21.336
40
1.778
1
P:= 1 1 1 1
999
 * DFF Parameters
0
TEXT
8
PCB_PARAMS
10
0
20
-24.384
40
1.778
1
Q:=89.9999 3967 114300 114300 114300 5 4 114300 114300 114300 114300 1 114300 1 114300 1 114300 0
0
ENDBLK
0
BLOCK
2
DRIL_SYMBOL_0
8
0
10
0
20
0
3
DRIL_SYMBOL_0
70
64
0
ENDBLK
0
BLOCK
2
DRIL_SYMBOL_0$5
8
0
10
0
20
0
3
DRIL_SYMBOL_0$5
70
64
0
POLYLINE
8
DRIL_SYMBOL
66
1
40
0.0508
41
0.0508
0
VERTEX
8
DRIL_SYMBOL
10
0
20
-0.254
0
VERTEX
8
DRIL_SYMBOL
10
0
20
0.254
0
SEQEND
0
POLYLINE
8
DRIL_SYMBOL
66
1
40
0.0508
41
0.0508
0
VERTEX
8
DRIL_SYMBOL
10
-0.254
20
0
0
VERTEX
8
DRIL_SYMBOL
10
0.254
20
0
0
SEQEND
0
ENDBLK
0
BLOCK
2
DRIL_SYMBOL_0$6
8
0
10
0
20
0
3
DRIL_SYMBOL_0$6
70
64
0
POLYLINE
8
DRIL_SYMBOL
66
1
40
0.0508
41
0.0508
0
VERTEX
8
DRIL_SYMBOL
10
0
20
-0.254
0
VERTEX
8
DRIL_SYMBOL
10
0
20
0.254
0
SEQEND
0
POLYLINE
8
DRIL_SYMBOL
66
1
40
0.0508
41
0.0508
0
VERTEX
8
DRIL_SYMBOL
10
-0.254
20
0
0
VERTEX
8
DRIL_SYMBOL
10
0.254
20
0
0
SEQEND
0
ENDBLK
999
*** POWERPCB  SMOOTH CIRCLE ***
0
BLOCK
2
SMOOTH_0$1
8
0
10
0
20
0
3
SMOOTH_0$1
70
64
0
POLYLINE
8
0
66
1
40
0.05
41
0.05
70
1
0
VERTEX
8
0
10
-0.025
20
0
42
1
0
VERTEX
8
0
10
0.025
20
0
42
1
0
SEQEND
0
ENDBLK
0
BLOCK
2
SMOOTH_0$254
8
0
10
0
20
0
3
SMOOTH_0$254
70
64
0
POLYLINE
8
0
66
1
40
0.127
41
0.127
70
1
0
VERTEX
8
0
10
-0.0635
20
0
42
1
0
VERTEX
8
0
10
0.0635
20
0
42
1
0
SEQEND
0
ENDBLK
0
BLOCK
2
PAD_0
8
0
10
0
20
0
3
PAD_0
70
64
0
POLYLINE
8
0
70
1
66
1
0
VERTEX
8
0
10
0
20
0
42
1
0
VERTEX
8
0
10
0
20
0
42
1
0
SEQEND
0
ENDBLK
0
BLOCK
2
PAD_1
8
0
10
0
20
0
3
PAD_1
70
64
0
POLYLINE
8
0
66
1
40
0.5
41
0.5
0
VERTEX
8
0
10
-0.25
20
0
0
VERTEX
8
0
10
0.25
20
0
0
SEQEND
0
ENDBLK
0
BLOCK
2
PAD_2
8
0
10
0
20
0
3
PAD_2
70
64
0
POLYLINE
8
0
66
1
40
0.9
41
0.9
0
VERTEX
8
0
10
-0.6
20
0
0
VERTEX
8
0
10
0.6
20
0
0
SEQEND
0
ENDBLK
0
BLOCK
2
PAD_3
8
0
10
0
20
0
3
PAD_3
70
64
0
POLYLINE
8
0
66
1
40
0.65
41
0.65
0
VERTEX
8
0
10
-0.575
20
0
0
VERTEX
8
0
10
0.575
20
0
0
SEQEND
0
ENDBLK
0
BLOCK
2
PAD_4
8
0
10
0
20
0
3
PAD_4
70
64
0
POLYLINE
8
0
66
1
40
0.45
41
0.45
0
VERTEX
8
0
10
-0.65
20
0
0
VERTEX
8
0
10
0.65
20
0
0
SEQEND
0
ENDBLK
0
BLOCK
2
PAD_5
8
0
10
0
20
0
3
PAD_5
70
64
0
POLYLINE
8
0
66
1
40
1.4
41
1.4
0
VERTEX
8
0
10
-0.85
20
0
0
VERTEX
8
0
10
0.85
20
0
0
SEQEND
0
ENDBLK
0
BLOCK
2
PAD_6
8
0
10
0
20
0
3
PAD_6
70
64
0
POLYLINE
8
0
66
1
40
0.5
41
0.5
0
VERTEX
8
0
10
-0.4
20
0
0
VERTEX
8
0
10
0.4
20
0
0
SEQEND
0
ENDBLK
0
BLOCK
2
PAD_7
8
0
10
0
20
0
3
PAD_7
70
64
0
POLYLINE
8
0
66
1
40
0.8
41
0.8
0
VERTEX
8
0
10
-0.45
20
0
0
VERTEX
8
0
10
0.45
20
0
0
SEQEND
0
ENDBLK
0
BLOCK
2
PAD_8
8
0
10
0
20
0
3
PAD_8
70
64
0
POLYLINE
8
0
66
1
40
0.5
41
0.5
0
VERTEX
8
0
10
-0.35
20
0
0
VERTEX
8
0
10
0.35
20
0
0
SEQEND
0
ENDBLK
0
BLOCK
2
PAD_9
8
0
10
0
20
0
3
PAD_9
70
64
0
POLYLINE
8
0
66
1
40
1.2
41
1.2
0
VERTEX
8
0
10
-0.8
20
0
0
VERTEX
8
0
10
0.8
20
0
0
SEQEND
0
ENDBLK
0
BLOCK
2
PAD_10
8
0
10
0
20
0
3
PAD_10
70
64
0
POLYLINE
8
0
66
1
40
0.4
41
0.4
0
VERTEX
8
0
10
-0.725
20
0
0
VERTEX
8
0
10
0.725
20
0
0
SEQEND
0
ENDBLK
0
BLOCK
2
PAD_11
8
0
10
0
20
0
3
PAD_11
70
64
0
POLYLINE
8
0
66
1
0
VERTEX
8
0
10
0
20
0
0
VERTEX
8
0
10
0
20
0
0
SEQEND
0
ENDBLK
0
BLOCK
2
PAD_12
8
0
10
0
20
0
3
PAD_12
70
64
0
POLYLINE
8
0
66
1
40
1
41
1
0
VERTEX
8
0
10
-0.7
20
0
0
VERTEX
8
0
10
0.7
20
0
0
SEQEND
0
ENDBLK
0
BLOCK
2
PAD_13
8
0
10
0
20
0
3
PAD_13
70
64
0
POLYLINE
8
0
70
1
66
1
40
0.7
41
0.7
0
VERTEX
8
0
10
-0.45
20
-0.35
0
VERTEX
8
0
10
0.45
20
-0.35
42
1
0
VERTEX
8
0
10
0.45
20
0.35
0
VERTEX
8
0
10
-0.45
20
0.35
42
1
0
SEQEND
0
ENDBLK
0
BLOCK
2
PAD_14
8
0
10
0
20
0
3
PAD_14
70
64
0
POLYLINE
8
0
70
1
66
1
40
0.15
41
0.15
0
VERTEX
8
0
10
0
20
-0.075
42
1
0
VERTEX
8
0
10
0
20
0.075
42
1
0
SEQEND
0
ENDBLK
0
BLOCK
2
PAD_15
8
0
10
0
20
0
3
PAD_15
70
64
0
POLYLINE
8
0
66
1
40
1.9
41
1.9
0
VERTEX
8
0
10
-0.95
20
0
0
VERTEX
8
0
10
0.95
20
0
0
SEQEND
0
ENDBLK
0
BLOCK
2
PAD_16
8
0
10
0
20
0
3
PAD_16
70
64
0
POLYLINE
8
0
66
1
40
0.9
41
0.9
0
VERTEX
8
0
10
-0.65
20
0
0
VERTEX
8
0
10
0.65
20
0
0
SEQEND
0
ENDBLK
0
BLOCK
2
PAD_17
8
0
10
0
20
0
3
PAD_17
70
64
0
POLYLINE
8
0
66
1
40
0.6
41
0.6
0
VERTEX
8
0
10
-0.4
20
0
0
VERTEX
8
0
10
0.4
20
0
0
SEQEND
0
ENDBLK
0
BLOCK
2
PAD_18
8
0
10
0
20
0
3
PAD_18
70
64
0
POLYLINE
8
0
66
1
40
1
41
1
0
VERTEX
8
0
10
-1.15
20
0
0
VERTEX
8
0
10
1.15
20
0
0
SEQEND
0
ENDBLK
0
BLOCK
2
PAD_19
8
0
10
0
20
0
3
PAD_19
70
64
0
POLYLINE
8
0
66
1
40
1
41
1
0
VERTEX
8
0
10
-0.55
20
0
0
VERTEX
8
0
10
0.55
20
0
0
SEQEND
0
ENDBLK
0
BLOCK
2
PAD_20
8
0
10
0
20
0
3
PAD_20
70
64
0
POLYLINE
8
0
66
1
40
0.4
41
0.4
0
VERTEX
8
0
10
-0.65
20
0
0
VERTEX
8
0
10
0.65
20
0
0
SEQEND
0
ENDBLK
999
*** POWERPCB  DRILL HOLE ***
0
BLOCK
2
DRIL_HOLE_0
8
0
10
0
20
0
3
DRIL_HOLE_0
70
64
0
POLYLINE
8
0
66
1
70
1
0
VERTEX
8
0
10
0
20
0
42
1
0
VERTEX
8
0
10
0
20
0
42
1
0
SEQEND
0
INSERT
2
DRIL_SYMBOL_0
8
0
10
0
20
0
0
ENDBLK
0
BLOCK
2
DRIL_HOLE_0$5
8
0
10
0
20
0
3
DRIL_HOLE_0$5
70
64
0
POLYLINE
8
0
66
1
40
0.25
41
0.25
70
1
0
VERTEX
8
0
10
-0.125
20
0
42
1
0
VERTEX
8
0
10
0.125
20
0
42
1
0
SEQEND
0
INSERT
2
DRIL_SYMBOL_0$5
8
0
10
0
20
0
0
ENDBLK
0
BLOCK
2
DRIL_HOLE_0$6
8
0
10
0
20
0
3
DRIL_HOLE_0$6
70
64
0
POLYLINE
8
0
66
1
40
0.3
41
0.3
70
1
0
VERTEX
8
0
10
-0.15
20
0
42
1
0
VERTEX
8
0
10
0.15
20
0
42
1
0
SEQEND
0
INSERT
2
DRIL_SYMBOL_0$6
8
0
10
0
20
0
0
ENDBLK
0
BLOCK
2
DRIL_SLOT_0001900062000000900
8
0
10
0
20
0
3
DRIL_SLOT_0001900062000000900
70
64
0
POLYLINE
8
0
70
1
66
1
40
0.25
41
0.25
0
VERTEX
8
0
10
0.125
20
-0.55
0
VERTEX
8
0
10
0.125
20
0.55
42
1
0
VERTEX
8
0
10
-0.125
20
0.55
0
VERTEX
8
0
10
-0.125
20
-0.55
42
1
0
SEQEND
0
ENDBLK
0
BLOCK
2
DRIL_SLOT_0002300051000000900
8
0
10
0
20
0
3
DRIL_SLOT_0002300051000000900
70
64
0
POLYLINE
8
0
70
1
66
1
40
0.3
41
0.3
0
VERTEX
8
0
10
0.15
20
-0.35
0
VERTEX
8
0
10
0.15
20
0.35
42
1
0
VERTEX
8
0
10
-0.15
20
0.35
0
VERTEX
8
0
10
-0.15
20
-0.35
42
1
0
SEQEND
0
ENDBLK
0
ENDSEC
0
SECTION
2
ENTITIES
999
*** POWERPCB  DBLAYER ***
0
INSERT
2
DBLAYERS
8
0
10
0
20
0
999
*** POWERPCB  BOARD ***
0
INSERT
2
BOARD_27
8
0
10
7
20
0
999
*** POWERPCB  2DLINE ***
999
*** POWERPCB  COMPONENT ***
0
INSERT
2
PART_BOT_5
8
0
10
15.5
20
17
41
-1
0
INSERT
2
PART_BOT_13
8
0
10
8.2
20
27.4
41
-1
0
INSERT
2
PART_BOT_16
8
0
10
20.5
20
16.8
50
-180
41
-1
0
INSERT
2
PART_BOT_17
8
0
10
7.7
20
31
50
-270
41
-1
0
INSERT
2
PART_BOT_19
8
0
10
18.3
20
18.6
41
-1
0
INSERT
2
PART_BOT_20
8
0
10
24.3
20
18.2
50
-180
41
-1
0
INSERT
2
PART_BOT_22
8
0
10
9.3
20
31.4
50
-270
41
-1
0
INSERT
2
PART_BOT_32
8
0
10
19
20
15.5
50
-270
41
-1
0
INSERT
2
PART_BOT_35
8
0
10
30.5
20
34
50
-180
41
-1
0
INSERT
2
PART_BOT_36
8
0
10
20.5
20
17.9
50
-180
41
-1
0
INSERT
2
PART_BOT_41
8
0
10
24.3
20
16.9
50
-180
41
-1
0
INSERT
2
PART_BOT_42
8
0
10
18.3
20
17.5
41
-1
0
INSERT
2
PART_BOT_44
8
0
10
8.4
20
34
50
-180
41
-1
0
INSERT
2
PART_BOT_45
8
0
10
3.6
20
40
50
-180
41
-1
0
INSERT
2
PART_BOT_48
8
0
10
1.9
20
26.1
41
-1
0
INSERT
2
PART_BOT_49
8
0
10
4.8
20
26.1
41
-1
0
INSERT
2
PART_BOT_50
8
0
10
8.1
20
25.6
50
-90
41
-1
0
INSERT
2
PART_BOT_52
8
0
10
1.9
20
24.2
41
-1
0
INSERT
2
PART_BOT_53
8
0
10
4.8
20
24.2
41
-1
0
INSERT
2
PART_BOT_54
8
0
10
30.5
20
41.2
41
-1
0
INSERT
2
PART_BOT_55
8
0
10
30.5
20
39
50
-180
41
-1
0
INSERT
2
PART_BOT_56
8
0
10
30.5
20
37.9
50
-180
41
-1
0
INSERT
2
PART_BOT_57
8
0
10
30.5
20
36.8
50
-180
41
-1
0
INSERT
2
PART_BOT_58
8
0
10
10.5
20
32.3
50
-270
41
-1
0
INSERT
2
PART_BOT_59
8
0
10
30.5
20
32.9
41
-1
0
INSERT
2
PART_BOT_61
8
0
10
30.5
20
31.8
41
-1
0
INSERT
2
PART_BOT_62
8
0
10
30.5
20
29.6
41
-1
0
INSERT
2
PART_BOT_63
8
0
10
30.5
20
28.5
50
-180
41
-1
0
INSERT
2
PART_BOT_64
8
0
10
30.5
20
27.4
50
-180
41
-1
0
INSERT
2
PART_BOT_65
8
0
10
30.5
20
26.3
50
-180
41
-1
0
INSERT
2
PART_BOT_66
8
0
10
8
20
22.8
50
-180
41
-1
0
INSERT
2
PART_BOT_67
8
0
10
8
20
23.9
50
-180
41
-1
0
INSERT
2
PART_BOT_73
8
0
10
20.5
20
19.1
41
-1
0
INSERT
2
PART_BOT_74
8
0
10
7.5
20
35.9
50
-90
41
-1
0
INSERT
2
PART_BOT_77
8
0
10
8.6
20
35.9
50
-270
41
-1
0
INSERT
2
PART_BOT_81
8
0
10
1.9
20
23.1
41
-1
0
INSERT
2
PART_BOT_82
8
0
10
4.8
20
23.1
41
-1
0
INSERT
2
PART_BOT_84
8
0
10
30.5
20
40.1
41
-1
0
INSERT
2
PART_BOT_93
8
0
10
11.3
20
21
41
-1
0
INSERT
2
PART_BOT_94
8
0
10
10.7
20
8.7
50
-270
41
-1
0
INSERT
2
PART_BOT_96
8
0
10
1.8
20
34.3
50
-90
41
-1
0
INSERT
2
PART_BOT_97
8
0
10
4.6
20
29.1
41
-1
999
*** POWERPCB  PCB PARAMETER ***
0
INSERT
2
PCB_PARAMS
8
0
10
0
20
0
0
ENDSEC
0
EOF
